M48
; Koe STAGE 85x55mm ESP32-S3 + PCM1808
FMAT,2
METRIC,TZ
T1C3.200
T2C0.300
%
T1
X4.000Y4.000
X81.000Y4.000
X4.000Y51.000
X81.000Y51.000
T2
X15.000Y10.000
X25.000Y10.000
X35.000Y10.000
X45.000Y10.000
X55.000Y10.000
X10.000Y15.000
X30.000Y15.000
X50.000Y15.000
X70.000Y15.000
X10.000Y40.000
X30.000Y40.000
X50.000Y40.000
X70.000Y40.000
X26.000Y25.000
X26.000Y30.000
X35.000Y20.000
X35.000Y35.000
X60.000Y25.000
X60.000Y35.000
X60.000Y45.000
X8.000Y8.000
X77.000Y8.000
X8.000Y47.000
X77.000Y47.000
M30
