%FSLAX46Y46*%
%MOMM*%
G04 Koe STAGE F.SilkS*
%LPD*%
%ADD10C,0.100*%
D10*
X26000000Y14750000D02*
X44000000Y14750000D01*
D10*
X44000000Y14750000D02*
X44000000Y40250000D01*
D10*
X44000000Y40250000D02*
X26000000Y40250000D01*
D10*
X26000000Y40250000D02*
X26000000Y14750000D01*
D10*
X13000000Y22500000D02*
X19000000Y22500000D01*
D10*
X19000000Y22500000D02*
X19000000Y32500000D01*
D10*
X19000000Y32500000D02*
X13000000Y32500000D01*
D10*
X13000000Y32500000D02*
X13000000Y22500000D01*
D10*
X61750000Y8250000D02*
X68250000Y8250000D01*
D10*
X68250000Y8250000D02*
X68250000Y11750000D01*
D10*
X68250000Y11750000D02*
X61750000Y11750000D01*
D10*
X61750000Y11750000D02*
X61750000Y8250000D01*
D10*
X70500000Y46500000D02*
X73500000Y46500000D01*
D10*
X73500000Y46500000D02*
X73500000Y49500000D01*
D10*
X73500000Y49500000D02*
X70500000Y49500000D01*
D10*
X70500000Y49500000D02*
X70500000Y46500000D01*
D10*
X8500000Y46500000D02*
X11500000Y46500000D01*
D10*
X11500000Y46500000D02*
X11500000Y49500000D01*
D10*
X11500000Y49500000D02*
X8500000Y49500000D01*
D10*
X8500000Y49500000D02*
X8500000Y46500000D01*
D10*
X68325000Y51400000D02*
X75675000Y51400000D01*
D10*
X75675000Y51400000D02*
X75675000Y54600000D01*
D10*
X75675000Y54600000D02*
X68325000Y54600000D01*
D10*
X68325000Y54600000D02*
X68325000Y51400000D01*
D10*
X9000000Y21500000D02*
X9000000Y33500000D01*
D10*
X9000000Y33500000D02*
X3000000Y33500000D01*
D10*
X3000000Y33500000D02*
X3000000Y21500000D01*
D10*
X3000000Y21500000D02*
X9000000Y21500000D01*
D10*
X64000000Y18250000D02*
X80000000Y18250000D01*
D10*
X80000000Y18250000D02*
X80000000Y31750000D01*
D10*
X80000000Y31750000D02*
X64000000Y31750000D01*
D10*
X64000000Y31750000D02*
X64000000Y18250000D01*
D10*
X82000000Y31825000D02*
X82000000Y38175000D01*
D10*
X82000000Y38175000D02*
X78000000Y38175000D01*
D10*
X78000000Y38175000D02*
X78000000Y31825000D01*
D10*
X78000000Y31825000D02*
X82000000Y31825000D01*
D10*
X82000000Y41825000D02*
X82000000Y48175000D01*
D10*
X82000000Y48175000D02*
X78000000Y48175000D01*
D10*
X78000000Y48175000D02*
X78000000Y41825000D01*
D10*
X78000000Y41825000D02*
X82000000Y41825000D01*
D10*
X1500000Y5500000D02*
X10500000Y5500000D01*
D10*
X10500000Y5500000D02*
X10500000Y14500000D01*
D10*
X10500000Y14500000D02*
X1500000Y14500000D01*
D10*
X1500000Y14500000D02*
X1500000Y5500000D01*
D10*
X40000000Y3500000D02*
X45000000Y3500000D01*
D10*
X45000000Y3500000D02*
X45000000Y8500000D01*
D10*
X45000000Y8500000D02*
X40000000Y8500000D01*
D10*
X40000000Y8500000D02*
X40000000Y3500000D01*
D10*
X47500000Y3500000D02*
X52500000Y3500000D01*
D10*
X52500000Y3500000D02*
X52500000Y8500000D01*
D10*
X52500000Y8500000D02*
X47500000Y8500000D01*
D10*
X47500000Y8500000D02*
X47500000Y3500000D01*
D10*
X55000000Y3500000D02*
X60000000Y3500000D01*
D10*
X60000000Y3500000D02*
X60000000Y8500000D01*
D10*
X60000000Y8500000D02*
X55000000Y8500000D01*
D10*
X55000000Y8500000D02*
X55000000Y3500000D01*
D10*
X25000000Y3000000D02*
X31000000Y3000000D01*
D10*
X31000000Y3000000D02*
X31000000Y9000000D01*
D10*
X31000000Y9000000D02*
X25000000Y9000000D01*
D10*
X25000000Y9000000D02*
X25000000Y3000000D01*
D10*
X15000000Y3000000D02*
X21000000Y3000000D01*
D10*
X21000000Y3000000D02*
X21000000Y9000000D01*
D10*
X21000000Y9000000D02*
X15000000Y9000000D01*
D10*
X15000000Y9000000D02*
X15000000Y3000000D01*
D10*
X2200000Y2200000D02*
X5800000Y2200000D01*
D10*
X5800000Y2200000D02*
X5800000Y5800000D01*
D10*
X5800000Y5800000D02*
X2200000Y5800000D01*
D10*
X2200000Y5800000D02*
X2200000Y2200000D01*
D10*
X79200000Y2200000D02*
X82800000Y2200000D01*
D10*
X82800000Y2200000D02*
X82800000Y5800000D01*
D10*
X82800000Y5800000D02*
X79200000Y5800000D01*
D10*
X79200000Y5800000D02*
X79200000Y2200000D01*
D10*
X2200000Y49200000D02*
X5800000Y49200000D01*
D10*
X5800000Y49200000D02*
X5800000Y52800000D01*
D10*
X5800000Y52800000D02*
X2200000Y52800000D01*
D10*
X2200000Y52800000D02*
X2200000Y49200000D01*
D10*
X79200000Y49200000D02*
X82800000Y49200000D01*
D10*
X82800000Y49200000D02*
X82800000Y52800000D01*
D10*
X82800000Y52800000D02*
X79200000Y52800000D01*
D10*
X79200000Y52800000D02*
X79200000Y49200000D01*
D10*
X48600000Y9350000D02*
X51400000Y9350000D01*
D10*
X51400000Y9350000D02*
X51400000Y10650000D01*
D10*
X51400000Y10650000D02*
X48600000Y10650000D01*
D10*
X48600000Y10650000D02*
X48600000Y9350000D01*
D10*
X18600000Y9350000D02*
X21400000Y9350000D01*
D10*
X21400000Y9350000D02*
X21400000Y10650000D01*
D10*
X21400000Y10650000D02*
X18600000Y10650000D01*
D10*
X18600000Y10650000D02*
X18600000Y9350000D01*
D10*
X65200000Y49600000D02*
X66800000Y49600000D01*
D10*
X66800000Y49600000D02*
X66800000Y50400000D01*
D10*
X66800000Y50400000D02*
X65200000Y50400000D01*
D10*
X65200000Y50400000D02*
X65200000Y49600000D01*
D10*
X77200000Y49600000D02*
X78800000Y49600000D01*
D10*
X78800000Y49600000D02*
X78800000Y50400000D01*
D10*
X78800000Y50400000D02*
X77200000Y50400000D01*
D10*
X77200000Y50400000D02*
X77200000Y49600000D01*
D10*
X9200000Y21600000D02*
X10800000Y21600000D01*
D10*
X10800000Y21600000D02*
X10800000Y22400000D01*
D10*
X10800000Y22400000D02*
X9200000Y22400000D01*
D10*
X9200000Y22400000D02*
X9200000Y21600000D01*
D10*
X9200000Y32600000D02*
X10800000Y32600000D01*
D10*
X10800000Y32600000D02*
X10800000Y33400000D01*
D10*
X10800000Y33400000D02*
X9200000Y33400000D01*
D10*
X9200000Y33400000D02*
X9200000Y32600000D01*
D10*
X47200000Y13600000D02*
X48800000Y13600000D01*
D10*
X48800000Y13600000D02*
X48800000Y14400000D01*
D10*
X48800000Y14400000D02*
X47200000Y14400000D01*
D10*
X47200000Y14400000D02*
X47200000Y13600000D01*
D10*
X47200000Y16600000D02*
X48800000Y16600000D01*
D10*
X48800000Y16600000D02*
X48800000Y17400000D01*
D10*
X48800000Y17400000D02*
X47200000Y17400000D01*
D10*
X47200000Y17400000D02*
X47200000Y16600000D01*
D10*
X34200000Y5600000D02*
X35800000Y5600000D01*
D10*
X35800000Y5600000D02*
X35800000Y6400000D01*
D10*
X35800000Y6400000D02*
X34200000Y6400000D01*
D10*
X34200000Y6400000D02*
X34200000Y5600000D01*
D10*
X23200000Y17600000D02*
X24800000Y17600000D01*
D10*
X24800000Y17600000D02*
X24800000Y18400000D01*
D10*
X24800000Y18400000D02*
X23200000Y18400000D01*
D10*
X23200000Y18400000D02*
X23200000Y17600000D01*
D10*
X22900000Y37400000D02*
X25100000Y37400000D01*
D10*
X25100000Y37400000D02*
X25100000Y38600000D01*
D10*
X25100000Y38600000D02*
X22900000Y38600000D01*
D10*
X22900000Y38600000D02*
X22900000Y37400000D01*
D10*
X43200000Y42600000D02*
X44800000Y42600000D01*
D10*
X44800000Y42600000D02*
X44800000Y43400000D01*
D10*
X44800000Y43400000D02*
X43200000Y43400000D01*
D10*
X43200000Y43400000D02*
X43200000Y42600000D01*
D10*
X42900000Y45400000D02*
X45100000Y45400000D01*
D10*
X45100000Y45400000D02*
X45100000Y46600000D01*
D10*
X45100000Y46600000D02*
X42900000Y46600000D01*
D10*
X42900000Y46600000D02*
X42900000Y45400000D01*
D10*
X53600000Y6250000D02*
X56400000Y6250000D01*
D10*
X56400000Y6250000D02*
X56400000Y7750000D01*
D10*
X56400000Y7750000D02*
X53600000Y7750000D01*
D10*
X53600000Y7750000D02*
X53600000Y6250000D01*
D10*
X63600000Y6250000D02*
X66400000Y6250000D01*
D10*
X66400000Y6250000D02*
X66400000Y7750000D01*
D10*
X66400000Y7750000D02*
X63600000Y7750000D01*
D10*
X63600000Y7750000D02*
X63600000Y6250000D01*
D10*
X15200000Y19600000D02*
X16800000Y19600000D01*
D10*
X16800000Y19600000D02*
X16800000Y20400000D01*
D10*
X16800000Y20400000D02*
X15200000Y20400000D01*
D10*
X15200000Y20400000D02*
X15200000Y19600000D01*
D10*
X14900000Y34400000D02*
X17100000Y34400000D01*
D10*
X17100000Y34400000D02*
X17100000Y35600000D01*
D10*
X17100000Y35600000D02*
X14900000Y35600000D01*
D10*
X14900000Y35600000D02*
X14900000Y34400000D01*
D10*
X22400000Y24200000D02*
X22400000Y25800000D01*
D10*
X22400000Y25800000D02*
X21600000Y25800000D01*
D10*
X21600000Y25800000D02*
X21600000Y24200000D01*
D10*
X21600000Y24200000D02*
X22400000Y24200000D01*
D10*
X22400000Y29200000D02*
X22400000Y30800000D01*
D10*
X22400000Y30800000D02*
X21600000Y30800000D01*
D10*
X21600000Y30800000D02*
X21600000Y29200000D01*
D10*
X21600000Y29200000D02*
X22400000Y29200000D01*
D10*
X70900000Y43400000D02*
X73100000Y43400000D01*
D10*
X73100000Y43400000D02*
X73100000Y44600000D01*
D10*
X73100000Y44600000D02*
X70900000Y44600000D01*
D10*
X70900000Y44600000D02*
X70900000Y43400000D01*
D10*
X71200000Y40600000D02*
X72800000Y40600000D01*
D10*
X72800000Y40600000D02*
X72800000Y41400000D01*
D10*
X72800000Y41400000D02*
X71200000Y41400000D01*
D10*
X71200000Y41400000D02*
X71200000Y40600000D01*
M02*
