<?xml version="1.0" encoding="UTF-8"?>
<svg xmlns="http://www.w3.org/2000/svg" width="800" height="760">
<defs>
  <linearGradient id="pcb" x1="0%" y1="0%" x2="100%" y2="100%">
    <stop offset="0%" stop-color="#0d5c0d"/><stop offset="100%" stop-color="#063806"/>
  </linearGradient>
  <filter id="sh"><feDropShadow dx="1" dy="2" stdDeviation="2" flood-opacity="0.4"/></filter>
  <pattern id="grid" width="10.16" height="10.16" patternUnits="userSpaceOnUse">
    <path d="M 10.16 0 L 0 0 0 10.16" fill="none" stroke="#1a3a1a" stroke-width="0.3"/>
  </pattern>
</defs>
<rect width="800" height="760" fill="#0d0d14"/>

<!-- Title -->
<text x="400" y="18" text-anchor="middle" fill="#e0e0e0" font-family="Helvetica,sans-serif" font-size="15" font-weight="600">Koe STAGE v1 — ESP32-S3 + PCM1808 Festival Bridge</text>
<text x="400" y="35" text-anchor="middle" fill="#888" font-family="sans-serif" font-size="10">85x55mm | 4-layer FR-4 | PA Line-In → WiFi UDP + BLE Auracast</text>

<!-- Board shadow -->
<rect x="63" y="83" width="680.0" height="440.0" rx="4" fill="#000" opacity="0.35"/>
<!-- Board -->
<rect x="60" y="80" width="680.0" height="440.0" rx="3" fill="url(#pcb)" stroke="#c8a83e" stroke-width="1.5"/>
<!-- Grid overlay -->
<rect x="60" y="80" width="680.0" height="440.0" rx="3" fill="url(#grid)" opacity="0.15"/>
<circle cx="92.0" cy="112.0" r="14.8" fill="#1a1a1a" stroke="#888" stroke-width="1"/>
<circle cx="92.0" cy="112.0" r="10.8" fill="#0d0d14"/>
<circle cx="708.0" cy="112.0" r="14.8" fill="#1a1a1a" stroke="#888" stroke-width="1"/>
<circle cx="708.0" cy="112.0" r="10.8" fill="#0d0d14"/>
<circle cx="92.0" cy="488.0" r="14.8" fill="#1a1a1a" stroke="#888" stroke-width="1"/>
<circle cx="92.0" cy="488.0" r="10.8" fill="#0d0d14"/>
<circle cx="708.0" cy="488.0" r="14.8" fill="#1a1a1a" stroke="#888" stroke-width="1"/>
<circle cx="708.0" cy="488.0" r="10.8" fill="#0d0d14"/>
<line x1="636.0" y1="504.0" x2="636.0" y2="464.0" stroke="#ef5350" stroke-width="1.6" opacity="0.4" stroke-linecap="round"/>
<line x1="636.0" y1="464.0" x2="500.0" y2="160.0" stroke="#ef5350" stroke-width="1.6" opacity="0.4" stroke-linecap="round"/>
<line x1="500.0" y1="160.0" x2="460.0" y2="160.0" stroke="#ef5350" stroke-width="1.6" opacity="0.4" stroke-linecap="round"/>
<line x1="108.0" y1="160.0" x2="220.0" y2="160.0" stroke="#ef5350" stroke-width="1.6" opacity="0.4" stroke-linecap="round"/>
<line x1="460.0" y1="160.0" x2="500.0" y2="160.0" stroke="#ef5350" stroke-width="1.6" opacity="0.4" stroke-linecap="round"/>
<line x1="500.0" y1="160.0" x2="561.6" y2="160.0" stroke="#ef5350" stroke-width="1.6" opacity="0.4" stroke-linecap="round"/>
<line x1="220.0" y1="160.0" x2="380.0" y2="160.0" stroke="#ef5350" stroke-width="1.6" opacity="0.4" stroke-linecap="round"/>
<line x1="380.0" y1="160.0" x2="460.0" y2="160.0" stroke="#ef5350" stroke-width="1.6" opacity="0.4" stroke-linecap="round"/>
<line x1="598.4" y1="160.0" x2="598.4" y2="200.0" stroke="#66bb6a" stroke-width="1.6" opacity="0.4" stroke-linecap="round"/>
<line x1="598.4" y1="200.0" x2="400.0" y2="200.0" stroke="#66bb6a" stroke-width="1.6" opacity="0.4" stroke-linecap="round"/>
<line x1="400.0" y1="200.0" x2="340.0" y2="200.0" stroke="#66bb6a" stroke-width="1.6" opacity="0.4" stroke-linecap="round"/>
<line x1="340.0" y1="200.0" x2="340.0" y2="200.0" stroke="#66bb6a" stroke-width="1.5" opacity="0.4" stroke-linecap="round"/>
<line x1="340.0" y1="200.0" x2="188.0" y2="240.0" stroke="#66bb6a" stroke-width="1.5" opacity="0.4" stroke-linecap="round"/>
<line x1="400.0" y1="200.0" x2="400.0" y2="128.0" stroke="#66bb6a" stroke-width="1.5" opacity="0.4" stroke-linecap="round"/>
<line x1="209.6" y1="277.6" x2="268.0" y2="277.6" stroke="#42a5f5" stroke-width="1.5" opacity="0.4" stroke-linecap="round"/>
<line x1="268.0" y1="277.6" x2="268.0" y2="256.0" stroke="#42a5f5" stroke-width="1.5" opacity="0.4" stroke-linecap="round"/>
<line x1="209.6" y1="288.0" x2="268.0" y2="288.0" stroke="#42a5f5" stroke-width="1.5" opacity="0.4" stroke-linecap="round"/>
<line x1="209.6" y1="298.4" x2="268.0" y2="298.4" stroke="#42a5f5" stroke-width="1.5" opacity="0.4" stroke-linecap="round"/>
<line x1="268.0" y1="298.4" x2="268.0" y2="304.0" stroke="#42a5f5" stroke-width="1.5" opacity="0.4" stroke-linecap="round"/>
<line x1="209.6" y1="308.8" x2="268.0" y2="320.0" stroke="#42a5f5" stroke-width="1.5" opacity="0.4" stroke-linecap="round"/>
<line x1="108.0" y1="272.0" x2="140.0" y2="256.0" stroke="#ff7043" stroke-width="1.5" opacity="0.4" stroke-linecap="round"/>
<line x1="140.0" y1="256.0" x2="166.4" y2="269.6" stroke="#ff7043" stroke-width="1.5" opacity="0.4" stroke-linecap="round"/>
<line x1="108.0" y1="328.0" x2="140.0" y2="344.0" stroke="#ff7043" stroke-width="1.5" opacity="0.4" stroke-linecap="round"/>
<line x1="140.0" y1="344.0" x2="166.4" y2="298.4" stroke="#ff7043" stroke-width="1.5" opacity="0.4" stroke-linecap="round"/>
<line x1="340.0" y1="128.0" x2="380.0" y2="128.0" stroke="#f9a825" stroke-width="1.5" opacity="0.4" stroke-linecap="round"/>
<line x1="380.0" y1="128.0" x2="400.0" y2="128.0" stroke="#f9a825" stroke-width="1.5" opacity="0.4" stroke-linecap="round"/>
<line x1="419.6" y1="128.0" x2="460.0" y2="128.0" stroke="#f9a825" stroke-width="1.5" opacity="0.4" stroke-linecap="round"/>
<line x1="479.6" y1="128.0" x2="520.0" y2="128.0" stroke="#f9a825" stroke-width="1.5" opacity="0.4" stroke-linecap="round"/>
<line x1="632.8" y1="488.0" x2="632.8" y2="464.0" stroke="#ffca28" stroke-width="1.5" opacity="0.4" stroke-linecap="round"/>
<line x1="629.6" y1="488.0" x2="629.6" y2="464.0" stroke="#ffca28" stroke-width="1.5" opacity="0.4" stroke-linecap="round"/>
<line x1="588.0" y1="480.0" x2="623.2" y2="496.0" stroke="#78909c" stroke-width="1.5" opacity="0.4" stroke-linecap="round"/>
<line x1="684.0" y1="480.0" x2="648.8" y2="496.0" stroke="#78909c" stroke-width="1.5" opacity="0.4" stroke-linecap="round"/>
<line x1="310.0" y1="128.0" x2="340.0" y2="192.0" stroke="#78909c" stroke-width="1.5" opacity="0.4" stroke-linecap="round"/>
<line x1="230.0" y1="128.0" x2="268.0" y2="192.0" stroke="#78909c" stroke-width="1.5" opacity="0.4" stroke-linecap="round"/>
<line x1="340.0" y1="400.0" x2="340.0" y2="440.0" stroke="#78909c" stroke-width="1.6" opacity="0.4" stroke-linecap="round"/>
<line x1="340.0" y1="440.0" x2="460.0" y2="440.0" stroke="#78909c" stroke-width="1.6" opacity="0.4" stroke-linecap="round"/>
<line x1="412.0" y1="300.0" x2="540.0" y2="360.0" stroke="#ce93d8" stroke-width="1.5" opacity="0.4" stroke-linecap="round"/>
<line x1="540.0" y1="360.0" x2="676.0" y2="360.0" stroke="#ce93d8" stroke-width="1.5" opacity="0.4" stroke-linecap="round"/>
<line x1="412.0" y1="320.0" x2="540.0" y2="440.0" stroke="#ce93d8" stroke-width="1.5" opacity="0.4" stroke-linecap="round"/>
<line x1="540.0" y1="440.0" x2="676.0" y2="440.0" stroke="#ce93d8" stroke-width="1.5" opacity="0.4" stroke-linecap="round"/>
<circle cx="180" cy="160" r="3.4" fill="#1a1a1a" stroke="#666" stroke-width="0.5"/>
<circle cx="260" cy="160" r="3.4" fill="#1a1a1a" stroke="#666" stroke-width="0.5"/>
<circle cx="340" cy="160" r="3.4" fill="#1a1a1a" stroke="#666" stroke-width="0.5"/>
<circle cx="420" cy="160" r="3.4" fill="#1a1a1a" stroke="#666" stroke-width="0.5"/>
<circle cx="500" cy="160" r="3.4" fill="#1a1a1a" stroke="#666" stroke-width="0.5"/>
<circle cx="140" cy="200" r="3.4" fill="#1a1a1a" stroke="#666" stroke-width="0.5"/>
<circle cx="300" cy="200" r="3.4" fill="#1a1a1a" stroke="#666" stroke-width="0.5"/>
<circle cx="460" cy="200" r="3.4" fill="#1a1a1a" stroke="#666" stroke-width="0.5"/>
<circle cx="620" cy="200" r="3.4" fill="#1a1a1a" stroke="#666" stroke-width="0.5"/>
<circle cx="140" cy="400" r="3.4" fill="#1a1a1a" stroke="#666" stroke-width="0.5"/>
<circle cx="300" cy="400" r="3.4" fill="#1a1a1a" stroke="#666" stroke-width="0.5"/>
<circle cx="460" cy="400" r="3.4" fill="#1a1a1a" stroke="#666" stroke-width="0.5"/>
<circle cx="620" cy="400" r="3.4" fill="#1a1a1a" stroke="#666" stroke-width="0.5"/>
<circle cx="268" cy="280" r="3.4" fill="#1a1a1a" stroke="#666" stroke-width="0.5"/>
<circle cx="268" cy="320" r="3.4" fill="#1a1a1a" stroke="#666" stroke-width="0.5"/>
<circle cx="340" cy="240" r="3.4" fill="#1a1a1a" stroke="#666" stroke-width="0.5"/>
<circle cx="340" cy="360" r="3.4" fill="#1a1a1a" stroke="#666" stroke-width="0.5"/>
<circle cx="540" cy="280" r="3.4" fill="#1a1a1a" stroke="#666" stroke-width="0.5"/>
<circle cx="540" cy="360" r="3.4" fill="#1a1a1a" stroke="#666" stroke-width="0.5"/>
<circle cx="540" cy="440" r="3.4" fill="#1a1a1a" stroke="#666" stroke-width="0.5"/>
<circle cx="124" cy="144" r="3.4" fill="#1a1a1a" stroke="#666" stroke-width="0.5"/>
<circle cx="676" cy="144" r="3.4" fill="#1a1a1a" stroke="#666" stroke-width="0.5"/>
<circle cx="124" cy="456" r="3.4" fill="#1a1a1a" stroke="#666" stroke-width="0.5"/>
<circle cx="676" cy="456" r="3.4" fill="#1a1a1a" stroke="#666" stroke-width="0.5"/>
<g transform="translate(340.0,300.0) rotate(0)" filter="url(#sh)">
<rect x="-75.6" y="-98.4" width="7.2" height="4.8" fill="#c8a83e" rx="0.5" opacity="0.45"/>
<rect x="-75.6" y="-88.24000000000001" width="7.2" height="4.8" fill="#c8a83e" rx="0.5" opacity="0.45"/>
<rect x="-75.6" y="-78.08000000000001" width="7.2" height="4.8" fill="#c8a83e" rx="0.5" opacity="0.45"/>
<rect x="-75.6" y="-67.92" width="7.2" height="4.8" fill="#c8a83e" rx="0.5" opacity="0.45"/>
<rect x="-75.6" y="-57.76" width="7.2" height="4.8" fill="#c8a83e" rx="0.5" opacity="0.45"/>
<rect x="-75.6" y="-47.6" width="7.2" height="4.8" fill="#c8a83e" rx="0.5" opacity="0.45"/>
<rect x="-75.6" y="-37.44" width="7.2" height="4.8" fill="#c8a83e" rx="0.5" opacity="0.45"/>
<rect x="-75.6" y="-27.279999999999994" width="7.2" height="4.8" fill="#c8a83e" rx="0.5" opacity="0.45"/>
<rect x="-75.6" y="-17.119999999999997" width="7.2" height="4.8" fill="#c8a83e" rx="0.5" opacity="0.45"/>
<rect x="-75.6" y="-6.960000000000003" width="7.2" height="4.8" fill="#c8a83e" rx="0.5" opacity="0.45"/>
<rect x="-75.6" y="3.1999999999999944" width="7.2" height="4.8" fill="#c8a83e" rx="0.5" opacity="0.45"/>
<rect x="-75.6" y="13.360000000000005" width="7.2" height="4.8" fill="#c8a83e" rx="0.5" opacity="0.45"/>
<rect x="-75.6" y="23.520000000000003" width="7.2" height="4.8" fill="#c8a83e" rx="0.5" opacity="0.45"/>
<rect x="-75.6" y="33.680000000000014" width="7.2" height="4.8" fill="#c8a83e" rx="0.5" opacity="0.45"/>
<rect x="-43.04" y="98.4" width="4.8" height="7.2" fill="#c8a83e" rx="0.5" opacity="0.45"/>
<rect x="-32.88" y="98.4" width="4.8" height="7.2" fill="#c8a83e" rx="0.5" opacity="0.45"/>
<rect x="-22.72" y="98.4" width="4.8" height="7.2" fill="#c8a83e" rx="0.5" opacity="0.45"/>
<rect x="-12.56" y="98.4" width="4.8" height="7.2" fill="#c8a83e" rx="0.5" opacity="0.45"/>
<rect x="-2.4" y="98.4" width="4.8" height="7.2" fill="#c8a83e" rx="0.5" opacity="0.45"/>
<rect x="7.759999999999996" y="98.4" width="4.8" height="7.2" fill="#c8a83e" rx="0.5" opacity="0.45"/>
<rect x="17.92" y="98.4" width="4.8" height="7.2" fill="#c8a83e" rx="0.5" opacity="0.45"/>
<rect x="28.080000000000005" y="98.4" width="4.8" height="7.2" fill="#c8a83e" rx="0.5" opacity="0.45"/>
<rect x="68.4" y="93.6" width="7.2" height="4.8" fill="#c8a83e" rx="0.5" opacity="0.45"/>
<rect x="68.4" y="83.44" width="7.2" height="4.8" fill="#c8a83e" rx="0.5" opacity="0.45"/>
<rect x="68.4" y="73.28" width="7.2" height="4.8" fill="#c8a83e" rx="0.5" opacity="0.45"/>
<rect x="68.4" y="63.12" width="7.2" height="4.8" fill="#c8a83e" rx="0.5" opacity="0.45"/>
<rect x="68.4" y="52.96" width="7.2" height="4.8" fill="#c8a83e" rx="0.5" opacity="0.45"/>
<rect x="68.4" y="42.800000000000004" width="7.2" height="4.8" fill="#c8a83e" rx="0.5" opacity="0.45"/>
<rect x="68.4" y="32.64" width="7.2" height="4.8" fill="#c8a83e" rx="0.5" opacity="0.45"/>
<rect x="68.4" y="22.479999999999997" width="7.2" height="4.8" fill="#c8a83e" rx="0.5" opacity="0.45"/>
<rect x="68.4" y="12.319999999999999" width="7.2" height="4.8" fill="#c8a83e" rx="0.5" opacity="0.45"/>
<rect x="68.4" y="2.1600000000000024" width="7.2" height="4.8" fill="#c8a83e" rx="0.5" opacity="0.45"/>
<rect x="68.4" y="-7.999999999999995" width="7.2" height="4.8" fill="#c8a83e" rx="0.5" opacity="0.45"/>
<rect x="68.4" y="-18.160000000000004" width="7.2" height="4.8" fill="#c8a83e" rx="0.5" opacity="0.45"/>
<rect x="68.4" y="-28.32" width="7.2" height="4.8" fill="#c8a83e" rx="0.5" opacity="0.45"/>
<rect x="68.4" y="-38.48000000000001" width="7.2" height="4.8" fill="#c8a83e" rx="0.5" opacity="0.45"/>
<rect x="-24.0" y="100.0" width="48.0" height="16.0" fill="#c8a83e" rx="0.5" opacity="0.45"/>
<rect x="-72.0" y="-102.0" width="144.0" height="204.0" fill="#0d47a1" stroke="#777" stroke-width="0.5" rx="3"/>
<circle cx="-69.0" cy="-99.0" r="1.2" fill="#aaa" opacity="0.4"/>
<text x="0" y="-11.0" text-anchor="middle" fill="#eee" font-family="monospace" font-size="7">ESP32-S3</text>
<text x="0" y="-1.0" text-anchor="middle" fill="#eee" font-family="monospace" font-size="7">WROOM-1</text>
<text x="0" y="9.0" text-anchor="middle" fill="#eee" font-family="monospace" font-size="7">N16R8</text>
</g>
<g transform="translate(188.0,300.0) rotate(0)" filter="url(#sh)">
<rect x="-24.0" y="-36.68" width="4.8" height="12.4" fill="#c8a83e" rx="0.5" opacity="0.45"/>
<rect x="-24.0" y="-26.52" width="4.8" height="12.4" fill="#c8a83e" rx="0.5" opacity="0.45"/>
<rect x="-24.0" y="-16.36" width="4.8" height="12.4" fill="#c8a83e" rx="0.5" opacity="0.45"/>
<rect x="-24.0" y="-6.2" width="4.8" height="12.4" fill="#c8a83e" rx="0.5" opacity="0.45"/>
<rect x="-24.0" y="3.96" width="4.8" height="12.4" fill="#c8a83e" rx="0.5" opacity="0.45"/>
<rect x="-24.0" y="14.119999999999997" width="4.8" height="12.4" fill="#c8a83e" rx="0.5" opacity="0.45"/>
<rect x="-24.0" y="24.28" width="4.8" height="12.4" fill="#c8a83e" rx="0.5" opacity="0.45"/>
<rect x="19.200000000000003" y="24.28" width="4.8" height="12.4" fill="#c8a83e" rx="0.5" opacity="0.45"/>
<rect x="19.200000000000003" y="14.120000000000001" width="4.8" height="12.4" fill="#c8a83e" rx="0.5" opacity="0.45"/>
<rect x="19.200000000000003" y="3.96" width="4.8" height="12.4" fill="#c8a83e" rx="0.5" opacity="0.45"/>
<rect x="19.200000000000003" y="-6.2" width="4.8" height="12.4" fill="#c8a83e" rx="0.5" opacity="0.45"/>
<rect x="19.200000000000003" y="-16.36" width="4.8" height="12.4" fill="#c8a83e" rx="0.5" opacity="0.45"/>
<rect x="19.200000000000003" y="-26.519999999999996" width="4.8" height="12.4" fill="#c8a83e" rx="0.5" opacity="0.45"/>
<rect x="19.200000000000003" y="-36.68" width="4.8" height="12.4" fill="#c8a83e" rx="0.5" opacity="0.45"/>
<rect x="-24.0" y="-40.0" width="48.0" height="80.0" fill="#b71c1c" stroke="#777" stroke-width="0.5" rx="3"/>
<circle cx="-21.0" cy="-37.0" r="1.2" fill="#aaa" opacity="0.4"/>
<text x="0" y="-6.0" text-anchor="middle" fill="#eee" font-family="monospace" font-size="7">PCM1808</text>
<text x="0" y="4.0" text-anchor="middle" fill="#eee" font-family="monospace" font-size="7">ADC</text>
</g>
<g transform="translate(580.0,160.0) rotate(0)" filter="url(#sh)">
<rect x="-23.2" y="-14.8" width="9.6" height="5.6" fill="#c8a83e" rx="0.5" opacity="0.45"/>
<rect x="-23.2" y="-2.8" width="9.6" height="5.6" fill="#c8a83e" rx="0.5" opacity="0.45"/>
<rect x="-23.2" y="9.2" width="9.6" height="5.6" fill="#c8a83e" rx="0.5" opacity="0.45"/>
<rect x="13.599999999999998" y="-12.0" width="9.6" height="24.0" fill="#c8a83e" rx="0.5" opacity="0.45"/>
<rect x="-26.0" y="-14.0" width="52.0" height="28.0" fill="#4e342e" stroke="#777" stroke-width="0.5" rx="3"/>
<circle cx="-23.0" cy="-11.0" r="1.2" fill="#aaa" opacity="0.4"/>
<text x="0" y="-6.0" text-anchor="middle" fill="#eee" font-family="monospace" font-size="7">AMS1117</text>
<text x="0" y="4.0" text-anchor="middle" fill="#eee" font-family="monospace" font-size="7">3.3V</text>
</g>
<g transform="translate(636.0,464.0) rotate(0)" filter="url(#sh)">
<rect x="-11.200000000000001" y="4.8" width="4.8" height="5.6" fill="#c8a83e" rx="0.5" opacity="0.45"/>
<rect x="-11.200000000000001" y="-2.8" width="4.8" height="5.6" fill="#c8a83e" rx="0.5" opacity="0.45"/>
<rect x="-11.200000000000001" y="-10.399999999999999" width="4.8" height="5.6" fill="#c8a83e" rx="0.5" opacity="0.45"/>
<rect x="6.4" y="-10.399999999999999" width="4.8" height="5.6" fill="#c8a83e" rx="0.5" opacity="0.45"/>
<rect x="6.4" y="-2.8" width="4.8" height="5.6" fill="#c8a83e" rx="0.5" opacity="0.45"/>
<rect x="6.4" y="4.8" width="4.8" height="5.6" fill="#c8a83e" rx="0.5" opacity="0.45"/>
<rect x="-12.0" y="-12.0" width="24.0" height="24.0" fill="#263238" stroke="#777" stroke-width="0.5" rx="3"/>
<circle cx="-9.0" cy="-9.0" r="1.2" fill="#aaa" opacity="0.4"/>
<text x="0" y="-1.0" text-anchor="middle" fill="#eee" font-family="monospace" font-size="7">ESD</text>
</g>
<g transform="translate(140.0,464.0) rotate(0)" filter="url(#sh)">
<rect x="-11.200000000000001" y="4.8" width="4.8" height="5.6" fill="#c8a83e" rx="0.5" opacity="0.45"/>
<rect x="-11.200000000000001" y="-2.8" width="4.8" height="5.6" fill="#c8a83e" rx="0.5" opacity="0.45"/>
<rect x="-11.200000000000001" y="-10.399999999999999" width="4.8" height="5.6" fill="#c8a83e" rx="0.5" opacity="0.45"/>
<rect x="6.4" y="-10.399999999999999" width="4.8" height="5.6" fill="#c8a83e" rx="0.5" opacity="0.45"/>
<rect x="6.4" y="-2.8" width="4.8" height="5.6" fill="#c8a83e" rx="0.5" opacity="0.45"/>
<rect x="6.4" y="4.8" width="4.8" height="5.6" fill="#c8a83e" rx="0.5" opacity="0.45"/>
<rect x="-12.0" y="-12.0" width="24.0" height="24.0" fill="#263238" stroke="#777" stroke-width="0.5" rx="3"/>
<circle cx="-9.0" cy="-9.0" r="1.2" fill="#aaa" opacity="0.4"/>
<text x="0" y="-1.0" text-anchor="middle" fill="#eee" font-family="monospace" font-size="7">ESD</text>
</g>
<g transform="translate(636.0,504.0) rotate(0)" filter="url(#sh)">
<rect x="-21.2" y="-12.0" width="4.0" height="8.0" fill="#c8a83e" rx="0.5" opacity="0.45"/>
<rect x="17.2" y="-12.0" width="4.0" height="8.0" fill="#c8a83e" rx="0.5" opacity="0.45"/>
<rect x="-7.6000000000000005" y="-12.0" width="2.4" height="8.0" fill="#c8a83e" rx="0.5" opacity="0.45"/>
<rect x="-4.4" y="-12.0" width="2.4" height="8.0" fill="#c8a83e" rx="0.5" opacity="0.45"/>
<rect x="-14.0" y="-12.0" width="2.4" height="8.0" fill="#c8a83e" rx="0.5" opacity="0.45"/>
<rect x="11.600000000000001" y="-12.0" width="2.4" height="8.0" fill="#c8a83e" rx="0.5" opacity="0.45"/>
<rect x="-27.6" y="-12.0" width="4.0" height="8.0" fill="#c8a83e" rx="0.5" opacity="0.45"/>
<rect x="23.6" y="-12.0" width="4.0" height="8.0" fill="#c8a83e" rx="0.5" opacity="0.45"/>
<rect x="-31.599999999999998" y="-4.8" width="4.8" height="9.6" fill="#c8a83e" rx="0.5" opacity="0.45"/>
<rect x="26.8" y="-4.8" width="4.8" height="9.6" fill="#c8a83e" rx="0.5" opacity="0.45"/>
<rect x="-29.4" y="-12.8" width="58.8" height="25.6" fill="#78909c" stroke="#777" stroke-width="0.5" rx="3"/>
<text x="0" y="-1.0" text-anchor="middle" fill="#eee" font-family="monospace" font-size="7">USB-C</text>
</g>
<g transform="translate(108.0,300.0) rotate(90)" filter="url(#sh)">
<rect x="-35.2" y="-7.2" width="14.4" height="14.4" fill="#c8a83e" rx="0.5" opacity="0.45"/>
<rect x="20.8" y="-7.2" width="14.4" height="14.4" fill="#c8a83e" rx="0.5" opacity="0.45"/>
<rect x="-7.2" y="-31.2" width="14.4" height="14.4" fill="#c8a83e" rx="0.5" opacity="0.45"/>
<rect x="-7.2" y="16.8" width="14.4" height="14.4" fill="#c8a83e" rx="0.5" opacity="0.45"/>
<rect x="-48.0" y="-24.0" width="96.0" height="48.0" fill="#00695c" stroke="#777" stroke-width="0.5" rx="3"/>
<text x="0" y="-6.0" text-anchor="middle" fill="#eee" font-family="monospace" font-size="7">LINE</text>
<text x="0" y="4.0" text-anchor="middle" fill="#eee" font-family="monospace" font-size="7">IN</text>
</g>
<g transform="translate(636.0,280.0) rotate(0)" filter="url(#sh)">
<rect x="-38.760000000000005" y="-6.4" width="6.4" height="12.8" fill="#c8a83e" rx="0.5" opacity="0.45"/>
<rect x="-28.599999999999998" y="-6.4" width="6.4" height="12.8" fill="#c8a83e" rx="0.5" opacity="0.45"/>
<rect x="-18.44" y="-6.4" width="6.4" height="12.8" fill="#c8a83e" rx="0.5" opacity="0.45"/>
<rect x="-8.280000000000001" y="-6.4" width="6.4" height="12.8" fill="#c8a83e" rx="0.5" opacity="0.45"/>
<rect x="1.88" y="-6.4" width="6.4" height="12.8" fill="#c8a83e" rx="0.5" opacity="0.45"/>
<rect x="12.04" y="-6.4" width="6.4" height="12.8" fill="#c8a83e" rx="0.5" opacity="0.45"/>
<rect x="22.2" y="-6.4" width="6.4" height="12.8" fill="#c8a83e" rx="0.5" opacity="0.45"/>
<rect x="32.36" y="-6.4" width="6.4" height="12.8" fill="#c8a83e" rx="0.5" opacity="0.45"/>
<rect x="-62.4" y="17.6" width="12.8" height="12.8" fill="#c8a83e" rx="0.5" opacity="0.45"/>
<rect x="49.6" y="17.6" width="12.8" height="12.8" fill="#c8a83e" rx="0.5" opacity="0.45"/>
<rect x="-64.0" y="-54.0" width="128.0" height="108.0" fill="#37474f" stroke="#777" stroke-width="0.5" rx="3"/>
<text x="0" y="-6.0" text-anchor="middle" fill="#eee" font-family="monospace" font-size="7">RJ45</text>
<text x="0" y="4.0" text-anchor="middle" fill="#eee" font-family="monospace" font-size="7">(OPT)</text>
</g>
<g transform="translate(700.0,360.0) rotate(90)" filter="url(#sh)">
<rect x="-6.0" y="-6.0" width="12.0" height="12.0" fill="#c8a83e" rx="0.5" opacity="0.45"/>
<rect x="-27.52" y="-7.2" width="14.4" height="14.4" fill="#c8a83e" rx="0.5" opacity="0.45"/>
<rect x="13.120000000000001" y="-7.2" width="14.4" height="14.4" fill="#c8a83e" rx="0.5" opacity="0.45"/>
<rect x="-25.4" y="-16.0" width="50.8" height="32.0" fill="#f57f17" stroke="#777" stroke-width="0.5" rx="3"/>
<text x="0" y="-6.0" text-anchor="middle" fill="#eee" font-family="monospace" font-size="7">WiFi</text>
<text x="0" y="4.0" text-anchor="middle" fill="#eee" font-family="monospace" font-size="7">ANT</text>
</g>
<g transform="translate(700.0,440.0) rotate(90)" filter="url(#sh)">
<rect x="-6.0" y="-6.0" width="12.0" height="12.0" fill="#c8a83e" rx="0.5" opacity="0.45"/>
<rect x="-27.52" y="-7.2" width="14.4" height="14.4" fill="#c8a83e" rx="0.5" opacity="0.45"/>
<rect x="13.120000000000001" y="-7.2" width="14.4" height="14.4" fill="#c8a83e" rx="0.5" opacity="0.45"/>
<rect x="-25.4" y="-16.0" width="50.8" height="32.0" fill="#7b1fa2" stroke="#777" stroke-width="0.5" rx="3"/>
<text x="0" y="-6.0" text-anchor="middle" fill="#eee" font-family="monospace" font-size="7">BLE</text>
<text x="0" y="4.0" text-anchor="middle" fill="#eee" font-family="monospace" font-size="7">ANT</text>
</g>
<g transform="translate(108.0,160.0) rotate(0)" filter="url(#sh)">
<rect x="-8.0" y="-8.0" width="16.0" height="16.0" fill="#c8a83e" rx="0.5" opacity="0.45"/>
<rect x="-44.0" y="-8.0" width="16.0" height="16.0" fill="#c8a83e" rx="0.5" opacity="0.45"/>
<rect x="16.0" y="16.0" width="16.0" height="16.0" fill="#c8a83e" rx="0.5" opacity="0.45"/>
<rect x="-36.0" y="-36.0" width="72.0" height="72.0" fill="#e65100" stroke="#777" stroke-width="0.5" rx="3"/>
<text x="0" y="-6.0" text-anchor="middle" fill="#eee" font-family="monospace" font-size="7">5V DC</text>
<text x="0" y="4.0" text-anchor="middle" fill="#eee" font-family="monospace" font-size="7">IN</text>
</g>
<g transform="translate(400.0,128.0) rotate(0)" filter="url(#sh)">
<rect x="-23.6" y="-16.8" width="8.0" height="8.0" fill="#c8a83e" rx="0.5" opacity="0.45"/>
<rect x="15.600000000000001" y="-16.8" width="8.0" height="8.0" fill="#c8a83e" rx="0.5" opacity="0.45"/>
<rect x="15.600000000000001" y="8.8" width="8.0" height="8.0" fill="#c8a83e" rx="0.5" opacity="0.45"/>
<rect x="-23.6" y="8.8" width="8.0" height="8.0" fill="#c8a83e" rx="0.5" opacity="0.45"/>
<rect x="-20.0" y="-20.0" width="40.0" height="40.0" fill="#66bb6a" stroke="#777" stroke-width="0.5" rx="1"/>
<text x="0" y="-1.0" text-anchor="middle" fill="#eee" font-family="monospace" font-size="6">WiFi</text>
</g>
<g transform="translate(460.0,128.0) rotate(0)" filter="url(#sh)">
<rect x="-23.6" y="-16.8" width="8.0" height="8.0" fill="#c8a83e" rx="0.5" opacity="0.45"/>
<rect x="15.600000000000001" y="-16.8" width="8.0" height="8.0" fill="#c8a83e" rx="0.5" opacity="0.45"/>
<rect x="15.600000000000001" y="8.8" width="8.0" height="8.0" fill="#c8a83e" rx="0.5" opacity="0.45"/>
<rect x="-23.6" y="8.8" width="8.0" height="8.0" fill="#c8a83e" rx="0.5" opacity="0.45"/>
<rect x="-20.0" y="-20.0" width="40.0" height="40.0" fill="#42a5f5" stroke="#777" stroke-width="0.5" rx="1"/>
<text x="0" y="-1.0" text-anchor="middle" fill="#eee" font-family="monospace" font-size="6">BLE</text>
</g>
<g transform="translate(520.0,128.0) rotate(0)" filter="url(#sh)">
<rect x="-23.6" y="-16.8" width="8.0" height="8.0" fill="#c8a83e" rx="0.5" opacity="0.45"/>
<rect x="15.600000000000001" y="-16.8" width="8.0" height="8.0" fill="#c8a83e" rx="0.5" opacity="0.45"/>
<rect x="15.600000000000001" y="8.8" width="8.0" height="8.0" fill="#c8a83e" rx="0.5" opacity="0.45"/>
<rect x="-23.6" y="8.8" width="8.0" height="8.0" fill="#c8a83e" rx="0.5" opacity="0.45"/>
<rect x="-20.0" y="-20.0" width="40.0" height="40.0" fill="#ef5350" stroke="#777" stroke-width="0.5" rx="1"/>
<text x="0" y="-1.0" text-anchor="middle" fill="#eee" font-family="monospace" font-size="6">Audio</text>
</g>
<g transform="translate(284.0,128.0) rotate(0)" filter="url(#sh)">
<rect x="-30.8" y="-22.8" width="9.6" height="9.6" fill="#c8a83e" rx="0.5" opacity="0.45"/>
<rect x="21.2" y="-22.8" width="9.6" height="9.6" fill="#c8a83e" rx="0.5" opacity="0.45"/>
<rect x="-30.8" y="13.2" width="9.6" height="9.6" fill="#c8a83e" rx="0.5" opacity="0.45"/>
<rect x="21.2" y="13.2" width="9.6" height="9.6" fill="#c8a83e" rx="0.5" opacity="0.45"/>
<rect x="-24.0" y="-24.0" width="48.0" height="48.0" fill="#455a64" stroke="#777" stroke-width="0.5" rx="1"/>
<text x="0" y="-1.0" text-anchor="middle" fill="#eee" font-family="monospace" font-size="6">MODE</text>
</g>
<g transform="translate(204.0,128.0) rotate(0)" filter="url(#sh)">
<rect x="-30.8" y="-22.8" width="9.6" height="9.6" fill="#c8a83e" rx="0.5" opacity="0.45"/>
<rect x="21.2" y="-22.8" width="9.6" height="9.6" fill="#c8a83e" rx="0.5" opacity="0.45"/>
<rect x="-30.8" y="13.2" width="9.6" height="9.6" fill="#c8a83e" rx="0.5" opacity="0.45"/>
<rect x="21.2" y="13.2" width="9.6" height="9.6" fill="#c8a83e" rx="0.5" opacity="0.45"/>
<rect x="-24.0" y="-24.0" width="48.0" height="48.0" fill="#455a64" stroke="#777" stroke-width="0.5" rx="1"/>
<text x="0" y="-1.0" text-anchor="middle" fill="#eee" font-family="monospace" font-size="6">RST</text>
</g>
<g transform="translate(460.0,160.0) rotate(0)" filter="url(#sh)">
<rect x="-11.6" y="-2.0" width="4.8" height="4.0" fill="#c8a83e" rx="0.5" opacity="0.45"/>
<rect x="6.799999999999999" y="-2.0" width="4.8" height="4.0" fill="#c8a83e" rx="0.5" opacity="0.45"/>
<rect x="-11.2" y="-5.2" width="22.4" height="10.4" fill="#263238" stroke="#777" stroke-width="0.5" rx="1"/>
<text x="0" y="-1.0" text-anchor="middle" fill="#eee" font-family="monospace" font-size="6">D1</text>
</g>
<g transform="translate(220.0,160.0) rotate(0)" filter="url(#sh)">
<rect x="-11.6" y="-2.0" width="4.8" height="4.0" fill="#c8a83e" rx="0.5" opacity="0.45"/>
<rect x="6.799999999999999" y="-2.0" width="4.8" height="4.0" fill="#c8a83e" rx="0.5" opacity="0.45"/>
<rect x="-11.2" y="-5.2" width="22.4" height="10.4" fill="#263238" stroke="#777" stroke-width="0.5" rx="1"/>
<text x="0" y="-1.0" text-anchor="middle" fill="#eee" font-family="monospace" font-size="6">D2</text>
</g>
<g transform="translate(588.0,480.0) rotate(0)" filter="url(#sh)">
<rect x="-6.08" y="-2.48" width="4.48" height="4.96" fill="#c8a83e" rx="0.5" opacity="0.45"/>
<rect x="1.5999999999999996" y="-2.48" width="4.48" height="4.96" fill="#c8a83e" rx="0.5" opacity="0.45"/>
<rect x="-6.4" y="-3.2" width="12.8" height="6.4" fill="#5d4037" stroke="#777" stroke-width="0.5" rx="1"/>
<text x="0" y="-1.0" text-anchor="middle" fill="#eee" font-family="monospace" font-size="6">R1</text>
</g>
<g transform="translate(684.0,480.0) rotate(0)" filter="url(#sh)">
<rect x="-6.08" y="-2.48" width="4.48" height="4.96" fill="#c8a83e" rx="0.5" opacity="0.45"/>
<rect x="1.5999999999999996" y="-2.48" width="4.48" height="4.96" fill="#c8a83e" rx="0.5" opacity="0.45"/>
<rect x="-6.4" y="-3.2" width="12.8" height="6.4" fill="#5d4037" stroke="#777" stroke-width="0.5" rx="1"/>
<text x="0" y="-1.0" text-anchor="middle" fill="#eee" font-family="monospace" font-size="6">R2</text>
</g>
<g transform="translate(140.0,256.0) rotate(0)" filter="url(#sh)">
<rect x="-6.08" y="-2.48" width="4.48" height="4.96" fill="#c8a83e" rx="0.5" opacity="0.45"/>
<rect x="1.5999999999999996" y="-2.48" width="4.48" height="4.96" fill="#c8a83e" rx="0.5" opacity="0.45"/>
<rect x="-6.4" y="-3.2" width="12.8" height="6.4" fill="#5d4037" stroke="#777" stroke-width="0.5" rx="1"/>
<text x="0" y="-1.0" text-anchor="middle" fill="#eee" font-family="monospace" font-size="6">R3</text>
</g>
<g transform="translate(140.0,344.0) rotate(0)" filter="url(#sh)">
<rect x="-6.08" y="-2.48" width="4.48" height="4.96" fill="#c8a83e" rx="0.5" opacity="0.45"/>
<rect x="1.5999999999999996" y="-2.48" width="4.48" height="4.96" fill="#c8a83e" rx="0.5" opacity="0.45"/>
<rect x="-6.4" y="-3.2" width="12.8" height="6.4" fill="#5d4037" stroke="#777" stroke-width="0.5" rx="1"/>
<text x="0" y="-1.0" text-anchor="middle" fill="#eee" font-family="monospace" font-size="6">R4</text>
</g>
<g transform="translate(444.0,192.0) rotate(0)" filter="url(#sh)">
<rect x="-6.08" y="-2.48" width="4.48" height="4.96" fill="#c8a83e" rx="0.5" opacity="0.45"/>
<rect x="1.5999999999999996" y="-2.48" width="4.48" height="4.96" fill="#c8a83e" rx="0.5" opacity="0.45"/>
<rect x="-6.4" y="-3.2" width="12.8" height="6.4" fill="#5d4037" stroke="#777" stroke-width="0.5" rx="1"/>
<text x="0" y="-1.0" text-anchor="middle" fill="#eee" font-family="monospace" font-size="6">R5</text>
</g>
<g transform="translate(444.0,216.0) rotate(0)" filter="url(#sh)">
<rect x="-6.08" y="-2.48" width="4.48" height="4.96" fill="#c8a83e" rx="0.5" opacity="0.45"/>
<rect x="1.5999999999999996" y="-2.48" width="4.48" height="4.96" fill="#c8a83e" rx="0.5" opacity="0.45"/>
<rect x="-6.4" y="-3.2" width="12.8" height="6.4" fill="#5d4037" stroke="#777" stroke-width="0.5" rx="1"/>
<text x="0" y="-1.0" text-anchor="middle" fill="#eee" font-family="monospace" font-size="6">R6</text>
</g>
<g transform="translate(340.0,128.0) rotate(0)" filter="url(#sh)">
<rect x="-6.08" y="-2.48" width="4.48" height="4.96" fill="#c8a83e" rx="0.5" opacity="0.45"/>
<rect x="1.5999999999999996" y="-2.48" width="4.48" height="4.96" fill="#c8a83e" rx="0.5" opacity="0.45"/>
<rect x="-6.4" y="-3.2" width="12.8" height="6.4" fill="#5d4037" stroke="#777" stroke-width="0.5" rx="1"/>
<text x="0" y="-1.0" text-anchor="middle" fill="#eee" font-family="monospace" font-size="6">R7</text>
</g>
<g transform="translate(252.0,224.0) rotate(0)" filter="url(#sh)">
<rect x="-6.08" y="-2.48" width="4.48" height="4.96" fill="#c8a83e" rx="0.5" opacity="0.45"/>
<rect x="1.5999999999999996" y="-2.48" width="4.48" height="4.96" fill="#c8a83e" rx="0.5" opacity="0.45"/>
<rect x="-6.4" y="-3.2" width="12.8" height="6.4" fill="#1a237e" stroke="#777" stroke-width="0.5" rx="1"/>
<text x="0" y="-1.0" text-anchor="middle" fill="#eee" font-family="monospace" font-size="6">C1</text>
</g>
<g transform="translate(252.0,384.0) rotate(0)" filter="url(#sh)">
<rect x="-9.2" y="-4.0" width="6.4" height="8.0" fill="#c8a83e" rx="0.5" opacity="0.45"/>
<rect x="2.8" y="-4.0" width="6.4" height="8.0" fill="#c8a83e" rx="0.5" opacity="0.45"/>
<rect x="-8.8" y="-4.8" width="17.6" height="9.6" fill="#1a237e" stroke="#777" stroke-width="0.5" rx="1"/>
<text x="0" y="-1.0" text-anchor="middle" fill="#eee" font-family="monospace" font-size="6">C2</text>
</g>
<g transform="translate(412.0,424.0) rotate(0)" filter="url(#sh)">
<rect x="-6.08" y="-2.48" width="4.48" height="4.96" fill="#c8a83e" rx="0.5" opacity="0.45"/>
<rect x="1.5999999999999996" y="-2.48" width="4.48" height="4.96" fill="#c8a83e" rx="0.5" opacity="0.45"/>
<rect x="-6.4" y="-3.2" width="12.8" height="6.4" fill="#1a237e" stroke="#777" stroke-width="0.5" rx="1"/>
<text x="0" y="-1.0" text-anchor="middle" fill="#eee" font-family="monospace" font-size="6">C3</text>
</g>
<g transform="translate(412.0,448.0) rotate(0)" filter="url(#sh)">
<rect x="-9.2" y="-4.0" width="6.4" height="8.0" fill="#c8a83e" rx="0.5" opacity="0.45"/>
<rect x="2.8" y="-4.0" width="6.4" height="8.0" fill="#c8a83e" rx="0.5" opacity="0.45"/>
<rect x="-8.8" y="-4.8" width="17.6" height="9.6" fill="#1a237e" stroke="#777" stroke-width="0.5" rx="1"/>
<text x="0" y="-1.0" text-anchor="middle" fill="#eee" font-family="monospace" font-size="6">C4</text>
</g>
<g transform="translate(500.0,136.0) rotate(0)" filter="url(#sh)">
<rect x="-12.0" y="-5.0" width="8.0" height="10.0" fill="#c8a83e" rx="0.5" opacity="0.45"/>
<rect x="4.0" y="-5.0" width="8.0" height="10.0" fill="#c8a83e" rx="0.5" opacity="0.45"/>
<rect x="-11.2" y="-6.0" width="22.4" height="12.0" fill="#1a237e" stroke="#777" stroke-width="0.5" rx="1"/>
<text x="0" y="-1.0" text-anchor="middle" fill="#eee" font-family="monospace" font-size="6">C5</text>
</g>
<g transform="translate(580.0,136.0) rotate(0)" filter="url(#sh)">
<rect x="-12.0" y="-5.0" width="8.0" height="10.0" fill="#c8a83e" rx="0.5" opacity="0.45"/>
<rect x="4.0" y="-5.0" width="8.0" height="10.0" fill="#c8a83e" rx="0.5" opacity="0.45"/>
<rect x="-11.2" y="-6.0" width="22.4" height="12.0" fill="#1a237e" stroke="#777" stroke-width="0.5" rx="1"/>
<text x="0" y="-1.0" text-anchor="middle" fill="#eee" font-family="monospace" font-size="6">C6</text>
</g>
<g transform="translate(188.0,240.0) rotate(0)" filter="url(#sh)">
<rect x="-6.08" y="-2.48" width="4.48" height="4.96" fill="#c8a83e" rx="0.5" opacity="0.45"/>
<rect x="1.5999999999999996" y="-2.48" width="4.48" height="4.96" fill="#c8a83e" rx="0.5" opacity="0.45"/>
<rect x="-6.4" y="-3.2" width="12.8" height="6.4" fill="#1a237e" stroke="#777" stroke-width="0.5" rx="1"/>
<text x="0" y="-1.0" text-anchor="middle" fill="#eee" font-family="monospace" font-size="6">C7</text>
</g>
<g transform="translate(188.0,360.0) rotate(0)" filter="url(#sh)">
<rect x="-9.2" y="-4.0" width="6.4" height="8.0" fill="#c8a83e" rx="0.5" opacity="0.45"/>
<rect x="2.8" y="-4.0" width="6.4" height="8.0" fill="#c8a83e" rx="0.5" opacity="0.45"/>
<rect x="-8.8" y="-4.8" width="17.6" height="9.6" fill="#1a237e" stroke="#777" stroke-width="0.5" rx="1"/>
<text x="0" y="-1.0" text-anchor="middle" fill="#eee" font-family="monospace" font-size="6">C8</text>
</g>
<g transform="translate(236.0,280.0) rotate(90)" filter="url(#sh)">
<rect x="-6.08" y="-2.48" width="4.48" height="4.96" fill="#c8a83e" rx="0.5" opacity="0.45"/>
<rect x="1.5999999999999996" y="-2.48" width="4.48" height="4.96" fill="#c8a83e" rx="0.5" opacity="0.45"/>
<rect x="-6.4" y="-3.2" width="12.8" height="6.4" fill="#1a237e" stroke="#777" stroke-width="0.5" rx="1"/>
<text x="0" y="-1.0" text-anchor="middle" fill="#eee" font-family="monospace" font-size="6">C9</text>
</g>
<g transform="translate(236.0,320.0) rotate(90)" filter="url(#sh)">
<rect x="-6.08" y="-2.48" width="4.48" height="4.96" fill="#c8a83e" rx="0.5" opacity="0.45"/>
<rect x="1.5999999999999996" y="-2.48" width="4.48" height="4.96" fill="#c8a83e" rx="0.5" opacity="0.45"/>
<rect x="-6.4" y="-3.2" width="12.8" height="6.4" fill="#1a237e" stroke="#777" stroke-width="0.5" rx="1"/>
<text x="0" y="-1.0" text-anchor="middle" fill="#eee" font-family="monospace" font-size="6">C10</text>
</g>
<g transform="translate(636.0,432.0) rotate(0)" filter="url(#sh)">
<rect x="-9.2" y="-4.0" width="6.4" height="8.0" fill="#c8a83e" rx="0.5" opacity="0.45"/>
<rect x="2.8" y="-4.0" width="6.4" height="8.0" fill="#c8a83e" rx="0.5" opacity="0.45"/>
<rect x="-8.8" y="-4.8" width="17.6" height="9.6" fill="#1a237e" stroke="#777" stroke-width="0.5" rx="1"/>
<text x="0" y="-1.0" text-anchor="middle" fill="#eee" font-family="monospace" font-size="6">C11</text>
</g>
<g transform="translate(636.0,408.0) rotate(0)" filter="url(#sh)">
<rect x="-6.08" y="-2.48" width="4.48" height="4.96" fill="#c8a83e" rx="0.5" opacity="0.45"/>
<rect x="1.5999999999999996" y="-2.48" width="4.48" height="4.96" fill="#c8a83e" rx="0.5" opacity="0.45"/>
<rect x="-6.4" y="-3.2" width="12.8" height="6.4" fill="#1a237e" stroke="#777" stroke-width="0.5" rx="1"/>
<text x="0" y="-1.0" text-anchor="middle" fill="#eee" font-family="monospace" font-size="6">C12</text>
</g>
<text x="340.0" y="480.0" text-anchor="middle" fill="#42a5f5" font-family="monospace" font-size="7" opacity="0.6">ESP32-S3-WROOM-1</text>
<text x="188.0" y="400.0" text-anchor="middle" fill="#ef5350" font-family="monospace" font-size="7" opacity="0.6">PCM1808 24-bit ADC</text>
<text x="580.0" y="112.0" text-anchor="middle" fill="#ff7043" font-family="monospace" font-size="7" opacity="0.6">AMS1117-3.3</text>
<text x="108" y="290.0" text-anchor="middle" fill="#ff7043" font-family="monospace" font-size="6" opacity="0.4">AUDIO</text>
<text x="108" y="300.0" text-anchor="middle" fill="#ff7043" font-family="monospace" font-size="6" opacity="0.4">INPUT</text>
<text x="636" y="494.0" text-anchor="middle" fill="#ffca28" font-family="monospace" font-size="6" opacity="0.4">USB-C</text>
<text x="636" y="504.0" text-anchor="middle" fill="#ffca28" font-family="monospace" font-size="6" opacity="0.4">POWER</text>
<text x="636" y="190.0" text-anchor="middle" fill="#78909c" font-family="monospace" font-size="6" opacity="0.4">ETHERNET</text>
<text x="636" y="200.0" text-anchor="middle" fill="#78909c" font-family="monospace" font-size="6" opacity="0.4">(OPT)</text>
<text x="700" y="390.0" text-anchor="middle" fill="#ce93d8" font-family="monospace" font-size="6" opacity="0.4">ANTENNA</text>
<text x="700" y="400.0" text-anchor="middle" fill="#ce93d8" font-family="monospace" font-size="6" opacity="0.4">PORT</text>
<text x="400" y="615" text-anchor="middle" fill="#888" font-family="monospace" font-size="9">85x55mm | 4-layer FR-4 | 41 parts | ESP32-S3 WiFi+BLE 5.0</text>
<text x="400" y="637" text-anchor="middle" fill="#66bb6a" font-family="monospace" font-size="10" font-weight="bold">Signal Flow: PA Mixer → 3.5mm → PCM1808 (24-bit I2S) → ESP32-S3</text>
<text x="400" y="655" text-anchor="middle" fill="#42a5f5" font-family="monospace" font-size="9">→ WiFi UDP (speakers) + BLE Auracast (COIN wearables)</text>
<text x="400" y="673" text-anchor="middle" fill="#c8a83e" font-family="monospace" font-size="9">Power: USB-C PD 5V/3A | DC barrel 5V backup | AMS1117-3.3 LDO</text>
<rect x="60" y="698" width="70" height="30" fill="#00695c" rx="4" opacity="0.8"/>
<text x="95" y="710" text-anchor="middle" fill="#eee" font-family="monospace" font-size="7">3.5mm</text>
<text x="95" y="721" text-anchor="middle" fill="#eee" font-family="monospace" font-size="7">Line-In</text>
<rect x="175" y="698" width="90" height="30" fill="#b71c1c" rx="4" opacity="0.8"/>
<text x="220" y="710" text-anchor="middle" fill="#eee" font-family="monospace" font-size="7">PCM1808</text>
<text x="220" y="721" text-anchor="middle" fill="#eee" font-family="monospace" font-size="7">24-bit ADC</text>
<rect x="310" y="698" width="100" height="30" fill="#0d47a1" rx="4" opacity="0.8"/>
<text x="360" y="710" text-anchor="middle" fill="#eee" font-family="monospace" font-size="7">ESP32-S3</text>
<text x="360" y="721" text-anchor="middle" fill="#eee" font-family="monospace" font-size="7">N16R8</text>
<rect x="460" y="698" width="95" height="30" fill="#66bb6a" rx="4" opacity="0.8"/>
<text x="507" y="710" text-anchor="middle" fill="#eee" font-family="monospace" font-size="7">WiFi UDP</text>
<text x="507" y="721" text-anchor="middle" fill="#eee" font-family="monospace" font-size="7">→ Speakers</text>
<rect x="600" y="698" width="100" height="30" fill="#7b1fa2" rx="4" opacity="0.8"/>
<text x="650" y="710" text-anchor="middle" fill="#eee" font-family="monospace" font-size="7">BLE Auracast</text>
<text x="650" y="721" text-anchor="middle" fill="#eee" font-family="monospace" font-size="7">→ COINs</text>
<line x1="130" y1="713" x2="170" y2="713" stroke="#888" stroke-width="1.5" marker-end="url(#arrow)"/>
<line x1="265" y1="713" x2="305" y2="713" stroke="#888" stroke-width="1.5" marker-end="url(#arrow)"/>
<line x1="410" y1="713" x2="450" y2="713" stroke="#888" stroke-width="1.5" marker-end="url(#arrow)"/>
<line x1="555" y1="713" x2="595" y2="713" stroke="#888" stroke-width="1.5" marker-end="url(#arrow)"/>
<defs><marker id="arrow" viewBox="0 0 10 10" refX="9" refY="5" markerWidth="6" markerHeight="6" orient="auto-start-reverse"><path d="M 0 0 L 10 5 L 0 10 z" fill="#888"/></marker></defs>
<text x="400" y="748" text-anchor="middle" fill="#888" font-family="monospace" font-size="8">Koe STAGE v1 | koe.live | github.com/yukihamada/koe-device</text>
</svg>
