G04 Koe COIN Lite -- Generated by generate_gerbers_coin_lite.py*
G04 Layer: F.Cu*
G04 Date: 2026-03-27*
%TF.FileFunction,Copper,L1,Top*%
%TF.GenerationSoftware,KoeDevice,generate_gerbers_coin_lite.py,1.0*%
%TF.SameCoordinates,Original*%
%FSLAX36Y36*%
%MOMM*%
%LPD*%
%ADD10R,0.7000X1.0000*%
%ADD11R,1.0000X0.7000*%
%ADD12C,5.0000*%
%ADD13R,0.2500X0.5000*%
%ADD14R,0.5000X0.2500*%
%ADD15C,1.7000*%
%ADD16R,0.6000X0.4000*%
%ADD17C,0.5000*%
%ADD18R,0.5000X1.0000*%
%ADD19R,0.3000X1.0000*%
%ADD20R,0.8000X1.0000*%
%ADD21R,2.0000X1.5000*%
%ADD22R,1.5000X2.0000*%
%ADD23R,0.5600X0.6200*%
%ADD24R,0.6200X0.5600*%
%ADD25C,0.4000*%
%ADD26C,0.2000*%
D10*
X7920000Y21150000D03*
D10*
X9190000Y21150000D03*
D10*
X10460000Y21150000D03*
D10*
X11730000Y21150000D03*
D10*
X13000000Y21150000D03*
D10*
X14270000Y21150000D03*
D10*
X15540000Y21150000D03*
D10*
X16810000Y21150000D03*
D10*
X18080000Y21150000D03*
D11*
X5300000Y18500000D03*
D11*
X5300000Y17230000D03*
D11*
X5300000Y15960000D03*
D11*
X5300000Y14690000D03*
D11*
X20700000Y18500000D03*
D11*
X20700000Y17230000D03*
D11*
X20700000Y15960000D03*
D11*
X20700000Y14690000D03*
D12*
X13000000Y18500000D03*
D13*
X7000000Y8250000D03*
D13*
X7000000Y8750000D03*
D13*
X7000000Y9250000D03*
D13*
X7000000Y9750000D03*
D14*
X7750000Y10500000D03*
D14*
X8250000Y10500000D03*
D14*
X8750000Y10500000D03*
D14*
X9250000Y10500000D03*
D13*
X10000000Y9750000D03*
D13*
X10000000Y9250000D03*
D13*
X10000000Y8750000D03*
D13*
X10000000Y8250000D03*
D14*
X9250000Y7500000D03*
D14*
X8750000Y7500000D03*
D14*
X8250000Y7500000D03*
D14*
X7750000Y7500000D03*
D15*
X8500000Y9000000D03*
D16*
X9400000Y5450000D03*
D16*
X9400000Y4500000D03*
D16*
X9400000Y3550000D03*
D16*
X11600000Y3550000D03*
D16*
X11600000Y5450000D03*
D16*
X14400000Y5450000D03*
D16*
X14400000Y4500000D03*
D16*
X14400000Y3550000D03*
D16*
X16600000Y3550000D03*
D16*
X16600000Y5450000D03*
D17*
X12350000Y22950000D03*
D17*
X13650000Y22950000D03*
D17*
X13650000Y24050000D03*
D17*
X12350000Y24050000D03*
D18*
X11250000Y800000D03*
D18*
X14750000Y800000D03*
D19*
X12250000Y800000D03*
D19*
X13750000Y800000D03*
D18*
X10250000Y800000D03*
D18*
X15750000Y800000D03*
D20*
X22500000Y11000000D03*
D20*
X22500000Y15000000D03*
D21*
X3000000Y11500000D03*
D21*
X3000000Y14500000D03*
D22*
X17000000Y7000000D03*
D22*
X20000000Y7000000D03*
D23*
X15520000Y18000000D03*
D23*
X16480000Y18000000D03*
D23*
X9520000Y18000000D03*
D23*
X10480000Y18000000D03*
D23*
X10020000Y10000000D03*
D23*
X10980000Y10000000D03*
D23*
X15020000Y10000000D03*
D23*
X15980000Y10000000D03*
D23*
X6520000Y10500000D03*
D23*
X7480000Y10500000D03*
D24*
X14000000Y6020000D03*
D24*
X14000000Y6980000D03*
D24*
X12000000Y6020000D03*
D24*
X12000000Y6980000D03*
D23*
X17520000Y16000000D03*
D23*
X18480000Y16000000D03*
D23*
X7520000Y16000000D03*
D23*
X8480000Y16000000D03*
D23*
X8520000Y7000000D03*
D23*
X9480000Y7000000D03*
D17*
X13000000Y1600000D02*
X13000000Y6000000D01*
D25*
X13000000Y6000000D02*
X10500000Y4500000D01*
D25*
X13000000Y6000000D02*
X15500000Y4500000D01*
D25*
X10500000Y4500000D02*
X10500000Y8000000D01*
D25*
X10500000Y8000000D02*
X13000000Y15000000D01*
D26*
X10500000Y8000000D02*
X8500000Y9000000D01*
D26*
X13000000Y15000000D02*
X13000000Y23500000D01*
D25*
X18500000Y7000000D02*
X15500000Y4500000D01*
D26*
X11000000Y15000000D02*
X10000000Y11000000D01*
D26*
X10000000Y11000000D02*
X8500000Y10500000D01*
D26*
X12000000Y15000000D02*
X11000000Y11000000D01*
D26*
X11000000Y11000000D02*
X8500000Y10000000D01*
D26*
X13000000Y15000000D02*
X12000000Y11000000D01*
D26*
X12000000Y11000000D02*
X8500000Y9500000D01*
D26*
X14000000Y15000000D02*
X12500000Y11500000D01*
D26*
X12500000Y11500000D02*
X10000000Y9000000D01*
D26*
X7000000Y9000000D02*
X5000000Y11000000D01*
D26*
X5000000Y11000000D02*
X3000000Y13000000D01*
D26*
X15000000Y15000000D02*
X15000000Y21000000D01*
D26*
X15000000Y21000000D02*
X13000000Y23500000D01*
D26*
X22500000Y13000000D02*
X18000000Y15000000D01*
D26*
X18000000Y15000000D02*
X16000000Y15000000D01*
D26*
X9000000Y7000000D02*
X12250000Y1600000D01*
D26*
X18000000Y16000000D02*
X13750000Y1600000D01*
D17*
X13000000Y13000000D03*
D17*
X8000000Y18000000D03*
D17*
X18000000Y18000000D03*
D17*
X8000000Y8000000D03*
D17*
X18000000Y8000000D03*
D17*
X10000000Y12000000D03*
D17*
X16000000Y12000000D03*
D17*
X13000000Y20000000D03*
D17*
X13000000Y9000000D03*
D17*
X6000000Y13000000D03*
D17*
X20000000Y13000000D03*
M02*
