G04 Koe COIN Lite -- Generated by generate_gerbers_coin_lite.py*
G04 Layer: Edge.Cuts*
G04 Date: 2026-03-27*
%TF.FileFunction,Profile,NP*%
%TF.GenerationSoftware,KoeDevice,generate_gerbers_coin_lite.py,1.0*%
%TF.SameCoordinates,Original*%
%FSLAX36Y36*%
%MOMM*%
%LPD*%
%ADD10C,0.0500*%
D10*
X26000000Y13000000D02*
X25950531Y14133025D01*
X25802501Y15257426D01*
X25557036Y16364648D01*
X25216004Y17446262D01*
X24782001Y18494037D01*
X24258330Y19500000D01*
X23648977Y20456494D01*
X22958578Y21356239D01*
X22192388Y22192388D01*
X21356239Y22958578D01*
X20456494Y23648977D01*
X19500000Y24258330D01*
X18494037Y24782001D01*
X17446262Y25216004D01*
X16364648Y25557036D01*
X15257426Y25802501D01*
X14133025Y25950531D01*
X13000000Y26000000D01*
X11866975Y25950531D01*
X10742574Y25802501D01*
X9635352Y25557036D01*
X8553738Y25216004D01*
X7505963Y24782001D01*
X6500000Y24258330D01*
X5543506Y23648977D01*
X4643761Y22958578D01*
X3807612Y22192388D01*
X3041422Y21356239D01*
X2351023Y20456494D01*
X1741670Y19500000D01*
X1217999Y18494037D01*
X783996Y17446262D01*
X442964Y16364648D01*
X197499Y15257426D01*
X49469Y14133025D01*
X0Y13000000D01*
X49469Y11866975D01*
X197499Y10742574D01*
X442964Y9635352D01*
X783996Y8553738D01*
X1217999Y7505963D01*
X1741670Y6500000D01*
X2351023Y5543506D01*
X3041422Y4643761D01*
X3807612Y3807612D01*
X4643761Y3041422D01*
X5543506Y2351023D01*
X6500000Y1741670D01*
X7505963Y1217999D01*
X8553738Y783996D01*
X9635352Y442964D01*
X10742574Y197499D01*
X11866975Y49469D01*
X13000000Y0D01*
X14133025Y49469D01*
X15257426Y197499D01*
X16364648Y442964D01*
X17446262Y783996D01*
X18494037Y1217999D01*
X19500000Y1741670D01*
X20456494Y2351023D01*
X21356239Y3041422D01*
X22192388Y3807612D01*
X22958578Y4643761D01*
X23648977Y5543506D01*
X24258330Y6500000D01*
X24782001Y7505963D01*
X25216004Y8553738D01*
X25557036Y9635352D01*
X25802501Y10742574D01*
X25950531Y11866975D01*
X26000000Y13000000D01*
M02*
