G04 Koe COIN Lite -- Generated by generate_gerbers_coin_lite.py*
G04 Layer: F.SilkS*
G04 Date: 2026-03-27*
%TF.FileFunction,Legend,Top*%
%TF.GenerationSoftware,KoeDevice,generate_gerbers_coin_lite.py,1.0*%
%TF.SameCoordinates,Original*%
%FSLAX36Y36*%
%MOMM*%
%LPD*%
%ADD10C,0.1200*%
%ADD11C,0.3000*%
%ADD12C,0.1000*%
D10*
X5300000Y8850000D02*
X20700000Y8850000D01*
D10*
X20700000Y8850000D02*
X20700000Y21150000D01*
D10*
X20700000Y21150000D02*
X5300000Y21150000D01*
D10*
X5300000Y21150000D02*
X5300000Y8850000D01*
D11*
X5800000Y9350000D03*
D12*
X12810000Y7890000D02*
X12900000Y8050000D01*
X12900000Y7250000D01*
D12*
X12810000Y7250000D02*
X12990000Y7250000D01*
D10*
X7000000Y7500000D02*
X10000000Y7500000D01*
D10*
X10000000Y7500000D02*
X10000000Y10500000D01*
D10*
X10000000Y10500000D02*
X7000000Y10500000D01*
D10*
X7000000Y10500000D02*
X7000000Y7500000D01*
D11*
X7500000Y8000000D03*
D12*
X8100000Y6540000D02*
X8250000Y6700000D01*
X8550000Y6700000D01*
X8700000Y6460000D01*
X8700000Y6300000D01*
X8100000Y5900000D01*
X8700000Y5900000D01*
D10*
X9050000Y3700000D02*
X11950000Y3700000D01*
D10*
X11950000Y3700000D02*
X11950000Y5300000D01*
D10*
X11950000Y5300000D02*
X9050000Y5300000D01*
D10*
X9050000Y5300000D02*
X9050000Y3700000D01*
D11*
X9550000Y4200000D03*
D10*
X14050000Y3700000D02*
X16950000Y3700000D01*
D10*
X16950000Y3700000D02*
X16950000Y5300000D01*
D10*
X16950000Y5300000D02*
X14050000Y5300000D01*
D10*
X14050000Y5300000D02*
X14050000Y3700000D01*
D11*
X14550000Y4200000D03*
D10*
X12000000Y22500000D02*
X14000000Y22500000D01*
D10*
X14000000Y22500000D02*
X14000000Y24500000D01*
D10*
X14000000Y24500000D02*
X12000000Y24500000D01*
D10*
X12000000Y24500000D02*
X12000000Y22500000D01*
D12*
X11300000Y21700000D02*
X11300000Y20900000D01*
X11900000Y20900000D01*
D12*
X12500000Y21700000D02*
X11900000Y21700000D01*
X11900000Y21300000D01*
X12350000Y21300000D01*
D12*
X11900000Y21300000D02*
X11900000Y20900000D01*
X12500000Y20900000D01*
D12*
X12500000Y20900000D02*
X12500000Y21700000D01*
X12950000Y21700000D01*
X13100000Y21460000D01*
X13100000Y21140000D01*
X12950000Y20900000D01*
X12500000Y20900000D01*
D12*
X13310000Y21540000D02*
X13400000Y21700000D01*
X13400000Y20900000D01*
D12*
X13310000Y20900000D02*
X13490000Y20900000D01*
D10*
X9500000Y0D02*
X16500000Y0D01*
D10*
X16500000Y0D02*
X16500000Y3200000D01*
D10*
X16500000Y3200000D02*
X9500000Y3200000D01*
D10*
X9500000Y3200000D02*
X9500000Y0D01*
D12*
X12810000Y-960000D02*
X12900000Y-800000D01*
X12900000Y-1600000D01*
D12*
X12810000Y-1600000D02*
X12990000Y-1600000D01*
D10*
X24500000Y11500000D02*
X24500000Y14500000D01*
D10*
X24500000Y14500000D02*
X20500000Y14500000D01*
D10*
X20500000Y14500000D02*
X20500000Y11500000D01*
D10*
X20500000Y11500000D02*
X24500000Y11500000D01*
D12*
X22560000Y10040000D02*
X22650000Y10200000D01*
X22650000Y9400000D01*
D12*
X22560000Y9400000D02*
X22740000Y9400000D01*
D10*
X4250000Y10500000D02*
X4250000Y15500000D01*
D10*
X4250000Y15500000D02*
X1750000Y15500000D01*
D10*
X1750000Y15500000D02*
X1750000Y10500000D01*
D10*
X1750000Y10500000D02*
X4250000Y10500000D01*
D12*
X2500000Y10150000D02*
X2500000Y10950000D01*
D12*
X2500000Y10550000D02*
X3100000Y10950000D01*
D12*
X2500000Y10550000D02*
X3100000Y10150000D01*
D12*
X3310000Y10790000D02*
X3400000Y10950000D01*
X3400000Y10150000D01*
D12*
X3310000Y10150000D02*
X3490000Y10150000D01*
D10*
X16000000Y5750000D02*
X21000000Y5750000D01*
D10*
X21000000Y5750000D02*
X21000000Y8250000D01*
D10*
X21000000Y8250000D02*
X16000000Y8250000D01*
D10*
X16000000Y8250000D02*
X16000000Y5750000D01*
D12*
X17750000Y4950000D02*
X18350000Y4950000D01*
D12*
X18050000Y4950000D02*
X18050000Y4150000D01*
D12*
X18560000Y4790000D02*
X18650000Y4950000D01*
X18650000Y4150000D01*
D12*
X18560000Y4150000D02*
X18740000Y4150000D01*
D10*
X15200000Y17600000D02*
X16800000Y17600000D01*
D10*
X16800000Y17600000D02*
X16800000Y18400000D01*
D10*
X16800000Y18400000D02*
X15200000Y18400000D01*
D10*
X15200000Y18400000D02*
X15200000Y17600000D01*
D12*
X15600000Y16640000D02*
X15450000Y16800000D01*
X15150000Y16800000D01*
X15000000Y16640000D01*
X15000000Y16160000D01*
X15150000Y16000000D01*
X15450000Y16000000D01*
X15600000Y16160000D01*
D12*
X15810000Y16640000D02*
X15900000Y16800000D01*
X15900000Y16000000D01*
D12*
X15810000Y16000000D02*
X15990000Y16000000D01*
D10*
X9200000Y17600000D02*
X10800000Y17600000D01*
D10*
X10800000Y17600000D02*
X10800000Y18400000D01*
D10*
X10800000Y18400000D02*
X9200000Y18400000D01*
D10*
X9200000Y18400000D02*
X9200000Y17600000D01*
D12*
X9600000Y16640000D02*
X9450000Y16800000D01*
X9150000Y16800000D01*
X9000000Y16640000D01*
X9000000Y16160000D01*
X9150000Y16000000D01*
X9450000Y16000000D01*
X9600000Y16160000D01*
D12*
X9600000Y16640000D02*
X9750000Y16800000D01*
X10050000Y16800000D01*
X10200000Y16560000D01*
X10200000Y16400000D01*
X9600000Y16000000D01*
X10200000Y16000000D01*
D10*
X9700000Y9600000D02*
X11300000Y9600000D01*
D10*
X11300000Y9600000D02*
X11300000Y10400000D01*
D10*
X11300000Y10400000D02*
X9700000Y10400000D01*
D10*
X9700000Y10400000D02*
X9700000Y9600000D01*
D12*
X10100000Y8640000D02*
X9950000Y8800000D01*
X9650000Y8800000D01*
X9500000Y8640000D01*
X9500000Y8160000D01*
X9650000Y8000000D01*
X9950000Y8000000D01*
X10100000Y8160000D01*
D10*
X14700000Y9600000D02*
X16300000Y9600000D01*
D10*
X16300000Y9600000D02*
X16300000Y10400000D01*
D10*
X16300000Y10400000D02*
X14700000Y10400000D01*
D10*
X14700000Y10400000D02*
X14700000Y9600000D01*
D12*
X15100000Y8640000D02*
X14950000Y8800000D01*
X14650000Y8800000D01*
X14500000Y8640000D01*
X14500000Y8160000D01*
X14650000Y8000000D01*
X14950000Y8000000D01*
X15100000Y8160000D01*
D10*
X6200000Y10100000D02*
X7800000Y10100000D01*
D10*
X7800000Y10100000D02*
X7800000Y10900000D01*
D10*
X7800000Y10900000D02*
X6200000Y10900000D01*
D10*
X6200000Y10900000D02*
X6200000Y10100000D01*
D12*
X6600000Y9140000D02*
X6450000Y9300000D01*
X6150000Y9300000D01*
X6000000Y9140000D01*
X6000000Y8660000D01*
X6150000Y8500000D01*
X6450000Y8500000D01*
X6600000Y8660000D01*
D10*
X14400000Y5700000D02*
X14400000Y7300000D01*
D10*
X14400000Y7300000D02*
X13600000Y7300000D01*
D10*
X13600000Y7300000D02*
X13600000Y5700000D01*
D10*
X13600000Y5700000D02*
X14400000Y5700000D01*
D12*
X13600000Y5140000D02*
X13450000Y5300000D01*
X13150000Y5300000D01*
X13000000Y5140000D01*
X13000000Y4660000D01*
X13150000Y4500000D01*
X13450000Y4500000D01*
X13600000Y4660000D01*
D10*
X12400000Y5700000D02*
X12400000Y7300000D01*
D10*
X12400000Y7300000D02*
X11600000Y7300000D01*
D10*
X11600000Y7300000D02*
X11600000Y5700000D01*
D10*
X11600000Y5700000D02*
X12400000Y5700000D01*
D12*
X11600000Y5140000D02*
X11450000Y5300000D01*
X11150000Y5300000D01*
X11000000Y5140000D01*
X11000000Y4660000D01*
X11150000Y4500000D01*
X11450000Y4500000D01*
X11600000Y4660000D01*
D10*
X17200000Y15600000D02*
X18800000Y15600000D01*
D10*
X18800000Y15600000D02*
X18800000Y16400000D01*
D10*
X18800000Y16400000D02*
X17200000Y16400000D01*
D10*
X17200000Y16400000D02*
X17200000Y15600000D01*
D12*
X17810000Y14640000D02*
X17900000Y14800000D01*
X17900000Y14000000D01*
D12*
X17810000Y14000000D02*
X17990000Y14000000D01*
D10*
X7200000Y15600000D02*
X8800000Y15600000D01*
D10*
X8800000Y15600000D02*
X8800000Y16400000D01*
D10*
X8800000Y16400000D02*
X7200000Y16400000D01*
D10*
X7200000Y16400000D02*
X7200000Y15600000D01*
D12*
X7600000Y14640000D02*
X7750000Y14800000D01*
X8050000Y14800000D01*
X8200000Y14560000D01*
X8200000Y14400000D01*
X7600000Y14000000D01*
X8200000Y14000000D01*
D10*
X8200000Y6600000D02*
X9800000Y6600000D01*
D10*
X9800000Y6600000D02*
X9800000Y7400000D01*
D10*
X9800000Y7400000D02*
X8200000Y7400000D01*
D10*
X8200000Y7400000D02*
X8200000Y6600000D01*
D10*
X9900000Y21300000D02*
X9700000Y21500000D01*
X9300000Y21500000D01*
X9100000Y21300000D01*
X9100000Y20700000D01*
X9300000Y20500000D01*
X9700000Y20500000D01*
X9900000Y20700000D01*
D10*
X10100000Y20500000D02*
X9900000Y20800000D01*
X9900000Y21200000D01*
X10100000Y21500000D01*
X10500000Y21500000D01*
X10700000Y21200000D01*
X10700000Y20800000D01*
X10500000Y20500000D01*
X10100000Y20500000D01*
D10*
X10980000Y21500000D02*
X11220000Y21500000D01*
D10*
X11100000Y21500000D02*
X11100000Y20500000D01*
D10*
X10980000Y20500000D02*
X11220000Y20500000D01*
D10*
X11500000Y20500000D02*
X11500000Y21500000D01*
X12300000Y20500000D01*
X12300000Y21500000D01*
D12*
X10250000Y2850000D02*
X10500000Y2150000D01*
X10750000Y2850000D01*
D12*
X10925000Y2710000D02*
X11000000Y2850000D01*
X11000000Y2150000D01*
D12*
X10925000Y2150000D02*
X11075000Y2150000D01*
D12*
X11500000Y2150000D02*
X11500000Y2220000D01*
D12*
X11875000Y2150000D02*
X11750000Y2360000D01*
X11750000Y2640000D01*
X11875000Y2850000D01*
X12125000Y2850000D01*
X12250000Y2640000D01*
X12250000Y2360000D01*
X12125000Y2150000D01*
X11875000Y2150000D01*
M02*
