G04 Koe COIN Lite -- Generated by generate_gerbers_coin_lite.py*
G04 Layer: B.Cu*
G04 Date: 2026-03-27*
%TF.FileFunction,Copper,L2,Bot*%
%TF.GenerationSoftware,KoeDevice,generate_gerbers_coin_lite.py,1.0*%
%TF.SameCoordinates,Original*%
%FSLAX36Y36*%
%MOMM*%
%LPD*%
%ADD10C,0.5000*%
%ADD11C,0.2500*%
D10*
X13000000Y13000000D03*
D10*
X8000000Y18000000D03*
D10*
X18000000Y18000000D03*
D10*
X8000000Y8000000D03*
D10*
X18000000Y8000000D03*
D10*
X10000000Y12000000D03*
D10*
X16000000Y12000000D03*
D10*
X13000000Y20000000D03*
D10*
X13000000Y9000000D03*
D10*
X6000000Y13000000D03*
D10*
X20000000Y13000000D03*
D11*
X13000000Y800000D02*
X13000000Y800000D01*
X10800000Y1000000D02*
X15200000Y1000000D01*
X9901613Y1200000D02*
X16098387Y1200000D01*
X9221111Y1400000D02*
X16778889Y1400000D01*
X8654888Y1600000D02*
X17345112Y1600000D01*
X8162645Y1800000D02*
X17837355Y1800000D01*
X7723638Y2000000D02*
X18276362Y2000000D01*
X7325496Y2200000D02*
X18674504Y2200000D01*
X6960132Y2400000D02*
X19039868Y2400000D01*
X6621913Y2600000D02*
X19378087Y2600000D01*
X6306720Y2800000D02*
X19693280Y2800000D01*
X6011438Y3000000D02*
X19988562Y3000000D01*
X5733639Y3200000D02*
X20266361Y3200000D01*
X5471388Y3400000D02*
X20528612Y3400000D01*
X5223111Y3600000D02*
X20776889Y3600000D01*
X4987510Y3800000D02*
X21012490Y3800000D01*
X4763496Y4000000D02*
X21236504Y4000000D01*
X4550148Y4200000D02*
X21449852Y4200000D01*
X4346677Y4400000D02*
X21653323Y4400000D01*
X4152401Y4600000D02*
X21847599Y4600000D01*
X3966728Y4800000D02*
X22033272Y4800000D01*
X3789137Y5000000D02*
X22210863Y5000000D01*
X3619168Y5200000D02*
X22380832Y5200000D01*
X3456416Y5400000D02*
X22543584Y5400000D01*
X3300515Y5600000D02*
X22699485Y5600000D01*
X3151142Y5800000D02*
X22848858Y5800000D01*
X3008003Y6000000D02*
X22991997Y6000000D01*
X2870834Y6200000D02*
X23129166Y6200000D01*
X2739396Y6400000D02*
X23260604Y6400000D01*
X2613470Y6600000D02*
X23386530Y6600000D01*
X2492860Y6800000D02*
X23507140Y6800000D01*
X2377383Y7000000D02*
X23622617Y7000000D01*
X2266874Y7200000D02*
X23733126Y7200000D01*
X2161181Y7400000D02*
X23838819Y7400000D01*
X2060165Y7600000D02*
X23939835Y7600000D01*
X1963696Y7800000D02*
X24036304Y7800000D01*
X1871658Y8000000D02*
X24128342Y8000000D01*
X1783940Y8200000D02*
X24216060Y8200000D01*
X1700442Y8400000D02*
X24299558Y8400000D01*
X1621072Y8600000D02*
X24378928Y8600000D01*
X1545743Y8800000D02*
X24454257Y8800000D01*
X1474376Y9000000D02*
X24525624Y9000000D01*
X1406899Y9200000D02*
X24593101Y9200000D01*
X1343242Y9400000D02*
X24656758Y9400000D01*
X1283345Y9600000D02*
X24716655Y9600000D01*
X1227150Y9800000D02*
X24772850Y9800000D01*
X1174604Y10000000D02*
X24825396Y10000000D01*
X1125658Y10200000D02*
X24874342Y10200000D01*
X1080268Y10400000D02*
X24919732Y10400000D01*
X1038395Y10600000D02*
X24961605Y10600000D01*
X1000000Y10800000D02*
X25000000Y10800000D01*
X965051Y11000000D02*
X25034949Y11000000D01*
X933517Y11200000D02*
X25066483Y11200000D01*
X905373Y11400000D02*
X25094627Y11400000D01*
X880594Y11600000D02*
X25119406Y11600000D01*
X859160Y11800000D02*
X25140840Y11800000D01*
X841053Y12000000D02*
X25158947Y12000000D01*
X826258Y12200000D02*
X25173742Y12200000D01*
X814763Y12400000D02*
X25185237Y12400000D01*
X806559Y12600000D02*
X25193441Y12600000D01*
X801639Y12800000D02*
X25198361Y12800000D01*
X800000Y13000000D02*
X25200000Y13000000D01*
X801639Y13200000D02*
X25198361Y13200000D01*
X806559Y13400000D02*
X25193441Y13400000D01*
X814763Y13600000D02*
X25185237Y13600000D01*
X826258Y13800000D02*
X25173742Y13800000D01*
X841053Y14000000D02*
X25158947Y14000000D01*
X859160Y14200000D02*
X25140840Y14200000D01*
X880594Y14400000D02*
X25119406Y14400000D01*
X905373Y14600000D02*
X25094627Y14600000D01*
X933517Y14800000D02*
X25066483Y14800000D01*
X965051Y15000000D02*
X25034949Y15000000D01*
X1000000Y15200000D02*
X25000000Y15200000D01*
X1038395Y15400000D02*
X24961605Y15400000D01*
X1080268Y15600000D02*
X24919732Y15600000D01*
X1125658Y15800000D02*
X24874342Y15800000D01*
X1174604Y16000000D02*
X24825396Y16000000D01*
X1227150Y16200000D02*
X24772850Y16200000D01*
X1283345Y16400000D02*
X24716655Y16400000D01*
X1343242Y16600000D02*
X24656758Y16600000D01*
X1406899Y16800000D02*
X24593101Y16800000D01*
X1474376Y17000000D02*
X24525624Y17000000D01*
X1545743Y17200000D02*
X24454257Y17200000D01*
X1621072Y17400000D02*
X24378928Y17400000D01*
X1700442Y17600000D02*
X24299558Y17600000D01*
X1783940Y17800000D02*
X24216060Y17800000D01*
X1871658Y18000000D02*
X24128342Y18000000D01*
X1963696Y18200000D02*
X24036304Y18200000D01*
X2060165Y18400000D02*
X23939835Y18400000D01*
X2161181Y18600000D02*
X23838819Y18600000D01*
X2266874Y18800000D02*
X23733126Y18800000D01*
X2377383Y19000000D02*
X23622617Y19000000D01*
X2492860Y19200000D02*
X23507140Y19200000D01*
X2613470Y19400000D02*
X23386530Y19400000D01*
X2739396Y19600000D02*
X23260604Y19600000D01*
X2870834Y19800000D02*
X23129166Y19800000D01*
X3008003Y20000000D02*
X22991997Y20000000D01*
X3151142Y20200000D02*
X22848858Y20200000D01*
X3300515Y20400000D02*
X22699485Y20400000D01*
X3456416Y20600000D02*
X22543584Y20600000D01*
X3619168Y20800000D02*
X22380832Y20800000D01*
X3789137Y21000000D02*
X22210863Y21000000D01*
X3966728Y21200000D02*
X22033272Y21200000D01*
X4152401Y21400000D02*
X21847599Y21400000D01*
X4346677Y21600000D02*
X21653323Y21600000D01*
X4550148Y21800000D02*
X21449852Y21800000D01*
X4763496Y22000000D02*
X21236504Y22000000D01*
X4987510Y22200000D02*
X21012490Y22200000D01*
X5223111Y22400000D02*
X20776889Y22400000D01*
X5471388Y22600000D02*
X20528612Y22600000D01*
X5733639Y22800000D02*
X20266361Y22800000D01*
X6011438Y23000000D02*
X19988562Y23000000D01*
X6306720Y23200000D02*
X19693280Y23200000D01*
X6621913Y23400000D02*
X19378087Y23400000D01*
X6960132Y23600000D02*
X19039868Y23600000D01*
X7325496Y23800000D02*
X18674504Y23800000D01*
X7723638Y24000000D02*
X18276362Y24000000D01*
X8162645Y24200000D02*
X17837355Y24200000D01*
X8654888Y24400000D02*
X17345112Y24400000D01*
X9221111Y24600000D02*
X16778889Y24600000D01*
X9901613Y24800000D02*
X16098387Y24800000D01*
X10800000Y25000000D02*
X15200000Y25000000D01*
X12999999Y25200000D02*
X13000001Y25200000D01*
M02*
