%FSLAX46Y46*%
%MOMM*%
G04 Koe HUB B.Cu*
%LPD*%
%ADD10C,0.600*%
%ADD11C,0.300*%
D10*
X10000000Y10000000D03*
D10*
X30000000Y10000000D03*
D10*
X60000000Y10000000D03*
D10*
X90000000Y10000000D03*
D10*
X110000000Y10000000D03*
D10*
X10000000Y30000000D03*
D10*
X30000000Y30000000D03*
D10*
X60000000Y30000000D03*
D10*
X90000000Y30000000D03*
D10*
X110000000Y30000000D03*
D10*
X10000000Y50000000D03*
D10*
X30000000Y50000000D03*
D10*
X60000000Y50000000D03*
D10*
X90000000Y50000000D03*
D10*
X110000000Y50000000D03*
D10*
X10000000Y70000000D03*
D10*
X30000000Y70000000D03*
D10*
X60000000Y70000000D03*
D10*
X90000000Y70000000D03*
D10*
X110000000Y70000000D03*
D10*
X10000000Y90000000D03*
D10*
X30000000Y90000000D03*
D10*
X60000000Y90000000D03*
D10*
X90000000Y90000000D03*
D10*
X110000000Y90000000D03*
D10*
X20000000Y20000000D03*
D10*
X40000000Y20000000D03*
D10*
X80000000Y20000000D03*
D10*
X100000000Y20000000D03*
D10*
X20000000Y40000000D03*
D10*
X40000000Y40000000D03*
D10*
X80000000Y40000000D03*
D10*
X100000000Y40000000D03*
D10*
X20000000Y60000000D03*
D10*
X40000000Y60000000D03*
D10*
X80000000Y60000000D03*
D10*
X100000000Y60000000D03*
D10*
X20000000Y80000000D03*
D10*
X40000000Y80000000D03*
D10*
X80000000Y80000000D03*
D10*
X100000000Y80000000D03*
D10*
X28000000Y82000000D03*
D10*
X30000000Y85000000D03*
D10*
X32000000Y82000000D03*
D10*
X30000000Y79000000D03*
D10*
X58000000Y35000000D03*
D10*
X60000000Y38000000D03*
D10*
X62000000Y35000000D03*
D10*
X60000000Y32000000D03*
D11*
X1000000Y1000000D02*
X119000000Y1000000D01*
X119000000Y99000000D01*
X1000000Y99000000D01*
X1000000Y1000000D01*
M02*
