M48
; Koe HUB 120x100mm Pi CM5 Carrier
FMAT,2
METRIC,TZ
T1C0.300
T2C4.300
T3C1.200
T4C0.800
%
T1
X10.000Y10.000
X30.000Y10.000
X60.000Y10.000
X90.000Y10.000
X110.000Y10.000
X10.000Y30.000
X30.000Y30.000
X60.000Y30.000
X90.000Y30.000
X110.000Y30.000
X10.000Y50.000
X30.000Y50.000
X60.000Y50.000
X90.000Y50.000
X110.000Y50.000
X10.000Y70.000
X30.000Y70.000
X60.000Y70.000
X90.000Y70.000
X110.000Y70.000
X10.000Y90.000
X30.000Y90.000
X60.000Y90.000
X90.000Y90.000
X110.000Y90.000
X20.000Y20.000
X40.000Y20.000
X80.000Y20.000
X100.000Y20.000
X20.000Y40.000
X40.000Y40.000
X80.000Y40.000
X100.000Y40.000
X20.000Y60.000
X40.000Y60.000
X80.000Y60.000
X100.000Y60.000
X20.000Y80.000
X40.000Y80.000
X80.000Y80.000
X100.000Y80.000
X28.000Y82.000
X30.000Y85.000
X32.000Y82.000
X30.000Y79.000
X58.000Y35.000
X60.000Y38.000
X62.000Y35.000
X60.000Y32.000
T2
X4.000Y4.000
X116.000Y4.000
X4.000Y96.000
X116.000Y96.000
T3
X105.555Y86.000
X106.825Y86.000
X108.095Y86.000
X109.365Y86.000
X110.635Y86.000
X111.905Y86.000
X113.175Y86.000
X114.445Y86.000
X102.130Y92.000
X117.870Y92.000
X104.000Y86.000
X116.000Y86.000
X6.000Y21.000
X14.000Y21.000
X10.000Y30.000
X3.000Y25.000
X17.000Y25.000
X6.000Y38.000
X14.000Y38.000
X10.000Y47.000
X3.000Y42.000
X17.000Y42.000
X6.000Y55.000
X14.000Y55.000
X10.000Y64.000
X3.000Y59.000
X17.000Y59.000
X6.000Y72.000
X14.000Y72.000
X10.000Y81.000
X3.000Y76.000
X17.000Y76.000
X6.000Y87.000
X10.000Y87.000
X14.000Y87.000
X6.000Y97.000
X14.000Y97.000
X1.000Y92.000
X19.000Y92.000
X31.000Y87.000
X35.000Y87.000
X39.000Y87.000
X31.000Y97.000
X39.000Y97.000
X26.000Y92.000
X44.000Y92.000
X102.000Y45.000
X112.000Y45.000
X102.000Y55.000
X112.000Y55.000
X97.000Y50.000
X117.000Y50.000
X102.000Y65.000
X112.000Y65.000
X102.000Y75.000
X112.000Y75.000
X97.000Y70.000
X117.000Y70.000
T4
X71.190Y8.000
X73.730Y8.000
X76.270Y8.000
X78.810Y8.000
X78.810Y12.000
X76.270Y12.000
X73.730Y12.000
X71.190Y12.000
M30
