%FSLAX46Y46*%
%MOMM*%
G04 Koe HUB F.Cu*
%LPD*%
%ADD10R,0.200X0.700*%
%ADD11R,0.250X0.800*%
%ADD12R,0.800X0.250*%
%ADD13C,4.000*%
%ADD14R,0.400X1.500*%
%ADD15R,0.300X1.200*%
%ADD16R,6.000X4.500*%
%ADD17R,1.500X2.500*%
%ADD18R,10.000X8.500*%
%ADD19R,0.800X1.500*%
%ADD20R,3.000X1.500*%
%ADD21C,1.000*%
%ADD22C,2.400*%
%ADD23R,0.600X1.200*%
%ADD24R,0.300X1.000*%
%ADD25R,0.500X1.000*%
%ADD26R,0.600X1.600*%
%ADD27R,0.250X1.000*%
%ADD28R,2.000X3.000*%
%ADD29C,2.000*%
%ADD30C,3.000*%
%ADD31C,2.500*%
%ADD32R,0.700X1.500*%
%ADD33R,1.500X2.000*%
%ADD34C,1.500*%
%ADD35R,1.000X1.600*%
%ADD36R,1.500X1.000*%
%ADD37C,5.500*%
%ADD38R,2.000X2.500*%
%ADD39R,1.000X1.200*%
%ADD40R,0.560X0.620*%
%ADD41R,1.200X1.600*%
%ADD42R,1.200X1.000*%
%ADD43C,0.500*%
%ADD44C,0.200*%
%ADD45C,0.600*%
D10*
X50200000Y44150000D03*
D10*
X50200000Y45850000D03*
D10*
X50600000Y44150000D03*
D10*
X50600000Y45850000D03*
D10*
X51000000Y44150000D03*
D10*
X51000000Y45850000D03*
D10*
X51400000Y44150000D03*
D10*
X51400000Y45850000D03*
D10*
X51800000Y44150000D03*
D10*
X51800000Y45850000D03*
D10*
X52200000Y44150000D03*
D10*
X52200000Y45850000D03*
D10*
X52600000Y44150000D03*
D10*
X52600000Y45850000D03*
D10*
X53000000Y44150000D03*
D10*
X53000000Y45850000D03*
D10*
X53400000Y44150000D03*
D10*
X53400000Y45850000D03*
D10*
X53800000Y44150000D03*
D10*
X53800000Y45850000D03*
D10*
X54200000Y44150000D03*
D10*
X54200000Y45850000D03*
D10*
X54600000Y44150000D03*
D10*
X54600000Y45850000D03*
D10*
X55000000Y44150000D03*
D10*
X55000000Y45850000D03*
D10*
X55400000Y44150000D03*
D10*
X55400000Y45850000D03*
D10*
X55800000Y44150000D03*
D10*
X55800000Y45850000D03*
D10*
X56200000Y44150000D03*
D10*
X56200000Y45850000D03*
D10*
X56600000Y44150000D03*
D10*
X56600000Y45850000D03*
D10*
X57000000Y44150000D03*
D10*
X57000000Y45850000D03*
D10*
X57400000Y44150000D03*
D10*
X57400000Y45850000D03*
D10*
X57800000Y44150000D03*
D10*
X57800000Y45850000D03*
D10*
X58200000Y44150000D03*
D10*
X58200000Y45850000D03*
D10*
X58600000Y44150000D03*
D10*
X58600000Y45850000D03*
D10*
X59000000Y44150000D03*
D10*
X59000000Y45850000D03*
D10*
X59400000Y44150000D03*
D10*
X59400000Y45850000D03*
D10*
X59800000Y44150000D03*
D10*
X59800000Y45850000D03*
D10*
X60200000Y44150000D03*
D10*
X60200000Y45850000D03*
D10*
X60600000Y44150000D03*
D10*
X60600000Y45850000D03*
D10*
X61000000Y44150000D03*
D10*
X61000000Y45850000D03*
D10*
X61400000Y44150000D03*
D10*
X61400000Y45850000D03*
D10*
X61800000Y44150000D03*
D10*
X61800000Y45850000D03*
D10*
X62200000Y44150000D03*
D10*
X62200000Y45850000D03*
D10*
X62600000Y44150000D03*
D10*
X62600000Y45850000D03*
D10*
X63000000Y44150000D03*
D10*
X63000000Y45850000D03*
D10*
X63400000Y44150000D03*
D10*
X63400000Y45850000D03*
D10*
X63800000Y44150000D03*
D10*
X63800000Y45850000D03*
D10*
X64200000Y44150000D03*
D10*
X64200000Y45850000D03*
D10*
X64600000Y44150000D03*
D10*
X64600000Y45850000D03*
D10*
X65000000Y44150000D03*
D10*
X65000000Y45850000D03*
D10*
X65400000Y44150000D03*
D10*
X65400000Y45850000D03*
D10*
X65800000Y44150000D03*
D10*
X65800000Y45850000D03*
D10*
X66200000Y44150000D03*
D10*
X66200000Y45850000D03*
D10*
X66600000Y44150000D03*
D10*
X66600000Y45850000D03*
D10*
X67000000Y44150000D03*
D10*
X67000000Y45850000D03*
D10*
X67400000Y44150000D03*
D10*
X67400000Y45850000D03*
D10*
X67800000Y44150000D03*
D10*
X67800000Y45850000D03*
D10*
X68200000Y44150000D03*
D10*
X68200000Y45850000D03*
D10*
X68600000Y44150000D03*
D10*
X68600000Y45850000D03*
D10*
X69000000Y44150000D03*
D10*
X69000000Y45850000D03*
D10*
X69400000Y44150000D03*
D10*
X69400000Y45850000D03*
D10*
X69800000Y44150000D03*
D10*
X69800000Y45850000D03*
D10*
X50200000Y51150000D03*
D10*
X50200000Y52850000D03*
D10*
X50600000Y51150000D03*
D10*
X50600000Y52850000D03*
D10*
X51000000Y51150000D03*
D10*
X51000000Y52850000D03*
D10*
X51400000Y51150000D03*
D10*
X51400000Y52850000D03*
D10*
X51800000Y51150000D03*
D10*
X51800000Y52850000D03*
D10*
X52200000Y51150000D03*
D10*
X52200000Y52850000D03*
D10*
X52600000Y51150000D03*
D10*
X52600000Y52850000D03*
D10*
X53000000Y51150000D03*
D10*
X53000000Y52850000D03*
D10*
X53400000Y51150000D03*
D10*
X53400000Y52850000D03*
D10*
X53800000Y51150000D03*
D10*
X53800000Y52850000D03*
D10*
X54200000Y51150000D03*
D10*
X54200000Y52850000D03*
D10*
X54600000Y51150000D03*
D10*
X54600000Y52850000D03*
D10*
X55000000Y51150000D03*
D10*
X55000000Y52850000D03*
D10*
X55400000Y51150000D03*
D10*
X55400000Y52850000D03*
D10*
X55800000Y51150000D03*
D10*
X55800000Y52850000D03*
D10*
X56200000Y51150000D03*
D10*
X56200000Y52850000D03*
D10*
X56600000Y51150000D03*
D10*
X56600000Y52850000D03*
D10*
X57000000Y51150000D03*
D10*
X57000000Y52850000D03*
D10*
X57400000Y51150000D03*
D10*
X57400000Y52850000D03*
D10*
X57800000Y51150000D03*
D10*
X57800000Y52850000D03*
D10*
X58200000Y51150000D03*
D10*
X58200000Y52850000D03*
D10*
X58600000Y51150000D03*
D10*
X58600000Y52850000D03*
D10*
X59000000Y51150000D03*
D10*
X59000000Y52850000D03*
D10*
X59400000Y51150000D03*
D10*
X59400000Y52850000D03*
D10*
X59800000Y51150000D03*
D10*
X59800000Y52850000D03*
D10*
X60200000Y51150000D03*
D10*
X60200000Y52850000D03*
D10*
X60600000Y51150000D03*
D10*
X60600000Y52850000D03*
D10*
X61000000Y51150000D03*
D10*
X61000000Y52850000D03*
D10*
X61400000Y51150000D03*
D10*
X61400000Y52850000D03*
D10*
X61800000Y51150000D03*
D10*
X61800000Y52850000D03*
D10*
X62200000Y51150000D03*
D10*
X62200000Y52850000D03*
D10*
X62600000Y51150000D03*
D10*
X62600000Y52850000D03*
D10*
X63000000Y51150000D03*
D10*
X63000000Y52850000D03*
D10*
X63400000Y51150000D03*
D10*
X63400000Y52850000D03*
D10*
X63800000Y51150000D03*
D10*
X63800000Y52850000D03*
D10*
X64200000Y51150000D03*
D10*
X64200000Y52850000D03*
D10*
X64600000Y51150000D03*
D10*
X64600000Y52850000D03*
D10*
X65000000Y51150000D03*
D10*
X65000000Y52850000D03*
D10*
X65400000Y51150000D03*
D10*
X65400000Y52850000D03*
D10*
X65800000Y51150000D03*
D10*
X65800000Y52850000D03*
D10*
X66200000Y51150000D03*
D10*
X66200000Y52850000D03*
D10*
X66600000Y51150000D03*
D10*
X66600000Y52850000D03*
D10*
X67000000Y51150000D03*
D10*
X67000000Y52850000D03*
D10*
X67400000Y51150000D03*
D10*
X67400000Y52850000D03*
D10*
X67800000Y51150000D03*
D10*
X67800000Y52850000D03*
D10*
X68200000Y51150000D03*
D10*
X68200000Y52850000D03*
D10*
X68600000Y51150000D03*
D10*
X68600000Y52850000D03*
D10*
X69000000Y51150000D03*
D10*
X69000000Y52850000D03*
D10*
X69400000Y51150000D03*
D10*
X69400000Y52850000D03*
D10*
X69800000Y51150000D03*
D10*
X69800000Y52850000D03*
D11*
X56750000Y32250000D03*
D11*
X56750000Y32750000D03*
D11*
X56750000Y33250000D03*
D11*
X56750000Y33750000D03*
D11*
X56750000Y34250000D03*
D11*
X56750000Y34750000D03*
D11*
X56750000Y35250000D03*
D11*
X56750000Y35750000D03*
D11*
X56750000Y36250000D03*
D11*
X56750000Y36750000D03*
D11*
X56750000Y37250000D03*
D11*
X56750000Y37750000D03*
D12*
X57250000Y38250000D03*
D12*
X57750000Y38250000D03*
D12*
X58250000Y38250000D03*
D12*
X58750000Y38250000D03*
D12*
X59250000Y38250000D03*
D12*
X59750000Y38250000D03*
D12*
X60250000Y38250000D03*
D12*
X60750000Y38250000D03*
D12*
X61250000Y38250000D03*
D12*
X61750000Y38250000D03*
D12*
X62250000Y38250000D03*
D12*
X62750000Y38250000D03*
D11*
X63250000Y37750000D03*
D11*
X63250000Y37250000D03*
D11*
X63250000Y36750000D03*
D11*
X63250000Y36250000D03*
D11*
X63250000Y35750000D03*
D11*
X63250000Y35250000D03*
D11*
X63250000Y34750000D03*
D11*
X63250000Y34250000D03*
D11*
X63250000Y33750000D03*
D11*
X63250000Y33250000D03*
D11*
X63250000Y32750000D03*
D11*
X63250000Y32250000D03*
D12*
X62750000Y31750000D03*
D12*
X62250000Y31750000D03*
D12*
X61750000Y31750000D03*
D12*
X61250000Y31750000D03*
D12*
X60750000Y31750000D03*
D12*
X60250000Y31750000D03*
D12*
X59750000Y31750000D03*
D12*
X59250000Y31750000D03*
D12*
X58750000Y31750000D03*
D12*
X58250000Y31750000D03*
D12*
X57750000Y31750000D03*
D12*
X57250000Y31750000D03*
D13*
X60000000Y35000000D03*
D14*
X26250000Y47075000D03*
D14*
X26250000Y47725000D03*
D14*
X26250000Y48375000D03*
D14*
X26250000Y49025000D03*
D14*
X26250000Y49675000D03*
D14*
X26250000Y50325000D03*
D14*
X26250000Y50975000D03*
D14*
X26250000Y51625000D03*
D14*
X26250000Y52275000D03*
D14*
X26250000Y52925000D03*
D14*
X33750000Y47075000D03*
D14*
X33750000Y47725000D03*
D14*
X33750000Y48375000D03*
D14*
X33750000Y49025000D03*
D14*
X33750000Y49675000D03*
D14*
X33750000Y50325000D03*
D14*
X33750000Y50975000D03*
D14*
X33750000Y51625000D03*
D14*
X33750000Y52275000D03*
D14*
X33750000Y52925000D03*
D14*
X26250000Y62075000D03*
D14*
X26250000Y62725000D03*
D14*
X26250000Y63375000D03*
D14*
X26250000Y64025000D03*
D14*
X26250000Y64675000D03*
D14*
X26250000Y65325000D03*
D14*
X26250000Y65975000D03*
D14*
X26250000Y66625000D03*
D14*
X26250000Y67275000D03*
D14*
X26250000Y67925000D03*
D14*
X33750000Y62075000D03*
D14*
X33750000Y62725000D03*
D14*
X33750000Y63375000D03*
D14*
X33750000Y64025000D03*
D14*
X33750000Y64675000D03*
D14*
X33750000Y65325000D03*
D14*
X33750000Y65975000D03*
D14*
X33750000Y66625000D03*
D14*
X33750000Y67275000D03*
D14*
X33750000Y67925000D03*
D15*
X86250000Y47075000D03*
D15*
X86250000Y47725000D03*
D15*
X86250000Y48375000D03*
D15*
X86250000Y49025000D03*
D15*
X86250000Y49675000D03*
D15*
X86250000Y50325000D03*
D15*
X86250000Y50975000D03*
D15*
X86250000Y51625000D03*
D15*
X86250000Y52275000D03*
D15*
X86250000Y52925000D03*
D15*
X93750000Y47075000D03*
D15*
X93750000Y47725000D03*
D15*
X93750000Y48375000D03*
D15*
X93750000Y49025000D03*
D15*
X93750000Y49675000D03*
D15*
X93750000Y50325000D03*
D15*
X93750000Y50975000D03*
D15*
X93750000Y51625000D03*
D15*
X93750000Y52275000D03*
D15*
X93750000Y52925000D03*
D15*
X86250000Y62075000D03*
D15*
X86250000Y62725000D03*
D15*
X86250000Y63375000D03*
D15*
X86250000Y64025000D03*
D15*
X86250000Y64675000D03*
D15*
X86250000Y65325000D03*
D15*
X86250000Y65975000D03*
D15*
X86250000Y66625000D03*
D15*
X86250000Y67275000D03*
D15*
X86250000Y67925000D03*
D15*
X93750000Y62075000D03*
D15*
X93750000Y62725000D03*
D15*
X93750000Y63375000D03*
D15*
X93750000Y64025000D03*
D15*
X93750000Y64675000D03*
D15*
X93750000Y65325000D03*
D15*
X93750000Y65975000D03*
D15*
X93750000Y66625000D03*
D15*
X93750000Y67275000D03*
D15*
X93750000Y67925000D03*
D15*
X24650000Y77125000D03*
D15*
X24650000Y77775000D03*
D15*
X24650000Y78425000D03*
D15*
X24650000Y79075000D03*
D15*
X24650000Y79725000D03*
D15*
X24650000Y80375000D03*
D15*
X24650000Y81025000D03*
D15*
X24650000Y81675000D03*
D15*
X24650000Y82325000D03*
D15*
X24650000Y82975000D03*
D15*
X24650000Y83625000D03*
D15*
X24650000Y84275000D03*
D15*
X24650000Y84925000D03*
D15*
X24650000Y85575000D03*
D15*
X24650000Y86225000D03*
D15*
X24650000Y86875000D03*
D15*
X35350000Y77125000D03*
D15*
X35350000Y77775000D03*
D15*
X35350000Y78425000D03*
D15*
X35350000Y79075000D03*
D15*
X35350000Y79725000D03*
D15*
X35350000Y80375000D03*
D15*
X35350000Y81025000D03*
D15*
X35350000Y81675000D03*
D15*
X35350000Y82325000D03*
D15*
X35350000Y82975000D03*
D15*
X35350000Y83625000D03*
D15*
X35350000Y84275000D03*
D15*
X35350000Y84925000D03*
D15*
X35350000Y85575000D03*
D15*
X35350000Y86225000D03*
D15*
X35350000Y86875000D03*
D16*
X30000000Y82000000D03*
D17*
X96600000Y10000000D03*
D17*
X98300000Y10000000D03*
D17*
X100000000Y10000000D03*
D17*
X101700000Y10000000D03*
D17*
X103400000Y10000000D03*
D18*
X100000000Y18000000D03*
D19*
X77700000Y18250000D03*
D19*
X80000000Y18250000D03*
D19*
X82300000Y18250000D03*
D20*
X80000000Y11750000D03*
D21*
X105555000Y86000000D03*
D21*
X106825000Y86000000D03*
D21*
X108095000Y86000000D03*
D21*
X109365000Y86000000D03*
D21*
X110635000Y86000000D03*
D21*
X111905000Y86000000D03*
D21*
X113175000Y86000000D03*
D21*
X114445000Y86000000D03*
D22*
X102130000Y92000000D03*
D22*
X117870000Y92000000D03*
D21*
X104000000Y86000000D03*
D21*
X116000000Y86000000D03*
D23*
X57250000Y2000000D03*
D23*
X62750000Y2000000D03*
D24*
X59750000Y2000000D03*
D24*
X60250000Y2000000D03*
D24*
X58250000Y2000000D03*
D24*
X61750000Y2000000D03*
D25*
X56500000Y2000000D03*
D25*
X63500000Y2000000D03*
D26*
X55850000Y3500000D03*
D26*
X64150000Y3500000D03*
D27*
X35500000Y500000D03*
D27*
X36000000Y500000D03*
D27*
X36500000Y500000D03*
D27*
X37000000Y500000D03*
D27*
X37500000Y500000D03*
D27*
X38000000Y500000D03*
D27*
X38500000Y500000D03*
D27*
X39000000Y500000D03*
D27*
X39500000Y500000D03*
D27*
X40000000Y500000D03*
D27*
X40500000Y500000D03*
D27*
X41000000Y500000D03*
D27*
X41500000Y500000D03*
D27*
X42000000Y500000D03*
D27*
X42500000Y500000D03*
D27*
X43000000Y500000D03*
D27*
X43500000Y500000D03*
D27*
X44000000Y500000D03*
D27*
X44500000Y500000D03*
D28*
X33000000Y3000000D03*
D28*
X47000000Y3000000D03*
D29*
X6000000Y21000000D03*
D29*
X14000000Y21000000D03*
D29*
X10000000Y30000000D03*
D30*
X3000000Y25000000D03*
D30*
X17000000Y25000000D03*
D29*
X6000000Y38000000D03*
D29*
X14000000Y38000000D03*
D29*
X10000000Y47000000D03*
D30*
X3000000Y42000000D03*
D30*
X17000000Y42000000D03*
D29*
X6000000Y55000000D03*
D29*
X14000000Y55000000D03*
D29*
X10000000Y64000000D03*
D30*
X3000000Y59000000D03*
D30*
X17000000Y59000000D03*
D29*
X6000000Y72000000D03*
D29*
X14000000Y72000000D03*
D29*
X10000000Y81000000D03*
D30*
X3000000Y76000000D03*
D30*
X17000000Y76000000D03*
D29*
X6000000Y87000000D03*
D29*
X10000000Y87000000D03*
D29*
X14000000Y87000000D03*
D29*
X6000000Y97000000D03*
D29*
X14000000Y97000000D03*
D30*
X1000000Y92000000D03*
D30*
X19000000Y92000000D03*
D29*
X31000000Y87000000D03*
D29*
X35000000Y87000000D03*
D29*
X39000000Y87000000D03*
D29*
X31000000Y97000000D03*
D29*
X39000000Y97000000D03*
D30*
X26000000Y92000000D03*
D30*
X44000000Y92000000D03*
D31*
X102000000Y45000000D03*
D31*
X112000000Y45000000D03*
D31*
X102000000Y55000000D03*
D31*
X112000000Y55000000D03*
D30*
X97000000Y50000000D03*
D30*
X117000000Y50000000D03*
D31*
X102000000Y65000000D03*
D31*
X112000000Y65000000D03*
D31*
X102000000Y75000000D03*
D31*
X112000000Y75000000D03*
D30*
X97000000Y70000000D03*
D30*
X117000000Y70000000D03*
D32*
X74500000Y2000000D03*
D32*
X75700000Y2000000D03*
D32*
X76900000Y2000000D03*
D32*
X78100000Y2000000D03*
D32*
X79300000Y2000000D03*
D32*
X80500000Y2000000D03*
D32*
X81700000Y2000000D03*
D32*
X82900000Y2000000D03*
D32*
X84100000Y2000000D03*
D33*
X72500000Y6000000D03*
D33*
X87500000Y6000000D03*
D34*
X60000000Y25000000D03*
D29*
X57460000Y25000000D03*
D29*
X62540000Y25000000D03*
D21*
X47550000Y8400000D03*
D21*
X52450000Y8400000D03*
D21*
X52450000Y11600000D03*
D21*
X47550000Y11600000D03*
D21*
X52550000Y8400000D03*
D21*
X57450000Y8400000D03*
D21*
X57450000Y11600000D03*
D21*
X52550000Y11600000D03*
D21*
X57550000Y8400000D03*
D21*
X62450000Y8400000D03*
D21*
X62450000Y11600000D03*
D21*
X57550000Y11600000D03*
D21*
X62550000Y8400000D03*
D21*
X67450000Y8400000D03*
D21*
X67450000Y11600000D03*
D21*
X62550000Y11600000D03*
D35*
X71190000Y8000000D03*
D35*
X73730000Y8000000D03*
D35*
X76270000Y8000000D03*
D35*
X78810000Y8000000D03*
D35*
X78810000Y12000000D03*
D35*
X76270000Y12000000D03*
D35*
X73730000Y12000000D03*
D35*
X71190000Y12000000D03*
D36*
X86750000Y10000000D03*
D36*
X93250000Y10000000D03*
D37*
X4000000Y4000000D03*
D37*
X116000000Y4000000D03*
D37*
X4000000Y96000000D03*
D37*
X116000000Y96000000D03*
D38*
X93000000Y23000000D03*
D38*
X97000000Y23000000D03*
D30*
X83500000Y23000000D03*
D30*
X92500000Y23000000D03*
D29*
X106500000Y23000000D03*
D29*
X109500000Y23000000D03*
D29*
X76500000Y23000000D03*
D29*
X79500000Y23000000D03*
D39*
X54050000Y42000000D03*
D39*
X55950000Y42000000D03*
D39*
X64050000Y42000000D03*
D39*
X65950000Y42000000D03*
D40*
X54520000Y33000000D03*
D40*
X55480000Y33000000D03*
D40*
X64520000Y33000000D03*
D40*
X65480000Y33000000D03*
D39*
X24050000Y46000000D03*
D39*
X25950000Y46000000D03*
D39*
X34050000Y46000000D03*
D39*
X35950000Y46000000D03*
D39*
X24050000Y61000000D03*
D39*
X25950000Y61000000D03*
D39*
X34050000Y61000000D03*
D39*
X35950000Y61000000D03*
D39*
X84050000Y46000000D03*
D39*
X85950000Y46000000D03*
D39*
X94050000Y46000000D03*
D39*
X95950000Y46000000D03*
D39*
X84050000Y61000000D03*
D39*
X85950000Y61000000D03*
D39*
X94050000Y61000000D03*
D39*
X95950000Y61000000D03*
D41*
X23600000Y78000000D03*
D41*
X26400000Y78000000D03*
D39*
X34050000Y78000000D03*
D39*
X35950000Y78000000D03*
D39*
X74050000Y18000000D03*
D39*
X75950000Y18000000D03*
D39*
X84050000Y18000000D03*
D39*
X85950000Y18000000D03*
D40*
X55520000Y6000000D03*
D40*
X56480000Y6000000D03*
D40*
X63520000Y6000000D03*
D40*
X64480000Y6000000D03*
D42*
X25000000Y84050000D03*
D42*
X25000000Y85950000D03*
D42*
X35000000Y84050000D03*
D42*
X35000000Y85950000D03*
D40*
X46520000Y10000000D03*
D40*
X47480000Y10000000D03*
D40*
X29520000Y43000000D03*
D40*
X30480000Y43000000D03*
D40*
X29520000Y58000000D03*
D40*
X30480000Y58000000D03*
D40*
X89520000Y43000000D03*
D40*
X90480000Y43000000D03*
D40*
X89520000Y58000000D03*
D40*
X90480000Y58000000D03*
D43*
X60000000Y3000000D02*
X60000000Y8000000D01*
D43*
X60000000Y8000000D02*
X100000000Y8000000D01*
D43*
X100000000Y8000000D02*
X100000000Y15000000D01*
D43*
X88000000Y23000000D02*
X80000000Y23000000D01*
D43*
X80000000Y23000000D02*
X80000000Y15000000D01*
D43*
X80000000Y23000000D02*
X60000000Y23000000D01*
D43*
X60000000Y23000000D02*
X60000000Y45000000D01*
D44*
X80000000Y18250000D02*
X60000000Y18000000D01*
D44*
X60000000Y18000000D02*
X60000000Y35000000D01*
D44*
X60000000Y18000000D02*
X50000000Y10000000D01*
D44*
X60000000Y35000000D02*
X30000000Y50000000D01*
D44*
X30000000Y50000000D02*
X30000000Y65000000D01*
D44*
X60000000Y35000000D02*
X90000000Y50000000D01*
D44*
X90000000Y50000000D02*
X90000000Y65000000D01*
D44*
X50200000Y45000000D02*
X33750000Y48500000D01*
D44*
X50600000Y45000000D02*
X33750000Y49150000D01*
D44*
X51000000Y45000000D02*
X33750000Y49800000D01*
D44*
X51400000Y45000000D02*
X33750000Y63500000D01*
D44*
X51800000Y45000000D02*
X33750000Y64150000D01*
D44*
X52200000Y45000000D02*
X33750000Y64800000D01*
D44*
X86250000Y48500000D02*
X69800000Y45000000D01*
D44*
X86250000Y49150000D02*
X69400000Y45000000D01*
D44*
X86250000Y49800000D02*
X69000000Y45000000D01*
D44*
X86250000Y63500000D02*
X68600000Y45000000D01*
D44*
X86250000Y64150000D02*
X68200000Y45000000D01*
D44*
X86250000Y64800000D02*
X67800000Y45000000D01*
D44*
X26250000Y50000000D02*
X22000000Y50000000D01*
D44*
X22000000Y50000000D02*
X22000000Y50000000D01*
D44*
X22000000Y50000000D02*
X102000000Y45000000D01*
D44*
X26250000Y51000000D02*
X22000000Y51000000D01*
D44*
X22000000Y51000000D02*
X22000000Y51000000D01*
D44*
X22000000Y51000000D02*
X102000000Y48000000D01*
D44*
X26250000Y65000000D02*
X24650000Y80000000D01*
D44*
X26250000Y66000000D02*
X24650000Y81000000D01*
D43*
X35350000Y78000000D02*
X50000000Y70000000D01*
D43*
X50000000Y70000000D02*
X102000000Y65000000D01*
D43*
X35350000Y80000000D02*
X50000000Y73000000D01*
D43*
X50000000Y73000000D02*
X102000000Y68000000D01*
D44*
X6000000Y21000000D02*
X20000000Y20000000D01*
D44*
X20000000Y20000000D02*
X86250000Y48000000D01*
D44*
X6000000Y38000000D02*
X20000000Y38000000D01*
D44*
X20000000Y38000000D02*
X86250000Y51000000D01*
D44*
X6000000Y55000000D02*
X20000000Y55000000D01*
D44*
X20000000Y55000000D02*
X86250000Y63000000D01*
D44*
X6000000Y72000000D02*
X20000000Y72000000D01*
D44*
X20000000Y72000000D02*
X86250000Y66000000D01*
D44*
X10000000Y87000000D02*
X20000000Y87000000D01*
D44*
X20000000Y87000000D02*
X85000000Y55000000D01*
D44*
X85000000Y55000000D02*
X86250000Y52000000D01*
D44*
X35000000Y87000000D02*
X45000000Y87000000D01*
D44*
X45000000Y87000000D02*
X85000000Y70000000D01*
D44*
X85000000Y70000000D02*
X86250000Y67000000D01*
D44*
X63250000Y32250000D02*
X60000000Y28000000D01*
D44*
X60000000Y28000000D02*
X60000000Y25000000D01*
D44*
X60000000Y52000000D02*
X60000000Y40000000D01*
D44*
X60000000Y40000000D02*
X56750000Y35000000D01*
D44*
X69800000Y52000000D02*
X85000000Y60000000D01*
D44*
X85000000Y60000000D02*
X110000000Y80000000D01*
D44*
X110000000Y80000000D02*
X110000000Y92000000D01*
D44*
X50200000Y52000000D02*
X40000000Y30000000D01*
D44*
X40000000Y30000000D02*
X40000000Y3000000D01*
D44*
X67800000Y52000000D02*
X75000000Y15000000D01*
D44*
X75000000Y15000000D02*
X80000000Y5000000D01*
D44*
X48200000Y52000000D02*
X47000000Y10000000D01*
D44*
X52450000Y11600000D02*
X52550000Y8400000D01*
D44*
X57450000Y11600000D02*
X57550000Y8400000D01*
D44*
X62450000Y11600000D02*
X62550000Y8400000D01*
D44*
X60250000Y3000000D02*
X61000000Y20000000D01*
D44*
X61000000Y20000000D02*
X60400000Y45000000D01*
D44*
X59750000Y3000000D02*
X59000000Y20000000D01*
D44*
X59000000Y20000000D02*
X59600000Y45000000D01*
D44*
X56000000Y6000000D02*
X58250000Y3000000D01*
D44*
X64000000Y6000000D02*
X61750000Y3000000D01*
D44*
X75000000Y10000000D02*
X70000000Y20000000D01*
D44*
X70000000Y20000000D02*
X66800000Y45000000D01*
D44*
X93250000Y10000000D02*
X65800000Y45000000D01*
D45*
X10000000Y10000000D03*
D45*
X30000000Y10000000D03*
D45*
X60000000Y10000000D03*
D45*
X90000000Y10000000D03*
D45*
X110000000Y10000000D03*
D45*
X10000000Y30000000D03*
D45*
X30000000Y30000000D03*
D45*
X60000000Y30000000D03*
D45*
X90000000Y30000000D03*
D45*
X110000000Y30000000D03*
D45*
X10000000Y50000000D03*
D45*
X30000000Y50000000D03*
D45*
X60000000Y50000000D03*
D45*
X90000000Y50000000D03*
D45*
X110000000Y50000000D03*
D45*
X10000000Y70000000D03*
D45*
X30000000Y70000000D03*
D45*
X60000000Y70000000D03*
D45*
X90000000Y70000000D03*
D45*
X110000000Y70000000D03*
D45*
X10000000Y90000000D03*
D45*
X30000000Y90000000D03*
D45*
X60000000Y90000000D03*
D45*
X90000000Y90000000D03*
D45*
X110000000Y90000000D03*
D45*
X20000000Y20000000D03*
D45*
X40000000Y20000000D03*
D45*
X80000000Y20000000D03*
D45*
X100000000Y20000000D03*
D45*
X20000000Y40000000D03*
D45*
X40000000Y40000000D03*
D45*
X80000000Y40000000D03*
D45*
X100000000Y40000000D03*
D45*
X20000000Y60000000D03*
D45*
X40000000Y60000000D03*
D45*
X80000000Y60000000D03*
D45*
X100000000Y60000000D03*
D45*
X20000000Y80000000D03*
D45*
X40000000Y80000000D03*
D45*
X80000000Y80000000D03*
D45*
X100000000Y80000000D03*
D45*
X28000000Y82000000D03*
D45*
X30000000Y85000000D03*
D45*
X32000000Y82000000D03*
D45*
X30000000Y79000000D03*
D45*
X58000000Y35000000D03*
D45*
X60000000Y38000000D03*
D45*
X62000000Y35000000D03*
D45*
X60000000Y32000000D03*
M02*
