<?xml version="1.0" encoding="UTF-8"?>
<svg xmlns="http://www.w3.org/2000/svg" width="840" height="760">
<defs>
  <linearGradient id="pcb" x1="0%" y1="0%" x2="100%" y2="100%">
    <stop offset="0%" stop-color="#0d5c0d"/><stop offset="100%" stop-color="#063806"/>
  </linearGradient>
  <filter id="sh"><feDropShadow dx="1" dy="2" stdDeviation="2" flood-opacity="0.4"/></filter>
</defs>
<rect width="840" height="760" fill="#0d0d14"/>

<!-- Title -->
<text x="420" y="18" text-anchor="middle" fill="#e0e0e0" font-family="Helvetica,sans-serif" font-size="15" font-weight="600">Koe SUB v1 — 300W Class-D Subwoofer Board</text>
<text x="420" y="35" text-anchor="middle" fill="#888" font-family="sans-serif" font-size="10">120x80mm | 2-layer 2oz | Pi5 + TPA3255 + PCM5102A | 48V/10A</text>

<!-- Board -->
<rect x="58" y="78" width="724.0" height="484.0" rx="3" fill="#000" opacity="0.3"/>
<rect x="60" y="80" width="720.0" height="480.0" rx="2" fill="url(#pcb)" stroke="#c8a83e" stroke-width="1.5"/>
<rect x="64" y="84" width="712.0" height="472.0" rx="2" fill="#0a4a0a" opacity="0.3" stroke="#1a6a1a" stroke-width="0.5" stroke-dasharray="4,3"/>
<circle cx="90.0" cy="110.0" r="12.600000000000001" fill="#1a1a1a" stroke="#888" stroke-width="1"/>
<circle cx="90.0" cy="110.0" r="21.0" fill="none" stroke="#c8a83e" stroke-width="0.5" opacity="0.4"/>
<circle cx="750.0" cy="110.0" r="12.600000000000001" fill="#1a1a1a" stroke="#888" stroke-width="1"/>
<circle cx="750.0" cy="110.0" r="21.0" fill="none" stroke="#c8a83e" stroke-width="0.5" opacity="0.4"/>
<circle cx="90.0" cy="530.0" r="12.600000000000001" fill="#1a1a1a" stroke="#888" stroke-width="1"/>
<circle cx="90.0" cy="530.0" r="21.0" fill="none" stroke="#c8a83e" stroke-width="0.5" opacity="0.4"/>
<circle cx="750.0" cy="530.0" r="12.600000000000001" fill="#1a1a1a" stroke="#888" stroke-width="1"/>
<circle cx="750.0" cy="530.0" r="21.0" fill="none" stroke="#c8a83e" stroke-width="0.5" opacity="0.4"/>
<line x1="690.0" y1="500.0" x2="630.0" y2="500.0" stroke="#ef5350" stroke-width="3.0" opacity="0.35" stroke-linecap="round"/>
<line x1="630.0" y1="500.0" x2="570.0" y2="470.0" stroke="#ef5350" stroke-width="3.0" opacity="0.35" stroke-linecap="round"/>
<line x1="570.0" y1="470.0" x2="510.0" y2="410.0" stroke="#ef5350" stroke-width="3.0" opacity="0.35" stroke-linecap="round"/>
<line x1="570.0" y1="470.0" x2="570.0" y2="410.0" stroke="#ef5350" stroke-width="3.0" opacity="0.35" stroke-linecap="round"/>
<line x1="570.0" y1="410.0" x2="630.0" y2="350.0" stroke="#ef5350" stroke-width="3.0" opacity="0.35" stroke-linecap="round"/>
<line x1="570.0" y1="470.0" x2="360.0" y2="440.0" stroke="#ef5350" stroke-width="3.0" opacity="0.35" stroke-linecap="round"/>
<line x1="360.0" y1="440.0" x2="420.0" y2="350.0" stroke="#ef5350" stroke-width="3.0" opacity="0.35" stroke-linecap="round"/>
<line x1="720.0" y1="368.0" x2="630.0" y2="308.0" stroke="#ff7043" stroke-width="1.5" opacity="0.35" stroke-linecap="round"/>
<line x1="630.0" y1="308.0" x2="510.0" y2="200.0" stroke="#ff7043" stroke-width="1.5" opacity="0.35" stroke-linecap="round"/>
<line x1="510.0" y1="200.0" x2="420.0" y2="170.0" stroke="#ff7043" stroke-width="1.5" opacity="0.35" stroke-linecap="round"/>
<line x1="240.0" y1="420.79999999999995" x2="240.0" y2="350.0" stroke="#66bb6a" stroke-width="1.5" opacity="0.35" stroke-linecap="round"/>
<line x1="240.0" y1="350.0" x2="240.0" y2="320.0" stroke="#66bb6a" stroke-width="1.5" opacity="0.35" stroke-linecap="round"/>
<line x1="240.0" y1="420.79999999999995" x2="330.0" y2="512.0" stroke="#66bb6a" stroke-width="1.5" opacity="0.35" stroke-linecap="round"/>
<line x1="330.0" y1="512.0" x2="390.0" y2="512.0" stroke="#66bb6a" stroke-width="1.5" opacity="0.35" stroke-linecap="round"/>
<line x1="312.0" y1="170.0" x2="312.0" y2="260.0" stroke="#42a5f5" stroke-width="1.5" opacity="0.35" stroke-linecap="round"/>
<line x1="312.0" y1="260.0" x2="262.5" y2="320.0" stroke="#42a5f5" stroke-width="1.5" opacity="0.35" stroke-linecap="round"/>
<line x1="327.0" y1="170.0" x2="327.0" y2="272.0" stroke="#42a5f5" stroke-width="1.5" opacity="0.35" stroke-linecap="round"/>
<line x1="327.0" y1="272.0" x2="262.5" y2="327.79999999999995" stroke="#42a5f5" stroke-width="1.5" opacity="0.35" stroke-linecap="round"/>
<line x1="342.0" y1="170.0" x2="342.0" y2="284.0" stroke="#42a5f5" stroke-width="1.5" opacity="0.35" stroke-linecap="round"/>
<line x1="342.0" y1="284.0" x2="262.5" y2="335.6" stroke="#42a5f5" stroke-width="1.5" opacity="0.35" stroke-linecap="round"/>
<line x1="217.5" y1="320.0" x2="216.0" y2="344.0" stroke="#ab47bc" stroke-width="1.5" opacity="0.35" stroke-linecap="round"/>
<line x1="216.0" y1="344.0" x2="348.0" y2="344.0" stroke="#ab47bc" stroke-width="1.5" opacity="0.35" stroke-linecap="round"/>
<line x1="348.0" y1="344.0" x2="390.9" y2="350.0" stroke="#ab47bc" stroke-width="1.5" opacity="0.35" stroke-linecap="round"/>
<line x1="449.09999999999997" y1="326.0" x2="588.0" y2="290.0" stroke="#ff7043" stroke-width="3.0" opacity="0.35" stroke-linecap="round"/>
<line x1="588.0" y1="290.0" x2="660.0" y2="200.0" stroke="#ff7043" stroke-width="3.0" opacity="0.35" stroke-linecap="round"/>
<line x1="660.0" y1="200.0" x2="690.0" y2="170.0" stroke="#ff7043" stroke-width="3.0" opacity="0.35" stroke-linecap="round"/>
<line x1="449.09999999999997" y1="374.0" x2="588.0" y2="290.0" stroke="#ff7043" stroke-width="3.0" opacity="0.35" stroke-linecap="round"/>
<line x1="588.0" y1="290.0" x2="660.0" y2="140.0" stroke="#ff7043" stroke-width="3.0" opacity="0.35" stroke-linecap="round"/>
<line x1="660.0" y1="140.0" x2="690.0" y2="170.0" stroke="#ff7043" stroke-width="3.0" opacity="0.35" stroke-linecap="round"/>
<line x1="300.0" y1="512.0" x2="315.29999999999995" y2="512.0" stroke="#f9a825" stroke-width="1.5" opacity="0.35" stroke-linecap="round"/>
<line x1="344.70000000000005" y1="512.0" x2="375.29999999999995" y2="512.0" stroke="#f9a825" stroke-width="1.5" opacity="0.35" stroke-linecap="round"/>
<line x1="360.0" y1="170.0" x2="300.0" y2="488.0" stroke="#f9a825" stroke-width="1.5" opacity="0.35" stroke-linecap="round"/>
<line x1="300.0" y1="488.0" x2="300.0" y2="512.0" stroke="#f9a825" stroke-width="1.5" opacity="0.35" stroke-linecap="round"/>
<line x1="132.0" y1="512.0" x2="140.4" y2="530.0" stroke="#78909c" stroke-width="1.5" opacity="0.35" stroke-linecap="round"/>
<line x1="168.0" y1="512.0" x2="159.60000000000002" y2="530.0" stroke="#78909c" stroke-width="1.5" opacity="0.35" stroke-linecap="round"/>
<line x1="570.0" y1="530.0" x2="562.38" y2="530.0" stroke="#ff7043" stroke-width="1.5" opacity="0.35" stroke-linecap="round"/>
<line x1="150.0" y1="212.0" x2="420.0" y2="212.0" stroke="#78909c" stroke-width="3.0" opacity="0.35" stroke-linecap="round"/>
<line x1="420.0" y1="212.0" x2="690.0" y2="212.0" stroke="#78909c" stroke-width="3.0" opacity="0.35" stroke-linecap="round"/>
<line x1="420.0" y1="212.0" x2="420.0" y2="410.0" stroke="#78909c" stroke-width="1.5" opacity="0.35" stroke-linecap="round"/>
<circle cx="120" cy="140" r="2.3" fill="#1a1a1a" stroke="#666" stroke-width="0.4"/>
<circle cx="240" cy="140" r="2.3" fill="#1a1a1a" stroke="#666" stroke-width="0.4"/>
<circle cx="360" cy="140" r="2.3" fill="#1a1a1a" stroke="#666" stroke-width="0.4"/>
<circle cx="480" cy="140" r="2.3" fill="#1a1a1a" stroke="#666" stroke-width="0.4"/>
<circle cx="600" cy="140" r="2.3" fill="#1a1a1a" stroke="#666" stroke-width="0.4"/>
<circle cx="720" cy="140" r="2.3" fill="#1a1a1a" stroke="#666" stroke-width="0.4"/>
<circle cx="120" cy="260" r="2.3" fill="#1a1a1a" stroke="#666" stroke-width="0.4"/>
<circle cx="240" cy="260" r="2.3" fill="#1a1a1a" stroke="#666" stroke-width="0.4"/>
<circle cx="360" cy="260" r="2.3" fill="#1a1a1a" stroke="#666" stroke-width="0.4"/>
<circle cx="480" cy="260" r="2.3" fill="#1a1a1a" stroke="#666" stroke-width="0.4"/>
<circle cx="600" cy="260" r="2.3" fill="#1a1a1a" stroke="#666" stroke-width="0.4"/>
<circle cx="720" cy="260" r="2.3" fill="#1a1a1a" stroke="#666" stroke-width="0.4"/>
<circle cx="120" cy="380" r="2.3" fill="#1a1a1a" stroke="#666" stroke-width="0.4"/>
<circle cx="240" cy="380" r="2.3" fill="#1a1a1a" stroke="#666" stroke-width="0.4"/>
<circle cx="360" cy="380" r="2.3" fill="#1a1a1a" stroke="#666" stroke-width="0.4"/>
<circle cx="480" cy="380" r="2.3" fill="#1a1a1a" stroke="#666" stroke-width="0.4"/>
<circle cx="600" cy="380" r="2.3" fill="#1a1a1a" stroke="#666" stroke-width="0.4"/>
<circle cx="720" cy="380" r="2.3" fill="#1a1a1a" stroke="#666" stroke-width="0.4"/>
<circle cx="120" cy="500" r="2.3" fill="#1a1a1a" stroke="#666" stroke-width="0.4"/>
<circle cx="240" cy="500" r="2.3" fill="#1a1a1a" stroke="#666" stroke-width="0.4"/>
<circle cx="360" cy="500" r="2.3" fill="#1a1a1a" stroke="#666" stroke-width="0.4"/>
<circle cx="480" cy="500" r="2.3" fill="#1a1a1a" stroke="#666" stroke-width="0.4"/>
<circle cx="600" cy="500" r="2.3" fill="#1a1a1a" stroke="#666" stroke-width="0.4"/>
<circle cx="720" cy="500" r="2.3" fill="#1a1a1a" stroke="#666" stroke-width="0.4"/>
<circle cx="396" cy="338" r="2.3" fill="#1a1a1a" stroke="#666" stroke-width="0.4"/>
<circle cx="420" cy="338" r="2.3" fill="#1a1a1a" stroke="#666" stroke-width="0.4"/>
<circle cx="444" cy="338" r="2.3" fill="#1a1a1a" stroke="#666" stroke-width="0.4"/>
<circle cx="396" cy="362" r="2.3" fill="#1a1a1a" stroke="#666" stroke-width="0.4"/>
<circle cx="420" cy="362" r="2.3" fill="#1a1a1a" stroke="#666" stroke-width="0.4"/>
<circle cx="444" cy="362" r="2.3" fill="#1a1a1a" stroke="#666" stroke-width="0.4"/>
<circle cx="618" cy="440" r="2.3" fill="#1a1a1a" stroke="#666" stroke-width="0.4"/>
<circle cx="642" cy="440" r="2.3" fill="#1a1a1a" stroke="#666" stroke-width="0.4"/>
<g transform="translate(420.0,170.0) rotate(0)" filter="url(#sh)">
<rect x="-149.88" y="-12.719999999999999" width="10.2" height="10.2" fill="#c8a83e" rx="0.5" opacity="0.45"/>
<rect x="-134.64" y="-12.719999999999999" width="10.2" height="10.2" fill="#c8a83e" rx="0.5" opacity="0.45"/>
<rect x="-119.4" y="-12.719999999999999" width="10.2" height="10.2" fill="#c8a83e" rx="0.5" opacity="0.45"/>
<rect x="-104.16" y="-12.719999999999999" width="10.2" height="10.2" fill="#c8a83e" rx="0.5" opacity="0.45"/>
<rect x="-88.92" y="-12.719999999999999" width="10.2" height="10.2" fill="#c8a83e" rx="0.5" opacity="0.45"/>
<rect x="-73.67999999999999" y="-12.719999999999999" width="10.2" height="10.2" fill="#c8a83e" rx="0.5" opacity="0.45"/>
<rect x="-58.440000000000005" y="-12.719999999999999" width="10.2" height="10.2" fill="#c8a83e" rx="0.5" opacity="0.45"/>
<rect x="-43.199999999999996" y="-12.719999999999999" width="10.2" height="10.2" fill="#c8a83e" rx="0.5" opacity="0.45"/>
<rect x="-27.96" y="-12.719999999999999" width="10.2" height="10.2" fill="#c8a83e" rx="0.5" opacity="0.45"/>
<rect x="-12.719999999999999" y="-12.719999999999999" width="10.2" height="10.2" fill="#c8a83e" rx="0.5" opacity="0.45"/>
<rect x="2.5200000000000005" y="-12.719999999999999" width="10.2" height="10.2" fill="#c8a83e" rx="0.5" opacity="0.45"/>
<rect x="17.759999999999998" y="-12.719999999999999" width="10.2" height="10.2" fill="#c8a83e" rx="0.5" opacity="0.45"/>
<rect x="32.99999999999999" y="-12.719999999999999" width="10.2" height="10.2" fill="#c8a83e" rx="0.5" opacity="0.45"/>
<rect x="48.24" y="-12.719999999999999" width="10.2" height="10.2" fill="#c8a83e" rx="0.5" opacity="0.45"/>
<rect x="63.48" y="-12.719999999999999" width="10.2" height="10.2" fill="#c8a83e" rx="0.5" opacity="0.45"/>
<rect x="78.72000000000001" y="-12.719999999999999" width="10.2" height="10.2" fill="#c8a83e" rx="0.5" opacity="0.45"/>
<rect x="93.96000000000001" y="-12.719999999999999" width="10.2" height="10.2" fill="#c8a83e" rx="0.5" opacity="0.45"/>
<rect x="109.20000000000002" y="-12.719999999999999" width="10.2" height="10.2" fill="#c8a83e" rx="0.5" opacity="0.45"/>
<rect x="124.44" y="-12.719999999999999" width="10.2" height="10.2" fill="#c8a83e" rx="0.5" opacity="0.45"/>
<rect x="139.68" y="-12.719999999999999" width="10.2" height="10.2" fill="#c8a83e" rx="0.5" opacity="0.45"/>
<rect x="-149.88" y="2.5200000000000005" width="10.2" height="10.2" fill="#c8a83e" rx="0.5" opacity="0.45"/>
<rect x="-134.64" y="2.5200000000000005" width="10.2" height="10.2" fill="#c8a83e" rx="0.5" opacity="0.45"/>
<rect x="-119.4" y="2.5200000000000005" width="10.2" height="10.2" fill="#c8a83e" rx="0.5" opacity="0.45"/>
<rect x="-104.16" y="2.5200000000000005" width="10.2" height="10.2" fill="#c8a83e" rx="0.5" opacity="0.45"/>
<rect x="-88.92" y="2.5200000000000005" width="10.2" height="10.2" fill="#c8a83e" rx="0.5" opacity="0.45"/>
<rect x="-73.67999999999999" y="2.5200000000000005" width="10.2" height="10.2" fill="#c8a83e" rx="0.5" opacity="0.45"/>
<rect x="-58.440000000000005" y="2.5200000000000005" width="10.2" height="10.2" fill="#c8a83e" rx="0.5" opacity="0.45"/>
<rect x="-43.199999999999996" y="2.5200000000000005" width="10.2" height="10.2" fill="#c8a83e" rx="0.5" opacity="0.45"/>
<rect x="-27.96" y="2.5200000000000005" width="10.2" height="10.2" fill="#c8a83e" rx="0.5" opacity="0.45"/>
<rect x="-12.719999999999999" y="2.5200000000000005" width="10.2" height="10.2" fill="#c8a83e" rx="0.5" opacity="0.45"/>
<rect x="2.5200000000000005" y="2.5200000000000005" width="10.2" height="10.2" fill="#c8a83e" rx="0.5" opacity="0.45"/>
<rect x="17.759999999999998" y="2.5200000000000005" width="10.2" height="10.2" fill="#c8a83e" rx="0.5" opacity="0.45"/>
<rect x="32.99999999999999" y="2.5200000000000005" width="10.2" height="10.2" fill="#c8a83e" rx="0.5" opacity="0.45"/>
<rect x="48.24" y="2.5200000000000005" width="10.2" height="10.2" fill="#c8a83e" rx="0.5" opacity="0.45"/>
<rect x="63.48" y="2.5200000000000005" width="10.2" height="10.2" fill="#c8a83e" rx="0.5" opacity="0.45"/>
<rect x="78.72000000000001" y="2.5200000000000005" width="10.2" height="10.2" fill="#c8a83e" rx="0.5" opacity="0.45"/>
<rect x="93.96000000000001" y="2.5200000000000005" width="10.2" height="10.2" fill="#c8a83e" rx="0.5" opacity="0.45"/>
<rect x="109.20000000000002" y="2.5200000000000005" width="10.2" height="10.2" fill="#c8a83e" rx="0.5" opacity="0.45"/>
<rect x="124.44" y="2.5200000000000005" width="10.2" height="10.2" fill="#c8a83e" rx="0.5" opacity="0.45"/>
<rect x="139.68" y="2.5200000000000005" width="10.2" height="10.2" fill="#c8a83e" rx="0.5" opacity="0.45"/>
<rect x="-156.0" y="-18.0" width="312.0" height="36.0" fill="#1b5e20" stroke="#777" stroke-width="0.5" rx="3"/>
<text x="0" y="-6.0" text-anchor="middle" fill="#eee" font-family="monospace" font-size="7">Pi5</text>
<text x="0" y="4.0" text-anchor="middle" fill="#eee" font-family="monospace" font-size="7">GPIO</text>
</g>
<g transform="translate(420.0,350.0) rotate(0)" filter="url(#sh)">
<rect x="-33.599999999999994" y="41.85" width="9.0" height="1.7999999999999998" fill="#c8a83e" rx="0.5" opacity="0.45"/>
<rect x="-33.599999999999994" y="38.85" width="9.0" height="1.7999999999999998" fill="#c8a83e" rx="0.5" opacity="0.45"/>
<rect x="-33.599999999999994" y="35.85" width="9.0" height="1.7999999999999998" fill="#c8a83e" rx="0.5" opacity="0.45"/>
<rect x="-33.599999999999994" y="32.85" width="9.0" height="1.7999999999999998" fill="#c8a83e" rx="0.5" opacity="0.45"/>
<rect x="-33.599999999999994" y="29.85" width="9.0" height="1.7999999999999998" fill="#c8a83e" rx="0.5" opacity="0.45"/>
<rect x="-33.599999999999994" y="26.85" width="9.0" height="1.7999999999999998" fill="#c8a83e" rx="0.5" opacity="0.45"/>
<rect x="-33.599999999999994" y="23.85" width="9.0" height="1.7999999999999998" fill="#c8a83e" rx="0.5" opacity="0.45"/>
<rect x="-33.599999999999994" y="20.85" width="9.0" height="1.7999999999999998" fill="#c8a83e" rx="0.5" opacity="0.45"/>
<rect x="-33.599999999999994" y="17.85" width="9.0" height="1.7999999999999998" fill="#c8a83e" rx="0.5" opacity="0.45"/>
<rect x="-33.599999999999994" y="14.85" width="9.0" height="1.7999999999999998" fill="#c8a83e" rx="0.5" opacity="0.45"/>
<rect x="-33.599999999999994" y="11.85" width="9.0" height="1.7999999999999998" fill="#c8a83e" rx="0.5" opacity="0.45"/>
<rect x="-33.599999999999994" y="8.85" width="9.0" height="1.7999999999999998" fill="#c8a83e" rx="0.5" opacity="0.45"/>
<rect x="-33.599999999999994" y="5.85" width="9.0" height="1.7999999999999998" fill="#c8a83e" rx="0.5" opacity="0.45"/>
<rect x="-33.599999999999994" y="2.85" width="9.0" height="1.7999999999999998" fill="#c8a83e" rx="0.5" opacity="0.45"/>
<rect x="-33.599999999999994" y="-0.1499999999999999" width="9.0" height="1.7999999999999998" fill="#c8a83e" rx="0.5" opacity="0.45"/>
<rect x="-33.599999999999994" y="-3.15" width="9.0" height="1.7999999999999998" fill="#c8a83e" rx="0.5" opacity="0.45"/>
<rect x="-33.599999999999994" y="-6.15" width="9.0" height="1.7999999999999998" fill="#c8a83e" rx="0.5" opacity="0.45"/>
<rect x="-33.599999999999994" y="-9.15" width="9.0" height="1.7999999999999998" fill="#c8a83e" rx="0.5" opacity="0.45"/>
<rect x="24.599999999999998" y="7.35" width="9.0" height="1.7999999999999998" fill="#c8a83e" rx="0.5" opacity="0.45"/>
<rect x="24.599999999999998" y="10.35" width="9.0" height="1.7999999999999998" fill="#c8a83e" rx="0.5" opacity="0.45"/>
<rect x="24.599999999999998" y="13.35" width="9.0" height="1.7999999999999998" fill="#c8a83e" rx="0.5" opacity="0.45"/>
<rect x="24.599999999999998" y="16.35" width="9.0" height="1.7999999999999998" fill="#c8a83e" rx="0.5" opacity="0.45"/>
<rect x="24.599999999999998" y="19.35" width="9.0" height="1.7999999999999998" fill="#c8a83e" rx="0.5" opacity="0.45"/>
<rect x="24.599999999999998" y="22.35" width="9.0" height="1.7999999999999998" fill="#c8a83e" rx="0.5" opacity="0.45"/>
<rect x="24.599999999999998" y="25.35" width="9.0" height="1.7999999999999998" fill="#c8a83e" rx="0.5" opacity="0.45"/>
<rect x="24.599999999999998" y="28.35" width="9.0" height="1.7999999999999998" fill="#c8a83e" rx="0.5" opacity="0.45"/>
<rect x="24.599999999999998" y="31.35" width="9.0" height="1.7999999999999998" fill="#c8a83e" rx="0.5" opacity="0.45"/>
<rect x="24.599999999999998" y="34.35" width="9.0" height="1.7999999999999998" fill="#c8a83e" rx="0.5" opacity="0.45"/>
<rect x="24.599999999999998" y="37.35" width="9.0" height="1.7999999999999998" fill="#c8a83e" rx="0.5" opacity="0.45"/>
<rect x="24.599999999999998" y="40.35" width="9.0" height="1.7999999999999998" fill="#c8a83e" rx="0.5" opacity="0.45"/>
<rect x="24.599999999999998" y="43.35" width="9.0" height="1.7999999999999998" fill="#c8a83e" rx="0.5" opacity="0.45"/>
<rect x="24.599999999999998" y="46.35" width="9.0" height="1.7999999999999998" fill="#c8a83e" rx="0.5" opacity="0.45"/>
<rect x="24.599999999999998" y="49.35" width="9.0" height="1.7999999999999998" fill="#c8a83e" rx="0.5" opacity="0.45"/>
<rect x="24.599999999999998" y="52.35" width="9.0" height="1.7999999999999998" fill="#c8a83e" rx="0.5" opacity="0.45"/>
<rect x="24.599999999999998" y="55.35" width="9.0" height="1.7999999999999998" fill="#c8a83e" rx="0.5" opacity="0.45"/>
<rect x="24.599999999999998" y="58.35" width="9.0" height="1.7999999999999998" fill="#c8a83e" rx="0.5" opacity="0.45"/>
<rect x="-18.0" y="-12.600000000000001" width="36.0" height="25.200000000000003" fill="#c8a83e" rx="0.5" opacity="0.45"/>
<rect x="-33.0" y="-27.599999999999998" width="66.0" height="55.199999999999996" fill="#b71c1c" stroke="#777" stroke-width="0.5" rx="3"/>
<circle cx="-30.0" cy="-24.599999999999998" r="1.2" fill="#aaa" opacity="0.4"/>
<text x="0" y="-6.0" text-anchor="middle" fill="#eee" font-family="monospace" font-size="7">TPA3255</text>
<text x="0" y="4.0" text-anchor="middle" fill="#eee" font-family="monospace" font-size="7">300W</text>
</g>
<g transform="translate(240.0,320.0) rotate(0)" filter="url(#sh)">
<rect x="-26.7" y="16.499999999999996" width="8.399999999999999" height="2.0999999999999996" fill="#c8a83e" rx="0.5" opacity="0.45"/>
<rect x="-26.7" y="12.599999999999998" width="8.399999999999999" height="2.0999999999999996" fill="#c8a83e" rx="0.5" opacity="0.45"/>
<rect x="-26.7" y="8.7" width="8.399999999999999" height="2.0999999999999996" fill="#c8a83e" rx="0.5" opacity="0.45"/>
<rect x="-26.7" y="4.799999999999998" width="8.399999999999999" height="2.0999999999999996" fill="#c8a83e" rx="0.5" opacity="0.45"/>
<rect x="-26.7" y="0.8999999999999986" width="8.399999999999999" height="2.0999999999999996" fill="#c8a83e" rx="0.5" opacity="0.45"/>
<rect x="-26.7" y="-3.000000000000001" width="8.399999999999999" height="2.0999999999999996" fill="#c8a83e" rx="0.5" opacity="0.45"/>
<rect x="-26.7" y="-6.900000000000003" width="8.399999999999999" height="2.0999999999999996" fill="#c8a83e" rx="0.5" opacity="0.45"/>
<rect x="-26.7" y="-10.8" width="8.399999999999999" height="2.0999999999999996" fill="#c8a83e" rx="0.5" opacity="0.45"/>
<rect x="-26.7" y="-14.700000000000003" width="8.399999999999999" height="2.0999999999999996" fill="#c8a83e" rx="0.5" opacity="0.45"/>
<rect x="-26.7" y="-18.600000000000005" width="8.399999999999999" height="2.0999999999999996" fill="#c8a83e" rx="0.5" opacity="0.45"/>
<rect x="18.3" y="-18.599999999999998" width="8.399999999999999" height="2.0999999999999996" fill="#c8a83e" rx="0.5" opacity="0.45"/>
<rect x="18.3" y="-14.7" width="8.399999999999999" height="2.0999999999999996" fill="#c8a83e" rx="0.5" opacity="0.45"/>
<rect x="18.3" y="-10.799999999999997" width="8.399999999999999" height="2.0999999999999996" fill="#c8a83e" rx="0.5" opacity="0.45"/>
<rect x="18.3" y="-6.899999999999998" width="8.399999999999999" height="2.0999999999999996" fill="#c8a83e" rx="0.5" opacity="0.45"/>
<rect x="18.3" y="-2.9999999999999982" width="8.399999999999999" height="2.0999999999999996" fill="#c8a83e" rx="0.5" opacity="0.45"/>
<rect x="18.3" y="0.9000000000000012" width="8.399999999999999" height="2.0999999999999996" fill="#c8a83e" rx="0.5" opacity="0.45"/>
<rect x="18.3" y="4.800000000000003" width="8.399999999999999" height="2.0999999999999996" fill="#c8a83e" rx="0.5" opacity="0.45"/>
<rect x="18.3" y="8.7" width="8.399999999999999" height="2.0999999999999996" fill="#c8a83e" rx="0.5" opacity="0.45"/>
<rect x="18.3" y="12.600000000000001" width="8.399999999999999" height="2.0999999999999996" fill="#c8a83e" rx="0.5" opacity="0.45"/>
<rect x="18.3" y="16.500000000000004" width="8.399999999999999" height="2.0999999999999996" fill="#c8a83e" rx="0.5" opacity="0.45"/>
<rect x="-24.0" y="-19.5" width="48.0" height="39.0" fill="#0d47a1" stroke="#777" stroke-width="0.5" rx="3"/>
<circle cx="-21.0" cy="-16.5" r="1.2" fill="#aaa" opacity="0.4"/>
<text x="0" y="-6.0" text-anchor="middle" fill="#eee" font-family="monospace" font-size="7">PCM5102A</text>
<text x="0" y="4.0" text-anchor="middle" fill="#eee" font-family="monospace" font-size="7">DAC</text>
</g>
<g transform="translate(630.0,440.0) rotate(0)" filter="url(#sh)">
<rect x="-24.0" y="-42.0" width="7.199999999999999" height="12.0" fill="#c8a83e" rx="0.5" opacity="0.45"/>
<rect x="-13.799999999999999" y="-42.0" width="7.199999999999999" height="12.0" fill="#c8a83e" rx="0.5" opacity="0.45"/>
<rect x="-3.5999999999999996" y="-42.0" width="7.199999999999999" height="12.0" fill="#c8a83e" rx="0.5" opacity="0.45"/>
<rect x="6.6" y="-42.0" width="7.199999999999999" height="12.0" fill="#c8a83e" rx="0.5" opacity="0.45"/>
<rect x="16.799999999999997" y="-42.0" width="7.199999999999999" height="12.0" fill="#c8a83e" rx="0.5" opacity="0.45"/>
<rect x="-24.0" y="-6.0" width="48.0" height="36.0" fill="#c8a83e" rx="0.5" opacity="0.45"/>
<rect x="-30.0" y="-30.0" width="60.0" height="60.0" fill="#4a148c" stroke="#777" stroke-width="0.5" rx="3"/>
<circle cx="-27.0" cy="-27.0" r="1.2" fill="#aaa" opacity="0.4"/>
<text x="0" y="-6.0" text-anchor="middle" fill="#eee" font-family="monospace" font-size="7">LM2596</text>
<text x="0" y="4.0" text-anchor="middle" fill="#eee" font-family="monospace" font-size="7">5V/3A</text>
</g>
<g transform="translate(240.0,440.0) rotate(0)" filter="url(#sh)">
<rect x="-16.799999999999997" y="14.700000000000003" width="6.0" height="9.0" fill="#c8a83e" rx="0.5" opacity="0.45"/>
<rect x="-3.0" y="14.700000000000003" width="6.0" height="9.0" fill="#c8a83e" rx="0.5" opacity="0.45"/>
<rect x="10.799999999999999" y="14.700000000000003" width="6.0" height="9.0" fill="#c8a83e" rx="0.5" opacity="0.45"/>
<rect x="-9.0" y="-23.700000000000003" width="18.0" height="9.0" fill="#c8a83e" rx="0.5" opacity="0.45"/>
<rect x="-19.5" y="-21.0" width="39.0" height="42.0" fill="#4e342e" stroke="#777" stroke-width="0.5" rx="3"/>
<circle cx="-16.5" cy="-18.0" r="1.2" fill="#aaa" opacity="0.4"/>
<text x="0" y="-6.0" text-anchor="middle" fill="#eee" font-family="monospace" font-size="7">AMS1117</text>
<text x="0" y="4.0" text-anchor="middle" fill="#eee" font-family="monospace" font-size="7">3.3V</text>
</g>
<g transform="translate(690.0,170.0) rotate(0)" filter="url(#sh)">
<rect x="-39.0" y="-39.0" width="18.0" height="18.0" fill="#c8a83e" rx="0.5" opacity="0.45"/>
<rect x="21.0" y="-39.0" width="18.0" height="18.0" fill="#c8a83e" rx="0.5" opacity="0.45"/>
<rect x="-39.0" y="21.0" width="18.0" height="18.0" fill="#c8a83e" rx="0.5" opacity="0.45"/>
<rect x="21.0" y="21.0" width="18.0" height="18.0" fill="#c8a83e" rx="0.5" opacity="0.45"/>
<rect x="-54.0" y="-54.0" width="108.0" height="108.0" fill="#263238" stroke="#777" stroke-width="0.5" rx="3"/>
<text x="0" y="-6.0" text-anchor="middle" fill="#eee" font-family="monospace" font-size="7">Speakon</text>
<text x="0" y="4.0" text-anchor="middle" fill="#eee" font-family="monospace" font-size="7">NL4</text>
</g>
<g transform="translate(150.0,170.0) rotate(0)" filter="url(#sh)">
<rect x="-29.67" y="-34.8" width="6.0" height="9.600000000000001" fill="#c8a83e" rx="0.5" opacity="0.45"/>
<rect x="-22.049999999999997" y="-34.8" width="6.0" height="9.600000000000001" fill="#c8a83e" rx="0.5" opacity="0.45"/>
<rect x="-14.43" y="-34.8" width="6.0" height="9.600000000000001" fill="#c8a83e" rx="0.5" opacity="0.45"/>
<rect x="-6.8100000000000005" y="-34.8" width="6.0" height="9.600000000000001" fill="#c8a83e" rx="0.5" opacity="0.45"/>
<rect x="0.81" y="-34.8" width="6.0" height="9.600000000000001" fill="#c8a83e" rx="0.5" opacity="0.45"/>
<rect x="8.43" y="-34.8" width="6.0" height="9.600000000000001" fill="#c8a83e" rx="0.5" opacity="0.45"/>
<rect x="16.049999999999997" y="-34.8" width="6.0" height="9.600000000000001" fill="#c8a83e" rx="0.5" opacity="0.45"/>
<rect x="23.67" y="-34.8" width="6.0" height="9.600000000000001" fill="#c8a83e" rx="0.5" opacity="0.45"/>
<rect x="-53.25" y="-6.0" width="12.0" height="12.0" fill="#c8a83e" rx="0.5" opacity="0.45"/>
<rect x="41.25" y="-6.0" width="12.0" height="12.0" fill="#c8a83e" rx="0.5" opacity="0.45"/>
<rect x="-48.0" y="-42.0" width="96.0" height="84.0" fill="#37474f" stroke="#777" stroke-width="0.5" rx="3"/>
<text x="0" y="-6.0" text-anchor="middle" fill="#eee" font-family="monospace" font-size="7">RJ45</text>
<text x="0" y="4.0" text-anchor="middle" fill="#eee" font-family="monospace" font-size="7">Ethernet</text>
</g>
<g transform="translate(150.0,530.0) rotate(180)" filter="url(#sh)">
<rect x="-15.899999999999999" y="-9.0" width="3.0" height="6.0" fill="#c8a83e" rx="0.5" opacity="0.45"/>
<rect x="12.899999999999999" y="-9.0" width="3.0" height="6.0" fill="#c8a83e" rx="0.5" opacity="0.45"/>
<rect x="-5.700000000000001" y="-9.0" width="1.7999999999999998" height="6.0" fill="#c8a83e" rx="0.5" opacity="0.45"/>
<rect x="-3.3000000000000003" y="-9.0" width="1.7999999999999998" height="6.0" fill="#c8a83e" rx="0.5" opacity="0.45"/>
<rect x="-10.500000000000002" y="-9.0" width="1.7999999999999998" height="6.0" fill="#c8a83e" rx="0.5" opacity="0.45"/>
<rect x="8.700000000000001" y="-9.0" width="1.7999999999999998" height="6.0" fill="#c8a83e" rx="0.5" opacity="0.45"/>
<rect x="-20.700000000000003" y="-9.0" width="3.0" height="6.0" fill="#c8a83e" rx="0.5" opacity="0.45"/>
<rect x="17.700000000000003" y="-9.0" width="3.0" height="6.0" fill="#c8a83e" rx="0.5" opacity="0.45"/>
<rect x="-23.7" y="-3.5999999999999996" width="3.5999999999999996" height="7.199999999999999" fill="#c8a83e" rx="0.5" opacity="0.45"/>
<rect x="20.099999999999998" y="-3.5999999999999996" width="3.5999999999999996" height="7.199999999999999" fill="#c8a83e" rx="0.5" opacity="0.45"/>
<rect x="-22.049999999999997" y="-9.600000000000001" width="44.099999999999994" height="19.200000000000003" fill="#78909c" stroke="#777" stroke-width="0.5" rx="3"/>
<text x="0" y="-1.0" text-anchor="middle" fill="#eee" font-family="monospace" font-size="7">USB-C</text>
</g>
<g transform="translate(690.0,500.0) rotate(0)" filter="url(#sh)">
<rect x="-9.0" y="-9.0" width="18.0" height="18.0" fill="#c8a83e" rx="0.5" opacity="0.45"/>
<rect x="-45.0" y="-9.0" width="18.0" height="18.0" fill="#c8a83e" rx="0.5" opacity="0.45"/>
<rect x="27.0" y="-9.0" width="18.0" height="18.0" fill="#c8a83e" rx="0.5" opacity="0.45"/>
<rect x="-42.0" y="-27.0" width="84.0" height="54.0" fill="#e65100" stroke="#777" stroke-width="0.5" rx="3"/>
<text x="0" y="-6.0" text-anchor="middle" fill="#eee" font-family="monospace" font-size="7">48V DC</text>
<text x="0" y="4.0" text-anchor="middle" fill="#eee" font-family="monospace" font-size="7">Input</text>
</g>
<g transform="translate(570.0,530.0) rotate(0)" filter="url(#sh)">
<rect x="-12.719999999999999" y="-5.1" width="10.2" height="10.2" fill="#c8a83e" rx="0.5" opacity="0.45"/>
<rect x="2.5200000000000005" y="-5.1" width="10.2" height="10.2" fill="#c8a83e" rx="0.5" opacity="0.45"/>
<rect x="-15.24" y="-9.0" width="30.48" height="18.0" fill="#455a64" stroke="#777" stroke-width="0.5" rx="3"/>
<text x="0" y="-1.0" text-anchor="middle" fill="#eee" font-family="monospace" font-size="7">FAN</text>
</g>
<g transform="translate(330.0,512.0) rotate(0)" filter="url(#sh)">
<rect x="-17.700000000000003" y="-12.600000000000001" width="6.0" height="6.0" fill="#c8a83e" rx="0.5" opacity="0.45"/>
<rect x="-17.700000000000003" y="6.600000000000001" width="6.0" height="6.0" fill="#c8a83e" rx="0.5" opacity="0.45"/>
<rect x="11.700000000000001" y="6.600000000000001" width="6.0" height="6.0" fill="#c8a83e" rx="0.5" opacity="0.45"/>
<rect x="11.700000000000001" y="-12.600000000000001" width="6.0" height="6.0" fill="#c8a83e" rx="0.5" opacity="0.45"/>
<rect x="-15.0" y="-15.0" width="30.0" height="30.0" fill="#f9a825" stroke="#777" stroke-width="0.5" rx="1"/>
<text x="0" y="-1.0" text-anchor="middle" fill="#eee" font-family="monospace" font-size="6">LED1</text>
</g>
<g transform="translate(390.0,512.0) rotate(0)" filter="url(#sh)">
<rect x="-17.700000000000003" y="-12.600000000000001" width="6.0" height="6.0" fill="#c8a83e" rx="0.5" opacity="0.45"/>
<rect x="-17.700000000000003" y="6.600000000000001" width="6.0" height="6.0" fill="#c8a83e" rx="0.5" opacity="0.45"/>
<rect x="11.700000000000001" y="6.600000000000001" width="6.0" height="6.0" fill="#c8a83e" rx="0.5" opacity="0.45"/>
<rect x="11.700000000000001" y="-12.600000000000001" width="6.0" height="6.0" fill="#c8a83e" rx="0.5" opacity="0.45"/>
<rect x="-15.0" y="-15.0" width="30.0" height="30.0" fill="#f9a825" stroke="#777" stroke-width="0.5" rx="1"/>
<text x="0" y="-1.0" text-anchor="middle" fill="#eee" font-family="monospace" font-size="6">LED2</text>
</g>
<g transform="translate(630.0,500.0) rotate(0)" filter="url(#sh)">
<rect x="-9.3" y="-4.199999999999999" width="6.6000000000000005" height="8.399999999999999" fill="#c8a83e" rx="0.5" opacity="0.45"/>
<rect x="2.6999999999999997" y="-4.199999999999999" width="6.6000000000000005" height="8.399999999999999" fill="#c8a83e" rx="0.5" opacity="0.45"/>
<rect x="-8.399999999999999" y="-4.800000000000001" width="16.799999999999997" height="9.600000000000001" fill="#006064" stroke="#777" stroke-width="0.5" rx="1"/>
<text x="0" y="-1.0" text-anchor="middle" fill="#eee" font-family="monospace" font-size="6">NTC</text>
</g>
<g transform="translate(570.0,410.0) rotate(0)" filter="url(#sh)">
<rect x="-17.4" y="-7.5" width="10.8" height="15.0" fill="#c8a83e" rx="0.5" opacity="0.45"/>
<rect x="6.6" y="-7.5" width="10.8" height="15.0" fill="#c8a83e" rx="0.5" opacity="0.45"/>
<rect x="-16.799999999999997" y="-9.600000000000001" width="33.599999999999994" height="19.200000000000003" fill="#880e4f" stroke="#777" stroke-width="0.5" rx="1"/>
<text x="0" y="-1.0" text-anchor="middle" fill="#eee" font-family="monospace" font-size="6">FUSE</text>
</g>
<g transform="translate(588.0,290.0) rotate(0)" filter="url(#sh)">
<rect x="-16.8" y="-7.199999999999999" width="9.600000000000001" height="14.399999999999999" fill="#c8a83e" rx="0.5" opacity="0.45"/>
<rect x="7.199999999999999" y="-7.199999999999999" width="9.600000000000001" height="14.399999999999999" fill="#c8a83e" rx="0.5" opacity="0.45"/>
<rect x="-15.600000000000001" y="-7.800000000000001" width="31.200000000000003" height="15.600000000000001" fill="#263238" stroke="#777" stroke-width="0.5" rx="1"/>
<text x="0" y="-1.0" text-anchor="middle" fill="#eee" font-family="monospace" font-size="6">TVS</text>
</g>
<g transform="translate(690.0,410.0) rotate(0)" filter="url(#sh)">
<rect x="-11.4" y="-3.0" width="4.800000000000001" height="6.0" fill="#c8a83e" rx="0.5" opacity="0.45"/>
<rect x="6.6" y="-3.0" width="4.800000000000001" height="6.0" fill="#c8a83e" rx="0.5" opacity="0.45"/>
<rect x="-10.8" y="-4.800000000000001" width="21.6" height="9.600000000000001" fill="#263238" stroke="#777" stroke-width="0.5" rx="1"/>
<text x="0" y="-1.0" text-anchor="middle" fill="#eee" font-family="monospace" font-size="6">D2</text>
</g>
<g transform="translate(630.0,350.0) rotate(0)" filter="url(#sh)">
<rect x="-40.5" y="-12.0" width="21.0" height="24.0" fill="#c8a83e" rx="0.5" opacity="0.45"/>
<rect x="19.5" y="-12.0" width="21.0" height="24.0" fill="#c8a83e" rx="0.5" opacity="0.45"/>
<rect x="-36.0" y="-36.0" width="72.0" height="72.0" fill="#006064" stroke="#777" stroke-width="0.5" rx="1"/>
<text x="0" y="-1.0" text-anchor="middle" fill="#eee" font-family="monospace" font-size="6">33uH</text>
</g>
<g transform="translate(510.0,410.0) rotate(0)" filter="url(#sh)">
<rect x="-19.5" y="-7.5" width="15.0" height="15.0" fill="#c8a83e" rx="0.5" opacity="0.45"/>
<rect x="4.5" y="-7.5" width="15.0" height="15.0" fill="#c8a83e" rx="0.5" opacity="0.45"/>
<rect x="-31.5" y="-31.5" width="63.0" height="63.0" fill="#1a237e" stroke="#777" stroke-width="0.5" rx="1"/>
<text x="0" y="-6.0" text-anchor="middle" fill="#eee" font-family="monospace" font-size="6">470u</text>
<text x="0" y="4.0" text-anchor="middle" fill="#eee" font-family="monospace" font-size="6">63V</text>
</g>
<g transform="translate(360.0,440.0) rotate(0)" filter="url(#sh)">
<rect x="-19.5" y="-7.5" width="15.0" height="15.0" fill="#c8a83e" rx="0.5" opacity="0.45"/>
<rect x="4.5" y="-7.5" width="15.0" height="15.0" fill="#c8a83e" rx="0.5" opacity="0.45"/>
<rect x="-31.5" y="-31.5" width="63.0" height="63.0" fill="#1a237e" stroke="#777" stroke-width="0.5" rx="1"/>
<text x="0" y="-6.0" text-anchor="middle" fill="#eee" font-family="monospace" font-size="6">470u</text>
<text x="0" y="4.0" text-anchor="middle" fill="#eee" font-family="monospace" font-size="6">63V</text>
</g>
<g transform="translate(720.0,368.0) rotate(0)" filter="url(#sh)">
<rect x="-19.5" y="-7.5" width="15.0" height="15.0" fill="#c8a83e" rx="0.5" opacity="0.45"/>
<rect x="4.5" y="-7.5" width="15.0" height="15.0" fill="#c8a83e" rx="0.5" opacity="0.45"/>
<rect x="-31.5" y="-31.5" width="63.0" height="63.0" fill="#1a237e" stroke="#777" stroke-width="0.5" rx="1"/>
<text x="0" y="-1.0" text-anchor="middle" fill="#eee" font-family="monospace" font-size="6">220u</text>
</g>
<g transform="translate(198.0,308.0) rotate(90)" filter="url(#sh)">
<rect x="-6.9" y="-3.0" width="4.800000000000001" height="6.0" fill="#c8a83e" rx="0.5" opacity="0.45"/>
<rect x="2.0999999999999996" y="-3.0" width="4.800000000000001" height="6.0" fill="#c8a83e" rx="0.5" opacity="0.45"/>
<rect x="-6.6000000000000005" y="-3.5999999999999996" width="13.200000000000001" height="7.199999999999999" fill="#1a237e" stroke="#777" stroke-width="0.5" rx="1"/>
<text x="0" y="-1.0" text-anchor="middle" fill="#eee" font-family="monospace" font-size="6">C4</text>
</g>
<g transform="translate(288.0,308.0) rotate(90)" filter="url(#sh)">
<rect x="-6.9" y="-3.0" width="4.800000000000001" height="6.0" fill="#c8a83e" rx="0.5" opacity="0.45"/>
<rect x="2.0999999999999996" y="-3.0" width="4.800000000000001" height="6.0" fill="#c8a83e" rx="0.5" opacity="0.45"/>
<rect x="-6.6000000000000005" y="-3.5999999999999996" width="13.200000000000001" height="7.199999999999999" fill="#1a237e" stroke="#777" stroke-width="0.5" rx="1"/>
<text x="0" y="-1.0" text-anchor="middle" fill="#eee" font-family="monospace" font-size="6">C5</text>
</g>
<g transform="translate(360.0,350.0) rotate(90)" filter="url(#sh)">
<rect x="-9.3" y="-4.199999999999999" width="6.6000000000000005" height="8.399999999999999" fill="#c8a83e" rx="0.5" opacity="0.45"/>
<rect x="2.6999999999999997" y="-4.199999999999999" width="6.6000000000000005" height="8.399999999999999" fill="#c8a83e" rx="0.5" opacity="0.45"/>
<rect x="-8.399999999999999" y="-4.800000000000001" width="16.799999999999997" height="9.600000000000001" fill="#1a237e" stroke="#777" stroke-width="0.5" rx="1"/>
<text x="0" y="-1.0" text-anchor="middle" fill="#eee" font-family="monospace" font-size="6">C6</text>
</g>
<g transform="translate(480.0,350.0) rotate(90)" filter="url(#sh)">
<rect x="-9.3" y="-4.199999999999999" width="6.6000000000000005" height="8.399999999999999" fill="#c8a83e" rx="0.5" opacity="0.45"/>
<rect x="2.6999999999999997" y="-4.199999999999999" width="6.6000000000000005" height="8.399999999999999" fill="#c8a83e" rx="0.5" opacity="0.45"/>
<rect x="-8.399999999999999" y="-4.800000000000001" width="16.799999999999997" height="9.600000000000001" fill="#1a237e" stroke="#777" stroke-width="0.5" rx="1"/>
<text x="0" y="-1.0" text-anchor="middle" fill="#eee" font-family="monospace" font-size="6">C7</text>
</g>
<g transform="translate(420.0,416.0) rotate(0)" filter="url(#sh)">
<rect x="-6.9" y="-3.0" width="4.800000000000001" height="6.0" fill="#c8a83e" rx="0.5" opacity="0.45"/>
<rect x="2.0999999999999996" y="-3.0" width="4.800000000000001" height="6.0" fill="#c8a83e" rx="0.5" opacity="0.45"/>
<rect x="-6.6000000000000005" y="-3.5999999999999996" width="13.200000000000001" height="7.199999999999999" fill="#1a237e" stroke="#777" stroke-width="0.5" rx="1"/>
<text x="0" y="-1.0" text-anchor="middle" fill="#eee" font-family="monospace" font-size="6">C8</text>
</g>
<g transform="translate(210.0,428.0) rotate(0)" filter="url(#sh)">
<rect x="-6.9" y="-3.0" width="4.800000000000001" height="6.0" fill="#c8a83e" rx="0.5" opacity="0.45"/>
<rect x="2.0999999999999996" y="-3.0" width="4.800000000000001" height="6.0" fill="#c8a83e" rx="0.5" opacity="0.45"/>
<rect x="-6.6000000000000005" y="-3.5999999999999996" width="13.200000000000001" height="7.199999999999999" fill="#1a237e" stroke="#777" stroke-width="0.5" rx="1"/>
<text x="0" y="-1.0" text-anchor="middle" fill="#eee" font-family="monospace" font-size="6">C9</text>
</g>
<g transform="translate(270.0,428.0) rotate(0)" filter="url(#sh)">
<rect x="-6.9" y="-3.0" width="4.800000000000001" height="6.0" fill="#c8a83e" rx="0.5" opacity="0.45"/>
<rect x="2.0999999999999996" y="-3.0" width="4.800000000000001" height="6.0" fill="#c8a83e" rx="0.5" opacity="0.45"/>
<rect x="-6.6000000000000005" y="-3.5999999999999996" width="13.200000000000001" height="7.199999999999999" fill="#1a237e" stroke="#777" stroke-width="0.5" rx="1"/>
<text x="0" y="-1.0" text-anchor="middle" fill="#eee" font-family="monospace" font-size="6">C10</text>
</g>
<g transform="translate(348.0,332.0) rotate(0)" filter="url(#sh)">
<rect x="-6.9" y="-3.0" width="4.800000000000001" height="6.0" fill="#c8a83e" rx="0.5" opacity="0.45"/>
<rect x="2.0999999999999996" y="-3.0" width="4.800000000000001" height="6.0" fill="#c8a83e" rx="0.5" opacity="0.45"/>
<rect x="-6.6000000000000005" y="-3.5999999999999996" width="13.200000000000001" height="7.199999999999999" fill="#5d4037" stroke="#777" stroke-width="0.5" rx="1"/>
<text x="0" y="-1.0" text-anchor="middle" fill="#eee" font-family="monospace" font-size="6">R1</text>
</g>
<g transform="translate(348.0,368.0) rotate(0)" filter="url(#sh)">
<rect x="-6.9" y="-3.0" width="4.800000000000001" height="6.0" fill="#c8a83e" rx="0.5" opacity="0.45"/>
<rect x="2.0999999999999996" y="-3.0" width="4.800000000000001" height="6.0" fill="#c8a83e" rx="0.5" opacity="0.45"/>
<rect x="-6.6000000000000005" y="-3.5999999999999996" width="13.200000000000001" height="7.199999999999999" fill="#5d4037" stroke="#777" stroke-width="0.5" rx="1"/>
<text x="0" y="-1.0" text-anchor="middle" fill="#eee" font-family="monospace" font-size="6">R2</text>
</g>
<g transform="translate(132.0,512.0) rotate(0)" filter="url(#sh)">
<rect x="-6.9" y="-3.0" width="4.800000000000001" height="6.0" fill="#c8a83e" rx="0.5" opacity="0.45"/>
<rect x="2.0999999999999996" y="-3.0" width="4.800000000000001" height="6.0" fill="#c8a83e" rx="0.5" opacity="0.45"/>
<rect x="-6.6000000000000005" y="-3.5999999999999996" width="13.200000000000001" height="7.199999999999999" fill="#5d4037" stroke="#777" stroke-width="0.5" rx="1"/>
<text x="0" y="-1.0" text-anchor="middle" fill="#eee" font-family="monospace" font-size="6">R3</text>
</g>
<g transform="translate(168.0,512.0) rotate(0)" filter="url(#sh)">
<rect x="-6.9" y="-3.0" width="4.800000000000001" height="6.0" fill="#c8a83e" rx="0.5" opacity="0.45"/>
<rect x="2.0999999999999996" y="-3.0" width="4.800000000000001" height="6.0" fill="#c8a83e" rx="0.5" opacity="0.45"/>
<rect x="-6.6000000000000005" y="-3.5999999999999996" width="13.200000000000001" height="7.199999999999999" fill="#5d4037" stroke="#777" stroke-width="0.5" rx="1"/>
<text x="0" y="-1.0" text-anchor="middle" fill="#eee" font-family="monospace" font-size="6">R4</text>
</g>
<g transform="translate(300.0,512.0) rotate(0)" filter="url(#sh)">
<rect x="-6.9" y="-3.0" width="4.800000000000001" height="6.0" fill="#c8a83e" rx="0.5" opacity="0.45"/>
<rect x="2.0999999999999996" y="-3.0" width="4.800000000000001" height="6.0" fill="#c8a83e" rx="0.5" opacity="0.45"/>
<rect x="-6.6000000000000005" y="-3.5999999999999996" width="13.200000000000001" height="7.199999999999999" fill="#5d4037" stroke="#777" stroke-width="0.5" rx="1"/>
<text x="0" y="-1.0" text-anchor="middle" fill="#eee" font-family="monospace" font-size="6">R5</text>
</g>
<text x="150" y="110" text-anchor="middle" fill="#c8a83e" font-family="monospace" font-size="7" opacity="0.5">ETHERNET</text>
<text x="690" y="110" text-anchor="middle" fill="#c8a83e" font-family="monospace" font-size="7" opacity="0.5">SPEAKER OUT</text>
<text x="420" y="110" text-anchor="middle" fill="#c8a83e" font-family="monospace" font-size="7" opacity="0.5">Pi5 GPIO HEADER</text>
<text x="420" y="548" text-anchor="middle" fill="#c8a83e" font-family="monospace" font-size="7" opacity="0.5">POWER + STATUS</text>
<text x="690" y="548" text-anchor="middle" fill="#c8a83e" font-family="monospace" font-size="7" opacity="0.5">48V INPUT</text>
<text x="420" y="650" text-anchor="middle" fill="#888" font-family="monospace" font-size="9">120x80mm | 2-layer 2oz FR-4 | 32 parts | 4x M4 mounts</text>
<text x="420" y="668" text-anchor="middle" fill="#ef5350" font-family="monospace" font-size="10" font-weight="bold">48V DC -> TPA3255 300W mono @4ohm -> Speakon NL4</text>
<text x="420" y="686" text-anchor="middle" fill="#42a5f5" font-family="monospace" font-size="9">Pi5 WiFi UDP -> I2S -> PCM5102A DAC -> TPA3255 -> 15" woofer</text>
<text x="420" y="704" text-anchor="middle" fill="#66bb6a" font-family="monospace" font-size="9">Power: 48V -> LM2596 5V/3A (Pi5) -> AMS1117 3.3V (DAC/LEDs)</text>
<text x="420" y="722" text-anchor="middle" fill="#888" font-family="monospace" font-size="8">Protection: NTC inrush + polyfuse + TVS | Fan header | 2x WS2812B status</text>
</svg>
