%FSLAX46Y46*%
%MOMM*%
G04 Koe SUB F.Mask*
%LPD*%
%ADD10C,7.200*%
%ADD11C,1.800*%
%ADD12R,1.600X0.400*%
%ADD13R,6.100X4.300*%
%ADD14R,1.500X0.450*%
%ADD15R,1.300X2.100*%
%ADD16R,8.100X6.100*%
%ADD17R,1.100X1.600*%
%ADD18R,3.100X1.600*%
%ADD19C,3.100*%
%ADD20R,1.100X1.700*%
%ADD21C,2.100*%
%ADD22R,0.600X1.100*%
%ADD23R,0.400X1.100*%
%ADD24R,0.700X1.300*%
%ADD25C,1.100*%
%ADD26R,1.200X1.500*%
%ADD27R,1.900X2.600*%
%ADD28R,1.700X2.500*%
%ADD29R,0.900X1.100*%
%ADD30R,3.600X4.100*%
%ADD31C,2.600*%
%ADD32R,1.100X0.900*%
%ADD33R,1.500X1.200*%
%ADD34C,0.700*%
D10*
X5000000Y5000000D03*
D10*
X115000000Y5000000D03*
D10*
X5000000Y75000000D03*
D10*
X115000000Y75000000D03*
D11*
X35870000Y13730000D03*
D11*
X38410000Y13730000D03*
D11*
X40950000Y13730000D03*
D11*
X43490000Y13730000D03*
D11*
X46030000Y13730000D03*
D11*
X48570000Y13730000D03*
D11*
X51110000Y13730000D03*
D11*
X53650000Y13730000D03*
D11*
X56190000Y13730000D03*
D11*
X58730000Y13730000D03*
D11*
X61270000Y13730000D03*
D11*
X63810000Y13730000D03*
D11*
X66350000Y13730000D03*
D11*
X68890000Y13730000D03*
D11*
X71430000Y13730000D03*
D11*
X73970000Y13730000D03*
D11*
X76510000Y13730000D03*
D11*
X79050000Y13730000D03*
D11*
X81590000Y13730000D03*
D11*
X84130000Y13730000D03*
D11*
X35870000Y16270000D03*
D11*
X38410000Y16270000D03*
D11*
X40950000Y16270000D03*
D11*
X43490000Y16270000D03*
D11*
X46030000Y16270000D03*
D11*
X48570000Y16270000D03*
D11*
X51110000Y16270000D03*
D11*
X53650000Y16270000D03*
D11*
X56190000Y16270000D03*
D11*
X58730000Y16270000D03*
D11*
X61270000Y16270000D03*
D11*
X63810000Y16270000D03*
D11*
X66350000Y16270000D03*
D11*
X68890000Y16270000D03*
D11*
X71430000Y16270000D03*
D11*
X73970000Y16270000D03*
D11*
X76510000Y16270000D03*
D11*
X79050000Y16270000D03*
D11*
X81590000Y16270000D03*
D11*
X84130000Y16270000D03*
D12*
X55150000Y52125000D03*
D12*
X55150000Y51625000D03*
D12*
X55150000Y51125000D03*
D12*
X55150000Y50625000D03*
D12*
X55150000Y50125000D03*
D12*
X55150000Y49625000D03*
D12*
X55150000Y49125000D03*
D12*
X55150000Y48625000D03*
D12*
X55150000Y48125000D03*
D12*
X55150000Y47625000D03*
D12*
X55150000Y47125000D03*
D12*
X55150000Y46625000D03*
D12*
X55150000Y46125000D03*
D12*
X55150000Y45625000D03*
D12*
X55150000Y45125000D03*
D12*
X55150000Y44625000D03*
D12*
X55150000Y44125000D03*
D12*
X55150000Y43625000D03*
D12*
X64850000Y46375000D03*
D12*
X64850000Y46875000D03*
D12*
X64850000Y47375000D03*
D12*
X64850000Y47875000D03*
D12*
X64850000Y48375000D03*
D12*
X64850000Y48875000D03*
D12*
X64850000Y49375000D03*
D12*
X64850000Y49875000D03*
D12*
X64850000Y50375000D03*
D12*
X64850000Y50875000D03*
D12*
X64850000Y51375000D03*
D12*
X64850000Y51875000D03*
D12*
X64850000Y52375000D03*
D12*
X64850000Y52875000D03*
D12*
X64850000Y53375000D03*
D12*
X64850000Y53875000D03*
D12*
X64850000Y54375000D03*
D12*
X64850000Y54875000D03*
D13*
X60000000Y45000000D03*
D14*
X26250000Y42925000D03*
D14*
X26250000Y42275000D03*
D14*
X26250000Y41625000D03*
D14*
X26250000Y40975000D03*
D14*
X26250000Y40325000D03*
D14*
X26250000Y39675000D03*
D14*
X26250000Y39025000D03*
D14*
X26250000Y38375000D03*
D14*
X26250000Y37725000D03*
D14*
X26250000Y37075000D03*
D14*
X33750000Y37075000D03*
D14*
X33750000Y37725000D03*
D14*
X33750000Y38375000D03*
D14*
X33750000Y39025000D03*
D14*
X33750000Y39675000D03*
D14*
X33750000Y40325000D03*
D14*
X33750000Y40975000D03*
D14*
X33750000Y41625000D03*
D14*
X33750000Y42275000D03*
D14*
X33750000Y42925000D03*
D15*
X91600000Y54000000D03*
D15*
X93300000Y54000000D03*
D15*
X95000000Y54000000D03*
D15*
X96700000Y54000000D03*
D15*
X98400000Y54000000D03*
D16*
X95000000Y62000000D03*
D17*
X27700000Y63200000D03*
D17*
X30000000Y63200000D03*
D17*
X32300000Y63200000D03*
D18*
X30000000Y56800000D03*
D19*
X100000000Y10000000D03*
D19*
X110000000Y10000000D03*
D19*
X100000000Y20000000D03*
D19*
X110000000Y20000000D03*
D20*
X10555000Y10000000D03*
D20*
X11825000Y10000000D03*
D20*
X13095000Y10000000D03*
D20*
X14365000Y10000000D03*
D20*
X15635000Y10000000D03*
D20*
X16905000Y10000000D03*
D20*
X18175000Y10000000D03*
D20*
X19445000Y10000000D03*
D21*
X7125000Y15000000D03*
D21*
X22875000Y15000000D03*
D22*
X17400000Y76000000D03*
D22*
X12600000Y76000000D03*
D23*
X15800000Y76000000D03*
D23*
X15400000Y76000000D03*
D23*
X16600000Y76000000D03*
D23*
X13400000Y76000000D03*
D22*
X18200000Y76000000D03*
D22*
X11800000Y76000000D03*
D24*
X18650000Y75000000D03*
D24*
X11350000Y75000000D03*
D19*
X105000000Y70000000D03*
D19*
X99000000Y70000000D03*
D19*
X111000000Y70000000D03*
D11*
X83730000Y75000000D03*
D11*
X86270000Y75000000D03*
D25*
X42550000Y70400000D03*
D25*
X42550000Y73600000D03*
D25*
X47450000Y73600000D03*
D25*
X47450000Y70400000D03*
D25*
X52550000Y70400000D03*
D25*
X52550000Y73600000D03*
D25*
X57450000Y73600000D03*
D25*
X57450000Y70400000D03*
D26*
X94000000Y70000000D03*
D26*
X96000000Y70000000D03*
D27*
X83000000Y55000000D03*
D27*
X87000000Y55000000D03*
D28*
X86000000Y35000000D03*
D28*
X90000000Y35000000D03*
D29*
X103500000Y55000000D03*
D29*
X106500000Y55000000D03*
D30*
X90000000Y45000000D03*
D30*
X100000000Y45000000D03*
D31*
X73000000Y55000000D03*
D31*
X77000000Y55000000D03*
D31*
X48000000Y60000000D03*
D31*
X52000000Y60000000D03*
D31*
X108000000Y48000000D03*
D31*
X112000000Y48000000D03*
D32*
X23000000Y37250000D03*
D32*
X23000000Y38750000D03*
D32*
X38000000Y37250000D03*
D32*
X38000000Y38750000D03*
D33*
X50000000Y44000000D03*
D33*
X50000000Y46000000D03*
D33*
X70000000Y44000000D03*
D33*
X70000000Y46000000D03*
D29*
X59250000Y56000000D03*
D29*
X60750000Y56000000D03*
D29*
X24250000Y58000000D03*
D29*
X25750000Y58000000D03*
D29*
X34250000Y58000000D03*
D29*
X35750000Y58000000D03*
D29*
X47250000Y42000000D03*
D29*
X48750000Y42000000D03*
D29*
X47250000Y48000000D03*
D29*
X48750000Y48000000D03*
D29*
X11250000Y72000000D03*
D29*
X12750000Y72000000D03*
D29*
X17250000Y72000000D03*
D29*
X18750000Y72000000D03*
D29*
X39250000Y72000000D03*
D29*
X40750000Y72000000D03*
D34*
X10000000Y10000000D03*
D34*
X30000000Y10000000D03*
D34*
X50000000Y10000000D03*
D34*
X70000000Y10000000D03*
D34*
X90000000Y10000000D03*
D34*
X110000000Y10000000D03*
D34*
X10000000Y30000000D03*
D34*
X30000000Y30000000D03*
D34*
X50000000Y30000000D03*
D34*
X70000000Y30000000D03*
D34*
X90000000Y30000000D03*
D34*
X110000000Y30000000D03*
D34*
X10000000Y50000000D03*
D34*
X30000000Y50000000D03*
D34*
X50000000Y50000000D03*
D34*
X70000000Y50000000D03*
D34*
X90000000Y50000000D03*
D34*
X110000000Y50000000D03*
D34*
X10000000Y70000000D03*
D34*
X30000000Y70000000D03*
D34*
X50000000Y70000000D03*
D34*
X70000000Y70000000D03*
D34*
X90000000Y70000000D03*
D34*
X110000000Y70000000D03*
D34*
X56000000Y43000000D03*
D34*
X60000000Y43000000D03*
D34*
X64000000Y43000000D03*
D34*
X56000000Y47000000D03*
D34*
X60000000Y47000000D03*
D34*
X64000000Y47000000D03*
D34*
X93000000Y60000000D03*
D34*
X97000000Y60000000D03*
M02*
