M48
; Koe SUB 120x80mm TPA3255
FMAT,2
METRIC,TZ
T1C4.200
T2C0.300
%
T1
X5.000Y5.000
X115.000Y5.000
X5.000Y75.000
X115.000Y75.000
T2
X10.000Y10.000
X30.000Y10.000
X50.000Y10.000
X70.000Y10.000
X90.000Y10.000
X110.000Y10.000
X10.000Y30.000
X30.000Y30.000
X50.000Y30.000
X70.000Y30.000
X90.000Y30.000
X110.000Y30.000
X10.000Y50.000
X30.000Y50.000
X50.000Y50.000
X70.000Y50.000
X90.000Y50.000
X110.000Y50.000
X10.000Y70.000
X30.000Y70.000
X50.000Y70.000
X70.000Y70.000
X90.000Y70.000
X110.000Y70.000
X56.000Y43.000
X60.000Y43.000
X64.000Y43.000
X56.000Y47.000
X60.000Y47.000
X64.000Y47.000
X93.000Y60.000
X97.000Y60.000
M30
