%FSLAX46Y46*%
%MOMM*%
G04 Koe SUB F.SilkS*
%LPD*%
%ADD10C,7.500*%
%ADD11C,0.120*%
D10*
X5000000Y5000000D03*
D10*
X115000000Y5000000D03*
D10*
X5000000Y75000000D03*
D10*
X115000000Y75000000D03*
D11*
X34000000Y12000000D02*
X86000000Y12000000D01*
D11*
X86000000Y12000000D02*
X86000000Y18000000D01*
D11*
X86000000Y18000000D02*
X34000000Y18000000D01*
D11*
X34000000Y18000000D02*
X34000000Y12000000D01*
D11*
X54500000Y40400000D02*
X65500000Y40400000D01*
D11*
X65500000Y40400000D02*
X65500000Y49600000D01*
D11*
X65500000Y49600000D02*
X54500000Y49600000D01*
D11*
X54500000Y49600000D02*
X54500000Y40400000D01*
D11*
X26000000Y36750000D02*
X34000000Y36750000D01*
D11*
X34000000Y36750000D02*
X34000000Y43250000D01*
D11*
X34000000Y43250000D02*
X26000000Y43250000D01*
D11*
X26000000Y43250000D02*
X26000000Y36750000D01*
D11*
X90000000Y55000000D02*
X100000000Y55000000D01*
D11*
X100000000Y55000000D02*
X100000000Y65000000D01*
D11*
X100000000Y65000000D02*
X90000000Y65000000D01*
D11*
X90000000Y65000000D02*
X90000000Y55000000D01*
D11*
X26750000Y56500000D02*
X33250000Y56500000D01*
D11*
X33250000Y56500000D02*
X33250000Y63500000D01*
D11*
X33250000Y63500000D02*
X26750000Y63500000D01*
D11*
X26750000Y63500000D02*
X26750000Y56500000D01*
D11*
X96000000Y6000000D02*
X114000000Y6000000D01*
D11*
X114000000Y6000000D02*
X114000000Y24000000D01*
D11*
X114000000Y24000000D02*
X96000000Y24000000D01*
D11*
X96000000Y24000000D02*
X96000000Y6000000D01*
D11*
X7000000Y8000000D02*
X23000000Y8000000D01*
D11*
X23000000Y8000000D02*
X23000000Y22000000D01*
D11*
X23000000Y22000000D02*
X7000000Y22000000D01*
D11*
X7000000Y22000000D02*
X7000000Y8000000D01*
D11*
X18675000Y76600000D02*
X11325000Y76600000D01*
D11*
X11325000Y76600000D02*
X11325000Y73400000D01*
D11*
X11325000Y73400000D02*
X18675000Y73400000D01*
D11*
X18675000Y73400000D02*
X18675000Y76600000D01*
D11*
X98000000Y65500000D02*
X112000000Y65500000D01*
D11*
X112000000Y65500000D02*
X112000000Y74500000D01*
D11*
X112000000Y74500000D02*
X98000000Y74500000D01*
D11*
X98000000Y74500000D02*
X98000000Y65500000D01*
D11*
X82460000Y73500000D02*
X87540000Y73500000D01*
D11*
X87540000Y73500000D02*
X87540000Y76500000D01*
D11*
X87540000Y76500000D02*
X82460000Y76500000D01*
D11*
X82460000Y76500000D02*
X82460000Y73500000D01*
D11*
X42500000Y69500000D02*
X47500000Y69500000D01*
D11*
X47500000Y69500000D02*
X47500000Y74500000D01*
D11*
X47500000Y74500000D02*
X42500000Y74500000D01*
D11*
X42500000Y74500000D02*
X42500000Y69500000D01*
D11*
X52500000Y69500000D02*
X57500000Y69500000D01*
D11*
X57500000Y69500000D02*
X57500000Y74500000D01*
D11*
X57500000Y74500000D02*
X52500000Y74500000D01*
D11*
X52500000Y74500000D02*
X52500000Y69500000D01*
D11*
X93600000Y69200000D02*
X96400000Y69200000D01*
D11*
X96400000Y69200000D02*
X96400000Y70800000D01*
D11*
X96400000Y70800000D02*
X93600000Y70800000D01*
D11*
X93600000Y70800000D02*
X93600000Y69200000D01*
D11*
X82200000Y53400000D02*
X87800000Y53400000D01*
D11*
X87800000Y53400000D02*
X87800000Y56600000D01*
D11*
X87800000Y56600000D02*
X82200000Y56600000D01*
D11*
X82200000Y56600000D02*
X82200000Y53400000D01*
D11*
X85400000Y33700000D02*
X90600000Y33700000D01*
D11*
X90600000Y33700000D02*
X90600000Y36300000D01*
D11*
X90600000Y36300000D02*
X85400000Y36300000D01*
D11*
X85400000Y36300000D02*
X85400000Y33700000D01*
D11*
X103200000Y54200000D02*
X106800000Y54200000D01*
D11*
X106800000Y54200000D02*
X106800000Y55800000D01*
D11*
X106800000Y55800000D02*
X103200000Y55800000D01*
D11*
X103200000Y55800000D02*
X103200000Y54200000D01*
D11*
X89000000Y39000000D02*
X101000000Y39000000D01*
D11*
X101000000Y39000000D02*
X101000000Y51000000D01*
D11*
X101000000Y51000000D02*
X89000000Y51000000D01*
D11*
X89000000Y51000000D02*
X89000000Y39000000D01*
D11*
X69750000Y49750000D02*
X80250000Y49750000D01*
D11*
X80250000Y49750000D02*
X80250000Y60250000D01*
D11*
X80250000Y60250000D02*
X69750000Y60250000D01*
D11*
X69750000Y60250000D02*
X69750000Y49750000D01*
D11*
X44750000Y54750000D02*
X55250000Y54750000D01*
D11*
X55250000Y54750000D02*
X55250000Y65250000D01*
D11*
X55250000Y65250000D02*
X44750000Y65250000D01*
D11*
X44750000Y65250000D02*
X44750000Y54750000D01*
D11*
X104750000Y42750000D02*
X115250000Y42750000D01*
D11*
X115250000Y42750000D02*
X115250000Y53250000D01*
D11*
X115250000Y53250000D02*
X104750000Y53250000D01*
D11*
X104750000Y53250000D02*
X104750000Y42750000D01*
D11*
X23600000Y36900000D02*
X23600000Y39100000D01*
D11*
X23600000Y39100000D02*
X22400000Y39100000D01*
D11*
X22400000Y39100000D02*
X22400000Y36900000D01*
D11*
X22400000Y36900000D02*
X23600000Y36900000D01*
D11*
X38600000Y36900000D02*
X38600000Y39100000D01*
D11*
X38600000Y39100000D02*
X37400000Y39100000D01*
D11*
X37400000Y39100000D02*
X37400000Y36900000D01*
D11*
X37400000Y36900000D02*
X38600000Y36900000D01*
D11*
X50800000Y43600000D02*
X50800000Y46400000D01*
D11*
X50800000Y46400000D02*
X49200000Y46400000D01*
D11*
X49200000Y46400000D02*
X49200000Y43600000D01*
D11*
X49200000Y43600000D02*
X50800000Y43600000D01*
D11*
X70800000Y43600000D02*
X70800000Y46400000D01*
D11*
X70800000Y46400000D02*
X69200000Y46400000D01*
D11*
X69200000Y46400000D02*
X69200000Y43600000D01*
D11*
X69200000Y43600000D02*
X70800000Y43600000D01*
D11*
X58900000Y55400000D02*
X61100000Y55400000D01*
D11*
X61100000Y55400000D02*
X61100000Y56600000D01*
D11*
X61100000Y56600000D02*
X58900000Y56600000D01*
D11*
X58900000Y56600000D02*
X58900000Y55400000D01*
D11*
X23900000Y57400000D02*
X26100000Y57400000D01*
D11*
X26100000Y57400000D02*
X26100000Y58600000D01*
D11*
X26100000Y58600000D02*
X23900000Y58600000D01*
D11*
X23900000Y58600000D02*
X23900000Y57400000D01*
D11*
X33900000Y57400000D02*
X36100000Y57400000D01*
D11*
X36100000Y57400000D02*
X36100000Y58600000D01*
D11*
X36100000Y58600000D02*
X33900000Y58600000D01*
D11*
X33900000Y58600000D02*
X33900000Y57400000D01*
D11*
X46900000Y41400000D02*
X49100000Y41400000D01*
D11*
X49100000Y41400000D02*
X49100000Y42600000D01*
D11*
X49100000Y42600000D02*
X46900000Y42600000D01*
D11*
X46900000Y42600000D02*
X46900000Y41400000D01*
D11*
X46900000Y47400000D02*
X49100000Y47400000D01*
D11*
X49100000Y47400000D02*
X49100000Y48600000D01*
D11*
X49100000Y48600000D02*
X46900000Y48600000D01*
D11*
X46900000Y48600000D02*
X46900000Y47400000D01*
D11*
X10900000Y71400000D02*
X13100000Y71400000D01*
D11*
X13100000Y71400000D02*
X13100000Y72600000D01*
D11*
X13100000Y72600000D02*
X10900000Y72600000D01*
D11*
X10900000Y72600000D02*
X10900000Y71400000D01*
D11*
X16900000Y71400000D02*
X19100000Y71400000D01*
D11*
X19100000Y71400000D02*
X19100000Y72600000D01*
D11*
X19100000Y72600000D02*
X16900000Y72600000D01*
D11*
X16900000Y72600000D02*
X16900000Y71400000D01*
D11*
X38900000Y71400000D02*
X41100000Y71400000D01*
D11*
X41100000Y71400000D02*
X41100000Y72600000D01*
D11*
X41100000Y72600000D02*
X38900000Y72600000D01*
D11*
X38900000Y72600000D02*
X38900000Y71400000D01*
M02*
