%FSLAX46Y46*%
%MOMM*%
G04 Koe PRO F.Cu*
%LPD*%
%ADD10R,0.500X0.900*%
%ADD11R,6.000X2.400*%
%ADD12R,0.250X0.800*%
%ADD13R,0.800X0.250*%
%ADD14C,4.000*%
%ADD15R,0.300X1.200*%
%ADD16R,0.600X0.700*%
%ADD17R,2.700X1.500*%
%ADD18R,0.250X0.700*%
%ADD19R,0.700X0.250*%
%ADD20C,1.700*%
%ADD21R,0.600X1.000*%
%ADD22R,0.600X1.200*%
%ADD23R,0.300X1.000*%
%ADD24R,0.500X1.000*%
%ADD25R,0.600X1.600*%
%ADD26C,1.500*%
%ADD27C,2.000*%
%ADD28C,0.500*%
%ADD29R,1.500X1.000*%
%ADD30R,0.560X0.620*%
%ADD31R,0.800X1.000*%
%ADD32R,0.620X0.560*%
%ADD33C,0.400*%
%ADD34C,0.150*%
D10*
X5800000Y6070000D03*
D10*
X5800000Y7340000D03*
D10*
X5800000Y8610000D03*
D10*
X5800000Y9880000D03*
D10*
X5800000Y11150000D03*
D10*
X5800000Y12420000D03*
D10*
X5800000Y13690000D03*
D10*
X5800000Y14960000D03*
D10*
X5800000Y16230000D03*
D10*
X5800000Y17500000D03*
D10*
X5800000Y18770000D03*
D10*
X5800000Y20040000D03*
D10*
X5800000Y21310000D03*
D10*
X5800000Y22580000D03*
D10*
X5800000Y23850000D03*
D10*
X5800000Y25120000D03*
D10*
X5800000Y26390000D03*
D10*
X5800000Y27660000D03*
D10*
X5800000Y28930000D03*
D10*
X20200000Y6070000D03*
D10*
X20200000Y7340000D03*
D10*
X20200000Y8610000D03*
D10*
X20200000Y9880000D03*
D10*
X20200000Y11150000D03*
D10*
X20200000Y12420000D03*
D10*
X20200000Y13690000D03*
D10*
X20200000Y14960000D03*
D10*
X20200000Y16230000D03*
D10*
X20200000Y17500000D03*
D10*
X20200000Y18770000D03*
D10*
X20200000Y20040000D03*
D10*
X20200000Y21310000D03*
D10*
X20200000Y22580000D03*
D10*
X20200000Y23850000D03*
D10*
X20200000Y25120000D03*
D10*
X20200000Y26390000D03*
D10*
X20200000Y27660000D03*
D10*
X20200000Y28930000D03*
D11*
X13000000Y27500000D03*
D12*
X31750000Y7250000D03*
D12*
X31750000Y7750000D03*
D12*
X31750000Y8250000D03*
D12*
X31750000Y8750000D03*
D12*
X31750000Y9250000D03*
D12*
X31750000Y9750000D03*
D12*
X31750000Y10250000D03*
D12*
X31750000Y10750000D03*
D12*
X31750000Y11250000D03*
D12*
X31750000Y11750000D03*
D12*
X31750000Y12250000D03*
D12*
X31750000Y12750000D03*
D13*
X32250000Y13250000D03*
D13*
X32750000Y13250000D03*
D13*
X33250000Y13250000D03*
D13*
X33750000Y13250000D03*
D13*
X34250000Y13250000D03*
D13*
X34750000Y13250000D03*
D13*
X35250000Y13250000D03*
D13*
X35750000Y13250000D03*
D13*
X36250000Y13250000D03*
D13*
X36750000Y13250000D03*
D13*
X37250000Y13250000D03*
D13*
X37750000Y13250000D03*
D12*
X38250000Y12750000D03*
D12*
X38250000Y12250000D03*
D12*
X38250000Y11750000D03*
D12*
X38250000Y11250000D03*
D12*
X38250000Y10750000D03*
D12*
X38250000Y10250000D03*
D12*
X38250000Y9750000D03*
D12*
X38250000Y9250000D03*
D12*
X38250000Y8750000D03*
D12*
X38250000Y8250000D03*
D12*
X38250000Y7750000D03*
D12*
X38250000Y7250000D03*
D13*
X37750000Y6750000D03*
D13*
X37250000Y6750000D03*
D13*
X36750000Y6750000D03*
D13*
X36250000Y6750000D03*
D13*
X35750000Y6750000D03*
D13*
X35250000Y6750000D03*
D13*
X34750000Y6750000D03*
D13*
X34250000Y6750000D03*
D13*
X33750000Y6750000D03*
D13*
X33250000Y6750000D03*
D13*
X32750000Y6750000D03*
D13*
X32250000Y6750000D03*
D14*
X35000000Y10000000D03*
D15*
X31250000Y19075000D03*
D15*
X31250000Y19725000D03*
D15*
X31250000Y20375000D03*
D15*
X31250000Y21025000D03*
D15*
X31250000Y21675000D03*
D15*
X31250000Y22325000D03*
D15*
X31250000Y22975000D03*
D15*
X31250000Y23625000D03*
D15*
X31250000Y24275000D03*
D15*
X31250000Y24925000D03*
D15*
X38750000Y19075000D03*
D15*
X38750000Y19725000D03*
D15*
X38750000Y20375000D03*
D15*
X38750000Y21025000D03*
D15*
X38750000Y21675000D03*
D15*
X38750000Y22325000D03*
D15*
X38750000Y22975000D03*
D15*
X38750000Y23625000D03*
D15*
X38750000Y24275000D03*
D15*
X38750000Y24925000D03*
D16*
X3500000Y3750000D03*
D16*
X3500000Y5000000D03*
D16*
X3500000Y6250000D03*
D16*
X6500000Y6250000D03*
D16*
X6500000Y5000000D03*
D16*
X6500000Y3750000D03*
D17*
X5000000Y5000000D03*
D18*
X23380000Y29250000D03*
D18*
X23380000Y29750000D03*
D18*
X23380000Y30250000D03*
D18*
X23380000Y30750000D03*
D19*
X24250000Y31620000D03*
D19*
X24750000Y31620000D03*
D19*
X25250000Y31620000D03*
D19*
X25750000Y31620000D03*
D18*
X26620000Y30750000D03*
D18*
X26620000Y30250000D03*
D18*
X26620000Y29750000D03*
D18*
X26620000Y29250000D03*
D19*
X25750000Y28380000D03*
D19*
X25250000Y28380000D03*
D19*
X24750000Y28380000D03*
D19*
X24250000Y28380000D03*
D20*
X25000000Y30000000D03*
D21*
X23700000Y4050000D03*
D21*
X23700000Y5000000D03*
D21*
X23700000Y5950000D03*
D21*
X26300000Y5950000D03*
D21*
X26300000Y4050000D03*
D21*
X13700000Y4050000D03*
D21*
X13700000Y5000000D03*
D21*
X13700000Y5950000D03*
D21*
X16300000Y5950000D03*
D21*
X16300000Y4050000D03*
D22*
X22250000Y1000000D03*
D22*
X27750000Y1000000D03*
D23*
X24750000Y1000000D03*
D23*
X25250000Y1000000D03*
D23*
X23250000Y1000000D03*
D23*
X26750000Y1000000D03*
D24*
X21500000Y1000000D03*
D24*
X28500000Y1000000D03*
D25*
X20850000Y2500000D03*
D25*
X29150000Y2500000D03*
D26*
X40000000Y25500000D03*
D26*
X46000000Y25500000D03*
D26*
X43000000Y31000000D03*
D27*
X38000000Y28000000D03*
D27*
X48000000Y28000000D03*
D26*
X46000000Y5000000D03*
D27*
X43460000Y5000000D03*
D27*
X48540000Y5000000D03*
D28*
X3350000Y14450000D03*
D28*
X4650000Y14450000D03*
D28*
X4650000Y15550000D03*
D28*
X3350000Y15550000D03*
D28*
X3350000Y19450000D03*
D28*
X4650000Y19450000D03*
D28*
X4650000Y20550000D03*
D28*
X3350000Y20550000D03*
D29*
X750000Y30000000D03*
D29*
X7250000Y30000000D03*
D14*
X3000000Y3000000D03*
D14*
X47000000Y3000000D03*
D14*
X3000000Y32000000D03*
D14*
X47000000Y32000000D03*
D30*
X7520000Y10000000D03*
D30*
X8480000Y10000000D03*
D30*
X17520000Y10000000D03*
D30*
X18480000Y10000000D03*
D30*
X31520000Y5000000D03*
D30*
X32480000Y5000000D03*
D30*
X37520000Y5000000D03*
D30*
X38480000Y5000000D03*
D30*
X31520000Y28000000D03*
D30*
X32480000Y28000000D03*
D30*
X37520000Y28000000D03*
D30*
X38480000Y28000000D03*
D31*
X11250000Y3000000D03*
D31*
X12750000Y3000000D03*
D31*
X17250000Y3000000D03*
D31*
X18750000Y3000000D03*
D30*
X21520000Y28000000D03*
D30*
X22480000Y28000000D03*
D31*
X27250000Y3000000D03*
D31*
X28750000Y3000000D03*
D30*
X20520000Y5000000D03*
D30*
X21480000Y5000000D03*
D30*
X28520000Y5000000D03*
D30*
X29480000Y5000000D03*
D30*
X24520000Y8000000D03*
D30*
X25480000Y8000000D03*
D32*
X4000000Y11520000D03*
D32*
X4000000Y12480000D03*
D30*
X29520000Y18000000D03*
D30*
X30480000Y18000000D03*
D30*
X29520000Y20000000D03*
D30*
X30480000Y20000000D03*
D33*
X25000000Y2000000D02*
X25000000Y5000000D01*
D33*
X25000000Y5000000D02*
X15000000Y5000000D01*
D34*
X15000000Y5000000D02*
X13000000Y5000000D01*
D34*
X13000000Y5000000D02*
X13000000Y10000000D01*
D34*
X13000000Y10000000D02*
X13000000Y17500000D01*
D34*
X13000000Y10000000D02*
X35000000Y10000000D01*
D34*
X13000000Y17500000D02*
X5000000Y15000000D01*
D34*
X5000000Y15000000D02*
X5000000Y20000000D01*
D34*
X35000000Y22000000D02*
X35000000Y18000000D01*
D34*
X20200000Y13690000D02*
X31750000Y8500000D01*
D34*
X20200000Y14960000D02*
X31750000Y9000000D01*
D34*
X20200000Y16230000D02*
X31750000Y9500000D01*
D34*
X20200000Y12420000D02*
X31750000Y10000000D01*
D34*
X20200000Y11150000D02*
X31750000Y10500000D01*
D34*
X5800000Y7340000D02*
X31750000Y11000000D01*
D34*
X20200000Y18770000D02*
X31250000Y20700000D01*
D34*
X20200000Y20040000D02*
X31250000Y21350000D01*
D34*
X20200000Y21310000D02*
X31250000Y22000000D01*
D34*
X20200000Y22580000D02*
X23380000Y29250000D01*
D34*
X20200000Y23850000D02*
X23380000Y29750000D01*
D34*
X20200000Y25120000D02*
X23380000Y30250000D01*
D34*
X6500000Y5000000D02*
X5800000Y18770000D01*
D34*
X6500000Y3750000D02*
X5800000Y20040000D01*
D34*
X3500000Y3750000D02*
X5800000Y21310000D01*
D34*
X40000000Y25500000D02*
X40000000Y25000000D01*
D34*
X40000000Y25000000D02*
X38750000Y23300000D01*
D34*
X43000000Y31000000D02*
X40000000Y28000000D01*
D34*
X40000000Y28000000D02*
X38750000Y24600000D01*
D34*
X38250000Y7250000D02*
X42000000Y5000000D01*
D34*
X42000000Y5000000D02*
X46000000Y5000000D01*
D34*
X5800000Y9880000D02*
X4000000Y12000000D01*
D34*
X4650000Y15550000D02*
X3350000Y19450000D01*
D34*
X5800000Y26390000D02*
X25250000Y2000000D01*
D34*
X5800000Y27660000D02*
X24750000Y2000000D01*
D34*
X21000000Y5000000D02*
X23250000Y2000000D01*
D34*
X29000000Y5000000D02*
X26750000Y2000000D01*
D34*
X7250000Y30000000D02*
X5800000Y23850000D01*
D28*
X5000000Y5000000D03*
D28*
X25000000Y5000000D03*
D28*
X45000000Y5000000D03*
D28*
X5000000Y17000000D03*
D28*
X25000000Y17000000D03*
D28*
X45000000Y17000000D03*
D28*
X5000000Y30000000D03*
D28*
X25000000Y30000000D03*
D28*
X45000000Y30000000D03*
D28*
X15000000Y12000000D03*
D28*
X35000000Y12000000D03*
D28*
X15000000Y25000000D03*
D28*
X35000000Y25000000D03*
D28*
X33000000Y10000000D03*
D28*
X35000000Y8000000D03*
D28*
X37000000Y10000000D03*
D28*
X35000000Y12000000D03*
M02*
