M48
; Koe PRO 50x35mm ESP32-S3 + DW3000 UWB
FMAT,2
METRIC,TZ
T1C0.250
T2C2.700
T3C1.000
%
T1
X5.000Y5.000
X25.000Y5.000
X45.000Y5.000
X5.000Y17.000
X25.000Y17.000
X45.000Y17.000
X5.000Y30.000
X25.000Y30.000
X45.000Y30.000
X15.000Y12.000
X35.000Y12.000
X15.000Y25.000
X35.000Y25.000
X33.000Y10.000
X35.000Y8.000
X37.000Y10.000
X35.000Y12.000
T2
X3.000Y3.000
X47.000Y3.000
X3.000Y32.000
X47.000Y32.000
T3
X40.000Y25.500
X46.000Y25.500
X43.000Y31.000
X38.000Y28.000
X48.000Y28.000
M30
