%FSLAX46Y46*%
%MOMM*%
G04 Koe PRO F.SilkS*
%LPD*%
%ADD10C,0.120*%
D10*
X5300000Y7250000D02*
X20700000Y7250000D01*
D10*
X20700000Y7250000D02*
X20700000Y27750000D01*
D10*
X20700000Y27750000D02*
X5300000Y27750000D01*
D10*
X5300000Y27750000D02*
X5300000Y7250000D01*
D10*
X31750000Y6750000D02*
X38250000Y6750000D01*
D10*
X38250000Y6750000D02*
X38250000Y13250000D01*
D10*
X38250000Y13250000D02*
X31750000Y13250000D01*
D10*
X31750000Y13250000D02*
X31750000Y6750000D01*
D10*
X31250000Y18900000D02*
X38750000Y18900000D01*
D10*
X38750000Y18900000D02*
X38750000Y25100000D01*
D10*
X38750000Y25100000D02*
X31250000Y25100000D01*
D10*
X31250000Y25100000D02*
X31250000Y18900000D01*
D10*
X2640000Y3120000D02*
X7360000Y3120000D01*
D10*
X7360000Y3120000D02*
X7360000Y6880000D01*
D10*
X7360000Y6880000D02*
X2640000Y6880000D01*
D10*
X2640000Y6880000D02*
X2640000Y3120000D01*
D10*
X23380000Y28380000D02*
X26620000Y28380000D01*
D10*
X26620000Y28380000D02*
X26620000Y31620000D01*
D10*
X26620000Y31620000D02*
X23380000Y31620000D01*
D10*
X23380000Y31620000D02*
X23380000Y28380000D01*
D10*
X23500000Y3500000D02*
X26500000Y3500000D01*
D10*
X26500000Y3500000D02*
X26500000Y6500000D01*
D10*
X26500000Y6500000D02*
X23500000Y6500000D01*
D10*
X23500000Y6500000D02*
X23500000Y3500000D01*
D10*
X13500000Y3500000D02*
X16500000Y3500000D01*
D10*
X16500000Y3500000D02*
X16500000Y6500000D01*
D10*
X16500000Y6500000D02*
X13500000Y6500000D01*
D10*
X13500000Y6500000D02*
X13500000Y3500000D01*
D10*
X20500000Y250000D02*
X29500000Y250000D01*
D10*
X29500000Y250000D02*
X29500000Y3750000D01*
D10*
X29500000Y3750000D02*
X20500000Y3750000D01*
D10*
X20500000Y3750000D02*
X20500000Y250000D01*
D10*
X37500000Y24500000D02*
X48500000Y24500000D01*
D10*
X48500000Y24500000D02*
X48500000Y31500000D01*
D10*
X48500000Y31500000D02*
X37500000Y31500000D01*
D10*
X37500000Y31500000D02*
X37500000Y24500000D01*
D10*
X42825000Y2500000D02*
X49175000Y2500000D01*
D10*
X49175000Y2500000D02*
X49175000Y7500000D01*
D10*
X49175000Y7500000D02*
X42825000Y7500000D01*
D10*
X42825000Y7500000D02*
X42825000Y2500000D01*
D10*
X3000000Y14000000D02*
X5000000Y14000000D01*
D10*
X5000000Y14000000D02*
X5000000Y16000000D01*
D10*
X5000000Y16000000D02*
X3000000Y16000000D01*
D10*
X3000000Y16000000D02*
X3000000Y14000000D01*
D10*
X3000000Y19000000D02*
X5000000Y19000000D01*
D10*
X5000000Y19000000D02*
X5000000Y21000000D01*
D10*
X5000000Y21000000D02*
X3000000Y21000000D01*
D10*
X3000000Y21000000D02*
X3000000Y19000000D01*
D10*
X1000000Y28250000D02*
X7000000Y28250000D01*
D10*
X7000000Y28250000D02*
X7000000Y31750000D01*
D10*
X7000000Y31750000D02*
X1000000Y31750000D01*
D10*
X1000000Y31750000D02*
X1000000Y28250000D01*
D10*
X1000000Y1000000D02*
X5000000Y1000000D01*
D10*
X5000000Y1000000D02*
X5000000Y5000000D01*
D10*
X5000000Y5000000D02*
X1000000Y5000000D01*
D10*
X1000000Y5000000D02*
X1000000Y1000000D01*
D10*
X45000000Y1000000D02*
X49000000Y1000000D01*
D10*
X49000000Y1000000D02*
X49000000Y5000000D01*
D10*
X49000000Y5000000D02*
X45000000Y5000000D01*
D10*
X45000000Y5000000D02*
X45000000Y1000000D01*
D10*
X1000000Y30000000D02*
X5000000Y30000000D01*
D10*
X5000000Y30000000D02*
X5000000Y34000000D01*
D10*
X5000000Y34000000D02*
X1000000Y34000000D01*
D10*
X1000000Y34000000D02*
X1000000Y30000000D01*
D10*
X45000000Y30000000D02*
X49000000Y30000000D01*
D10*
X49000000Y30000000D02*
X49000000Y34000000D01*
D10*
X49000000Y34000000D02*
X45000000Y34000000D01*
D10*
X45000000Y34000000D02*
X45000000Y30000000D01*
D10*
X7200000Y9600000D02*
X8800000Y9600000D01*
D10*
X8800000Y9600000D02*
X8800000Y10400000D01*
D10*
X8800000Y10400000D02*
X7200000Y10400000D01*
D10*
X7200000Y10400000D02*
X7200000Y9600000D01*
D10*
X17200000Y9600000D02*
X18800000Y9600000D01*
D10*
X18800000Y9600000D02*
X18800000Y10400000D01*
D10*
X18800000Y10400000D02*
X17200000Y10400000D01*
D10*
X17200000Y10400000D02*
X17200000Y9600000D01*
D10*
X31200000Y4600000D02*
X32800000Y4600000D01*
D10*
X32800000Y4600000D02*
X32800000Y5400000D01*
D10*
X32800000Y5400000D02*
X31200000Y5400000D01*
D10*
X31200000Y5400000D02*
X31200000Y4600000D01*
D10*
X37200000Y4600000D02*
X38800000Y4600000D01*
D10*
X38800000Y4600000D02*
X38800000Y5400000D01*
D10*
X38800000Y5400000D02*
X37200000Y5400000D01*
D10*
X37200000Y5400000D02*
X37200000Y4600000D01*
D10*
X31200000Y27600000D02*
X32800000Y27600000D01*
D10*
X32800000Y27600000D02*
X32800000Y28400000D01*
D10*
X32800000Y28400000D02*
X31200000Y28400000D01*
D10*
X31200000Y28400000D02*
X31200000Y27600000D01*
D10*
X37200000Y27600000D02*
X38800000Y27600000D01*
D10*
X38800000Y27600000D02*
X38800000Y28400000D01*
D10*
X38800000Y28400000D02*
X37200000Y28400000D01*
D10*
X37200000Y28400000D02*
X37200000Y27600000D01*
D10*
X10900000Y2400000D02*
X13100000Y2400000D01*
D10*
X13100000Y2400000D02*
X13100000Y3600000D01*
D10*
X13100000Y3600000D02*
X10900000Y3600000D01*
D10*
X10900000Y3600000D02*
X10900000Y2400000D01*
D10*
X16900000Y2400000D02*
X19100000Y2400000D01*
D10*
X19100000Y2400000D02*
X19100000Y3600000D01*
D10*
X19100000Y3600000D02*
X16900000Y3600000D01*
D10*
X16900000Y3600000D02*
X16900000Y2400000D01*
D10*
X21200000Y27600000D02*
X22800000Y27600000D01*
D10*
X22800000Y27600000D02*
X22800000Y28400000D01*
D10*
X22800000Y28400000D02*
X21200000Y28400000D01*
D10*
X21200000Y28400000D02*
X21200000Y27600000D01*
D10*
X26900000Y2400000D02*
X29100000Y2400000D01*
D10*
X29100000Y2400000D02*
X29100000Y3600000D01*
D10*
X29100000Y3600000D02*
X26900000Y3600000D01*
D10*
X26900000Y3600000D02*
X26900000Y2400000D01*
D10*
X20200000Y4600000D02*
X21800000Y4600000D01*
D10*
X21800000Y4600000D02*
X21800000Y5400000D01*
D10*
X21800000Y5400000D02*
X20200000Y5400000D01*
D10*
X20200000Y5400000D02*
X20200000Y4600000D01*
D10*
X28200000Y4600000D02*
X29800000Y4600000D01*
D10*
X29800000Y4600000D02*
X29800000Y5400000D01*
D10*
X29800000Y5400000D02*
X28200000Y5400000D01*
D10*
X28200000Y5400000D02*
X28200000Y4600000D01*
D10*
X24200000Y7600000D02*
X25800000Y7600000D01*
D10*
X25800000Y7600000D02*
X25800000Y8400000D01*
D10*
X25800000Y8400000D02*
X24200000Y8400000D01*
D10*
X24200000Y8400000D02*
X24200000Y7600000D01*
D10*
X4400000Y11200000D02*
X4400000Y12800000D01*
D10*
X4400000Y12800000D02*
X3600000Y12800000D01*
D10*
X3600000Y12800000D02*
X3600000Y11200000D01*
D10*
X3600000Y11200000D02*
X4400000Y11200000D01*
D10*
X29200000Y17600000D02*
X30800000Y17600000D01*
D10*
X30800000Y17600000D02*
X30800000Y18400000D01*
D10*
X30800000Y18400000D02*
X29200000Y18400000D01*
D10*
X29200000Y18400000D02*
X29200000Y17600000D01*
D10*
X29200000Y19600000D02*
X30800000Y19600000D01*
D10*
X30800000Y19600000D02*
X30800000Y20400000D01*
D10*
X30800000Y20400000D02*
X29200000Y20400000D01*
D10*
X29200000Y20400000D02*
X29200000Y19600000D01*
M02*
