<svg xmlns="http://www.w3.org/2000/svg" viewBox="0 0 1200 1800" font-family="'Helvetica Neue', Arial, sans-serif">
  <defs>
    <linearGradient id="skin" x1="0" y1="0" x2="0" y2="1">
      <stop offset="0%" stop-color="#f0d5b8"/>
      <stop offset="100%" stop-color="#e8c8a8"/>
    </linearGradient>
    <linearGradient id="skinDark" x1="0" y1="0" x2="0" y2="1">
      <stop offset="0%" stop-color="#8b6914"/>
      <stop offset="100%" stop-color="#7a5c10"/>
    </linearGradient>
    <linearGradient id="device" x1="0" y1="0" x2="0" y2="1">
      <stop offset="0%" stop-color="#303030"/>
      <stop offset="40%" stop-color="#1a1a1a"/>
      <stop offset="100%" stop-color="#111"/>
    </linearGradient>
    <linearGradient id="deviceWhite" x1="0" y1="0" x2="0" y2="1">
      <stop offset="0%" stop-color="#f5f5f5"/>
      <stop offset="40%" stop-color="#eee"/>
      <stop offset="100%" stop-color="#e0e0e0"/>
    </linearGradient>
    <linearGradient id="hair" x1="0" y1="0" x2="0" y2="1">
      <stop offset="0%" stop-color="#2a1a0a"/>
      <stop offset="100%" stop-color="#1a0f05"/>
    </linearGradient>
    <linearGradient id="hairLight" x1="0" y1="0" x2="0" y2="1">
      <stop offset="0%" stop-color="#c8a060"/>
      <stop offset="100%" stop-color="#a08040"/>
    </linearGradient>
    <linearGradient id="shirt1" x1="0" y1="0" x2="0" y2="1">
      <stop offset="0%" stop-color="#f8f8f8"/>
      <stop offset="100%" stop-color="#e8e8e8"/>
    </linearGradient>
    <linearGradient id="shirt2" x1="0" y1="0" x2="0" y2="1">
      <stop offset="0%" stop-color="#1a1a2e"/>
      <stop offset="100%" stop-color="#111122"/>
    </linearGradient>
    <linearGradient id="turtleneck" x1="0" y1="0" x2="0" y2="1">
      <stop offset="0%" stop-color="#2a2a2a"/>
      <stop offset="100%" stop-color="#1a1a1a"/>
    </linearGradient>
    <filter id="softShadow">
      <feDropShadow dx="0" dy="2" stdDeviation="4" flood-color="#000" flood-opacity="0.15"/>
    </filter>
    <filter id="deviceGlow">
      <feDropShadow dx="0" dy="1" stdDeviation="3" flood-color="#000" flood-opacity="0.3"/>
    </filter>
    <filter id="ledGlowF">
      <feGaussianBlur stdDeviation="3"/>
      <feMerge><feMergeNode/><feMergeNode in="SourceGraphic"/></feMerge>
    </filter>
    <clipPath id="earClip">
      <circle cx="0" cy="0" r="100"/>
    </clipPath>
  </defs>

  <rect width="1200" height="1800" fill="#fafaf7"/>

  <!-- Header -->
  <text x="600" y="50" text-anchor="middle" font-size="14" fill="#999" letter-spacing="6">KOE</text>
  <text x="600" y="80" text-anchor="middle" font-size="32" font-weight="200" fill="#222" letter-spacing="2">Your voice, always heard.</text>
  <text x="600" y="105" text-anchor="middle" font-size="13" fill="#aaa" letter-spacing="1">AI that listens, understands, and speaks back.</text>

  <!-- ============================================================ -->
  <!-- SCENE 1: 耳につけている (Behind-ear, like a hearing aid) -->
  <!-- ============================================================ -->

  <g transform="translate(0, 130)">
    <rect x="0" y="0" width="600" height="420" fill="#f0ede8"/>

    <!-- Person's head (side profile, facing left) -->
    <g transform="translate(300, 50)">
      <!-- Hair -->
      <ellipse cx="100" cy="100" rx="110" ry="120" fill="url(#hair)"/>
      <!-- Face/head -->
      <ellipse cx="80" cy="110" rx="85" ry="100" fill="url(#skin)"/>
      <!-- Ear -->
      <path d="M185,100 Q200,80 198,110 Q196,140 185,145 Q178,148 180,125 Q182,105 185,100Z" fill="#e8c0a0" stroke="#d4b090" stroke-width="0.5"/>
      <!-- Ear inner -->
      <path d="M188,105 Q194,95 193,115 Q191,132 187,135" fill="none" stroke="#d4a888" stroke-width="1"/>
      <!-- Ear canal -->
      <ellipse cx="186" cy="118" rx="3" ry="4" fill="#c8a080"/>

      <!-- Eye -->
      <ellipse cx="45" cy="95" rx="8" ry="5" fill="#fff"/>
      <circle cx="43" cy="95" r="4" fill="#3a2a1a"/>
      <circle cx="42" cy="94" r="1.5" fill="#000"/>
      <!-- Eyebrow -->
      <path d="M33,84 Q45,78 58,82" fill="none" stroke="#2a1a0a" stroke-width="1.5"/>
      <!-- Nose -->
      <path d="M30,105 Q22,118 30,125" fill="none" stroke="#d8b898" stroke-width="1.5"/>
      <!-- Mouth -->
      <path d="M28,145 Q38,150 48,146" fill="none" stroke="#c89888" stroke-width="1.2"/>
      <!-- Neck -->
      <rect x="55" y="195" width="70" height="80" rx="20" fill="url(#skin)"/>
      <!-- Shoulder hint -->
      <path d="M40,250 Q80,240 130,250 L200,280 L-20,280Z" fill="url(#turtleneck)"/>

      <!-- === KOE MINI behind ear === -->
      <g transform="translate(185, 85)">
        <!-- Device body - small pebble shape -->
        <rect x="8" y="-5" width="18" height="28" rx="9" fill="url(#device)" filter="url(#deviceGlow)"/>
        <!-- Subtle LED -->
        <circle cx="17" cy="10" r="1.5" fill="#4ade80" opacity="0.8"/>
        <circle cx="17" cy="10" r="4" fill="#4ade80" opacity="0.15" filter="url(#ledGlowF)"/>
        <!-- Mic hole -->
        <circle cx="17" cy="2" r="1.2" fill="#0a0a0a"/>
      </g>
    </g>

    <!-- Caption -->
    <text x="300" y="380" text-anchor="middle" font-size="18" font-weight="300" fill="#333">Behind the ear. Invisible to others.</text>
    <text x="300" y="400" text-anchor="middle" font-size="11" fill="#999">Koe MINI — 5g, you forget it's there</text>
  </g>

  <!-- ============================================================ -->
  <!-- SCENE 2: 手のひらに載せている -->
  <!-- ============================================================ -->

  <g transform="translate(600, 130)">
    <rect x="0" y="0" width="600" height="420" fill="#eeeae5"/>

    <!-- Open palm holding device -->
    <g transform="translate(100, 60)">
      <!-- Palm -->
      <path d="M120,280 Q80,260 60,200 Q50,160 70,120 Q80,100 100,90 L130,85 Q145,82 155,90 L165,85 Q175,82 185,92 L195,88 Q205,86 210,98 L225,95 Q240,96 240,115 Q242,140 235,180 Q230,220 250,260 Q260,290 240,310 Q200,340 160,320 Q130,310 120,280Z"
        fill="url(#skin)" stroke="#dbb898" stroke-width="0.5" filter="url(#softShadow)"/>

      <!-- Finger creases -->
      <path d="M88,130 Q95,125 108,130" fill="none" stroke="#dbb898" stroke-width="0.5"/>
      <path d="M125,118 Q135,112 148,118" fill="none" stroke="#dbb898" stroke-width="0.5"/>
      <path d="M162,115 Q172,110 182,116" fill="none" stroke="#dbb898" stroke-width="0.5"/>
      <path d="M198,118 Q208,114 220,120" fill="none" stroke="#dbb898" stroke-width="0.5"/>

      <!-- Palm lines -->
      <path d="M90,180 Q130,160 200,175" fill="none" stroke="#d8b090" stroke-width="0.5" opacity="0.6"/>
      <path d="M80,220 Q140,195 230,215" fill="none" stroke="#d8b090" stroke-width="0.5" opacity="0.6"/>

      <!-- === KOE MINI sitting in palm === -->
      <g transform="translate(120, 170)">
        <rect x="0" y="0" width="50" height="65" rx="25" fill="url(#device)" filter="url(#deviceGlow)"/>
        <!-- Chrome edge -->
        <rect x="-1" y="-1" width="52" height="67" rx="26" fill="none" stroke="#555" stroke-width="0.5"/>
        <!-- Mic -->
        <circle cx="25" cy="16" r="3" fill="#0a0a0a"/>
        <circle cx="25" cy="16" r="3.5" fill="none" stroke="#333" stroke-width="0.3"/>
        <!-- LED -->
        <circle cx="25" cy="35" r="2" fill="#4ade80"/>
        <circle cx="25" cy="35" r="6" fill="#4ade80" opacity="0.12" filter="url(#ledGlowF)"/>
        <!-- 声 mark -->
        <text x="25" y="53" text-anchor="middle" font-size="6" fill="#444" font-weight="300">声</text>
        <!-- USB-C -->
        <rect x="18" y="60" width="14" height="3" rx="1.5" fill="#0a0a0a"/>
      </g>
    </g>

    <text x="300" y="380" text-anchor="middle" font-size="18" font-weight="300" fill="#333">Fits in your palm. Feels like a river stone.</text>
    <text x="300" y="400" text-anchor="middle" font-size="11" fill="#999">Smooth ceramic finish, 25 x 30mm</text>
  </g>

  <!-- ============================================================ -->
  <!-- SCENE 3: 胸ポケットにクリップ (通勤風景) -->
  <!-- ============================================================ -->

  <g transform="translate(0, 560)">
    <rect x="0" y="0" width="600" height="420" fill="#e8e5e0"/>

    <!-- Upper body, slight angle -->
    <g transform="translate(150, 20)">
      <!-- Neck -->
      <rect x="110" y="0" width="65" height="50" rx="15" fill="url(#skin)"/>
      <!-- Shirt collar (white dress shirt) -->
      <path d="M80,35 L142,50 L142,70 L80,70Z" fill="url(#shirt1)" stroke="#ddd" stroke-width="0.5"/>
      <path d="M205,35 L142,50 L142,70 L205,70Z" fill="url(#shirt1)" stroke="#ddd" stroke-width="0.5"/>
      <!-- Shirt body -->
      <path d="M30,70 L80,35 Q90,55 80,70 L80,380 L205,380 L205,70 Q195,55 205,35 L255,70 L255,380 L30,380Z"
        fill="url(#shirt1)" stroke="#e0e0e0" stroke-width="0.5"/>
      <!-- Button line -->
      <line x1="142" y1="70" x2="142" y2="380" stroke="#ddd" stroke-width="0.5"/>
      <circle cx="142" cy="100" r="2" fill="none" stroke="#ccc" stroke-width="0.5"/>
      <circle cx="142" cy="140" r="2" fill="none" stroke="#ccc" stroke-width="0.5"/>
      <circle cx="142" cy="180" r="2" fill="none" stroke="#ccc" stroke-width="0.5"/>

      <!-- Breast pocket -->
      <path d="M155,110 L200,110 L200,160 L155,160Z" fill="none" stroke="#ddd" stroke-width="0.5"/>
      <!-- Pocket fold shadow -->
      <line x1="155" y1="112" x2="200" y2="112" stroke="#d8d8d8" stroke-width="0.5"/>

      <!-- === KOE MINI clipped to pocket === -->
      <g transform="translate(164, 95)">
        <!-- Clip part (visible above pocket) -->
        <rect x="3" y="0" width="18" height="6" rx="1.5" fill="#444" stroke="#555" stroke-width="0.3"/>
        <!-- Device body (partially in pocket) -->
        <rect x="0" y="5" width="24" height="32" rx="12" fill="url(#device)" filter="url(#deviceGlow)"/>
        <!-- LED -->
        <circle cx="12" cy="18" r="1.5" fill="#4ade80" opacity="0.7"/>
        <circle cx="12" cy="18" r="5" fill="#4ade80" opacity="0.1" filter="url(#ledGlowF)"/>
        <!-- Mic -->
        <circle cx="12" cy="11" r="1.5" fill="#0a0a0a"/>
      </g>
    </g>

    <text x="300" y="380" text-anchor="middle" font-size="18" font-weight="300" fill="#333">Clips to your pocket. Records your day.</text>
    <text x="300" y="400" text-anchor="middle" font-size="11" fill="#999">Always listening, always learning about you</text>
  </g>

  <!-- ============================================================ -->
  <!-- SCENE 4: デスクに置いて会話中 (STUDIO) -->
  <!-- ============================================================ -->

  <g transform="translate(600, 560)">
    <rect x="0" y="0" width="600" height="420" fill="#e5e2dd"/>

    <!-- Desk surface (wood grain) -->
    <rect x="0" y="200" width="600" height="220" fill="#c4a882" rx="0"/>
    <line x1="0" y1="210" x2="600" y2="210" stroke="#b89870" stroke-width="0.3" opacity="0.5"/>
    <line x1="0" y1="250" x2="600" y2="250" stroke="#b89870" stroke-width="0.3" opacity="0.3"/>
    <line x1="0" y1="300" x2="600" y2="300" stroke="#b89870" stroke-width="0.3" opacity="0.2"/>

    <!-- Coffee cup -->
    <g transform="translate(420, 210)">
      <ellipse cx="40" cy="10" rx="30" ry="8" fill="#f0f0f0" stroke="#ddd" stroke-width="0.5"/>
      <rect x="10" y="10" width="60" height="50" rx="2" fill="#f0f0f0" stroke="#ddd" stroke-width="0.5"/>
      <ellipse cx="40" cy="60" rx="30" ry="5" fill="#e8e8e8"/>
      <!-- Handle -->
      <path d="M70,20 Q90,25 90,40 Q90,55 70,55" fill="none" stroke="#ddd" stroke-width="2"/>
      <!-- Coffee surface -->
      <ellipse cx="40" cy="12" rx="26" ry="6" fill="#3a2010"/>
    </g>

    <!-- Laptop edge hint -->
    <rect x="50" y="195" width="300" height="10" rx="2" fill="#c0c0c0" stroke="#b0b0b0" stroke-width="0.5"/>
    <rect x="60" y="120" width="280" height="80" rx="4" fill="#1a1a1a"/>
    <rect x="65" y="125" width="270" height="70" rx="2" fill="#2a3a4a"/>
    <!-- Screen content hint -->
    <rect x="75" y="135" width="100" height="8" rx="1" fill="#3a4a5a" opacity="0.5"/>
    <rect x="75" y="148" width="150" height="6" rx="1" fill="#3a4a5a" opacity="0.3"/>
    <rect x="75" y="158" width="80" height="6" rx="1" fill="#3a4a5a" opacity="0.3"/>

    <!-- === KOE STUDIO on desk === -->
    <g transform="translate(260, 220)">
      <!-- Shadow on desk -->
      <ellipse cx="40" cy="95" rx="35" ry="6" fill="#000" opacity="0.1"/>
      <!-- Device body -->
      <rect x="5" y="5" width="70" height="90" rx="18" fill="url(#device)" filter="url(#deviceGlow)"/>
      <rect x="4" y="4" width="72" height="92" rx="19" fill="none" stroke="#444" stroke-width="0.5"/>
      <!-- Speaker grille -->
      <circle cx="40" cy="45" r="22" fill="#0a0a0a" stroke="#2a2a2a" stroke-width="0.3"/>
      <circle cx="40" cy="45" r="18" fill="none" stroke="#1a1a1a" stroke-width="0.3"/>
      <circle cx="40" cy="45" r="14" fill="none" stroke="#1a1a1a" stroke-width="0.3"/>
      <circle cx="40" cy="45" r="8" fill="#151515"/>
      <circle cx="40" cy="45" r="3" fill="#1a1a1a"/>
      <!-- Grille holes -->
      <circle cx="28" cy="35" r="1" fill="#151515"/>
      <circle cx="33" cy="32" r="1" fill="#151515"/>
      <circle cx="40" cy="30" r="1" fill="#151515"/>
      <circle cx="47" cy="32" r="1" fill="#151515"/>
      <circle cx="52" cy="35" r="1" fill="#151515"/>
      <circle cx="28" cy="55" r="1" fill="#151515"/>
      <circle cx="33" cy="58" r="1" fill="#151515"/>
      <circle cx="40" cy="60" r="1" fill="#151515"/>
      <circle cx="47" cy="58" r="1" fill="#151515"/>
      <circle cx="52" cy="55" r="1" fill="#151515"/>
      <circle cx="24" cy="45" r="1" fill="#151515"/>
      <circle cx="56" cy="45" r="1" fill="#151515"/>
      <!-- Dual mic -->
      <circle cx="22" cy="18" r="2" fill="#0a0a0a"/>
      <circle cx="58" cy="18" r="2" fill="#0a0a0a"/>
      <!-- LED strip -->
      <rect x="20" y="74" width="40" height="3" rx="1.5" fill="#111"/>
      <circle cx="27" cy="75.5" r="1.2" fill="#4ade80" opacity="0.5"/>
      <circle cx="33" cy="75.5" r="1.3" fill="#4ade80" opacity="0.7"/>
      <circle cx="40" cy="75.5" r="1.5" fill="#4ade80" filter="url(#ledGlowF)"/>
      <circle cx="47" cy="75.5" r="1.3" fill="#4ade80" opacity="0.7"/>
      <circle cx="53" cy="75.5" r="1.2" fill="#4ade80" opacity="0.5"/>

      <!-- Sound waves emanating -->
      <path d="M75,35 Q85,45 75,55" fill="none" stroke="#4ade80" stroke-width="0.8" opacity="0.3"/>
      <path d="M82,28 Q97,45 82,62" fill="none" stroke="#4ade80" stroke-width="0.6" opacity="0.2"/>
      <path d="M5,35 Q-5,45 5,55" fill="none" stroke="#4ade80" stroke-width="0.8" opacity="0.3"/>
      <path d="M-2,28 Q-17,45 -2,62" fill="none" stroke="#4ade80" stroke-width="0.6" opacity="0.2"/>
    </g>

    <text x="300" y="380" text-anchor="middle" font-size="18" font-weight="300" fill="#333">On your desk. Fills the room with sound.</text>
    <text x="300" y="400" text-anchor="middle" font-size="11" fill="#999">Koe STUDIO — 28mm driver, passive radiator, Hi-Fi quality</text>
  </g>

  <!-- ============================================================ -->
  <!-- SCENE 5: ネックレスとして (女性、おしゃれ) -->
  <!-- ============================================================ -->

  <g transform="translate(0, 990)">
    <rect x="0" y="0" width="600" height="420" fill="#ede8e3"/>

    <g transform="translate(170, 10)">
      <!-- Neck and collarbone area -->
      <path d="M60,0 Q130,10 200,0 L200,30 Q180,40 170,80 L160,150 Q130,180 100,150 L90,80 Q80,40 60,30Z"
        fill="url(#skin)"/>
      <!-- Collarbone hints -->
      <path d="M75,55 Q130,70 185,55" fill="none" stroke="#dbb898" stroke-width="0.5" opacity="0.5"/>
      <!-- V-neck top -->
      <path d="M50,25 Q60,20 80,50 L130,150 L180,50 Q200,20 210,25 L250,30 L250,400 L10,400 L10,30Z"
        fill="#1a1a2e"/>
      <!-- Fabric fold -->
      <path d="M80,50 Q100,55 120,90" fill="none" stroke="#151528" stroke-width="0.5"/>
      <path d="M180,50 Q160,55 140,90" fill="none" stroke="#151528" stroke-width="0.5"/>

      <!-- Necklace chain (thin, delicate) -->
      <path d="M95,20 Q100,40 105,60 Q115,100 130,120"
        fill="none" stroke="#c0a880" stroke-width="0.8"/>
      <path d="M165,20 Q160,40 155,60 Q145,100 130,120"
        fill="none" stroke="#c0a880" stroke-width="0.8"/>

      <!-- === KOE MINI as pendant (white model) === -->
      <g transform="translate(115, 118)">
        <!-- Small ring/bail -->
        <circle cx="15" cy="0" r="3" fill="none" stroke="#c0a880" stroke-width="1"/>
        <!-- Device body (white ceramic) -->
        <rect x="2" y="5" width="26" height="34" rx="13" fill="url(#deviceWhite)" filter="url(#softShadow)"/>
        <rect x="1" y="4" width="28" height="36" rx="14" fill="none" stroke="#d0d0d0" stroke-width="0.5"/>
        <!-- Mic (subtle) -->
        <circle cx="15" cy="14" r="1.5" fill="#d0d0d0"/>
        <!-- LED (warm white glow) -->
        <circle cx="15" cy="24" r="1.2" fill="#ffd" opacity="0.9"/>
        <circle cx="15" cy="24" r="4" fill="#ffd" opacity="0.1"/>
      </g>
    </g>

    <text x="300" y="380" text-anchor="middle" font-size="18" font-weight="300" fill="#333">Wears like jewelry. Works like magic.</text>
    <text x="300" y="400" text-anchor="middle" font-size="11" fill="#999">Ceramic White — gold chain, 5 grams of intelligence</text>
  </g>

  <!-- ============================================================ -->
  <!-- SCENE 6: ランニング中 (耳かけ + 汗) -->
  <!-- ============================================================ -->

  <g transform="translate(600, 990)">
    <rect x="0" y="0" width="600" height="420" fill="#e3e8ed"/>

    <g transform="translate(120, 20)">
      <!-- Head (3/4 view, looking forward) -->
      <!-- Hair (short, sporty) -->
      <ellipse cx="160" cy="90" rx="95" ry="105" fill="#2a2a2a"/>
      <!-- Face -->
      <ellipse cx="150" cy="105" rx="80" ry="90" fill="url(#skinDark)"/>
      <!-- Forehead highlight -->
      <ellipse cx="145" cy="65" rx="50" ry="20" fill="#9a7520" opacity="0.3"/>

      <!-- Eyes -->
      <ellipse cx="120" cy="90" rx="9" ry="5.5" fill="#fff"/>
      <circle cx="118" cy="90" r="4.5" fill="#1a0f05"/>
      <circle cx="117" cy="89" r="2" fill="#000"/>
      <ellipse cx="170" cy="92" rx="7" ry="4.5" fill="#fff"/>
      <circle cx="169" cy="92" r="3.5" fill="#1a0f05"/>
      <circle cx="168" cy="91" r="1.8" fill="#000"/>

      <!-- Eyebrows -->
      <path d="M105,80 Q120,73 135,78" fill="none" stroke="#1a0f05" stroke-width="2"/>
      <path d="M160,81 Q172,76 182,80" fill="none" stroke="#1a0f05" stroke-width="1.5"/>

      <!-- Nose -->
      <path d="M140,100 Q135,115 140,120 Q145,123 150,120" fill="none" stroke="#7a5810" stroke-width="1.2"/>

      <!-- Smile (running, energetic) -->
      <path d="M125,140 Q145,152 165,142" fill="none" stroke="#6a4a10" stroke-width="1.5"/>
      <path d="M130,140 Q145,148 160,142" fill="#fff" opacity="0.8"/>

      <!-- Ear (right side visible) -->
      <path d="M235,85 Q252,70 250,100 Q248,125 238,130 Q232,132 234,115 Q236,95 235,85Z"
        fill="#8b6514" stroke="#7a5810" stroke-width="0.5"/>

      <!-- === KOE MINI behind right ear === -->
      <g transform="translate(240, 78)">
        <rect x="5" y="0" width="16" height="24" rx="8" fill="url(#device)" filter="url(#deviceGlow)"/>
        <circle cx="13" cy="8" r="1" fill="#0a0a0a"/>
        <circle cx="13" cy="15" r="1.2" fill="#00ff88"/>
        <circle cx="13" cy="15" r="3.5" fill="#00ff88" opacity="0.15" filter="url(#ledGlowF)"/>
      </g>

      <!-- Sweat drops -->
      <ellipse cx="100" cy="70" rx="2" ry="3" fill="#fff" opacity="0.4"/>
      <ellipse cx="185" cy="75" rx="1.5" ry="2.5" fill="#fff" opacity="0.3"/>

      <!-- Athletic top -->
      <path d="M60,180 Q100,170 150,175 Q200,170 260,180 L280,380 L40,380Z" fill="#333"/>
      <!-- Shoulder seam -->
      <path d="M80,180 Q120,195 150,185" fill="none" stroke="#2a2a2a" stroke-width="0.5"/>
    </g>

    <text x="300" y="380" text-anchor="middle" font-size="18" font-weight="300" fill="#333">Run with it. Sweat on it. It keeps up.</text>
    <text x="300" y="400" text-anchor="middle" font-size="11" fill="#999">5g — lighter than your earbuds</text>
  </g>

  <!-- ============================================================ -->
  <!-- SCENE 7: 比較写真 (全3モデル並べて) -->
  <!-- ============================================================ -->

  <g transform="translate(0, 1420)">
    <rect x="0" y="0" width="1200" height="380" fill="#f2f0eb"/>

    <text x="600" y="40" text-anchor="middle" font-size="12" fill="#999" letter-spacing="4">THE COLLECTION</text>

    <!-- MINI -->
    <g transform="translate(150, 70)">
      <rect x="0" y="0" width="80" height="105" rx="40" fill="url(#device)" filter="url(#deviceGlow)"/>
      <rect x="-1" y="-1" width="82" height="107" rx="41" fill="none" stroke="#444" stroke-width="0.5"/>
      <circle cx="40" cy="28" r="5" fill="#0a0a0a"/>
      <circle cx="40" cy="55" r="3" fill="#4ade80"/>
      <circle cx="40" cy="55" r="8" fill="#4ade80" opacity="0.1" filter="url(#ledGlowF)"/>
      <text x="40" y="82" text-anchor="middle" font-size="8" fill="#444">声</text>
      <rect x="30" y="96" width="20" height="5" rx="2.5" fill="#0a0a0a"/>

      <text x="40" y="135" text-anchor="middle" font-size="16" font-weight="300" fill="#333">MINI</text>
      <text x="40" y="152" text-anchor="middle" font-size="10" fill="#999">5g</text>
      <text x="40" y="167" text-anchor="middle" font-size="10" fill="#999">9h battery</text>
      <text x="40" y="182" text-anchor="middle" font-size="10" fill="#999">BLE audio</text>
      <text x="40" y="202" text-anchor="middle" font-size="13" font-weight="300" fill="#333">$29</text>
    </g>

    <!-- BAND (white variant) -->
    <g transform="translate(430, 80)">
      <!-- Strap segments -->
      <rect x="-60" y="30" width="60" height="20" rx="4" fill="#2a2a2a"/>
      <rect x="180" y="30" width="60" height="20" rx="4" fill="#2a2a2a"/>
      <!-- Body -->
      <rect x="0" y="10" width="180" height="60" rx="30" fill="url(#device)" filter="url(#deviceGlow)"/>
      <rect x="-1" y="9" width="182" height="62" rx="31" fill="none" stroke="#444" stroke-width="0.5"/>
      <!-- Mics -->
      <circle cx="38" cy="38" r="4" fill="#0a0a0a"/>
      <circle cx="55" cy="38" r="4" fill="#0a0a0a"/>
      <!-- LED strip -->
      <circle cx="80" cy="38" r="2.5" fill="#4ade80" opacity="0.4"/>
      <circle cx="92" cy="38" r="3" fill="#4ade80" opacity="0.7"/>
      <circle cx="105" cy="38" r="3.5" fill="#4ade80" filter="url(#ledGlowF)"/>
      <circle cx="118" cy="38" r="3" fill="#4ade80" opacity="0.7"/>
      <circle cx="130" cy="38" r="2.5" fill="#4ade80" opacity="0.4"/>
      <!-- Speaker grille -->
      <rect x="142" y="28" width="28" height="20" rx="4" fill="#0a0a0a"/>
      <line x1="147" y1="32" x2="165" y2="32" stroke="#1a1a1a" stroke-width="1.5" stroke-linecap="round"/>
      <line x1="147" y1="36" x2="165" y2="36" stroke="#1a1a1a" stroke-width="1.5" stroke-linecap="round"/>
      <line x1="147" y1="40" x2="165" y2="40" stroke="#1a1a1a" stroke-width="1.5" stroke-linecap="round"/>
      <line x1="147" y1="44" x2="165" y2="44" stroke="#1a1a1a" stroke-width="1.5" stroke-linecap="round"/>

      <text x="90" y="115" text-anchor="middle" font-size="16" font-weight="300" fill="#333">BAND</text>
      <text x="90" y="132" text-anchor="middle" font-size="10" fill="#999">25g</text>
      <text x="90" y="147" text-anchor="middle" font-size="10" fill="#999">5h active</text>
      <text x="90" y="162" text-anchor="middle" font-size="10" fill="#999">Built-in speaker</text>
      <text x="90" y="182" text-anchor="middle" font-size="13" font-weight="300" fill="#333">$49</text>
    </g>

    <!-- STUDIO -->
    <g transform="translate(870, 55)">
      <rect x="0" y="0" width="100" height="135" rx="22" fill="url(#device)" filter="url(#deviceGlow)"/>
      <rect x="-1" y="-1" width="102" height="137" rx="23" fill="none" stroke="#444" stroke-width="0.5"/>
      <!-- Mics -->
      <circle cx="25" cy="20" r="3" fill="#0a0a0a"/>
      <circle cx="75" cy="20" r="3" fill="#0a0a0a"/>
      <!-- Speaker -->
      <circle cx="50" cy="60" r="28" fill="#0a0a0a"/>
      <circle cx="50" cy="60" r="22" fill="none" stroke="#1a1a1a" stroke-width="0.3"/>
      <circle cx="50" cy="60" r="15" fill="none" stroke="#1a1a1a" stroke-width="0.3"/>
      <circle cx="50" cy="60" r="8" fill="#151515"/>
      <!-- LEDs -->
      <rect x="25" y="100" width="50" height="4" rx="2" fill="#111"/>
      <circle cx="35" cy="102" r="1.5" fill="#4ade80" opacity="0.5"/>
      <circle cx="43" cy="102" r="1.8" fill="#4ade80" opacity="0.7"/>
      <circle cx="50" cy="102" r="2" fill="#4ade80" filter="url(#ledGlowF)"/>
      <circle cx="57" cy="102" r="1.8" fill="#4ade80" opacity="0.7"/>
      <circle cx="65" cy="102" r="1.5" fill="#4ade80" opacity="0.5"/>
      <!-- Button -->
      <circle cx="35" cy="120" r="5" fill="#1a1a1a" stroke="#333" stroke-width="0.5"/>

      <text x="50" y="165" text-anchor="middle" font-size="16" font-weight="300" fill="#333">STUDIO</text>
      <text x="50" y="182" text-anchor="middle" font-size="10" fill="#999">65g</text>
      <text x="50" y="197" text-anchor="middle" font-size="10" fill="#999">24h battery</text>
      <text x="50" y="212" text-anchor="middle" font-size="10" fill="#999">Hi-Fi 28mm driver</text>
      <text x="50" y="232" text-anchor="middle" font-size="13" font-weight="300" fill="#333">$79</text>
    </g>

    <!-- Tagline -->
    <text x="600" y="320" text-anchor="middle" font-size="22" font-weight="200" fill="#333" letter-spacing="1">Pick your voice. Wear your AI.</text>
    <text x="600" y="348" text-anchor="middle" font-size="11" fill="#aaa" letter-spacing="2">koe.elio.love</text>
  </g>

</svg>
