M48
; Koe COIN Lite v2 -- 28mm round nRF5340 + nRF21540
; Generated by gen_coin_lite_v2.py
FMAT,2
METRIC,TZ
T1C0.300
%
G90
G05
T1
X12.500Y12.500
X14.000Y12.500
X15.500Y12.500
X12.500Y14.000
X14.000Y14.000
X15.500Y14.000
X12.500Y15.500
X14.000Y15.500
X15.500Y15.500
X7.000Y14.000
X21.000Y14.000
X14.000Y21.000
X14.000Y7.000
X10.000Y18.000
X18.000Y18.000
X10.000Y10.000
X18.000Y10.000
X18.000Y20.000
X21.000Y20.000
X11.000Y4.000
X17.000Y4.000
X5.000Y19.000
X23.000Y19.000
X5.000Y9.000
X23.000Y9.000
X5.000Y19.000
T0
M30
