G04 Koe COIN Lite v2 -- Generated by gen_coin_lite_v2.py*
G04 Layer: F.Mask*
G04 Date: 2026-04-10*
%TF.FileFunction,Soldermask,Top*%
%TF.GenerationSoftware,KoeDevice,gen_coin_lite_v2.py,2.0*%
%TF.SameCoordinates,Original*%
%FSLAX36Y36*%
%MOMM*%
%LPD*%
%ADD10R,0.4000X0.8000*%
%ADD11R,0.8000X0.4000*%
%ADD12C,5.1000*%
%ADD13R,0.3500X0.8000*%
%ADD14R,0.8000X0.3500*%
%ADD15C,2.5000*%
%ADD16R,0.3000X0.6000*%
%ADD17R,0.6000X0.3000*%
%ADD18C,0.9000*%
%ADD19R,0.7000X0.5000*%
%ADD20R,0.4000X0.9000*%
%ADD21R,1.1000X1.6000*%
%ADD22R,1.6000X1.1000*%
%ADD23R,0.9000X1.1000*%
%ADD24C,0.6000*%
%ADD25R,0.6000X1.0000*%
%ADD26R,0.5000X0.8000*%
%ADD27R,0.7000X0.9000*%
%ADD28R,0.6600X0.7200*%
%ADD29R,1.1000X0.9000*%
%ADD30R,0.7200X0.6600*%
%ADD31C,1.1000*%
D10*
X10500000Y9400000D03*
D10*
X10500000Y9800000D03*
D10*
X10500000Y10200000D03*
D10*
X10500000Y10600000D03*
D10*
X10500000Y11000000D03*
D10*
X10500000Y11400000D03*
D10*
X10500000Y11800000D03*
D10*
X10500000Y12200000D03*
D10*
X10500000Y12600000D03*
D10*
X10500000Y13000000D03*
D10*
X10500000Y13400000D03*
D10*
X10500000Y13800000D03*
D10*
X10500000Y14200000D03*
D10*
X10500000Y14600000D03*
D10*
X10500000Y15000000D03*
D10*
X10500000Y15400000D03*
D10*
X10500000Y15800000D03*
D10*
X10500000Y16200000D03*
D10*
X10500000Y16600000D03*
D10*
X10500000Y17000000D03*
D10*
X10500000Y17400000D03*
D10*
X10500000Y17800000D03*
D10*
X10500000Y18200000D03*
D10*
X10500000Y18600000D03*
D11*
X9600000Y17500000D03*
D11*
X10000000Y17500000D03*
D11*
X10400000Y17500000D03*
D11*
X10800000Y17500000D03*
D11*
X11200000Y17500000D03*
D11*
X11600000Y17500000D03*
D11*
X12000000Y17500000D03*
D11*
X12400000Y17500000D03*
D11*
X12800000Y17500000D03*
D11*
X13200000Y17500000D03*
D11*
X13600000Y17500000D03*
D11*
X14000000Y17500000D03*
D11*
X14400000Y17500000D03*
D11*
X14800000Y17500000D03*
D11*
X15200000Y17500000D03*
D11*
X15600000Y17500000D03*
D11*
X16000000Y17500000D03*
D11*
X16400000Y17500000D03*
D11*
X16800000Y17500000D03*
D11*
X17200000Y17500000D03*
D11*
X17600000Y17500000D03*
D11*
X18000000Y17500000D03*
D11*
X18400000Y17500000D03*
D10*
X17500000Y18600000D03*
D10*
X17500000Y18200000D03*
D10*
X17500000Y17800000D03*
D10*
X17500000Y17400000D03*
D10*
X17500000Y17000000D03*
D10*
X17500000Y16600000D03*
D10*
X17500000Y16200000D03*
D10*
X17500000Y15800000D03*
D10*
X17500000Y15400000D03*
D10*
X17500000Y15000000D03*
D10*
X17500000Y14600000D03*
D10*
X17500000Y14200000D03*
D10*
X17500000Y13800000D03*
D10*
X17500000Y13400000D03*
D10*
X17500000Y13000000D03*
D10*
X17500000Y12600000D03*
D10*
X17500000Y12200000D03*
D10*
X17500000Y11800000D03*
D10*
X17500000Y11400000D03*
D10*
X17500000Y11000000D03*
D10*
X17500000Y10600000D03*
D10*
X17500000Y10200000D03*
D10*
X17500000Y9800000D03*
D10*
X17500000Y9400000D03*
D11*
X18400000Y10500000D03*
D11*
X18000000Y10500000D03*
D11*
X17600000Y10500000D03*
D11*
X17200000Y10500000D03*
D11*
X16800000Y10500000D03*
D11*
X16400000Y10500000D03*
D11*
X16000000Y10500000D03*
D11*
X15600000Y10500000D03*
D11*
X15200000Y10500000D03*
D11*
X14800000Y10500000D03*
D11*
X14400000Y10500000D03*
D11*
X14000000Y10500000D03*
D11*
X13600000Y10500000D03*
D11*
X13200000Y10500000D03*
D11*
X12800000Y10500000D03*
D11*
X12400000Y10500000D03*
D11*
X12000000Y10500000D03*
D11*
X11600000Y10500000D03*
D11*
X11200000Y10500000D03*
D11*
X10800000Y10500000D03*
D11*
X10400000Y10500000D03*
D11*
X10000000Y10500000D03*
D11*
X9600000Y10500000D03*
D12*
X14000000Y14000000D03*
D13*
X17500000Y19250000D03*
D13*
X17500000Y19750000D03*
D13*
X17500000Y20250000D03*
D13*
X17500000Y20750000D03*
D14*
X18750000Y22000000D03*
D14*
X19250000Y22000000D03*
D14*
X19750000Y22000000D03*
D14*
X20250000Y22000000D03*
D13*
X21500000Y20750000D03*
D13*
X21500000Y20250000D03*
D13*
X21500000Y19750000D03*
D13*
X21500000Y19250000D03*
D14*
X20250000Y18000000D03*
D14*
X19750000Y18000000D03*
D14*
X19250000Y18000000D03*
D14*
X18750000Y18000000D03*
D15*
X19500000Y20000000D03*
D16*
X8200000Y7900000D03*
D16*
X8200000Y8300000D03*
D16*
X8200000Y8700000D03*
D16*
X8200000Y9100000D03*
D17*
X8400000Y9300000D03*
D17*
X8800000Y9300000D03*
D17*
X9200000Y9300000D03*
D17*
X9600000Y9300000D03*
D16*
X9800000Y9100000D03*
D16*
X9800000Y8700000D03*
D16*
X9800000Y8300000D03*
D16*
X9800000Y7900000D03*
D17*
X9600000Y7700000D03*
D17*
X9200000Y7700000D03*
D17*
X8800000Y7700000D03*
D17*
X8400000Y7700000D03*
D18*
X9000000Y8500000D03*
D19*
X9900000Y5450000D03*
D19*
X9900000Y4500000D03*
D19*
X9900000Y3550000D03*
D19*
X12100000Y3550000D03*
D19*
X12100000Y5450000D03*
D19*
X15900000Y5450000D03*
D19*
X15900000Y4500000D03*
D19*
X15900000Y3550000D03*
D19*
X18100000Y3550000D03*
D19*
X18100000Y5450000D03*
D20*
X11250000Y2500000D03*
D20*
X12250000Y2500000D03*
D20*
X13250000Y2500000D03*
D20*
X13750000Y2500000D03*
D20*
X14250000Y2500000D03*
D20*
X14750000Y2500000D03*
D20*
X15750000Y2500000D03*
D20*
X16750000Y2500000D03*
D20*
X11250000Y1500000D03*
D20*
X12250000Y1500000D03*
D20*
X13250000Y1500000D03*
D20*
X13750000Y1500000D03*
D20*
X14250000Y1500000D03*
D20*
X14750000Y1500000D03*
D20*
X15750000Y1500000D03*
D20*
X16750000Y1500000D03*
D21*
X19500000Y7500000D03*
D21*
X21500000Y7500000D03*
D22*
X5500000Y13000000D03*
D22*
X5500000Y15000000D03*
D23*
X24000000Y12000000D03*
D23*
X24000000Y16000000D03*
D24*
X13350000Y24450000D03*
D24*
X14650000Y24450000D03*
D24*
X14650000Y25550000D03*
D24*
X13350000Y25550000D03*
D25*
X8800000Y15000000D03*
D25*
X10200000Y15000000D03*
D26*
X8950000Y13500000D03*
D26*
X10050000Y13500000D03*
D27*
X18650000Y24500000D03*
D27*
X20350000Y24500000D03*
D28*
X17020000Y17000000D03*
D28*
X17980000Y17000000D03*
D28*
X10020000Y17000000D03*
D28*
X10980000Y17000000D03*
D28*
X17020000Y11000000D03*
D28*
X17980000Y11000000D03*
D28*
X10020000Y11000000D03*
D28*
X10980000Y11000000D03*
D29*
X19000000Y13250000D03*
D29*
X19000000Y14750000D03*
D30*
X9000000Y13520000D03*
D30*
X9000000Y14480000D03*
D28*
X17520000Y22000000D03*
D28*
X18480000Y22000000D03*
D28*
X21020000Y22000000D03*
D28*
X21980000Y22000000D03*
D29*
X21500000Y17750000D03*
D29*
X21500000Y19250000D03*
D28*
X9520000Y7000000D03*
D28*
X10480000Y7000000D03*
D23*
X8250000Y6000000D03*
D23*
X9750000Y6000000D03*
D23*
X12250000Y6000000D03*
D23*
X13750000Y6000000D03*
D28*
X18520000Y6000000D03*
D28*
X19480000Y6000000D03*
D30*
X8500000Y15520000D03*
D30*
X8500000Y16480000D03*
D30*
X8500000Y13520000D03*
D30*
X8500000Y14480000D03*
D28*
X20520000Y23000000D03*
D28*
X21480000Y23000000D03*
D28*
X15520000Y18000000D03*
D28*
X16480000Y18000000D03*
D28*
X11520000Y18000000D03*
D28*
X12480000Y18000000D03*
D28*
X11520000Y2500000D03*
D28*
X12480000Y2500000D03*
D28*
X15520000Y2500000D03*
D28*
X16480000Y2500000D03*
D30*
X12000000Y21520000D03*
D30*
X12000000Y22480000D03*
D28*
X17020000Y19500000D03*
D28*
X17980000Y19500000D03*
D30*
X22000000Y15520000D03*
D30*
X22000000Y16480000D03*
D30*
X19000000Y3520000D03*
D30*
X19000000Y4480000D03*
D28*
X20520000Y21500000D03*
D28*
X21480000Y21500000D03*
D31*
X5000000Y22000000D03*
D31*
X5000000Y20500000D03*
D31*
X5000000Y19000000D03*
D31*
X5000000Y17500000D03*
D24*
X12500000Y12500000D03*
D24*
X14000000Y12500000D03*
D24*
X15500000Y12500000D03*
D24*
X12500000Y14000000D03*
D24*
X14000000Y14000000D03*
D24*
X15500000Y14000000D03*
D24*
X12500000Y15500000D03*
D24*
X14000000Y15500000D03*
D24*
X15500000Y15500000D03*
D24*
X7000000Y14000000D03*
D24*
X21000000Y14000000D03*
D24*
X14000000Y21000000D03*
D24*
X14000000Y7000000D03*
D24*
X10000000Y18000000D03*
D24*
X18000000Y18000000D03*
D24*
X10000000Y10000000D03*
D24*
X18000000Y10000000D03*
D24*
X18000000Y20000000D03*
D24*
X21000000Y20000000D03*
D24*
X11000000Y4000000D03*
D24*
X17000000Y4000000D03*
D24*
X5000000Y19000000D03*
D24*
X23000000Y19000000D03*
D24*
X5000000Y9000000D03*
D24*
X23000000Y9000000D03*
D24*
X5000000Y19000000D03*
M02*
