%FSLAX46Y46*%
%MOMM*%
G04 Koe COIN F.Mask*
%LPD*%
%ADD10R,0.300X0.800*%
%ADD11R,0.800X0.300*%
%ADD12C,4.100*%
%ADD13R,0.600X0.860*%
%ADD14R,0.350X0.800*%
%ADD15R,0.800X0.350*%
%ADD16C,1.330*%
%ADD17R,0.400X0.600*%
%ADD18R,0.700X0.800*%
%ADD19C,0.600*%
%ADD20R,0.600X1.100*%
%ADD21R,0.400X1.100*%
%ADD22R,0.700X1.300*%
%ADD23R,0.700X0.600*%
%ADD24R,1.300X1.600*%
%ADD25R,1.100X1.600*%
%ADD26R,0.500X0.900*%
%ADD27R,0.660X0.720*%
%ADD28R,0.720X0.660*%
%ADD29R,1.100X0.900*%
%ADD30R,0.900X1.100*%
%ADD31C,0.550*%
D10*
X7000000Y12200000D03*
D10*
X7000000Y11800000D03*
D10*
X7000000Y11400000D03*
D10*
X7000000Y11000000D03*
D10*
X7000000Y10600000D03*
D10*
X7000000Y10200000D03*
D10*
X7000000Y9800000D03*
D10*
X7000000Y9400000D03*
D10*
X7000000Y9000000D03*
D10*
X7000000Y8600000D03*
D10*
X7000000Y8200000D03*
D10*
X7000000Y7800000D03*
D11*
X7800000Y13000000D03*
D11*
X8200000Y13000000D03*
D11*
X8600000Y13000000D03*
D11*
X9000000Y13000000D03*
D11*
X9400000Y13000000D03*
D11*
X9800000Y13000000D03*
D11*
X10200000Y13000000D03*
D11*
X10600000Y13000000D03*
D11*
X11000000Y13000000D03*
D11*
X11400000Y13000000D03*
D11*
X11800000Y13000000D03*
D11*
X12200000Y13000000D03*
D10*
X13000000Y7800000D03*
D10*
X13000000Y8200000D03*
D10*
X13000000Y8600000D03*
D10*
X13000000Y9000000D03*
D10*
X13000000Y9400000D03*
D10*
X13000000Y9800000D03*
D10*
X13000000Y10200000D03*
D10*
X13000000Y10600000D03*
D10*
X13000000Y11000000D03*
D10*
X13000000Y11400000D03*
D10*
X13000000Y11800000D03*
D10*
X13000000Y12200000D03*
D11*
X12200000Y7000000D03*
D11*
X11800000Y7000000D03*
D11*
X11400000Y7000000D03*
D11*
X11000000Y7000000D03*
D11*
X10600000Y7000000D03*
D11*
X10200000Y7000000D03*
D11*
X9800000Y7000000D03*
D11*
X9400000Y7000000D03*
D11*
X9000000Y7000000D03*
D11*
X8600000Y7000000D03*
D11*
X8200000Y7000000D03*
D11*
X7800000Y7000000D03*
D12*
X10000000Y10000000D03*
D13*
X8730000Y2300000D03*
D13*
X8730000Y3500000D03*
D13*
X8730000Y4700000D03*
D13*
X11270000Y4700000D03*
D13*
X11270000Y3500000D03*
D13*
X11270000Y2300000D03*
D14*
X14050000Y7250000D03*
D14*
X14050000Y6750000D03*
D14*
X14050000Y6250000D03*
D14*
X14050000Y5750000D03*
D15*
X14750000Y7950000D03*
D15*
X15250000Y7950000D03*
D15*
X15750000Y7950000D03*
D15*
X16250000Y7950000D03*
D14*
X16950000Y5750000D03*
D14*
X16950000Y6250000D03*
D14*
X16950000Y6750000D03*
D14*
X16950000Y7250000D03*
D15*
X16250000Y5050000D03*
D15*
X15750000Y5050000D03*
D15*
X15250000Y5050000D03*
D15*
X14750000Y5050000D03*
D16*
X15500000Y6500000D03*
D17*
X3375000Y14000000D03*
D17*
X3375000Y13500000D03*
D17*
X3375000Y13000000D03*
D17*
X4625000Y13000000D03*
D17*
X4625000Y13500000D03*
D17*
X4625000Y14000000D03*
D18*
X3400000Y9450000D03*
D18*
X3400000Y8500000D03*
D18*
X3400000Y7550000D03*
D18*
X5600000Y7550000D03*
D18*
X5600000Y9450000D03*
D19*
X9250000Y6000000D03*
D19*
X10750000Y6000000D03*
D19*
X10750000Y7000000D03*
D19*
X9250000Y7000000D03*
D20*
X7600000Y17800000D03*
D20*
X12400000Y17800000D03*
D21*
X9200000Y17800000D03*
D21*
X9600000Y17800000D03*
D21*
X8400000Y17800000D03*
D21*
X11600000Y17800000D03*
D20*
X6800000Y17800000D03*
D20*
X13200000Y17800000D03*
D22*
X6350000Y18800000D03*
D22*
X13650000Y18800000D03*
D23*
X2500000Y10000000D03*
D23*
X4500000Y10000000D03*
D24*
X15750000Y14500000D03*
D24*
X17250000Y14500000D03*
D25*
X5500000Y16500000D03*
D25*
X7500000Y16500000D03*
D26*
X14450000Y12500000D03*
D26*
X15550000Y12500000D03*
D27*
X7020000Y17000000D03*
D27*
X7980000Y17000000D03*
D27*
X12020000Y17000000D03*
D27*
X12980000Y17000000D03*
D28*
X5000000Y11520000D03*
D28*
X5000000Y12480000D03*
D27*
X7020000Y7500000D03*
D27*
X7980000Y7500000D03*
D27*
X12020000Y7500000D03*
D27*
X12980000Y7500000D03*
D27*
X7020000Y12500000D03*
D27*
X7980000Y12500000D03*
D27*
X12020000Y12500000D03*
D27*
X12980000Y12500000D03*
D27*
X13020000Y3500000D03*
D27*
X13980000Y3500000D03*
D28*
X17000000Y5020000D03*
D28*
X17000000Y5980000D03*
D29*
X6000000Y4750000D03*
D29*
X6000000Y6250000D03*
D30*
X3750000Y15500000D03*
D30*
X5250000Y15500000D03*
D28*
X14500000Y13520000D03*
D28*
X14500000Y14480000D03*
D27*
X14520000Y11000000D03*
D27*
X15480000Y11000000D03*
D27*
X14520000Y14000000D03*
D27*
X15480000Y14000000D03*
D27*
X7520000Y13500000D03*
D27*
X8480000Y13500000D03*
D31*
X5000000Y5000000D03*
D31*
X10000000Y10000000D03*
D31*
X15000000Y5000000D03*
D31*
X5000000Y15000000D03*
D31*
X15000000Y15000000D03*
D31*
X10000000Y8000000D03*
D31*
X10000000Y14000000D03*
D31*
X3500000Y10000000D03*
D31*
X16500000Y10000000D03*
M02*
