%FSLAX46Y46*%
%MOMM*%
G04 Koe COIN Edge.Cuts*
%LPD*%
%ADD10C,0.050*%
D10*
X20000000Y10000000D02*
X19961947Y10871557D01*
X19848078Y11736482D01*
X19659258Y12588190D01*
X19396926Y13420201D01*
X19063078Y14226183D01*
X18660254Y15000000D01*
X18191520Y15735764D01*
X17660444Y16427876D01*
X17071068Y17071068D01*
X16427876Y17660444D01*
X15735764Y18191520D01*
X15000000Y18660254D01*
X14226183Y19063078D01*
X13420201Y19396926D01*
X12588190Y19659258D01*
X11736482Y19848078D01*
X10871557Y19961947D01*
X10000000Y20000000D01*
X9128443Y19961947D01*
X8263518Y19848078D01*
X7411810Y19659258D01*
X6579799Y19396926D01*
X5773817Y19063078D01*
X5000000Y18660254D01*
X4264236Y18191520D01*
X3572124Y17660444D01*
X2928932Y17071068D01*
X2339556Y16427876D01*
X1808480Y15735764D01*
X1339746Y15000000D01*
X936922Y14226183D01*
X603074Y13420201D01*
X340742Y12588190D01*
X151922Y11736482D01*
X38053Y10871557D01*
X0Y10000000D01*
X38053Y9128443D01*
X151922Y8263518D01*
X340742Y7411810D01*
X603074Y6579799D01*
X936922Y5773817D01*
X1339746Y5000000D01*
X1808480Y4264236D01*
X2339556Y3572124D01*
X2928932Y2928932D01*
X3572124Y2339556D01*
X4264236Y1808480D01*
X5000000Y1339746D01*
X5773817Y936922D01*
X6579799Y603074D01*
X7411810Y340742D01*
X8263518Y151922D01*
X9128443Y38053D01*
X10000000Y0D01*
X10871557Y38053D01*
X11736482Y151922D01*
X12588190Y340742D01*
X13420201Y603074D01*
X14226183Y936922D01*
X15000000Y1339746D01*
X15735764Y1808480D01*
X16427876Y2339556D01*
X17071068Y2928932D01*
X17660444Y3572124D01*
X18191520Y4264236D01*
X18660254Y5000000D01*
X19063078Y5773817D01*
X19396926Y6579799D01*
X19659258Y7411810D01*
X19848078Y8263518D01*
X19961947Y9128443D01*
X20000000Y10000000D01*
M02*
