<?xml version="1.0" encoding="UTF-8"?>
<svg xmlns="http://www.w3.org/2000/svg" width="510" height="670">
<defs>
  <radialGradient id="pcb" cx="45%" cy="42%" r="55%">
    <stop offset="0%" stop-color="#0d5c0d"/><stop offset="100%" stop-color="#063806"/>
  </radialGradient>
  <filter id="sh"><feDropShadow dx="1" dy="2" stdDeviation="3" flood-opacity="0.5"/></filter>
</defs>
<rect width="510" height="670" fill="#0d0d14"/>

<!-- Title -->
<text x="255" y="20" text-anchor="middle" fill="#e0e0e0" font-family="Helvetica,sans-serif" font-size="16" font-weight="600">Koe COIN v7 — nRF54L15 BLE 5.4 + Channel Sounding</text>
<text x="255" y="38" text-anchor="middle" fill="#888" font-family="sans-serif" font-size="10">20mm round | 4-layer | ~5mA BLE | 150mAh LiPo | ~30h runtime | BQ25100 Iq=75nA</text>

<!-- Board -->
<circle cx="255.0" cy="270.0" r="202.0" fill="#000" opacity="0.3"/>
<circle cx="255.0" cy="270.0" r="200.0" fill="url(#pcb)" stroke="#c8a83e" stroke-width="1.5"/>
<line x1="145.0" y1="240.0" x2="205.0" y2="240.0" stroke="#66bb6a" stroke-width="3.5999999999999996" opacity="0.35" stroke-linecap="round"/>
<line x1="205.0" y1="240.0" x2="205.0" y2="270.0" stroke="#66bb6a" stroke-width="3.5999999999999996" opacity="0.35" stroke-linecap="round"/>
<line x1="205.0" y1="240.0" x2="205.0" y2="170.0" stroke="#66bb6a" stroke-width="1.7999999999999998" opacity="0.35" stroke-linecap="round"/>
<line x1="205.0" y1="170.0" x2="280.4" y2="140.0" stroke="#66bb6a" stroke-width="1.7999999999999998" opacity="0.35" stroke-linecap="round"/>
<line x1="205.0" y1="210.0" x2="240.0" y2="210.0" stroke="#66bb6a" stroke-width="1.7999999999999998" opacity="0.35" stroke-linecap="round"/>
<line x1="205.0" y1="240.0" x2="336.0" y2="200.0" stroke="#66bb6a" stroke-width="1.7999999999999998" opacity="0.35" stroke-linecap="round"/>
<line x1="255.0" y1="446.0" x2="255.0" y2="410.0" stroke="#ef5350" stroke-width="3.5999999999999996" opacity="0.35" stroke-linecap="round"/>
<line x1="255.0" y1="410.0" x2="185.0" y2="410.0" stroke="#ef5350" stroke-width="3.5999999999999996" opacity="0.35" stroke-linecap="round"/>
<line x1="185.0" y1="410.0" x2="135.0" y2="360.0" stroke="#ef5350" stroke-width="3.5999999999999996" opacity="0.35" stroke-linecap="round"/>
<line x1="185.0" y1="400.0" x2="147.5" y2="340.0" stroke="#ef5350" stroke-width="3.5999999999999996" opacity="0.35" stroke-linecap="round"/>
<line x1="147.5" y1="340.0" x2="145.0" y2="290.0" stroke="#ef5350" stroke-width="3.5999999999999996" opacity="0.35" stroke-linecap="round"/>
<line x1="145.0" y1="290.0" x2="145.0" y2="240.0" stroke="#ef5350" stroke-width="3.5999999999999996" opacity="0.35" stroke-linecap="round"/>
<line x1="223.0" y1="210.0" x2="229.60000000000002" y2="116.0" stroke="#42a5f5" stroke-width="1.7999999999999998" opacity="0.35" stroke-linecap="round"/>
<line x1="231.0" y1="210.0" x2="229.60000000000002" y2="140.0" stroke="#42a5f5" stroke-width="1.7999999999999998" opacity="0.35" stroke-linecap="round"/>
<line x1="287.0" y1="210.0" x2="280.4" y2="116.0" stroke="#42a5f5" stroke-width="1.7999999999999998" opacity="0.35" stroke-linecap="round"/>
<line x1="315.0" y1="250.0" x2="336.0" y2="192.0" stroke="#42a5f5" stroke-width="1.7999999999999998" opacity="0.35" stroke-linecap="round"/>
<line x1="315.0" y1="258.0" x2="365.0" y2="229.0" stroke="#42a5f5" stroke-width="1.7999999999999998" opacity="0.35" stroke-linecap="round"/>
<line x1="315.0" y1="274.0" x2="394.0" y2="200.0" stroke="#42a5f5" stroke-width="1.7999999999999998" opacity="0.35" stroke-linecap="round"/>
<line x1="394.0" y1="205.0" x2="370.0" y2="360.0" stroke="#ff7043" stroke-width="1.7999999999999998" opacity="0.35" stroke-linecap="round"/>
<line x1="394.0" y1="215.0" x2="400.0" y2="360.0" stroke="#ff7043" stroke-width="1.7999999999999998" opacity="0.35" stroke-linecap="round"/>
<line x1="315.0" y1="290.0" x2="355.0" y2="230.0" stroke="#f9a825" stroke-width="1.7999999999999998" opacity="0.35" stroke-linecap="round"/>
<line x1="355.0" y1="230.0" x2="270.0" y2="210.0" stroke="#f9a825" stroke-width="1.7999999999999998" opacity="0.35" stroke-linecap="round"/>
<line x1="195.0" y1="270.0" x2="145.0" y2="270.0" stroke="#78909c" stroke-width="1.7999999999999998" opacity="0.35" stroke-linecap="round"/>
<line x1="247.0" y1="330.0" x2="247.0" y2="426.0" stroke="#ffca28" stroke-width="1.7999999999999998" opacity="0.35" stroke-linecap="round"/>
<line x1="239.0" y1="330.0" x2="239.0" y2="426.0" stroke="#ffca28" stroke-width="1.7999999999999998" opacity="0.35" stroke-linecap="round"/>
<line x1="205.0" y1="410.0" x2="223.0" y2="426.0" stroke="#78909c" stroke-width="1.7999999999999998" opacity="0.35" stroke-linecap="round"/>
<line x1="305.0" y1="410.0" x2="287.0" y2="426.0" stroke="#78909c" stroke-width="1.7999999999999998" opacity="0.35" stroke-linecap="round"/>
<line x1="147.5" y1="330.0" x2="155.0" y2="310.0" stroke="#78909c" stroke-width="1.7999999999999998" opacity="0.35" stroke-linecap="round"/>
<line x1="315.0" y1="310.0" x2="344.0" y2="320.0" stroke="#ce93d8" stroke-width="1.7999999999999998" opacity="0.35" stroke-linecap="round"/>
<line x1="315.0" y1="318.0" x2="366.0" y2="320.0" stroke="#ce93d8" stroke-width="1.7999999999999998" opacity="0.35" stroke-linecap="round"/>
<circle cx="155" cy="170" r="5.5" fill="#1a1a1a" stroke="#666" stroke-width="0.5"/>
<circle cx="255.0" cy="270.0" r="5.5" fill="#1a1a1a" stroke="#666" stroke-width="0.5"/>
<circle cx="355" cy="170" r="5.5" fill="#1a1a1a" stroke="#666" stroke-width="0.5"/>
<circle cx="155" cy="370" r="5.5" fill="#1a1a1a" stroke="#666" stroke-width="0.5"/>
<circle cx="355" cy="370" r="5.5" fill="#1a1a1a" stroke="#666" stroke-width="0.5"/>
<circle cx="255.0" cy="230" r="5.5" fill="#1a1a1a" stroke="#666" stroke-width="0.5"/>
<circle cx="255.0" cy="350" r="5.5" fill="#1a1a1a" stroke="#666" stroke-width="0.5"/>
<circle cx="125.0" cy="270.0" r="5.5" fill="#1a1a1a" stroke="#666" stroke-width="0.5"/>
<circle cx="385.0" cy="270.0" r="5.5" fill="#1a1a1a" stroke="#666" stroke-width="0.5"/>
<g transform="translate(255.0,270.0) rotate(0)" filter="url(#sh)">
<rect x="-62.0" y="37.0" width="4.0" height="14.0" fill="#c8a83e" rx="0.5" opacity="0.5"/>
<rect x="-62.0" y="29.000000000000007" width="4.0" height="14.0" fill="#c8a83e" rx="0.5" opacity="0.5"/>
<rect x="-62.0" y="21.000000000000004" width="4.0" height="14.0" fill="#c8a83e" rx="0.5" opacity="0.5"/>
<rect x="-62.0" y="13.0" width="4.0" height="14.0" fill="#c8a83e" rx="0.5" opacity="0.5"/>
<rect x="-62.0" y="5.000000000000002" width="4.0" height="14.0" fill="#c8a83e" rx="0.5" opacity="0.5"/>
<rect x="-62.0" y="-2.9999999999999964" width="4.0" height="14.0" fill="#c8a83e" rx="0.5" opacity="0.5"/>
<rect x="-62.0" y="-11.000000000000004" width="4.0" height="14.0" fill="#c8a83e" rx="0.5" opacity="0.5"/>
<rect x="-62.0" y="-19.0" width="4.0" height="14.0" fill="#c8a83e" rx="0.5" opacity="0.5"/>
<rect x="-62.0" y="-27.0" width="4.0" height="14.0" fill="#c8a83e" rx="0.5" opacity="0.5"/>
<rect x="-62.0" y="-35.0" width="4.0" height="14.0" fill="#c8a83e" rx="0.5" opacity="0.5"/>
<rect x="-62.0" y="-43.0" width="4.0" height="14.0" fill="#c8a83e" rx="0.5" opacity="0.5"/>
<rect x="-62.0" y="-51.0" width="4.0" height="14.0" fill="#c8a83e" rx="0.5" opacity="0.5"/>
<rect x="-51.0" y="58.0" width="14.0" height="4.0" fill="#c8a83e" rx="0.5" opacity="0.5"/>
<rect x="-43.00000000000001" y="58.0" width="14.0" height="4.0" fill="#c8a83e" rx="0.5" opacity="0.5"/>
<rect x="-35.0" y="58.0" width="14.0" height="4.0" fill="#c8a83e" rx="0.5" opacity="0.5"/>
<rect x="-27.0" y="58.0" width="14.0" height="4.0" fill="#c8a83e" rx="0.5" opacity="0.5"/>
<rect x="-19.0" y="58.0" width="14.0" height="4.0" fill="#c8a83e" rx="0.5" opacity="0.5"/>
<rect x="-11.000000000000004" y="58.0" width="14.0" height="4.0" fill="#c8a83e" rx="0.5" opacity="0.5"/>
<rect x="-2.9999999999999964" y="58.0" width="14.0" height="4.0" fill="#c8a83e" rx="0.5" opacity="0.5"/>
<rect x="5.000000000000002" y="58.0" width="14.0" height="4.0" fill="#c8a83e" rx="0.5" opacity="0.5"/>
<rect x="13.0" y="58.0" width="14.0" height="4.0" fill="#c8a83e" rx="0.5" opacity="0.5"/>
<rect x="21.0" y="58.0" width="14.0" height="4.0" fill="#c8a83e" rx="0.5" opacity="0.5"/>
<rect x="29.0" y="58.0" width="14.0" height="4.0" fill="#c8a83e" rx="0.5" opacity="0.5"/>
<rect x="37.0" y="58.0" width="14.0" height="4.0" fill="#c8a83e" rx="0.5" opacity="0.5"/>
<rect x="58.0" y="-51.0" width="4.0" height="14.0" fill="#c8a83e" rx="0.5" opacity="0.5"/>
<rect x="58.0" y="-43.00000000000001" width="4.0" height="14.0" fill="#c8a83e" rx="0.5" opacity="0.5"/>
<rect x="58.0" y="-35.0" width="4.0" height="14.0" fill="#c8a83e" rx="0.5" opacity="0.5"/>
<rect x="58.0" y="-27.0" width="4.0" height="14.0" fill="#c8a83e" rx="0.5" opacity="0.5"/>
<rect x="58.0" y="-19.0" width="4.0" height="14.0" fill="#c8a83e" rx="0.5" opacity="0.5"/>
<rect x="58.0" y="-11.000000000000004" width="4.0" height="14.0" fill="#c8a83e" rx="0.5" opacity="0.5"/>
<rect x="58.0" y="-2.9999999999999964" width="4.0" height="14.0" fill="#c8a83e" rx="0.5" opacity="0.5"/>
<rect x="58.0" y="5.000000000000002" width="4.0" height="14.0" fill="#c8a83e" rx="0.5" opacity="0.5"/>
<rect x="58.0" y="13.0" width="4.0" height="14.0" fill="#c8a83e" rx="0.5" opacity="0.5"/>
<rect x="58.0" y="21.0" width="4.0" height="14.0" fill="#c8a83e" rx="0.5" opacity="0.5"/>
<rect x="58.0" y="29.0" width="4.0" height="14.0" fill="#c8a83e" rx="0.5" opacity="0.5"/>
<rect x="58.0" y="37.0" width="4.0" height="14.0" fill="#c8a83e" rx="0.5" opacity="0.5"/>
<rect x="37.0" y="-62.0" width="14.0" height="4.0" fill="#c8a83e" rx="0.5" opacity="0.5"/>
<rect x="29.000000000000007" y="-62.0" width="14.0" height="4.0" fill="#c8a83e" rx="0.5" opacity="0.5"/>
<rect x="21.000000000000004" y="-62.0" width="14.0" height="4.0" fill="#c8a83e" rx="0.5" opacity="0.5"/>
<rect x="13.0" y="-62.0" width="14.0" height="4.0" fill="#c8a83e" rx="0.5" opacity="0.5"/>
<rect x="5.000000000000002" y="-62.0" width="14.0" height="4.0" fill="#c8a83e" rx="0.5" opacity="0.5"/>
<rect x="-2.9999999999999964" y="-62.0" width="14.0" height="4.0" fill="#c8a83e" rx="0.5" opacity="0.5"/>
<rect x="-11.000000000000004" y="-62.0" width="14.0" height="4.0" fill="#c8a83e" rx="0.5" opacity="0.5"/>
<rect x="-19.0" y="-62.0" width="14.0" height="4.0" fill="#c8a83e" rx="0.5" opacity="0.5"/>
<rect x="-27.0" y="-62.0" width="14.0" height="4.0" fill="#c8a83e" rx="0.5" opacity="0.5"/>
<rect x="-35.0" y="-62.0" width="14.0" height="4.0" fill="#c8a83e" rx="0.5" opacity="0.5"/>
<rect x="-43.0" y="-62.0" width="14.0" height="4.0" fill="#c8a83e" rx="0.5" opacity="0.5"/>
<rect x="-51.0" y="-62.0" width="14.0" height="4.0" fill="#c8a83e" rx="0.5" opacity="0.5"/>
<rect x="-40.0" y="-40.0" width="80.0" height="80.0" fill="#c8a83e" rx="0.5" opacity="0.5"/>
<rect x="-60.0" y="-60.0" width="120.0" height="120.0" fill="#0d47a1" stroke="#777" stroke-width="0.5" rx="3"/>
<circle cx="-57.0" cy="-57.0" r="1.2" fill="#aaa" opacity="0.4"/>
<text x="0" y="-1.0" text-anchor="middle" fill="#eee" font-family="monospace" font-size="7">nRF54L15</text>
</g>
<g transform="translate(255.0,140.0) rotate(0)" filter="url(#sh)">
<rect x="-30.4" y="-31.6" width="10.0" height="15.2" fill="#c8a83e" rx="0.5" opacity="0.5"/>
<rect x="-30.4" y="-7.6" width="10.0" height="15.2" fill="#c8a83e" rx="0.5" opacity="0.5"/>
<rect x="-30.4" y="16.4" width="10.0" height="15.2" fill="#c8a83e" rx="0.5" opacity="0.5"/>
<rect x="20.4" y="16.4" width="10.0" height="15.2" fill="#c8a83e" rx="0.5" opacity="0.5"/>
<rect x="20.4" y="-7.6" width="10.0" height="15.2" fill="#c8a83e" rx="0.5" opacity="0.5"/>
<rect x="20.4" y="-31.6" width="10.0" height="15.2" fill="#c8a83e" rx="0.5" opacity="0.5"/>
<rect x="-47.199999999999996" y="-37.599999999999994" width="94.39999999999999" height="75.19999999999999" fill="#37474f" stroke="#777" stroke-width="0.5" rx="3"/>
<circle cx="-44.199999999999996" cy="-34.599999999999994" r="1.2" fill="#aaa" opacity="0.4"/>
<text x="0" y="-1.0" text-anchor="middle" fill="#eee" font-family="monospace" font-size="7">MIC</text>
</g>
<g transform="translate(365.0,200.0) rotate(0)" filter="url(#sh)">
<rect x="-31.5" y="8.0" width="5.0" height="14.0" fill="#c8a83e" rx="0.5" opacity="0.5"/>
<rect x="-31.5" y="-2.0" width="5.0" height="14.0" fill="#c8a83e" rx="0.5" opacity="0.5"/>
<rect x="-31.5" y="-12.0" width="5.0" height="14.0" fill="#c8a83e" rx="0.5" opacity="0.5"/>
<rect x="-31.5" y="-22.0" width="5.0" height="14.0" fill="#c8a83e" rx="0.5" opacity="0.5"/>
<rect x="-22.0" y="26.5" width="14.0" height="5.0" fill="#c8a83e" rx="0.5" opacity="0.5"/>
<rect x="-12.0" y="26.5" width="14.0" height="5.0" fill="#c8a83e" rx="0.5" opacity="0.5"/>
<rect x="-2.0" y="26.5" width="14.0" height="5.0" fill="#c8a83e" rx="0.5" opacity="0.5"/>
<rect x="8.0" y="26.5" width="14.0" height="5.0" fill="#c8a83e" rx="0.5" opacity="0.5"/>
<rect x="26.5" y="-22.0" width="5.0" height="14.0" fill="#c8a83e" rx="0.5" opacity="0.5"/>
<rect x="26.5" y="-12.0" width="5.0" height="14.0" fill="#c8a83e" rx="0.5" opacity="0.5"/>
<rect x="26.5" y="-2.0" width="5.0" height="14.0" fill="#c8a83e" rx="0.5" opacity="0.5"/>
<rect x="26.5" y="8.0" width="5.0" height="14.0" fill="#c8a83e" rx="0.5" opacity="0.5"/>
<rect x="8.0" y="-31.5" width="14.0" height="5.0" fill="#c8a83e" rx="0.5" opacity="0.5"/>
<rect x="-2.0" y="-31.5" width="14.0" height="5.0" fill="#c8a83e" rx="0.5" opacity="0.5"/>
<rect x="-12.0" y="-31.5" width="14.0" height="5.0" fill="#c8a83e" rx="0.5" opacity="0.5"/>
<rect x="-22.0" y="-31.5" width="14.0" height="5.0" fill="#c8a83e" rx="0.5" opacity="0.5"/>
<rect x="-12.3" y="-12.3" width="24.6" height="24.6" fill="#c8a83e" rx="0.5" opacity="0.5"/>
<rect x="-30.0" y="-30.0" width="60.0" height="60.0" fill="#b71c1c" stroke="#777" stroke-width="0.5" rx="3"/>
<circle cx="-27.0" cy="-27.0" r="1.2" fill="#aaa" opacity="0.4"/>
<text x="0" y="-1.0" text-anchor="middle" fill="#eee" font-family="monospace" font-size="7">AMP</text>
</g>
<g transform="translate(135.0,340.0) rotate(0)" filter="url(#sh)">
<rect x="-15.5" y="5.0" width="6.0" height="10.0" fill="#c8a83e" rx="0.5" opacity="0.5"/>
<rect x="-15.5" y="-5.0" width="6.0" height="10.0" fill="#c8a83e" rx="0.5" opacity="0.5"/>
<rect x="-15.5" y="-15.0" width="6.0" height="10.0" fill="#c8a83e" rx="0.5" opacity="0.5"/>
<rect x="9.5" y="-15.0" width="6.0" height="10.0" fill="#c8a83e" rx="0.5" opacity="0.5"/>
<rect x="9.5" y="-5.0" width="6.0" height="10.0" fill="#c8a83e" rx="0.5" opacity="0.5"/>
<rect x="9.5" y="5.0" width="6.0" height="10.0" fill="#c8a83e" rx="0.5" opacity="0.5"/>
<rect x="-15.0" y="-15.0" width="30.0" height="30.0" fill="#4e342e" stroke="#777" stroke-width="0.5" rx="3"/>
<circle cx="-12.0" cy="-12.0" r="1.2" fill="#aaa" opacity="0.4"/>
<text x="0" y="-1.0" text-anchor="middle" fill="#eee" font-family="monospace" font-size="7">CHRG</text>
</g>
<g transform="translate(145.0,240.0) rotate(0)" filter="url(#sh)">
<rect x="-28.0" y="12.0" width="12.0" height="14.0" fill="#c8a83e" rx="0.5" opacity="0.5"/>
<rect x="-28.0" y="-7.0" width="12.0" height="14.0" fill="#c8a83e" rx="0.5" opacity="0.5"/>
<rect x="-28.0" y="-26.0" width="12.0" height="14.0" fill="#c8a83e" rx="0.5" opacity="0.5"/>
<rect x="16.0" y="-26.0" width="12.0" height="14.0" fill="#c8a83e" rx="0.5" opacity="0.5"/>
<rect x="16.0" y="12.0" width="12.0" height="14.0" fill="#c8a83e" rx="0.5" opacity="0.5"/>
<rect x="-30.0" y="-30.0" width="60.0" height="60.0" fill="#4e342e" stroke="#777" stroke-width="0.5" rx="3"/>
<circle cx="-27.0" cy="-27.0" r="1.2" fill="#aaa" opacity="0.4"/>
<text x="0" y="-1.0" text-anchor="middle" fill="#eee" font-family="monospace" font-size="7">LDO</text>
</g>
<g transform="translate(255.0,200.0) rotate(0)" filter="url(#sh)">
<rect x="-20.0" y="-15.0" width="10.0" height="10.0" fill="#c8a83e" rx="0.5" opacity="0.5"/>
<rect x="10.0" y="-15.0" width="10.0" height="10.0" fill="#c8a83e" rx="0.5" opacity="0.5"/>
<rect x="10.0" y="5.0" width="10.0" height="10.0" fill="#c8a83e" rx="0.5" opacity="0.5"/>
<rect x="-20.0" y="5.0" width="10.0" height="10.0" fill="#c8a83e" rx="0.5" opacity="0.5"/>
<rect x="-20.0" y="-20.0" width="40.0" height="40.0" fill="#f9a825" stroke="#777" stroke-width="0.5" rx="1"/>
<text x="0" y="-1.0" text-anchor="middle" fill="#eee" font-family="monospace" font-size="6">LED</text>
</g>
<g transform="translate(255.0,446.0) rotate(0)" filter="url(#sh)">
<rect x="-53.0" y="-30.0" width="10.0" height="20.0" fill="#c8a83e" rx="0.5" opacity="0.5"/>
<rect x="43.0" y="-30.0" width="10.0" height="20.0" fill="#c8a83e" rx="0.5" opacity="0.5"/>
<rect x="-19.0" y="-30.0" width="6.0" height="20.0" fill="#c8a83e" rx="0.5" opacity="0.5"/>
<rect x="-11.0" y="-30.0" width="6.0" height="20.0" fill="#c8a83e" rx="0.5" opacity="0.5"/>
<rect x="-35.0" y="-30.0" width="6.0" height="20.0" fill="#c8a83e" rx="0.5" opacity="0.5"/>
<rect x="29.0" y="-30.0" width="6.0" height="20.0" fill="#c8a83e" rx="0.5" opacity="0.5"/>
<rect x="-69.0" y="-30.0" width="10.0" height="20.0" fill="#c8a83e" rx="0.5" opacity="0.5"/>
<rect x="59.0" y="-30.0" width="10.0" height="20.0" fill="#c8a83e" rx="0.5" opacity="0.5"/>
<rect x="-79.0" y="-12.0" width="12.0" height="24.0" fill="#c8a83e" rx="0.5" opacity="0.5"/>
<rect x="67.0" y="-12.0" width="12.0" height="24.0" fill="#c8a83e" rx="0.5" opacity="0.5"/>
<rect x="-73.5" y="-32.0" width="147.0" height="64.0" fill="#78909c" stroke="#777" stroke-width="0.5" rx="3"/>
<text x="0" y="-1.0" text-anchor="middle" fill="#eee" font-family="monospace" font-size="7">USB-C</text>
</g>
<g transform="translate(125.0,270.0) rotate(0)" filter="url(#sh)">
<rect x="-26.0" y="-5.0" width="12.0" height="10.0" fill="#c8a83e" rx="0.5" opacity="0.5"/>
<rect x="14.0" y="-5.0" width="12.0" height="10.0" fill="#c8a83e" rx="0.5" opacity="0.5"/>
<rect x="-26.0" y="-16.0" width="52.0" height="32.0" fill="#455a64" stroke="#777" stroke-width="0.5" rx="1"/>
<text x="0" y="-1.0" text-anchor="middle" fill="#eee" font-family="monospace" font-size="7">BTN</text>
</g>
<g transform="translate(385.0,360.0) rotate(0)" filter="url(#sh)">
<rect x="-27.0" y="-15.0" width="24.0" height="30.0" fill="#c8a83e" rx="0.5" opacity="0.5"/>
<rect x="3.0" y="-15.0" width="24.0" height="30.0" fill="#c8a83e" rx="0.5" opacity="0.5"/>
<rect x="-30.0" y="-20.0" width="60.0" height="40.0" fill="#880e4f" stroke="#777" stroke-width="0.5" rx="1"/>
<text x="0" y="-1.0" text-anchor="middle" fill="#eee" font-family="monospace" font-size="7">SPK</text>
</g>
<g transform="translate(185.0,400.0) rotate(0)" filter="url(#sh)">
<rect x="-30.0" y="-15.0" width="20.0" height="30.0" fill="#c8a83e" rx="0.5" opacity="0.5"/>
<rect x="10.0" y="-15.0" width="20.0" height="30.0" fill="#c8a83e" rx="0.5" opacity="0.5"/>
<rect x="-35.0" y="-20.0" width="70.0" height="40.0" fill="#e65100" stroke="#777" stroke-width="0.5" rx="1"/>
<text x="0" y="-1.0" text-anchor="middle" fill="#eee" font-family="monospace" font-size="7">BAT</text>
</g>
<g transform="translate(355.0,320.0) rotate(0)" filter="url(#sh)">
<rect x="-15.0" y="-8.0" width="8.0" height="16.0" fill="#c8a83e" rx="0.5" opacity="0.5"/>
<rect x="7.0" y="-8.0" width="8.0" height="16.0" fill="#c8a83e" rx="0.5" opacity="0.5"/>
<rect x="-16.0" y="-10.0" width="32.0" height="20.0" fill="#4a148c" stroke="#777" stroke-width="0.5" rx="1"/>
<text x="0" y="-1.0" text-anchor="middle" fill="#eee" font-family="monospace" font-size="6">32K</text>
</g>
<g transform="translate(205.0,410.0) rotate(0)" filter="url(#sh)">
<rect x="-15.2" y="-6.2" width="11.200000000000001" height="12.4" fill="#c8a83e" rx="0.5" opacity="0.5"/>
<rect x="3.999999999999999" y="-6.2" width="11.200000000000001" height="12.4" fill="#c8a83e" rx="0.5" opacity="0.5"/>
<rect x="-16.0" y="-8.0" width="32.0" height="16.0" fill="#5d4037" stroke="#777" stroke-width="0.5" rx="1"/>
<text x="0" y="-1.0" text-anchor="middle" fill="#eee" font-family="monospace" font-size="6">R1</text>
</g>
<g transform="translate(305.0,410.0) rotate(0)" filter="url(#sh)">
<rect x="-15.2" y="-6.2" width="11.200000000000001" height="12.4" fill="#c8a83e" rx="0.5" opacity="0.5"/>
<rect x="3.999999999999999" y="-6.2" width="11.200000000000001" height="12.4" fill="#c8a83e" rx="0.5" opacity="0.5"/>
<rect x="-16.0" y="-8.0" width="32.0" height="16.0" fill="#5d4037" stroke="#777" stroke-width="0.5" rx="1"/>
<text x="0" y="-1.0" text-anchor="middle" fill="#eee" font-family="monospace" font-size="6">R2</text>
</g>
<g transform="translate(155.0,310.0) rotate(90)" filter="url(#sh)">
<rect x="-15.2" y="-6.2" width="11.200000000000001" height="12.4" fill="#c8a83e" rx="0.5" opacity="0.5"/>
<rect x="3.999999999999999" y="-6.2" width="11.200000000000001" height="12.4" fill="#c8a83e" rx="0.5" opacity="0.5"/>
<rect x="-16.0" y="-8.0" width="32.0" height="16.0" fill="#5d4037" stroke="#777" stroke-width="0.5" rx="1"/>
<text x="0" y="-1.0" text-anchor="middle" fill="#eee" font-family="monospace" font-size="6">R3</text>
</g>
<g transform="translate(205.0,220.0) rotate(0)" filter="url(#sh)">
<rect x="-15.2" y="-6.2" width="11.200000000000001" height="12.4" fill="#c8a83e" rx="0.5" opacity="0.5"/>
<rect x="3.999999999999999" y="-6.2" width="11.200000000000001" height="12.4" fill="#c8a83e" rx="0.5" opacity="0.5"/>
<rect x="-16.0" y="-8.0" width="32.0" height="16.0" fill="#1a237e" stroke="#777" stroke-width="0.5" rx="1"/>
<text x="0" y="-1.0" text-anchor="middle" fill="#eee" font-family="monospace" font-size="6">C1</text>
</g>
<g transform="translate(305.0,220.0) rotate(0)" filter="url(#sh)">
<rect x="-15.2" y="-6.2" width="11.200000000000001" height="12.4" fill="#c8a83e" rx="0.5" opacity="0.5"/>
<rect x="3.999999999999999" y="-6.2" width="11.200000000000001" height="12.4" fill="#c8a83e" rx="0.5" opacity="0.5"/>
<rect x="-16.0" y="-8.0" width="32.0" height="16.0" fill="#1a237e" stroke="#777" stroke-width="0.5" rx="1"/>
<text x="0" y="-1.0" text-anchor="middle" fill="#eee" font-family="monospace" font-size="6">C2</text>
</g>
<g transform="translate(205.0,320.0) rotate(0)" filter="url(#sh)">
<rect x="-15.2" y="-6.2" width="11.200000000000001" height="12.4" fill="#c8a83e" rx="0.5" opacity="0.5"/>
<rect x="3.999999999999999" y="-6.2" width="11.200000000000001" height="12.4" fill="#c8a83e" rx="0.5" opacity="0.5"/>
<rect x="-16.0" y="-8.0" width="32.0" height="16.0" fill="#1a237e" stroke="#777" stroke-width="0.5" rx="1"/>
<text x="0" y="-1.0" text-anchor="middle" fill="#eee" font-family="monospace" font-size="6">C3</text>
</g>
<g transform="translate(305.0,320.0) rotate(0)" filter="url(#sh)">
<rect x="-15.2" y="-6.2" width="11.200000000000001" height="12.4" fill="#c8a83e" rx="0.5" opacity="0.5"/>
<rect x="3.999999999999999" y="-6.2" width="11.200000000000001" height="12.4" fill="#c8a83e" rx="0.5" opacity="0.5"/>
<rect x="-16.0" y="-8.0" width="32.0" height="16.0" fill="#1a237e" stroke="#777" stroke-width="0.5" rx="1"/>
<text x="0" y="-1.0" text-anchor="middle" fill="#eee" font-family="monospace" font-size="6">C4</text>
</g>
<g transform="translate(325.0,140.0) rotate(0)" filter="url(#sh)">
<rect x="-15.2" y="-6.2" width="11.200000000000001" height="12.4" fill="#c8a83e" rx="0.5" opacity="0.5"/>
<rect x="3.999999999999999" y="-6.2" width="11.200000000000001" height="12.4" fill="#c8a83e" rx="0.5" opacity="0.5"/>
<rect x="-16.0" y="-8.0" width="32.0" height="16.0" fill="#1a237e" stroke="#777" stroke-width="0.5" rx="1"/>
<text x="0" y="-1.0" text-anchor="middle" fill="#eee" font-family="monospace" font-size="6">C5</text>
</g>
<g transform="translate(395.0,180.0) rotate(90)" filter="url(#sh)">
<rect x="-15.2" y="-6.2" width="11.200000000000001" height="12.4" fill="#c8a83e" rx="0.5" opacity="0.5"/>
<rect x="3.999999999999999" y="-6.2" width="11.200000000000001" height="12.4" fill="#c8a83e" rx="0.5" opacity="0.5"/>
<rect x="-16.0" y="-8.0" width="32.0" height="16.0" fill="#1a237e" stroke="#777" stroke-width="0.5" rx="1"/>
<text x="0" y="-1.0" text-anchor="middle" fill="#eee" font-family="monospace" font-size="6">C6</text>
</g>
<g transform="translate(175.0,180.0) rotate(90)" filter="url(#sh)">
<rect x="-23.0" y="-10.0" width="16.0" height="20.0" fill="#c8a83e" rx="0.5" opacity="0.5"/>
<rect x="7.0" y="-10.0" width="16.0" height="20.0" fill="#c8a83e" rx="0.5" opacity="0.5"/>
<rect x="-22.0" y="-12.0" width="44.0" height="24.0" fill="#1a237e" stroke="#777" stroke-width="0.5" rx="1"/>
<text x="0" y="-1.0" text-anchor="middle" fill="#eee" font-family="monospace" font-size="6">C7</text>
</g>
<g transform="translate(145.0,380.0) rotate(0)" filter="url(#sh)">
<rect x="-23.0" y="-10.0" width="16.0" height="20.0" fill="#c8a83e" rx="0.5" opacity="0.5"/>
<rect x="7.0" y="-10.0" width="16.0" height="20.0" fill="#c8a83e" rx="0.5" opacity="0.5"/>
<rect x="-22.0" y="-12.0" width="44.0" height="24.0" fill="#1a237e" stroke="#777" stroke-width="0.5" rx="1"/>
<text x="0" y="-1.0" text-anchor="middle" fill="#eee" font-family="monospace" font-size="6">C8</text>
</g>
<g transform="translate(345.0,350.0) rotate(90)" filter="url(#sh)">
<rect x="-15.2" y="-6.2" width="11.200000000000001" height="12.4" fill="#c8a83e" rx="0.5" opacity="0.5"/>
<rect x="3.999999999999999" y="-6.2" width="11.200000000000001" height="12.4" fill="#c8a83e" rx="0.5" opacity="0.5"/>
<rect x="-16.0" y="-8.0" width="32.0" height="16.0" fill="#1a237e" stroke="#777" stroke-width="0.5" rx="1"/>
<text x="0" y="-1.0" text-anchor="middle" fill="#eee" font-family="monospace" font-size="6">C9</text>
</g>
<g transform="translate(355.0,290.0) rotate(0)" filter="url(#sh)">
<rect x="-15.2" y="-6.2" width="11.200000000000001" height="12.4" fill="#c8a83e" rx="0.5" opacity="0.5"/>
<rect x="3.999999999999999" y="-6.2" width="11.200000000000001" height="12.4" fill="#c8a83e" rx="0.5" opacity="0.5"/>
<rect x="-16.0" y="-8.0" width="32.0" height="16.0" fill="#1a237e" stroke="#777" stroke-width="0.5" rx="1"/>
<text x="0" y="-1.0" text-anchor="middle" fill="#eee" font-family="monospace" font-size="6">C10</text>
</g>
<g transform="translate(355.0,350.0) rotate(0)" filter="url(#sh)">
<rect x="-15.2" y="-6.2" width="11.200000000000001" height="12.4" fill="#c8a83e" rx="0.5" opacity="0.5"/>
<rect x="3.999999999999999" y="-6.2" width="11.200000000000001" height="12.4" fill="#c8a83e" rx="0.5" opacity="0.5"/>
<rect x="-16.0" y="-8.0" width="32.0" height="16.0" fill="#1a237e" stroke="#777" stroke-width="0.5" rx="1"/>
<text x="0" y="-1.0" text-anchor="middle" fill="#eee" font-family="monospace" font-size="6">C11</text>
</g>
<g transform="translate(215.0,340.0) rotate(0)" filter="url(#sh)">
<rect x="-15.2" y="-6.2" width="11.200000000000001" height="12.4" fill="#c8a83e" rx="0.5" opacity="0.5"/>
<rect x="3.999999999999999" y="-6.2" width="11.200000000000001" height="12.4" fill="#c8a83e" rx="0.5" opacity="0.5"/>
<rect x="-16.0" y="-8.0" width="32.0" height="16.0" fill="#006064" stroke="#777" stroke-width="0.5" rx="1"/>
<text x="0" y="-1.0" text-anchor="middle" fill="#eee" font-family="monospace" font-size="6">L1</text>
</g>
<circle cx="255.0" cy="270.0" r="265.0" fill="none" stroke="#c8a83e" stroke-width="0.8" stroke-dasharray="6,4" opacity="0.2"/>
<text x="525.0" y="274.0" fill="#c8a83e" font-family="monospace" font-size="8" opacity="0.5">500yen</text>
<text x="255" y="520" text-anchor="middle" fill="#888" font-family="monospace" font-size="9">20mm | 4-layer | 26 parts | nRF54L15 BLE 5.4 + Channel Sounding + USB + I2S + PDM</text>
<rect x="60" y="532" width="312.0" height="14" fill="#ef5350" rx="2" opacity="0.7"/>
<text x="55" y="543" text-anchor="end" fill="#aaa" font-family="monospace" font-size="9">nRF52840 (v6)</text>
<text x="377.0" y="543" fill="#eee" font-family="monospace" font-size="9" font-weight="bold">8.0mA</text>
<rect x="60" y="554" width="195.0" height="14" fill="#66bb6a" rx="2" opacity="0.7"/>
<text x="55" y="565" text-anchor="end" fill="#aaa" font-family="monospace" font-size="9">nRF54L15 (v7)</text>
<text x="260.0" y="565" fill="#eee" font-family="monospace" font-size="9" font-weight="bold">5.0mA</text>
<text x="255" y="595" text-anchor="middle" fill="#66bb6a" font-family="monospace" font-size="10" font-weight="bold">150mAh / 5mA = 30 hours runtime (vs 18.8h nRF52840)</text>
<text x="255" y="613" text-anchor="middle" fill="#c8a83e" font-family="monospace" font-size="9">MIC -> I2S -> nRF54L15 -> USB Audio / BLE 5.4 Audio (LC3)</text>
<text x="255" y="629" text-anchor="middle" fill="#888" font-family="monospace" font-size="8">BQ25100 charger (Iq=75nA) + XC6220 LDO (Iq=8uA) + Channel Sounding</text>
</svg>
