M48
; Koe PRO v2 45x30mm nRF5340 + DW3000 UWB
FMAT,2
METRIC,TZ
T1C0.250
T2C2.200
T3C1.000
%
T1
X5.000Y5.000
X22.500Y5.000
X40.000Y5.000
X5.000Y15.000
X22.500Y15.000
X40.000Y15.000
X5.000Y25.000
X22.500Y25.000
X40.000Y25.000
X14.000Y10.000
X33.000Y10.000
X14.000Y20.000
X33.000Y20.000
X31.000Y8.000
X33.000Y6.000
X35.000Y8.000
X33.000Y10.000
X12.000Y14.000
X14.000Y12.000
X16.000Y14.000
X14.000Y16.000
T2
X2.500Y2.500
X42.500Y2.500
X2.500Y27.500
X42.500Y27.500
T3
X4.000Y12.000
X4.000Y18.000
X-1.500Y15.000
X1.500Y10.000
X1.500Y20.000
M30
