%FSLAX46Y46*%
%MOMM*%
G04 Koe PRO v2 F.SilkS*
%LPD*%
%ADD10C,0.120*%
D10*
X10500000Y10500000D02*
X17500000Y10500000D01*
D10*
X17500000Y10500000D02*
X17500000Y17500000D01*
D10*
X17500000Y17500000D02*
X10500000Y17500000D01*
D10*
X10500000Y17500000D02*
X10500000Y10500000D01*
D10*
X30000000Y5000000D02*
X36000000Y5000000D01*
D10*
X36000000Y5000000D02*
X36000000Y11000000D01*
D10*
X36000000Y11000000D02*
X30000000Y11000000D01*
D10*
X30000000Y11000000D02*
X30000000Y5000000D01*
D10*
X7350000Y21900000D02*
X12650000Y21900000D01*
D10*
X12650000Y21900000D02*
X12650000Y28100000D01*
D10*
X12650000Y28100000D02*
X7350000Y28100000D01*
D10*
X7350000Y28100000D02*
X7350000Y21900000D01*
D10*
X20300000Y21750000D02*
X24700000Y21750000D01*
D10*
X24700000Y21750000D02*
X24700000Y28250000D01*
D10*
X24700000Y28250000D02*
X20300000Y28250000D01*
D10*
X20300000Y28250000D02*
X20300000Y21750000D01*
D10*
X32500000Y23500000D02*
X35500000Y23500000D01*
D10*
X35500000Y23500000D02*
X35500000Y26500000D01*
D10*
X35500000Y26500000D02*
X32500000Y26500000D01*
D10*
X32500000Y26500000D02*
X32500000Y23500000D01*
D10*
X20000000Y2500000D02*
X25000000Y2500000D01*
D10*
X25000000Y2500000D02*
X25000000Y7500000D01*
D10*
X25000000Y7500000D02*
X20000000Y7500000D01*
D10*
X20000000Y7500000D02*
X20000000Y2500000D01*
D10*
X9000000Y9400000D02*
X11000000Y9400000D01*
D10*
X11000000Y9400000D02*
X11000000Y10600000D01*
D10*
X11000000Y10600000D02*
X9000000Y10600000D01*
D10*
X9000000Y10600000D02*
X9000000Y9400000D01*
D10*
X9200000Y11500000D02*
X10800000Y11500000D01*
D10*
X10800000Y11500000D02*
X10800000Y12500000D01*
D10*
X10800000Y12500000D02*
X9200000Y12500000D01*
D10*
X9200000Y12500000D02*
X9200000Y11500000D01*
D10*
X18000000Y-250000D02*
X27000000Y-250000D01*
D10*
X27000000Y-250000D02*
X27000000Y3250000D01*
D10*
X27000000Y3250000D02*
X18000000Y3250000D01*
D10*
X18000000Y3250000D02*
X18000000Y-250000D01*
D10*
X5000000Y9500000D02*
X5000000Y20500000D01*
D10*
X5000000Y20500000D02*
X-2000000Y20500000D01*
D10*
X-2000000Y20500000D02*
X-2000000Y9500000D01*
D10*
X-2000000Y9500000D02*
X5000000Y9500000D01*
D10*
X38825000Y1500000D02*
X45175000Y1500000D01*
D10*
X45175000Y1500000D02*
X45175000Y6500000D01*
D10*
X45175000Y6500000D02*
X38825000Y6500000D01*
D10*
X38825000Y6500000D02*
X38825000Y1500000D01*
D10*
X36000000Y25500000D02*
X44000000Y25500000D01*
D10*
X44000000Y25500000D02*
X44000000Y28500000D01*
D10*
X44000000Y28500000D02*
X36000000Y28500000D01*
D10*
X36000000Y28500000D02*
X36000000Y25500000D01*
D10*
X6000000Y6000000D02*
X8000000Y6000000D01*
D10*
X8000000Y6000000D02*
X8000000Y8000000D01*
D10*
X8000000Y8000000D02*
X6000000Y8000000D01*
D10*
X6000000Y8000000D02*
X6000000Y6000000D01*
D10*
X6000000Y3000000D02*
X8000000Y3000000D01*
D10*
X8000000Y3000000D02*
X8000000Y5000000D01*
D10*
X8000000Y5000000D02*
X6000000Y5000000D01*
D10*
X6000000Y5000000D02*
X6000000Y3000000D01*
D10*
X2000000Y23500000D02*
X5000000Y23500000D01*
D10*
X5000000Y23500000D02*
X5000000Y26500000D01*
D10*
X5000000Y26500000D02*
X2000000Y26500000D01*
D10*
X2000000Y26500000D02*
X2000000Y23500000D01*
D10*
X39000000Y12750000D02*
X45000000Y12750000D01*
D10*
X45000000Y12750000D02*
X45000000Y17250000D01*
D10*
X45000000Y17250000D02*
X39000000Y17250000D01*
D10*
X39000000Y17250000D02*
X39000000Y12750000D01*
D10*
X40000000Y19500000D02*
X44000000Y19500000D01*
D10*
X44000000Y19500000D02*
X44000000Y22500000D01*
D10*
X44000000Y22500000D02*
X40000000Y22500000D01*
D10*
X40000000Y22500000D02*
X40000000Y19500000D01*
D10*
X750000Y750000D02*
X4250000Y750000D01*
D10*
X4250000Y750000D02*
X4250000Y4250000D01*
D10*
X4250000Y4250000D02*
X750000Y4250000D01*
D10*
X750000Y4250000D02*
X750000Y750000D01*
D10*
X40750000Y750000D02*
X44250000Y750000D01*
D10*
X44250000Y750000D02*
X44250000Y4250000D01*
D10*
X44250000Y4250000D02*
X40750000Y4250000D01*
D10*
X40750000Y4250000D02*
X40750000Y750000D01*
D10*
X750000Y25750000D02*
X4250000Y25750000D01*
D10*
X4250000Y25750000D02*
X4250000Y29250000D01*
D10*
X4250000Y29250000D02*
X750000Y29250000D01*
D10*
X750000Y29250000D02*
X750000Y25750000D01*
D10*
X40750000Y25750000D02*
X44250000Y25750000D01*
D10*
X44250000Y25750000D02*
X44250000Y29250000D01*
D10*
X44250000Y29250000D02*
X40750000Y29250000D01*
D10*
X40750000Y29250000D02*
X40750000Y25750000D01*
D10*
X10200000Y16100000D02*
X11800000Y16100000D01*
D10*
X11800000Y16100000D02*
X11800000Y16900000D01*
D10*
X11800000Y16900000D02*
X10200000Y16900000D01*
D10*
X10200000Y16900000D02*
X10200000Y16100000D01*
D10*
X16200000Y16100000D02*
X17800000Y16100000D01*
D10*
X17800000Y16100000D02*
X17800000Y16900000D01*
D10*
X17800000Y16900000D02*
X16200000Y16900000D01*
D10*
X16200000Y16900000D02*
X16200000Y16100000D01*
D10*
X9900000Y17400000D02*
X12100000Y17400000D01*
D10*
X12100000Y17400000D02*
X12100000Y18600000D01*
D10*
X12100000Y18600000D02*
X9900000Y18600000D01*
D10*
X9900000Y18600000D02*
X9900000Y17400000D01*
D10*
X16200000Y17600000D02*
X17800000Y17600000D01*
D10*
X17800000Y17600000D02*
X17800000Y18400000D01*
D10*
X17800000Y18400000D02*
X16200000Y18400000D01*
D10*
X16200000Y18400000D02*
X16200000Y17600000D01*
D10*
X29200000Y3600000D02*
X30800000Y3600000D01*
D10*
X30800000Y3600000D02*
X30800000Y4400000D01*
D10*
X30800000Y4400000D02*
X29200000Y4400000D01*
D10*
X29200000Y4400000D02*
X29200000Y3600000D01*
D10*
X35200000Y3600000D02*
X36800000Y3600000D01*
D10*
X36800000Y3600000D02*
X36800000Y4400000D01*
D10*
X36800000Y4400000D02*
X35200000Y4400000D01*
D10*
X35200000Y4400000D02*
X35200000Y3600000D01*
D10*
X6700000Y22600000D02*
X8300000Y22600000D01*
D10*
X8300000Y22600000D02*
X8300000Y23400000D01*
D10*
X8300000Y23400000D02*
X6700000Y23400000D01*
D10*
X6700000Y23400000D02*
X6700000Y22600000D01*
D10*
X11700000Y22600000D02*
X13300000Y22600000D01*
D10*
X13300000Y22600000D02*
X13300000Y23400000D01*
D10*
X13300000Y23400000D02*
X11700000Y23400000D01*
D10*
X11700000Y23400000D02*
X11700000Y22600000D01*
D10*
X19200000Y21600000D02*
X20800000Y21600000D01*
D10*
X20800000Y21600000D02*
X20800000Y22400000D01*
D10*
X20800000Y22400000D02*
X19200000Y22400000D01*
D10*
X19200000Y22400000D02*
X19200000Y21600000D01*
D10*
X24200000Y21600000D02*
X25800000Y21600000D01*
D10*
X25800000Y21600000D02*
X25800000Y22400000D01*
D10*
X25800000Y22400000D02*
X24200000Y22400000D01*
D10*
X24200000Y22400000D02*
X24200000Y21600000D01*
D10*
X30700000Y22600000D02*
X32300000Y22600000D01*
D10*
X32300000Y22600000D02*
X32300000Y23400000D01*
D10*
X32300000Y23400000D02*
X30700000Y23400000D01*
D10*
X30700000Y23400000D02*
X30700000Y22600000D01*
D10*
X17900000Y2400000D02*
X20100000Y2400000D01*
D10*
X20100000Y2400000D02*
X20100000Y3600000D01*
D10*
X20100000Y3600000D02*
X17900000Y3600000D01*
D10*
X17900000Y3600000D02*
X17900000Y2400000D01*
D10*
X24900000Y2400000D02*
X27100000Y2400000D01*
D10*
X27100000Y2400000D02*
X27100000Y3600000D01*
D10*
X27100000Y3600000D02*
X24900000Y3600000D01*
D10*
X24900000Y3600000D02*
X24900000Y2400000D01*
D10*
X8200000Y8600000D02*
X9800000Y8600000D01*
D10*
X9800000Y8600000D02*
X9800000Y9400000D01*
D10*
X9800000Y9400000D02*
X8200000Y9400000D01*
D10*
X8200000Y9400000D02*
X8200000Y8600000D01*
D10*
X10200000Y8600000D02*
X11800000Y8600000D01*
D10*
X11800000Y8600000D02*
X11800000Y9400000D01*
D10*
X11800000Y9400000D02*
X10200000Y9400000D01*
D10*
X10200000Y9400000D02*
X10200000Y8600000D01*
D10*
X19900000Y4200000D02*
X19900000Y5800000D01*
D10*
X19900000Y5800000D02*
X19100000Y5800000D01*
D10*
X19100000Y5800000D02*
X19100000Y4200000D01*
D10*
X19100000Y4200000D02*
X19900000Y4200000D01*
D10*
X25900000Y4200000D02*
X25900000Y5800000D01*
D10*
X25900000Y5800000D02*
X25100000Y5800000D01*
D10*
X25100000Y5800000D02*
X25100000Y4200000D01*
D10*
X25100000Y4200000D02*
X25900000Y4200000D01*
D10*
X7400000Y8700000D02*
X7400000Y10300000D01*
D10*
X7400000Y10300000D02*
X6600000Y10300000D01*
D10*
X6600000Y10300000D02*
X6600000Y8700000D01*
D10*
X6600000Y8700000D02*
X7400000Y8700000D01*
D10*
X13200000Y7600000D02*
X14800000Y7600000D01*
D10*
X14800000Y7600000D02*
X14800000Y8400000D01*
D10*
X14800000Y8400000D02*
X13200000Y8400000D01*
D10*
X13200000Y8400000D02*
X13200000Y7600000D01*
D10*
X13200000Y9100000D02*
X14800000Y9100000D01*
D10*
X14800000Y9100000D02*
X14800000Y9900000D01*
D10*
X14800000Y9900000D02*
X13200000Y9900000D01*
D10*
X13200000Y9900000D02*
X13200000Y9100000D01*
D10*
X6700000Y26600000D02*
X8300000Y26600000D01*
D10*
X8300000Y26600000D02*
X8300000Y27400000D01*
D10*
X8300000Y27400000D02*
X6700000Y27400000D01*
D10*
X6700000Y27400000D02*
X6700000Y26600000D01*
D10*
X19200000Y27600000D02*
X20800000Y27600000D01*
D10*
X20800000Y27600000D02*
X20800000Y28400000D01*
D10*
X20800000Y28400000D02*
X19200000Y28400000D01*
D10*
X19200000Y28400000D02*
X19200000Y27600000D01*
D10*
X24200000Y27600000D02*
X25800000Y27600000D01*
D10*
X25800000Y27600000D02*
X25800000Y28400000D01*
D10*
X25800000Y28400000D02*
X24200000Y28400000D01*
D10*
X24200000Y28400000D02*
X24200000Y27600000D01*
D10*
X2700000Y22100000D02*
X4300000Y22100000D01*
D10*
X4300000Y22100000D02*
X4300000Y22900000D01*
D10*
X4300000Y22900000D02*
X2700000Y22900000D01*
D10*
X2700000Y22900000D02*
X2700000Y22100000D01*
D10*
X21100000Y7750000D02*
X23900000Y7750000D01*
D10*
X23900000Y7750000D02*
X23900000Y9250000D01*
D10*
X23900000Y9250000D02*
X21100000Y9250000D01*
D10*
X21100000Y9250000D02*
X21100000Y7750000D01*
D10*
X26100000Y7750000D02*
X28900000Y7750000D01*
D10*
X28900000Y7750000D02*
X28900000Y9250000D01*
D10*
X28900000Y9250000D02*
X26100000Y9250000D01*
D10*
X26100000Y9250000D02*
X26100000Y7750000D01*
D10*
X35200000Y9500000D02*
X36800000Y9500000D01*
D10*
X36800000Y9500000D02*
X36800000Y10500000D01*
D10*
X36800000Y10500000D02*
X35200000Y10500000D01*
D10*
X35200000Y10500000D02*
X35200000Y9500000D01*
D10*
X29200000Y5600000D02*
X30800000Y5600000D01*
D10*
X30800000Y5600000D02*
X30800000Y6400000D01*
D10*
X30800000Y6400000D02*
X29200000Y6400000D01*
D10*
X29200000Y6400000D02*
X29200000Y5600000D01*
D10*
X35200000Y5600000D02*
X36800000Y5600000D01*
D10*
X36800000Y5600000D02*
X36800000Y6400000D01*
D10*
X36800000Y6400000D02*
X35200000Y6400000D01*
D10*
X35200000Y6400000D02*
X35200000Y5600000D01*
D10*
X29200000Y9600000D02*
X30800000Y9600000D01*
D10*
X30800000Y9600000D02*
X30800000Y10400000D01*
D10*
X30800000Y10400000D02*
X29200000Y10400000D01*
D10*
X29200000Y10400000D02*
X29200000Y9600000D01*
D10*
X35200000Y11600000D02*
X36800000Y11600000D01*
D10*
X36800000Y11600000D02*
X36800000Y12400000D01*
D10*
X36800000Y12400000D02*
X35200000Y12400000D01*
D10*
X35200000Y12400000D02*
X35200000Y11600000D01*
D10*
X37200000Y5600000D02*
X38800000Y5600000D01*
D10*
X38800000Y5600000D02*
X38800000Y6400000D01*
D10*
X38800000Y6400000D02*
X37200000Y6400000D01*
D10*
X37200000Y6400000D02*
X37200000Y5600000D01*
D10*
X37200000Y7600000D02*
X38800000Y7600000D01*
D10*
X38800000Y7600000D02*
X38800000Y8400000D01*
D10*
X38800000Y8400000D02*
X37200000Y8400000D01*
D10*
X37200000Y8400000D02*
X37200000Y7600000D01*
D10*
X29200000Y11600000D02*
X30800000Y11600000D01*
D10*
X30800000Y11600000D02*
X30800000Y12400000D01*
D10*
X30800000Y12400000D02*
X29200000Y12400000D01*
D10*
X29200000Y12400000D02*
X29200000Y11600000D01*
D10*
X19200000Y26600000D02*
X20800000Y26600000D01*
D10*
X20800000Y26600000D02*
X20800000Y27400000D01*
D10*
X20800000Y27400000D02*
X19200000Y27400000D01*
D10*
X19200000Y27400000D02*
X19200000Y26600000D01*
D10*
X24200000Y26600000D02*
X25800000Y26600000D01*
D10*
X25800000Y26600000D02*
X25800000Y27400000D01*
D10*
X25800000Y27400000D02*
X24200000Y27400000D01*
D10*
X24200000Y27400000D02*
X24200000Y26600000D01*
D10*
X18900000Y19400000D02*
X21100000Y19400000D01*
D10*
X21100000Y19400000D02*
X21100000Y20600000D01*
D10*
X21100000Y20600000D02*
X18900000Y20600000D01*
D10*
X18900000Y20600000D02*
X18900000Y19400000D01*
D10*
X23900000Y19400000D02*
X26100000Y19400000D01*
D10*
X26100000Y19400000D02*
X26100000Y20600000D01*
D10*
X26100000Y20600000D02*
X23900000Y20600000D01*
D10*
X23900000Y20600000D02*
X23900000Y19400000D01*
D10*
X21400000Y19400000D02*
X23600000Y19400000D01*
D10*
X23600000Y19400000D02*
X23600000Y20600000D01*
D10*
X23600000Y20600000D02*
X21400000Y20600000D01*
D10*
X21400000Y20600000D02*
X21400000Y19400000D01*
D10*
X21700000Y26600000D02*
X23300000Y26600000D01*
D10*
X23300000Y26600000D02*
X23300000Y27400000D01*
D10*
X23300000Y27400000D02*
X21700000Y27400000D01*
D10*
X21700000Y27400000D02*
X21700000Y26600000D01*
M02*
