%FSLAX46Y46*%
%MOMM*%
G04 Koe PRO v2 F.Cu*
%LPD*%
%ADD10R,0.200X0.700*%
%ADD11R,0.700X0.200*%
%ADD12C,5.000*%
%ADD13R,0.250X0.800*%
%ADD14R,0.800X0.250*%
%ADD15C,4.000*%
%ADD16R,0.300X1.200*%
%ADD17R,0.250X0.700*%
%ADD18R,0.700X0.250*%
%ADD19C,1.700*%
%ADD20C,3.200*%
%ADD21R,0.500X0.900*%
%ADD22R,0.400X0.700*%
%ADD23R,0.600X1.200*%
%ADD24R,0.300X1.000*%
%ADD25R,0.500X1.000*%
%ADD26R,0.600X1.600*%
%ADD27C,1.500*%
%ADD28C,2.000*%
%ADD29C,0.800*%
%ADD30C,0.500*%
%ADD31R,1.000X0.800*%
%ADD32R,1.000X1.500*%
%ADD33R,1.000X1.200*%
%ADD34C,3.500*%
%ADD35R,0.560X0.620*%
%ADD36R,0.800X1.000*%
%ADD37R,0.620X0.560*%
%ADD38C,0.400*%
%ADD39C,0.150*%
D10*
X10500000Y9400000D03*
D10*
X10500000Y9800000D03*
D10*
X10500000Y10200000D03*
D10*
X10500000Y10600000D03*
D10*
X10500000Y11000000D03*
D10*
X10500000Y11400000D03*
D10*
X10500000Y11800000D03*
D10*
X10500000Y12200000D03*
D10*
X10500000Y12600000D03*
D10*
X10500000Y13000000D03*
D10*
X10500000Y13400000D03*
D10*
X10500000Y13800000D03*
D10*
X10500000Y14200000D03*
D10*
X10500000Y14600000D03*
D10*
X10500000Y15000000D03*
D10*
X10500000Y15400000D03*
D10*
X10500000Y15800000D03*
D10*
X10500000Y16200000D03*
D10*
X10500000Y16600000D03*
D10*
X10500000Y17000000D03*
D10*
X10500000Y17400000D03*
D10*
X10500000Y17800000D03*
D10*
X10500000Y18200000D03*
D10*
X10500000Y18600000D03*
D11*
X9600000Y17500000D03*
D11*
X10000000Y17500000D03*
D11*
X10400000Y17500000D03*
D11*
X10800000Y17500000D03*
D11*
X11200000Y17500000D03*
D11*
X11600000Y17500000D03*
D11*
X12000000Y17500000D03*
D11*
X12400000Y17500000D03*
D11*
X12800000Y17500000D03*
D11*
X13200000Y17500000D03*
D11*
X13600000Y17500000D03*
D11*
X14000000Y17500000D03*
D11*
X14400000Y17500000D03*
D11*
X14800000Y17500000D03*
D11*
X15200000Y17500000D03*
D11*
X15600000Y17500000D03*
D11*
X16000000Y17500000D03*
D11*
X16400000Y17500000D03*
D11*
X16800000Y17500000D03*
D11*
X17200000Y17500000D03*
D11*
X17600000Y17500000D03*
D11*
X18000000Y17500000D03*
D11*
X18400000Y17500000D03*
D10*
X17500000Y18600000D03*
D10*
X17500000Y18200000D03*
D10*
X17500000Y17800000D03*
D10*
X17500000Y17400000D03*
D10*
X17500000Y17000000D03*
D10*
X17500000Y16600000D03*
D10*
X17500000Y16200000D03*
D10*
X17500000Y15800000D03*
D10*
X17500000Y15400000D03*
D10*
X17500000Y15000000D03*
D10*
X17500000Y14600000D03*
D10*
X17500000Y14200000D03*
D10*
X17500000Y13800000D03*
D10*
X17500000Y13400000D03*
D10*
X17500000Y13000000D03*
D10*
X17500000Y12600000D03*
D10*
X17500000Y12200000D03*
D10*
X17500000Y11800000D03*
D10*
X17500000Y11400000D03*
D10*
X17500000Y11000000D03*
D10*
X17500000Y10600000D03*
D10*
X17500000Y10200000D03*
D10*
X17500000Y9800000D03*
D10*
X17500000Y9400000D03*
D11*
X18400000Y10500000D03*
D11*
X18000000Y10500000D03*
D11*
X17600000Y10500000D03*
D11*
X17200000Y10500000D03*
D11*
X16800000Y10500000D03*
D11*
X16400000Y10500000D03*
D11*
X16000000Y10500000D03*
D11*
X15600000Y10500000D03*
D11*
X15200000Y10500000D03*
D11*
X14800000Y10500000D03*
D11*
X14400000Y10500000D03*
D11*
X14000000Y10500000D03*
D11*
X13600000Y10500000D03*
D11*
X13200000Y10500000D03*
D11*
X12800000Y10500000D03*
D11*
X12400000Y10500000D03*
D11*
X12000000Y10500000D03*
D11*
X11600000Y10500000D03*
D11*
X11200000Y10500000D03*
D11*
X10800000Y10500000D03*
D11*
X10400000Y10500000D03*
D11*
X10000000Y10500000D03*
D11*
X9600000Y10500000D03*
D12*
X14000000Y14000000D03*
D13*
X30000000Y5250000D03*
D13*
X30000000Y5750000D03*
D13*
X30000000Y6250000D03*
D13*
X30000000Y6750000D03*
D13*
X30000000Y7250000D03*
D13*
X30000000Y7750000D03*
D13*
X30000000Y8250000D03*
D13*
X30000000Y8750000D03*
D13*
X30000000Y9250000D03*
D13*
X30000000Y9750000D03*
D13*
X30000000Y10250000D03*
D13*
X30000000Y10750000D03*
D14*
X30250000Y11000000D03*
D14*
X30750000Y11000000D03*
D14*
X31250000Y11000000D03*
D14*
X31750000Y11000000D03*
D14*
X32250000Y11000000D03*
D14*
X32750000Y11000000D03*
D14*
X33250000Y11000000D03*
D14*
X33750000Y11000000D03*
D14*
X34250000Y11000000D03*
D14*
X34750000Y11000000D03*
D14*
X35250000Y11000000D03*
D14*
X35750000Y11000000D03*
D13*
X36000000Y10750000D03*
D13*
X36000000Y10250000D03*
D13*
X36000000Y9750000D03*
D13*
X36000000Y9250000D03*
D13*
X36000000Y8750000D03*
D13*
X36000000Y8250000D03*
D13*
X36000000Y7750000D03*
D13*
X36000000Y7250000D03*
D13*
X36000000Y6750000D03*
D13*
X36000000Y6250000D03*
D13*
X36000000Y5750000D03*
D13*
X36000000Y5250000D03*
D14*
X35750000Y5000000D03*
D14*
X35250000Y5000000D03*
D14*
X34750000Y5000000D03*
D14*
X34250000Y5000000D03*
D14*
X33750000Y5000000D03*
D14*
X33250000Y5000000D03*
D14*
X32750000Y5000000D03*
D14*
X32250000Y5000000D03*
D14*
X31750000Y5000000D03*
D14*
X31250000Y5000000D03*
D14*
X30750000Y5000000D03*
D14*
X30250000Y5000000D03*
D15*
X33000000Y8000000D03*
D16*
X7350000Y22725000D03*
D16*
X7350000Y23375000D03*
D16*
X7350000Y24025000D03*
D16*
X7350000Y24675000D03*
D16*
X7350000Y25325000D03*
D16*
X7350000Y25975000D03*
D16*
X7350000Y26625000D03*
D16*
X7350000Y27275000D03*
D16*
X12650000Y22725000D03*
D16*
X12650000Y23375000D03*
D16*
X12650000Y24025000D03*
D16*
X12650000Y24675000D03*
D16*
X12650000Y25325000D03*
D16*
X12650000Y25975000D03*
D16*
X12650000Y26625000D03*
D16*
X12650000Y27275000D03*
D16*
X20300000Y22075000D03*
D16*
X20300000Y22725000D03*
D16*
X20300000Y23375000D03*
D16*
X20300000Y24025000D03*
D16*
X20300000Y24675000D03*
D16*
X20300000Y25325000D03*
D16*
X20300000Y25975000D03*
D16*
X20300000Y26625000D03*
D16*
X20300000Y27275000D03*
D16*
X20300000Y27925000D03*
D16*
X24700000Y22075000D03*
D16*
X24700000Y22725000D03*
D16*
X24700000Y23375000D03*
D16*
X24700000Y24025000D03*
D16*
X24700000Y24675000D03*
D16*
X24700000Y25325000D03*
D16*
X24700000Y25975000D03*
D16*
X24700000Y26625000D03*
D16*
X24700000Y27275000D03*
D16*
X24700000Y27925000D03*
D17*
X32500000Y24250000D03*
D17*
X32500000Y24750000D03*
D17*
X32500000Y25250000D03*
D17*
X32500000Y25750000D03*
D18*
X33250000Y26500000D03*
D18*
X33750000Y26500000D03*
D18*
X34250000Y26500000D03*
D18*
X34750000Y26500000D03*
D17*
X35500000Y25750000D03*
D17*
X35500000Y25250000D03*
D17*
X35500000Y24750000D03*
D17*
X35500000Y24250000D03*
D18*
X34750000Y23500000D03*
D18*
X34250000Y23500000D03*
D18*
X33750000Y23500000D03*
D18*
X33250000Y23500000D03*
D19*
X34000000Y25000000D03*
D17*
X20000000Y3250000D03*
D17*
X20000000Y3750000D03*
D17*
X20000000Y4250000D03*
D17*
X20000000Y4750000D03*
D17*
X20000000Y5250000D03*
D17*
X20000000Y5750000D03*
D17*
X20000000Y6250000D03*
D17*
X20000000Y6750000D03*
D18*
X20750000Y7500000D03*
D18*
X21250000Y7500000D03*
D18*
X21750000Y7500000D03*
D18*
X22250000Y7500000D03*
D18*
X22750000Y7500000D03*
D18*
X23250000Y7500000D03*
D18*
X23750000Y7500000D03*
D18*
X24250000Y7500000D03*
D17*
X25000000Y6750000D03*
D17*
X25000000Y6250000D03*
D17*
X25000000Y5750000D03*
D17*
X25000000Y5250000D03*
D17*
X25000000Y4750000D03*
D17*
X25000000Y4250000D03*
D17*
X25000000Y3750000D03*
D17*
X25000000Y3250000D03*
D18*
X24250000Y2500000D03*
D18*
X23750000Y2500000D03*
D18*
X23250000Y2500000D03*
D18*
X22750000Y2500000D03*
D18*
X22250000Y2500000D03*
D18*
X21750000Y2500000D03*
D18*
X21250000Y2500000D03*
D18*
X20750000Y2500000D03*
D20*
X22500000Y5000000D03*
D21*
X9300000Y10000000D03*
D21*
X10700000Y10000000D03*
D22*
X9450000Y12000000D03*
D22*
X10550000Y12000000D03*
D23*
X19750000Y500000D03*
D23*
X25250000Y500000D03*
D24*
X22250000Y500000D03*
D24*
X22750000Y500000D03*
D24*
X20750000Y500000D03*
D24*
X24250000Y500000D03*
D25*
X19000000Y500000D03*
D25*
X26000000Y500000D03*
D26*
X18350000Y2000000D03*
D26*
X26650000Y2000000D03*
D27*
X4000000Y12000000D03*
D27*
X4000000Y18000000D03*
D27*
X-1500000Y15000000D03*
D28*
X1500000Y10000000D03*
D28*
X1500000Y20000000D03*
D27*
X42000000Y4000000D03*
D28*
X39460000Y4000000D03*
D28*
X44540000Y4000000D03*
D29*
X40000000Y27000000D03*
D30*
X6350000Y6450000D03*
D30*
X7650000Y6450000D03*
D30*
X7650000Y7550000D03*
D30*
X6350000Y7550000D03*
D30*
X6350000Y3450000D03*
D30*
X7650000Y3450000D03*
D30*
X7650000Y4550000D03*
D30*
X6350000Y4550000D03*
D31*
X1500000Y25000000D03*
D31*
X5500000Y25000000D03*
D32*
X41000000Y15000000D03*
D32*
X43000000Y15000000D03*
D33*
X41000000Y21000000D03*
D33*
X43000000Y21000000D03*
D34*
X2500000Y2500000D03*
D34*
X42500000Y2500000D03*
D34*
X2500000Y27500000D03*
D34*
X42500000Y27500000D03*
D35*
X10520000Y16500000D03*
D35*
X11480000Y16500000D03*
D35*
X16520000Y16500000D03*
D35*
X17480000Y16500000D03*
D36*
X10250000Y18000000D03*
D36*
X11750000Y18000000D03*
D35*
X16520000Y18000000D03*
D35*
X17480000Y18000000D03*
D35*
X29520000Y4000000D03*
D35*
X30480000Y4000000D03*
D35*
X35520000Y4000000D03*
D35*
X36480000Y4000000D03*
D35*
X7020000Y23000000D03*
D35*
X7980000Y23000000D03*
D35*
X12020000Y23000000D03*
D35*
X12980000Y23000000D03*
D35*
X19520000Y22000000D03*
D35*
X20480000Y22000000D03*
D35*
X24520000Y22000000D03*
D35*
X25480000Y22000000D03*
D35*
X31020000Y23000000D03*
D35*
X31980000Y23000000D03*
D36*
X18250000Y3000000D03*
D36*
X19750000Y3000000D03*
D36*
X25250000Y3000000D03*
D36*
X26750000Y3000000D03*
D35*
X8520000Y9000000D03*
D35*
X9480000Y9000000D03*
D35*
X10520000Y9000000D03*
D35*
X11480000Y9000000D03*
D37*
X19500000Y4520000D03*
D37*
X19500000Y5480000D03*
D37*
X25500000Y4520000D03*
D37*
X25500000Y5480000D03*
D37*
X7000000Y9020000D03*
D37*
X7000000Y9980000D03*
D35*
X13520000Y8000000D03*
D35*
X14480000Y8000000D03*
D35*
X13520000Y9500000D03*
D35*
X14480000Y9500000D03*
D35*
X7020000Y27000000D03*
D35*
X7980000Y27000000D03*
D35*
X19520000Y28000000D03*
D35*
X20480000Y28000000D03*
D35*
X24520000Y28000000D03*
D35*
X25480000Y28000000D03*
D35*
X3020000Y22500000D03*
D35*
X3980000Y22500000D03*
D33*
X21550000Y8500000D03*
D33*
X23450000Y8500000D03*
D33*
X26550000Y8500000D03*
D33*
X28450000Y8500000D03*
D22*
X35450000Y10000000D03*
D22*
X36550000Y10000000D03*
D35*
X29520000Y6000000D03*
D35*
X30480000Y6000000D03*
D35*
X35520000Y6000000D03*
D35*
X36480000Y6000000D03*
D35*
X29520000Y10000000D03*
D35*
X30480000Y10000000D03*
D35*
X35520000Y12000000D03*
D35*
X36480000Y12000000D03*
D35*
X37520000Y6000000D03*
D35*
X38480000Y6000000D03*
D35*
X37520000Y8000000D03*
D35*
X38480000Y8000000D03*
D35*
X29520000Y12000000D03*
D35*
X30480000Y12000000D03*
D35*
X19520000Y27000000D03*
D35*
X20480000Y27000000D03*
D35*
X24520000Y27000000D03*
D35*
X25480000Y27000000D03*
D36*
X19250000Y20000000D03*
D36*
X20750000Y20000000D03*
D36*
X24250000Y20000000D03*
D36*
X25750000Y20000000D03*
D36*
X21750000Y20000000D03*
D36*
X23250000Y20000000D03*
D35*
X22020000Y27000000D03*
D35*
X22980000Y27000000D03*
D38*
X22500000Y1500000D02*
X22500000Y5000000D01*
D39*
X22500000Y5000000D02*
X22500000Y8500000D01*
D39*
X22500000Y8500000D02*
X14000000Y8500000D01*
D39*
X14000000Y8500000D02*
X14000000Y14000000D01*
D39*
X14000000Y14000000D02*
X10000000Y14000000D01*
D39*
X10000000Y14000000D02*
X10000000Y25000000D01*
D39*
X14000000Y14000000D02*
X22500000Y14000000D01*
D39*
X22500000Y14000000D02*
X22500000Y25000000D01*
D39*
X22500000Y14000000D02*
X33000000Y14000000D01*
D39*
X33000000Y14000000D02*
X33000000Y8000000D01*
D39*
X33000000Y14000000D02*
X34000000Y14000000D01*
D39*
X34000000Y14000000D02*
X34000000Y25000000D01*
D39*
X10000000Y14000000D02*
X7000000Y7000000D01*
D39*
X7000000Y7000000D02*
X7000000Y4000000D01*
D38*
X42000000Y15000000D02*
X35000000Y10000000D01*
D38*
X35000000Y10000000D02*
X27500000Y8500000D01*
D38*
X27500000Y8500000D02*
X22500000Y5000000D01*
D39*
X17500000Y13000000D02*
X30000000Y6500000D01*
D39*
X17500000Y13400000D02*
X30000000Y7000000D01*
D39*
X17500000Y13800000D02*
X30000000Y7500000D01*
D39*
X17500000Y14200000D02*
X30000000Y8000000D01*
D39*
X17500000Y14600000D02*
X30000000Y8500000D01*
D39*
X17500000Y15000000D02*
X30000000Y9000000D01*
D39*
X36000000Y5250000D02*
X36000000Y10000000D01*
D39*
X30000000Y12000000D02*
X30000000Y9000000D01*
D39*
X36000000Y6000000D02*
X38000000Y6000000D01*
D39*
X38000000Y6000000D02*
X38000000Y8000000D01*
D39*
X38000000Y6000000D02*
X39000000Y4000000D01*
D39*
X39000000Y4000000D02*
X42000000Y4000000D01*
D39*
X10500000Y12000000D02*
X12650000Y23400000D01*
D39*
X10500000Y12000000D02*
X19250000Y23700000D01*
D39*
X19250000Y23700000D02*
X32500000Y24250000D01*
D39*
X10500000Y12400000D02*
X12650000Y24050000D01*
D39*
X10500000Y12400000D02*
X19250000Y24350000D01*
D39*
X19250000Y24350000D02*
X32500000Y24750000D01*
D39*
X10500000Y12800000D02*
X12650000Y24700000D01*
D39*
X10500000Y13200000D02*
X19250000Y25000000D01*
D39*
X19250000Y25000000D02*
X32500000Y25250000D01*
D39*
X17500000Y16600000D02*
X12650000Y25350000D01*
D39*
X10500000Y14400000D02*
X20000000Y4750000D01*
D39*
X10500000Y14800000D02*
X20000000Y5250000D01*
D39*
X20300000Y25650000D02*
X20000000Y27000000D01*
D39*
X20300000Y23375000D02*
X20300000Y22075000D01*
D39*
X24700000Y24675000D02*
X25000000Y27000000D01*
D39*
X24700000Y25975000D02*
X20000000Y20000000D01*
D39*
X24700000Y26625000D02*
X25000000Y20000000D01*
D39*
X24700000Y27275000D02*
X22500000Y20000000D01*
D39*
X24700000Y24025000D02*
X22500000Y27000000D01*
D39*
X35500000Y25750000D02*
X42000000Y21000000D01*
D39*
X10500000Y14000000D02*
X32500000Y25750000D01*
D39*
X1500000Y12000000D02*
X5000000Y22000000D01*
D39*
X5000000Y22000000D02*
X7350000Y23400000D01*
D39*
X1500000Y18000000D02*
X5000000Y28000000D01*
D39*
X5000000Y28000000D02*
X7350000Y26600000D01*
D39*
X10500000Y15200000D02*
X7000000Y9500000D01*
D39*
X7000000Y9500000D02*
X7000000Y7000000D01*
D39*
X7650000Y6450000D02*
X6350000Y4550000D01*
D39*
X10500000Y14000000D02*
X5500000Y25000000D01*
D39*
X10500000Y16400000D02*
X22750000Y1500000D01*
D39*
X10500000Y16800000D02*
X22250000Y1500000D01*
D39*
X19500000Y5000000D02*
X20750000Y1500000D01*
D39*
X25500000Y5000000D02*
X24250000Y1500000D01*
D39*
X10000000Y10000000D02*
X10500000Y10800000D01*
D39*
X10000000Y12000000D02*
X10500000Y11200000D01*
D39*
X17500000Y18600000D02*
X40000000Y27000000D01*
D30*
X5000000Y5000000D03*
D30*
X22500000Y5000000D03*
D30*
X40000000Y5000000D03*
D30*
X5000000Y15000000D03*
D30*
X22500000Y15000000D03*
D30*
X40000000Y15000000D03*
D30*
X5000000Y25000000D03*
D30*
X22500000Y25000000D03*
D30*
X40000000Y25000000D03*
D30*
X14000000Y10000000D03*
D30*
X33000000Y10000000D03*
D30*
X14000000Y20000000D03*
D30*
X33000000Y20000000D03*
D30*
X31000000Y8000000D03*
D30*
X33000000Y6000000D03*
D30*
X35000000Y8000000D03*
D30*
X33000000Y10000000D03*
D30*
X12000000Y14000000D03*
D30*
X14000000Y12000000D03*
D30*
X16000000Y14000000D03*
D30*
X14000000Y16000000D03*
M02*
