%FSLAX46Y46*%
%MOMM*%
G04 Koe FILL F.Cu*
%LPD*%
%ADD10R,0.500X0.900*%
%ADD11R,6.000X2.400*%
%ADD12R,0.300X1.200*%
%ADD13R,6.000X4.500*%
%ADD14R,0.400X1.500*%
%ADD15R,1.500X2.500*%
%ADD16R,10.000X8.500*%
%ADD17R,0.800X1.500*%
%ADD18R,3.000X1.500*%
%ADD19R,0.200X0.700*%
%ADD20C,2.500*%
%ADD21C,3.000*%
%ADD22R,0.600X1.200*%
%ADD23R,0.300X1.000*%
%ADD24R,0.500X1.000*%
%ADD25R,0.600X1.600*%
%ADD26C,1.600*%
%ADD27C,1.000*%
%ADD28R,1.500X1.000*%
%ADD29C,5.500*%
%ADD30R,2.000X2.500*%
%ADD31C,2.000*%
%ADD32R,1.000X1.200*%
%ADD33R,1.200X1.600*%
%ADD34R,0.560X0.620*%
%ADD35R,1.200X1.000*%
%ADD36R,0.620X0.560*%
%ADD37C,0.500*%
%ADD38C,0.200*%
%ADD39C,0.600*%
D10*
X7800000Y28570000D03*
D10*
X7800000Y29840000D03*
D10*
X7800000Y31110000D03*
D10*
X7800000Y32380000D03*
D10*
X7800000Y33650000D03*
D10*
X7800000Y34920000D03*
D10*
X7800000Y36190000D03*
D10*
X7800000Y37460000D03*
D10*
X7800000Y38730000D03*
D10*
X7800000Y40000000D03*
D10*
X7800000Y41270000D03*
D10*
X7800000Y42540000D03*
D10*
X7800000Y43810000D03*
D10*
X7800000Y45080000D03*
D10*
X7800000Y46350000D03*
D10*
X7800000Y47620000D03*
D10*
X7800000Y48890000D03*
D10*
X7800000Y50160000D03*
D10*
X7800000Y51430000D03*
D10*
X22200000Y28570000D03*
D10*
X22200000Y29840000D03*
D10*
X22200000Y31110000D03*
D10*
X22200000Y32380000D03*
D10*
X22200000Y33650000D03*
D10*
X22200000Y34920000D03*
D10*
X22200000Y36190000D03*
D10*
X22200000Y37460000D03*
D10*
X22200000Y38730000D03*
D10*
X22200000Y40000000D03*
D10*
X22200000Y41270000D03*
D10*
X22200000Y42540000D03*
D10*
X22200000Y43810000D03*
D10*
X22200000Y45080000D03*
D10*
X22200000Y46350000D03*
D10*
X22200000Y47620000D03*
D10*
X22200000Y48890000D03*
D10*
X22200000Y50160000D03*
D10*
X22200000Y51430000D03*
D11*
X15000000Y50000000D03*
D12*
X59650000Y35125000D03*
D12*
X59650000Y35775000D03*
D12*
X59650000Y36425000D03*
D12*
X59650000Y37075000D03*
D12*
X59650000Y37725000D03*
D12*
X59650000Y38375000D03*
D12*
X59650000Y39025000D03*
D12*
X59650000Y39675000D03*
D12*
X59650000Y40325000D03*
D12*
X59650000Y40975000D03*
D12*
X59650000Y41625000D03*
D12*
X59650000Y42275000D03*
D12*
X59650000Y42925000D03*
D12*
X59650000Y43575000D03*
D12*
X59650000Y44225000D03*
D12*
X59650000Y44875000D03*
D12*
X70350000Y35125000D03*
D12*
X70350000Y35775000D03*
D12*
X70350000Y36425000D03*
D12*
X70350000Y37075000D03*
D12*
X70350000Y37725000D03*
D12*
X70350000Y38375000D03*
D12*
X70350000Y39025000D03*
D12*
X70350000Y39675000D03*
D12*
X70350000Y40325000D03*
D12*
X70350000Y40975000D03*
D12*
X70350000Y41625000D03*
D12*
X70350000Y42275000D03*
D12*
X70350000Y42925000D03*
D12*
X70350000Y43575000D03*
D12*
X70350000Y44225000D03*
D12*
X70350000Y44875000D03*
D13*
X65000000Y40000000D03*
D14*
X36250000Y37075000D03*
D14*
X36250000Y37725000D03*
D14*
X36250000Y38375000D03*
D14*
X36250000Y39025000D03*
D14*
X36250000Y39675000D03*
D14*
X36250000Y40325000D03*
D14*
X36250000Y40975000D03*
D14*
X36250000Y41625000D03*
D14*
X36250000Y42275000D03*
D14*
X36250000Y42925000D03*
D14*
X43750000Y37075000D03*
D14*
X43750000Y37725000D03*
D14*
X43750000Y38375000D03*
D14*
X43750000Y39025000D03*
D14*
X43750000Y39675000D03*
D14*
X43750000Y40325000D03*
D14*
X43750000Y40975000D03*
D14*
X43750000Y41625000D03*
D14*
X43750000Y42275000D03*
D14*
X43750000Y42925000D03*
D15*
X61600000Y62000000D03*
D15*
X63300000Y62000000D03*
D15*
X65000000Y62000000D03*
D15*
X66700000Y62000000D03*
D15*
X68400000Y62000000D03*
D16*
X65000000Y70000000D03*
D17*
X12700000Y70250000D03*
D17*
X15000000Y70250000D03*
D17*
X17300000Y70250000D03*
D18*
X15000000Y63750000D03*
D19*
X40200000Y14150000D03*
D19*
X40200000Y15850000D03*
D19*
X40600000Y14150000D03*
D19*
X40600000Y15850000D03*
D19*
X41000000Y14150000D03*
D19*
X41000000Y15850000D03*
D19*
X41400000Y14150000D03*
D19*
X41400000Y15850000D03*
D19*
X41800000Y14150000D03*
D19*
X41800000Y15850000D03*
D19*
X42200000Y14150000D03*
D19*
X42200000Y15850000D03*
D19*
X42600000Y14150000D03*
D19*
X42600000Y15850000D03*
D19*
X43000000Y14150000D03*
D19*
X43000000Y15850000D03*
D19*
X43400000Y14150000D03*
D19*
X43400000Y15850000D03*
D19*
X43800000Y14150000D03*
D19*
X43800000Y15850000D03*
D19*
X44200000Y14150000D03*
D19*
X44200000Y15850000D03*
D19*
X44600000Y14150000D03*
D19*
X44600000Y15850000D03*
D19*
X45000000Y14150000D03*
D19*
X45000000Y15850000D03*
D19*
X45400000Y14150000D03*
D19*
X45400000Y15850000D03*
D19*
X45800000Y14150000D03*
D19*
X45800000Y15850000D03*
D19*
X46200000Y14150000D03*
D19*
X46200000Y15850000D03*
D19*
X46600000Y14150000D03*
D19*
X46600000Y15850000D03*
D19*
X47000000Y14150000D03*
D19*
X47000000Y15850000D03*
D19*
X47400000Y14150000D03*
D19*
X47400000Y15850000D03*
D19*
X47800000Y14150000D03*
D19*
X47800000Y15850000D03*
D19*
X48200000Y14150000D03*
D19*
X48200000Y15850000D03*
D19*
X48600000Y14150000D03*
D19*
X48600000Y15850000D03*
D19*
X49000000Y14150000D03*
D19*
X49000000Y15850000D03*
D19*
X49400000Y14150000D03*
D19*
X49400000Y15850000D03*
D19*
X49800000Y14150000D03*
D19*
X49800000Y15850000D03*
D19*
X50200000Y14150000D03*
D19*
X50200000Y15850000D03*
D19*
X50600000Y14150000D03*
D19*
X50600000Y15850000D03*
D19*
X51000000Y14150000D03*
D19*
X51000000Y15850000D03*
D19*
X51400000Y14150000D03*
D19*
X51400000Y15850000D03*
D19*
X51800000Y14150000D03*
D19*
X51800000Y15850000D03*
D19*
X52200000Y14150000D03*
D19*
X52200000Y15850000D03*
D19*
X52600000Y14150000D03*
D19*
X52600000Y15850000D03*
D19*
X53000000Y14150000D03*
D19*
X53000000Y15850000D03*
D19*
X53400000Y14150000D03*
D19*
X53400000Y15850000D03*
D19*
X53800000Y14150000D03*
D19*
X53800000Y15850000D03*
D19*
X54200000Y14150000D03*
D19*
X54200000Y15850000D03*
D19*
X54600000Y14150000D03*
D19*
X54600000Y15850000D03*
D19*
X55000000Y14150000D03*
D19*
X55000000Y15850000D03*
D19*
X55400000Y14150000D03*
D19*
X55400000Y15850000D03*
D19*
X55800000Y14150000D03*
D19*
X55800000Y15850000D03*
D19*
X56200000Y14150000D03*
D19*
X56200000Y15850000D03*
D19*
X56600000Y14150000D03*
D19*
X56600000Y15850000D03*
D19*
X57000000Y14150000D03*
D19*
X57000000Y15850000D03*
D19*
X57400000Y14150000D03*
D19*
X57400000Y15850000D03*
D19*
X57800000Y14150000D03*
D19*
X57800000Y15850000D03*
D19*
X58200000Y14150000D03*
D19*
X58200000Y15850000D03*
D19*
X58600000Y14150000D03*
D19*
X58600000Y15850000D03*
D19*
X59000000Y14150000D03*
D19*
X59000000Y15850000D03*
D19*
X59400000Y14150000D03*
D19*
X59400000Y15850000D03*
D19*
X59800000Y14150000D03*
D19*
X59800000Y15850000D03*
D19*
X40200000Y21150000D03*
D19*
X40200000Y22850000D03*
D19*
X40600000Y21150000D03*
D19*
X40600000Y22850000D03*
D19*
X41000000Y21150000D03*
D19*
X41000000Y22850000D03*
D19*
X41400000Y21150000D03*
D19*
X41400000Y22850000D03*
D19*
X41800000Y21150000D03*
D19*
X41800000Y22850000D03*
D19*
X42200000Y21150000D03*
D19*
X42200000Y22850000D03*
D19*
X42600000Y21150000D03*
D19*
X42600000Y22850000D03*
D19*
X43000000Y21150000D03*
D19*
X43000000Y22850000D03*
D19*
X43400000Y21150000D03*
D19*
X43400000Y22850000D03*
D19*
X43800000Y21150000D03*
D19*
X43800000Y22850000D03*
D19*
X44200000Y21150000D03*
D19*
X44200000Y22850000D03*
D19*
X44600000Y21150000D03*
D19*
X44600000Y22850000D03*
D19*
X45000000Y21150000D03*
D19*
X45000000Y22850000D03*
D19*
X45400000Y21150000D03*
D19*
X45400000Y22850000D03*
D19*
X45800000Y21150000D03*
D19*
X45800000Y22850000D03*
D19*
X46200000Y21150000D03*
D19*
X46200000Y22850000D03*
D19*
X46600000Y21150000D03*
D19*
X46600000Y22850000D03*
D19*
X47000000Y21150000D03*
D19*
X47000000Y22850000D03*
D19*
X47400000Y21150000D03*
D19*
X47400000Y22850000D03*
D19*
X47800000Y21150000D03*
D19*
X47800000Y22850000D03*
D19*
X48200000Y21150000D03*
D19*
X48200000Y22850000D03*
D19*
X48600000Y21150000D03*
D19*
X48600000Y22850000D03*
D19*
X49000000Y21150000D03*
D19*
X49000000Y22850000D03*
D19*
X49400000Y21150000D03*
D19*
X49400000Y22850000D03*
D19*
X49800000Y21150000D03*
D19*
X49800000Y22850000D03*
D19*
X50200000Y21150000D03*
D19*
X50200000Y22850000D03*
D19*
X50600000Y21150000D03*
D19*
X50600000Y22850000D03*
D19*
X51000000Y21150000D03*
D19*
X51000000Y22850000D03*
D19*
X51400000Y21150000D03*
D19*
X51400000Y22850000D03*
D19*
X51800000Y21150000D03*
D19*
X51800000Y22850000D03*
D19*
X52200000Y21150000D03*
D19*
X52200000Y22850000D03*
D19*
X52600000Y21150000D03*
D19*
X52600000Y22850000D03*
D19*
X53000000Y21150000D03*
D19*
X53000000Y22850000D03*
D19*
X53400000Y21150000D03*
D19*
X53400000Y22850000D03*
D19*
X53800000Y21150000D03*
D19*
X53800000Y22850000D03*
D19*
X54200000Y21150000D03*
D19*
X54200000Y22850000D03*
D19*
X54600000Y21150000D03*
D19*
X54600000Y22850000D03*
D19*
X55000000Y21150000D03*
D19*
X55000000Y22850000D03*
D19*
X55400000Y21150000D03*
D19*
X55400000Y22850000D03*
D19*
X55800000Y21150000D03*
D19*
X55800000Y22850000D03*
D19*
X56200000Y21150000D03*
D19*
X56200000Y22850000D03*
D19*
X56600000Y21150000D03*
D19*
X56600000Y22850000D03*
D19*
X57000000Y21150000D03*
D19*
X57000000Y22850000D03*
D19*
X57400000Y21150000D03*
D19*
X57400000Y22850000D03*
D19*
X57800000Y21150000D03*
D19*
X57800000Y22850000D03*
D19*
X58200000Y21150000D03*
D19*
X58200000Y22850000D03*
D19*
X58600000Y21150000D03*
D19*
X58600000Y22850000D03*
D19*
X59000000Y21150000D03*
D19*
X59000000Y22850000D03*
D19*
X59400000Y21150000D03*
D19*
X59400000Y22850000D03*
D19*
X59800000Y21150000D03*
D19*
X59800000Y22850000D03*
D20*
X83000000Y35000000D03*
D20*
X93000000Y35000000D03*
D20*
X83000000Y45000000D03*
D20*
X93000000Y45000000D03*
D21*
X78000000Y40000000D03*
D21*
X98000000Y40000000D03*
D22*
X12250000Y3000000D03*
D22*
X17750000Y3000000D03*
D23*
X14750000Y3000000D03*
D23*
X15250000Y3000000D03*
D23*
X13250000Y3000000D03*
D23*
X16750000Y3000000D03*
D24*
X11500000Y3000000D03*
D24*
X18500000Y3000000D03*
D25*
X10850000Y4500000D03*
D25*
X19150000Y4500000D03*
D20*
X88000000Y67000000D03*
D20*
X83300000Y67000000D03*
D20*
X83300000Y71500000D03*
D26*
X38730000Y72000000D03*
D26*
X41270000Y72000000D03*
D27*
X3550000Y13400000D03*
D27*
X8450000Y13400000D03*
D27*
X8450000Y16600000D03*
D27*
X3550000Y16600000D03*
D27*
X3550000Y23400000D03*
D27*
X8450000Y23400000D03*
D27*
X8450000Y26600000D03*
D27*
X3550000Y26600000D03*
D28*
X2750000Y55000000D03*
D28*
X9250000Y55000000D03*
D29*
X4000000Y4000000D03*
D29*
X96000000Y4000000D03*
D29*
X4000000Y76000000D03*
D29*
X96000000Y76000000D03*
D30*
X53000000Y72000000D03*
D30*
X57000000Y72000000D03*
D21*
X45500000Y60000000D03*
D21*
X54500000Y60000000D03*
D31*
X76500000Y72000000D03*
D31*
X79500000Y72000000D03*
D31*
X36500000Y60000000D03*
D31*
X39500000Y60000000D03*
D32*
X19050000Y30000000D03*
D32*
X20950000Y30000000D03*
D32*
X19050000Y50000000D03*
D32*
X20950000Y50000000D03*
D32*
X34050000Y30000000D03*
D32*
X35950000Y30000000D03*
D32*
X34050000Y50000000D03*
D32*
X35950000Y50000000D03*
D33*
X58600000Y30000000D03*
D33*
X61400000Y30000000D03*
D32*
X69050000Y30000000D03*
D32*
X70950000Y30000000D03*
D32*
X9050000Y60000000D03*
D32*
X10950000Y60000000D03*
D32*
X21050000Y60000000D03*
D32*
X22950000Y60000000D03*
D32*
X44050000Y30000000D03*
D32*
X45950000Y30000000D03*
D32*
X44050000Y50000000D03*
D32*
X45950000Y50000000D03*
D34*
X10520000Y8000000D03*
D34*
X11480000Y8000000D03*
D34*
X18520000Y8000000D03*
D34*
X19480000Y8000000D03*
D35*
X60000000Y49050000D03*
D35*
X60000000Y50950000D03*
D35*
X70000000Y49050000D03*
D35*
X70000000Y50950000D03*
D36*
X6000000Y34520000D03*
D36*
X6000000Y35480000D03*
D34*
X39520000Y30000000D03*
D34*
X40480000Y30000000D03*
D37*
X88000000Y67000000D02*
X78000000Y67000000D01*
D37*
X78000000Y67000000D02*
X65000000Y67000000D01*
D37*
X78000000Y67000000D02*
X78000000Y40000000D01*
D37*
X78000000Y40000000D02*
X70350000Y40000000D01*
D37*
X50000000Y60000000D02*
X38000000Y60000000D01*
D37*
X38000000Y60000000D02*
X15000000Y60000000D01*
D37*
X38000000Y60000000D02*
X38000000Y22000000D01*
D37*
X38000000Y22000000D02*
X50000000Y22000000D01*
D37*
X15000000Y60000000D02*
X15000000Y55000000D01*
D38*
X15000000Y63750000D02*
X15000000Y52000000D01*
D38*
X15000000Y52000000D02*
X15000000Y40000000D01*
D38*
X15000000Y40000000D02*
X20000000Y40000000D01*
D38*
X20000000Y40000000D02*
X40000000Y40000000D01*
D38*
X15000000Y25000000D02*
X6000000Y25000000D01*
D38*
X6000000Y25000000D02*
X6000000Y15000000D01*
D38*
X22200000Y35000000D02*
X36250000Y37800000D01*
D38*
X22200000Y36270000D02*
X36250000Y38450000D01*
D38*
X22200000Y37540000D02*
X36250000Y39100000D01*
D38*
X43750000Y38450000D02*
X55000000Y38450000D01*
D38*
X55000000Y38450000D02*
X59650000Y38450000D01*
D38*
X43750000Y39100000D02*
X55000000Y39100000D01*
D38*
X55000000Y39100000D02*
X59650000Y39100000D01*
D37*
X70350000Y36000000D02*
X78000000Y35000000D01*
D37*
X78000000Y35000000D02*
X83000000Y35000000D01*
D37*
X70350000Y37000000D02*
X78000000Y38000000D01*
D37*
X78000000Y38000000D02*
X83000000Y38000000D01*
D37*
X70350000Y42000000D02*
X78000000Y43000000D01*
D37*
X78000000Y43000000D02*
X83000000Y43000000D01*
D37*
X70350000Y44000000D02*
X78000000Y45000000D01*
D37*
X78000000Y45000000D02*
X93000000Y45000000D01*
D38*
X7800000Y34920000D02*
X6000000Y35000000D01*
D38*
X8450000Y16600000D02*
X3550000Y23400000D01*
D38*
X7800000Y42540000D02*
X15250000Y4000000D01*
D38*
X7800000Y43810000D02*
X14750000Y4000000D01*
D38*
X11000000Y8000000D02*
X13250000Y4000000D01*
D38*
X19000000Y8000000D02*
X16750000Y4000000D01*
D38*
X22200000Y37460000D02*
X29000000Y15000000D01*
D38*
X38730000Y72000000D02*
X38000000Y60000000D01*
D38*
X9250000Y55000000D02*
X7800000Y46350000D01*
D39*
X10000000Y10000000D03*
D39*
X50000000Y10000000D03*
D39*
X90000000Y10000000D03*
D39*
X10000000Y40000000D03*
D39*
X30000000Y40000000D03*
D39*
X50000000Y40000000D03*
D39*
X70000000Y40000000D03*
D39*
X90000000Y40000000D03*
D39*
X10000000Y70000000D03*
D39*
X30000000Y70000000D03*
D39*
X50000000Y70000000D03*
D39*
X70000000Y70000000D03*
D39*
X90000000Y70000000D03*
D39*
X25000000Y25000000D03*
D39*
X75000000Y25000000D03*
D39*
X25000000Y55000000D03*
D39*
X75000000Y55000000D03*
D39*
X62000000Y40000000D03*
D39*
X65000000Y43000000D03*
D39*
X68000000Y40000000D03*
D39*
X65000000Y37000000D03*
M02*
