M48
; Koe FILL 100x80mm ESP32-S3 + Pi CM5
FMAT,2
METRIC,TZ
T1C0.300
T2C4.300
T3C1.200
%
T1
X10.000Y10.000
X50.000Y10.000
X90.000Y10.000
X10.000Y40.000
X30.000Y40.000
X50.000Y40.000
X70.000Y40.000
X90.000Y40.000
X10.000Y70.000
X30.000Y70.000
X50.000Y70.000
X70.000Y70.000
X90.000Y70.000
X25.000Y25.000
X75.000Y25.000
X25.000Y55.000
X75.000Y55.000
X62.000Y40.000
X65.000Y43.000
X68.000Y40.000
X65.000Y37.000
T2
X4.000Y4.000
X96.000Y4.000
X4.000Y76.000
X96.000Y76.000
T3
X83.000Y35.000
X93.000Y35.000
X83.000Y45.000
X93.000Y45.000
X78.000Y40.000
X98.000Y40.000
X88.000Y67.000
X83.300Y67.000
X83.300Y71.500
M30
