%FSLAX46Y46*%
%MOMM*%
G04 Koe COIN LV F.SilkS*
%LPD*%
%ADD10C,0.100*%
D10*
X7000000Y7000000D02*
X13000000Y7000000D01*
D10*
X13000000Y7000000D02*
X13000000Y13000000D01*
D10*
X13000000Y13000000D02*
X7000000Y13000000D01*
D10*
X7000000Y13000000D02*
X7000000Y7000000D01*
D10*
X7640000Y1620000D02*
X12360000Y1620000D01*
D10*
X12360000Y1620000D02*
X12360000Y5380000D01*
D10*
X12360000Y5380000D02*
X7640000Y5380000D01*
D10*
X7640000Y5380000D02*
X7640000Y1620000D01*
D10*
X14000000Y5000000D02*
X17000000Y5000000D01*
D10*
X17000000Y5000000D02*
X17000000Y8000000D01*
D10*
X17000000Y8000000D02*
X14000000Y8000000D01*
D10*
X14000000Y8000000D02*
X14000000Y5000000D01*
D10*
X3750000Y13750000D02*
X5250000Y13750000D01*
D10*
X5250000Y13750000D02*
X5250000Y15250000D01*
D10*
X5250000Y15250000D02*
X3750000Y15250000D01*
D10*
X3750000Y15250000D02*
X3750000Y13750000D01*
D10*
X3000000Y7000000D02*
X6000000Y7000000D01*
D10*
X6000000Y7000000D02*
X6000000Y10000000D01*
D10*
X6000000Y10000000D02*
X3000000Y10000000D01*
D10*
X3000000Y10000000D02*
X3000000Y7000000D01*
D10*
X5150000Y10100000D02*
X5150000Y12900000D01*
D10*
X5150000Y12900000D02*
X3850000Y12900000D01*
D10*
X3850000Y12900000D02*
X3850000Y10100000D01*
D10*
X3850000Y10100000D02*
X5150000Y10100000D01*
D10*
X9000000Y5500000D02*
X11000000Y5500000D01*
D10*
X11000000Y5500000D02*
X11000000Y7500000D01*
D10*
X11000000Y7500000D02*
X9000000Y7500000D01*
D10*
X9000000Y7500000D02*
X9000000Y5500000D01*
D10*
X6325000Y17200000D02*
X13675000Y17200000D01*
D10*
X13675000Y17200000D02*
X13675000Y20400000D01*
D10*
X13675000Y20400000D02*
X6325000Y20400000D01*
D10*
X6325000Y20400000D02*
X6325000Y17200000D01*
D10*
X2200000Y9200000D02*
X4800000Y9200000D01*
D10*
X4800000Y9200000D02*
X4800000Y10800000D01*
D10*
X4800000Y10800000D02*
X2200000Y10800000D01*
D10*
X2200000Y10800000D02*
X2200000Y9200000D01*
D10*
X15000000Y13500000D02*
X18000000Y13500000D01*
D10*
X18000000Y13500000D02*
X18000000Y15500000D01*
D10*
X18000000Y15500000D02*
X15000000Y15500000D01*
D10*
X15000000Y15500000D02*
X15000000Y13500000D01*
D10*
X4750000Y15500000D02*
X8250000Y15500000D01*
D10*
X8250000Y15500000D02*
X8250000Y17500000D01*
D10*
X8250000Y17500000D02*
X4750000Y17500000D01*
D10*
X4750000Y17500000D02*
X4750000Y15500000D01*
D10*
X14200000Y12000000D02*
X15800000Y12000000D01*
D10*
X15800000Y12000000D02*
X15800000Y13000000D01*
D10*
X15800000Y13000000D02*
X14200000Y13000000D01*
D10*
X14200000Y13000000D02*
X14200000Y12000000D01*
D10*
X6200000Y9100000D02*
X7800000Y9100000D01*
D10*
X7800000Y9100000D02*
X7800000Y9900000D01*
D10*
X7800000Y9900000D02*
X6200000Y9900000D01*
D10*
X6200000Y9900000D02*
X6200000Y9100000D01*
D10*
X6700000Y16600000D02*
X8300000Y16600000D01*
D10*
X8300000Y16600000D02*
X8300000Y17400000D01*
D10*
X8300000Y17400000D02*
X6700000Y17400000D01*
D10*
X6700000Y17400000D02*
X6700000Y16600000D01*
D10*
X11700000Y16600000D02*
X13300000Y16600000D01*
D10*
X13300000Y16600000D02*
X13300000Y17400000D01*
D10*
X13300000Y17400000D02*
X11700000Y17400000D01*
D10*
X11700000Y17400000D02*
X11700000Y16600000D01*
D10*
X3400000Y12200000D02*
X3400000Y13800000D01*
D10*
X3400000Y13800000D02*
X2600000Y13800000D01*
D10*
X2600000Y13800000D02*
X2600000Y12200000D01*
D10*
X2600000Y12200000D02*
X3400000Y12200000D01*
D10*
X6700000Y7100000D02*
X8300000Y7100000D01*
D10*
X8300000Y7100000D02*
X8300000Y7900000D01*
D10*
X8300000Y7900000D02*
X6700000Y7900000D01*
D10*
X6700000Y7900000D02*
X6700000Y7100000D01*
D10*
X6600000Y4400000D02*
X6600000Y6600000D01*
D10*
X6600000Y6600000D02*
X5400000Y6600000D01*
D10*
X5400000Y6600000D02*
X5400000Y4400000D01*
D10*
X5400000Y4400000D02*
X6600000Y4400000D01*
D10*
X3400000Y9200000D02*
X3400000Y10800000D01*
D10*
X3400000Y10800000D02*
X2600000Y10800000D01*
D10*
X2600000Y10800000D02*
X2600000Y9200000D01*
D10*
X2600000Y9200000D02*
X3400000Y9200000D01*
D10*
X3400000Y15900000D02*
X5600000Y15900000D01*
D10*
X5600000Y15900000D02*
X5600000Y17100000D01*
D10*
X5600000Y17100000D02*
X3400000Y17100000D01*
D10*
X3400000Y17100000D02*
X3400000Y15900000D01*
D10*
X12700000Y3100000D02*
X14300000Y3100000D01*
D10*
X14300000Y3100000D02*
X14300000Y3900000D01*
D10*
X14300000Y3900000D02*
X12700000Y3900000D01*
D10*
X12700000Y3900000D02*
X12700000Y3100000D01*
D10*
X17400000Y4700000D02*
X17400000Y6300000D01*
D10*
X17400000Y6300000D02*
X16600000Y6300000D01*
D10*
X16600000Y6300000D02*
X16600000Y4700000D01*
D10*
X16600000Y4700000D02*
X17400000Y4700000D01*
D10*
X7200000Y11600000D02*
X8800000Y11600000D01*
D10*
X8800000Y11600000D02*
X8800000Y12400000D01*
D10*
X8800000Y12400000D02*
X7200000Y12400000D01*
D10*
X7200000Y12400000D02*
X7200000Y11600000D01*
D10*
X11200000Y11600000D02*
X12800000Y11600000D01*
D10*
X12800000Y11600000D02*
X12800000Y12400000D01*
D10*
X12800000Y12400000D02*
X11200000Y12400000D01*
D10*
X11200000Y12400000D02*
X11200000Y11600000D01*
D10*
X14900000Y13200000D02*
X14900000Y14800000D01*
D10*
X14900000Y14800000D02*
X14100000Y14800000D01*
D10*
X14100000Y14800000D02*
X14100000Y13200000D01*
D10*
X14100000Y13200000D02*
X14900000Y13200000D01*
D10*
X14200000Y10600000D02*
X15800000Y10600000D01*
D10*
X15800000Y10600000D02*
X15800000Y11400000D01*
D10*
X15800000Y11400000D02*
X14200000Y11400000D01*
D10*
X14200000Y11400000D02*
X14200000Y10600000D01*
D10*
X14200000Y13600000D02*
X15800000Y13600000D01*
D10*
X15800000Y13600000D02*
X15800000Y14400000D01*
D10*
X15800000Y14400000D02*
X14200000Y14400000D01*
D10*
X14200000Y14400000D02*
X14200000Y13600000D01*
D10*
X7400000Y8900000D02*
X9600000Y8900000D01*
D10*
X9600000Y8900000D02*
X9600000Y10100000D01*
D10*
X9600000Y10100000D02*
X7400000Y10100000D01*
D10*
X7400000Y10100000D02*
X7400000Y8900000D01*
D10*
X7200000Y13100000D02*
X8800000Y13100000D01*
D10*
X8800000Y13100000D02*
X8800000Y13900000D01*
D10*
X8800000Y13900000D02*
X7200000Y13900000D01*
D10*
X7200000Y13900000D02*
X7200000Y13100000D01*
M02*
