%FSLAX46Y46*%
%MOMM*%
G04 Koe HUB v2 F.SilkS*
%LPD*%
%ADD10C,0.120*%
D10*
X59500000Y53500000D02*
X80500000Y53500000D01*
D10*
X80500000Y53500000D02*
X80500000Y56500000D01*
D10*
X80500000Y56500000D02*
X59500000Y56500000D01*
D10*
X59500000Y56500000D02*
X59500000Y53500000D01*
D10*
X59500000Y60500000D02*
X80500000Y60500000D01*
D10*
X80500000Y60500000D02*
X80500000Y63500000D01*
D10*
X80500000Y63500000D02*
X59500000Y63500000D01*
D10*
X59500000Y63500000D02*
X59500000Y60500000D01*
D10*
X21500000Y16500000D02*
X28500000Y16500000D01*
D10*
X28500000Y16500000D02*
X28500000Y23500000D01*
D10*
X28500000Y23500000D02*
X21500000Y23500000D01*
D10*
X21500000Y23500000D02*
X21500000Y16500000D01*
D10*
X111750000Y16750000D02*
X118250000Y16750000D01*
D10*
X118250000Y16750000D02*
X118250000Y23250000D01*
D10*
X118250000Y23250000D02*
X111750000Y23250000D01*
D10*
X111750000Y23250000D02*
X111750000Y16750000D01*
D10*
X50500000Y95500000D02*
X59500000Y95500000D01*
D10*
X59500000Y95500000D02*
X59500000Y104500000D01*
D10*
X59500000Y104500000D02*
X50500000Y104500000D01*
D10*
X50500000Y104500000D02*
X50500000Y95500000D01*
D10*
X21250000Y61900000D02*
X28750000Y61900000D01*
D10*
X28750000Y61900000D02*
X28750000Y68100000D01*
D10*
X28750000Y68100000D02*
X21250000Y68100000D01*
D10*
X21250000Y68100000D02*
X21250000Y61900000D01*
D10*
X21250000Y76900000D02*
X28750000Y76900000D01*
D10*
X28750000Y76900000D02*
X28750000Y83100000D01*
D10*
X28750000Y83100000D02*
X21250000Y83100000D01*
D10*
X21250000Y83100000D02*
X21250000Y76900000D01*
D10*
X70250000Y104825000D02*
X79750000Y104825000D01*
D10*
X79750000Y104825000D02*
X79750000Y111175000D01*
D10*
X79750000Y111175000D02*
X70250000Y111175000D01*
D10*
X70250000Y111175000D02*
X70250000Y104825000D01*
D10*
X34500000Y104750000D02*
X45500000Y104750000D01*
D10*
X45500000Y104750000D02*
X45500000Y111250000D01*
D10*
X45500000Y111250000D02*
X34500000Y111250000D01*
D10*
X34500000Y111250000D02*
X34500000Y104750000D01*
D10*
X114750000Y7350000D02*
X125250000Y7350000D01*
D10*
X125250000Y7350000D02*
X125250000Y22650000D01*
D10*
X125250000Y22650000D02*
X114750000Y22650000D01*
D10*
X114750000Y22650000D02*
X114750000Y7350000D01*
D10*
X96750000Y11500000D02*
X103250000Y11500000D01*
D10*
X103250000Y11500000D02*
X103250000Y18500000D01*
D10*
X103250000Y18500000D02*
X96750000Y18500000D01*
D10*
X96750000Y18500000D02*
X96750000Y11500000D01*
D10*
X65500000Y1250000D02*
X74500000Y1250000D01*
D10*
X74500000Y1250000D02*
X74500000Y4750000D01*
D10*
X74500000Y4750000D02*
X65500000Y4750000D01*
D10*
X65500000Y4750000D02*
X65500000Y1250000D01*
D10*
X42000000Y250000D02*
X58000000Y250000D01*
D10*
X58000000Y250000D02*
X58000000Y13750000D01*
D10*
X58000000Y13750000D02*
X42000000Y13750000D01*
D10*
X42000000Y13750000D02*
X42000000Y250000D01*
D10*
X82500000Y0D02*
X97500000Y0D01*
D10*
X97500000Y0D02*
X97500000Y6000000D01*
D10*
X97500000Y6000000D02*
X82500000Y6000000D01*
D10*
X82500000Y6000000D02*
X82500000Y0D01*
D10*
X126000000Y45000000D02*
X138000000Y45000000D01*
D10*
X138000000Y45000000D02*
X138000000Y55000000D01*
D10*
X138000000Y55000000D02*
X126000000Y55000000D01*
D10*
X126000000Y55000000D02*
X126000000Y45000000D01*
D10*
X126000000Y60000000D02*
X138000000Y60000000D01*
D10*
X138000000Y60000000D02*
X138000000Y70000000D01*
D10*
X138000000Y70000000D02*
X126000000Y70000000D01*
D10*
X126000000Y70000000D02*
X126000000Y60000000D01*
D10*
X127000000Y77000000D02*
X137000000Y77000000D01*
D10*
X137000000Y77000000D02*
X137000000Y87000000D01*
D10*
X137000000Y87000000D02*
X127000000Y87000000D01*
D10*
X127000000Y87000000D02*
X127000000Y77000000D01*
D10*
X83000000Y42500000D02*
X107000000Y42500000D01*
D10*
X107000000Y42500000D02*
X107000000Y47500000D01*
D10*
X107000000Y47500000D02*
X83000000Y47500000D01*
D10*
X83000000Y47500000D02*
X83000000Y42500000D01*
D10*
X2000000Y29000000D02*
X18000000Y29000000D01*
D10*
X18000000Y29000000D02*
X18000000Y41000000D01*
D10*
X18000000Y41000000D02*
X2000000Y41000000D01*
D10*
X2000000Y41000000D02*
X2000000Y29000000D01*
D10*
X2000000Y46000000D02*
X18000000Y46000000D01*
D10*
X18000000Y46000000D02*
X18000000Y58000000D01*
D10*
X18000000Y58000000D02*
X2000000Y58000000D01*
D10*
X2000000Y58000000D02*
X2000000Y46000000D01*
D10*
X2000000Y63000000D02*
X18000000Y63000000D01*
D10*
X18000000Y63000000D02*
X18000000Y75000000D01*
D10*
X18000000Y75000000D02*
X2000000Y75000000D01*
D10*
X2000000Y75000000D02*
X2000000Y63000000D01*
D10*
X2000000Y80000000D02*
X18000000Y80000000D01*
D10*
X18000000Y80000000D02*
X18000000Y92000000D01*
D10*
X18000000Y92000000D02*
X2000000Y92000000D01*
D10*
X2000000Y92000000D02*
X2000000Y80000000D01*
D10*
X0Y101000000D02*
X20000000Y101000000D01*
D10*
X20000000Y101000000D02*
X20000000Y115000000D01*
D10*
X20000000Y115000000D02*
X0Y115000000D01*
D10*
X0Y115000000D02*
X0Y101000000D01*
D10*
X25000000Y101000000D02*
X45000000Y101000000D01*
D10*
X45000000Y101000000D02*
X45000000Y115000000D01*
D10*
X45000000Y115000000D02*
X25000000Y115000000D01*
D10*
X25000000Y115000000D02*
X25000000Y101000000D01*
D10*
X88000000Y101000000D02*
X112000000Y101000000D01*
D10*
X112000000Y101000000D02*
X112000000Y115000000D01*
D10*
X112000000Y115000000D02*
X88000000Y115000000D01*
D10*
X88000000Y115000000D02*
X88000000Y101000000D01*
D10*
X113000000Y101000000D02*
X137000000Y101000000D01*
D10*
X137000000Y101000000D02*
X137000000Y115000000D01*
D10*
X137000000Y115000000D02*
X113000000Y115000000D01*
D10*
X113000000Y115000000D02*
X113000000Y101000000D01*
D10*
X77000000Y107000000D02*
X93000000Y107000000D01*
D10*
X93000000Y107000000D02*
X93000000Y119000000D01*
D10*
X93000000Y119000000D02*
X77000000Y119000000D01*
D10*
X77000000Y119000000D02*
X77000000Y107000000D01*
D10*
X27000000Y1500000D02*
X43000000Y1500000D01*
D10*
X43000000Y1500000D02*
X43000000Y8500000D01*
D10*
X43000000Y8500000D02*
X27000000Y8500000D01*
D10*
X27000000Y8500000D02*
X27000000Y1500000D01*
D10*
X129825000Y12500000D02*
X136175000Y12500000D01*
D10*
X136175000Y12500000D02*
X136175000Y17500000D01*
D10*
X136175000Y17500000D02*
X129825000Y17500000D01*
D10*
X129825000Y17500000D02*
X129825000Y12500000D01*
D10*
X11500000Y9000000D02*
X18500000Y9000000D01*
D10*
X18500000Y9000000D02*
X18500000Y11000000D01*
D10*
X18500000Y11000000D02*
X11500000Y11000000D01*
D10*
X11500000Y11000000D02*
X11500000Y9000000D01*
D10*
X16400000Y23750000D02*
X19600000Y23750000D01*
D10*
X19600000Y23750000D02*
X19600000Y26250000D01*
D10*
X19600000Y26250000D02*
X16400000Y26250000D01*
D10*
X16400000Y26250000D02*
X16400000Y23750000D01*
D10*
X30900000Y24400000D02*
X33100000Y24400000D01*
D10*
X33100000Y24400000D02*
X33100000Y25600000D01*
D10*
X33100000Y25600000D02*
X30900000Y25600000D01*
D10*
X30900000Y25600000D02*
X30900000Y24400000D01*
D10*
X52500000Y7500000D02*
X57500000Y7500000D01*
D10*
X57500000Y7500000D02*
X57500000Y12500000D01*
D10*
X57500000Y12500000D02*
X52500000Y12500000D01*
D10*
X52500000Y12500000D02*
X52500000Y7500000D01*
D10*
X57500000Y7500000D02*
X62500000Y7500000D01*
D10*
X62500000Y7500000D02*
X62500000Y12500000D01*
D10*
X62500000Y12500000D02*
X57500000Y12500000D01*
D10*
X57500000Y12500000D02*
X57500000Y7500000D01*
D10*
X62500000Y7500000D02*
X67500000Y7500000D01*
D10*
X67500000Y7500000D02*
X67500000Y12500000D01*
D10*
X67500000Y12500000D02*
X62500000Y12500000D01*
D10*
X62500000Y12500000D02*
X62500000Y7500000D01*
D10*
X67500000Y7500000D02*
X72500000Y7500000D01*
D10*
X72500000Y7500000D02*
X72500000Y12500000D01*
D10*
X72500000Y12500000D02*
X67500000Y12500000D01*
D10*
X67500000Y12500000D02*
X67500000Y7500000D01*
D10*
X72500000Y7500000D02*
X77500000Y7500000D01*
D10*
X77500000Y7500000D02*
X77500000Y12500000D01*
D10*
X77500000Y12500000D02*
X72500000Y12500000D01*
D10*
X72500000Y12500000D02*
X72500000Y7500000D01*
D10*
X77500000Y7500000D02*
X82500000Y7500000D01*
D10*
X82500000Y7500000D02*
X82500000Y12500000D01*
D10*
X82500000Y12500000D02*
X77500000Y12500000D01*
D10*
X77500000Y12500000D02*
X77500000Y7500000D01*
D10*
X109920000Y32460000D02*
X120080000Y32460000D01*
D10*
X120080000Y32460000D02*
X120080000Y37540000D01*
D10*
X120080000Y37540000D02*
X109920000Y37540000D01*
D10*
X109920000Y37540000D02*
X109920000Y32460000D01*
D10*
X127000000Y33250000D02*
X133000000Y33250000D01*
D10*
X133000000Y33250000D02*
X133000000Y36750000D01*
D10*
X133000000Y36750000D02*
X127000000Y36750000D01*
D10*
X127000000Y36750000D02*
X127000000Y33250000D01*
D10*
X1250000Y1250000D02*
X6750000Y1250000D01*
D10*
X6750000Y1250000D02*
X6750000Y6750000D01*
D10*
X6750000Y6750000D02*
X1250000Y6750000D01*
D10*
X1250000Y6750000D02*
X1250000Y1250000D01*
D10*
X133250000Y1250000D02*
X138750000Y1250000D01*
D10*
X138750000Y1250000D02*
X138750000Y6750000D01*
D10*
X138750000Y6750000D02*
X133250000Y6750000D01*
D10*
X133250000Y6750000D02*
X133250000Y1250000D01*
D10*
X1250000Y113250000D02*
X6750000Y113250000D01*
D10*
X6750000Y113250000D02*
X6750000Y118750000D01*
D10*
X6750000Y118750000D02*
X1250000Y118750000D01*
D10*
X1250000Y118750000D02*
X1250000Y113250000D01*
D10*
X133250000Y113250000D02*
X138750000Y113250000D01*
D10*
X138750000Y113250000D02*
X138750000Y118750000D01*
D10*
X138750000Y118750000D02*
X133250000Y118750000D01*
D10*
X133250000Y118750000D02*
X133250000Y113250000D01*
D10*
X112350000Y23200000D02*
X117650000Y23200000D01*
D10*
X117650000Y23200000D02*
X117650000Y26800000D01*
D10*
X117650000Y26800000D02*
X112350000Y26800000D01*
D10*
X112350000Y26800000D02*
X112350000Y23200000D01*
D10*
X102000000Y19000000D02*
X114000000Y19000000D01*
D10*
X114000000Y19000000D02*
X114000000Y31000000D01*
D10*
X114000000Y31000000D02*
X102000000Y31000000D01*
D10*
X102000000Y31000000D02*
X102000000Y19000000D01*
D10*
X124000000Y21000000D02*
X132000000Y21000000D01*
D10*
X132000000Y21000000D02*
X132000000Y29000000D01*
D10*
X132000000Y29000000D02*
X124000000Y29000000D01*
D10*
X124000000Y29000000D02*
X124000000Y21000000D01*
D10*
X94000000Y21000000D02*
X102000000Y21000000D01*
D10*
X102000000Y21000000D02*
X102000000Y29000000D01*
D10*
X102000000Y29000000D02*
X94000000Y29000000D01*
D10*
X94000000Y29000000D02*
X94000000Y21000000D01*
D10*
X63600000Y51250000D02*
X66400000Y51250000D01*
D10*
X66400000Y51250000D02*
X66400000Y52750000D01*
D10*
X66400000Y52750000D02*
X63600000Y52750000D01*
D10*
X63600000Y52750000D02*
X63600000Y51250000D01*
D10*
X73600000Y51250000D02*
X76400000Y51250000D01*
D10*
X76400000Y51250000D02*
X76400000Y52750000D01*
D10*
X76400000Y52750000D02*
X73600000Y52750000D01*
D10*
X73600000Y52750000D02*
X73600000Y51250000D01*
D10*
X19200000Y15600000D02*
X20800000Y15600000D01*
D10*
X20800000Y15600000D02*
X20800000Y16400000D01*
D10*
X20800000Y16400000D02*
X19200000Y16400000D01*
D10*
X19200000Y16400000D02*
X19200000Y15600000D01*
D10*
X29200000Y15600000D02*
X30800000Y15600000D01*
D10*
X30800000Y15600000D02*
X30800000Y16400000D01*
D10*
X30800000Y16400000D02*
X29200000Y16400000D01*
D10*
X29200000Y16400000D02*
X29200000Y15600000D01*
D10*
X19200000Y27600000D02*
X20800000Y27600000D01*
D10*
X20800000Y27600000D02*
X20800000Y28400000D01*
D10*
X20800000Y28400000D02*
X19200000Y28400000D01*
D10*
X19200000Y28400000D02*
X19200000Y27600000D01*
D10*
X29200000Y27600000D02*
X30800000Y27600000D01*
D10*
X30800000Y27600000D02*
X30800000Y28400000D01*
D10*
X30800000Y28400000D02*
X29200000Y28400000D01*
D10*
X29200000Y28400000D02*
X29200000Y27600000D01*
D10*
X109200000Y15600000D02*
X110800000Y15600000D01*
D10*
X110800000Y15600000D02*
X110800000Y16400000D01*
D10*
X110800000Y16400000D02*
X109200000Y16400000D01*
D10*
X109200000Y16400000D02*
X109200000Y15600000D01*
D10*
X119200000Y27600000D02*
X120800000Y27600000D01*
D10*
X120800000Y27600000D02*
X120800000Y28400000D01*
D10*
X120800000Y28400000D02*
X119200000Y28400000D01*
D10*
X119200000Y28400000D02*
X119200000Y27600000D01*
D10*
X48600000Y94250000D02*
X51400000Y94250000D01*
D10*
X51400000Y94250000D02*
X51400000Y95750000D01*
D10*
X51400000Y95750000D02*
X48600000Y95750000D01*
D10*
X48600000Y95750000D02*
X48600000Y94250000D01*
D10*
X58600000Y94250000D02*
X61400000Y94250000D01*
D10*
X61400000Y94250000D02*
X61400000Y95750000D01*
D10*
X61400000Y95750000D02*
X58600000Y95750000D01*
D10*
X58600000Y95750000D02*
X58600000Y94250000D01*
D10*
X48600000Y104250000D02*
X51400000Y104250000D01*
D10*
X51400000Y104250000D02*
X51400000Y105750000D01*
D10*
X51400000Y105750000D02*
X48600000Y105750000D01*
D10*
X48600000Y105750000D02*
X48600000Y104250000D01*
D10*
X58600000Y104250000D02*
X61400000Y104250000D01*
D10*
X61400000Y104250000D02*
X61400000Y105750000D01*
D10*
X61400000Y105750000D02*
X58600000Y105750000D01*
D10*
X58600000Y105750000D02*
X58600000Y104250000D01*
D10*
X18600000Y61250000D02*
X21400000Y61250000D01*
D10*
X21400000Y61250000D02*
X21400000Y62750000D01*
D10*
X21400000Y62750000D02*
X18600000Y62750000D01*
D10*
X18600000Y62750000D02*
X18600000Y61250000D01*
D10*
X28600000Y61250000D02*
X31400000Y61250000D01*
D10*
X31400000Y61250000D02*
X31400000Y62750000D01*
D10*
X31400000Y62750000D02*
X28600000Y62750000D01*
D10*
X28600000Y62750000D02*
X28600000Y61250000D01*
D10*
X18600000Y76250000D02*
X21400000Y76250000D01*
D10*
X21400000Y76250000D02*
X21400000Y77750000D01*
D10*
X21400000Y77750000D02*
X18600000Y77750000D01*
D10*
X18600000Y77750000D02*
X18600000Y76250000D01*
D10*
X28600000Y76250000D02*
X31400000Y76250000D01*
D10*
X31400000Y76250000D02*
X31400000Y77750000D01*
D10*
X31400000Y77750000D02*
X28600000Y77750000D01*
D10*
X28600000Y77750000D02*
X28600000Y76250000D01*
D10*
X33000000Y103000000D02*
X37000000Y103000000D01*
D10*
X37000000Y103000000D02*
X37000000Y105000000D01*
D10*
X37000000Y105000000D02*
X33000000Y105000000D01*
D10*
X33000000Y105000000D02*
X33000000Y103000000D01*
D10*
X43600000Y103250000D02*
X46400000Y103250000D01*
D10*
X46400000Y103250000D02*
X46400000Y104750000D01*
D10*
X46400000Y104750000D02*
X43600000Y104750000D01*
D10*
X43600000Y104750000D02*
X43600000Y103250000D01*
D10*
X68600000Y103250000D02*
X71400000Y103250000D01*
D10*
X71400000Y103250000D02*
X71400000Y104750000D01*
D10*
X71400000Y104750000D02*
X68600000Y104750000D01*
D10*
X68600000Y104750000D02*
X68600000Y103250000D01*
D10*
X78600000Y103250000D02*
X81400000Y103250000D01*
D10*
X81400000Y103250000D02*
X81400000Y104750000D01*
D10*
X81400000Y104750000D02*
X78600000Y104750000D01*
D10*
X78600000Y104750000D02*
X78600000Y103250000D01*
D10*
X93600000Y17250000D02*
X96400000Y17250000D01*
D10*
X96400000Y17250000D02*
X96400000Y18750000D01*
D10*
X96400000Y18750000D02*
X93600000Y18750000D01*
D10*
X93600000Y18750000D02*
X93600000Y17250000D01*
D10*
X103600000Y17250000D02*
X106400000Y17250000D01*
D10*
X106400000Y17250000D02*
X106400000Y18750000D01*
D10*
X106400000Y18750000D02*
X103600000Y18750000D01*
D10*
X103600000Y18750000D02*
X103600000Y17250000D01*
D10*
X48750000Y98600000D02*
X48750000Y101400000D01*
D10*
X48750000Y101400000D02*
X47250000Y101400000D01*
D10*
X47250000Y101400000D02*
X47250000Y98600000D01*
D10*
X47250000Y98600000D02*
X48750000Y98600000D01*
D10*
X62750000Y98600000D02*
X62750000Y101400000D01*
D10*
X62750000Y101400000D02*
X61250000Y101400000D01*
D10*
X61250000Y101400000D02*
X61250000Y98600000D01*
D10*
X61250000Y98600000D02*
X62750000Y98600000D01*
D10*
X65200000Y5600000D02*
X66800000Y5600000D01*
D10*
X66800000Y5600000D02*
X66800000Y6400000D01*
D10*
X66800000Y6400000D02*
X65200000Y6400000D01*
D10*
X65200000Y6400000D02*
X65200000Y5600000D01*
D10*
X73200000Y5600000D02*
X74800000Y5600000D01*
D10*
X74800000Y5600000D02*
X74800000Y6400000D01*
D10*
X74800000Y6400000D02*
X73200000Y6400000D01*
D10*
X73200000Y6400000D02*
X73200000Y5600000D01*
D10*
X35750000Y110600000D02*
X35750000Y113400000D01*
D10*
X35750000Y113400000D02*
X34250000Y113400000D01*
D10*
X34250000Y113400000D02*
X34250000Y110600000D01*
D10*
X34250000Y110600000D02*
X35750000Y110600000D01*
D10*
X45750000Y110600000D02*
X45750000Y113400000D01*
D10*
X45750000Y113400000D02*
X44250000Y113400000D01*
D10*
X44250000Y113400000D02*
X44250000Y110600000D01*
D10*
X44250000Y110600000D02*
X45750000Y110600000D01*
D10*
X51200000Y9600000D02*
X52800000Y9600000D01*
D10*
X52800000Y9600000D02*
X52800000Y10400000D01*
D10*
X52800000Y10400000D02*
X51200000Y10400000D01*
D10*
X51200000Y10400000D02*
X51200000Y9600000D01*
D10*
X24200000Y58600000D02*
X25800000Y58600000D01*
D10*
X25800000Y58600000D02*
X25800000Y59400000D01*
D10*
X25800000Y59400000D02*
X24200000Y59400000D01*
D10*
X24200000Y59400000D02*
X24200000Y58600000D01*
D10*
X24200000Y73600000D02*
X25800000Y73600000D01*
D10*
X25800000Y73600000D02*
X25800000Y74400000D01*
D10*
X25800000Y74400000D02*
X24200000Y74400000D01*
D10*
X24200000Y74400000D02*
X24200000Y73600000D01*
D10*
X54200000Y92600000D02*
X55800000Y92600000D01*
D10*
X55800000Y92600000D02*
X55800000Y93400000D01*
D10*
X55800000Y93400000D02*
X54200000Y93400000D01*
D10*
X54200000Y93400000D02*
X54200000Y92600000D01*
D10*
X54200000Y106600000D02*
X55800000Y106600000D01*
D10*
X55800000Y106600000D02*
X55800000Y107400000D01*
D10*
X55800000Y107400000D02*
X54200000Y107400000D01*
D10*
X54200000Y107400000D02*
X54200000Y106600000D01*
D10*
X68600000Y111250000D02*
X71400000Y111250000D01*
D10*
X71400000Y111250000D02*
X71400000Y112750000D01*
D10*
X71400000Y112750000D02*
X68600000Y112750000D01*
D10*
X68600000Y112750000D02*
X68600000Y111250000D01*
D10*
X78600000Y111250000D02*
X81400000Y111250000D01*
D10*
X81400000Y111250000D02*
X81400000Y112750000D01*
D10*
X81400000Y112750000D02*
X78600000Y112750000D01*
D10*
X78600000Y112750000D02*
X78600000Y111250000D01*
D10*
X128750000Y76600000D02*
X128750000Y79400000D01*
D10*
X128750000Y79400000D02*
X127250000Y79400000D01*
D10*
X127250000Y79400000D02*
X127250000Y76600000D01*
D10*
X127250000Y76600000D02*
X128750000Y76600000D01*
D10*
X17200000Y29600000D02*
X18800000Y29600000D01*
D10*
X18800000Y29600000D02*
X18800000Y30400000D01*
D10*
X18800000Y30400000D02*
X17200000Y30400000D01*
D10*
X17200000Y30400000D02*
X17200000Y29600000D01*
M02*
