%FSLAX46Y46*%
%MOMM*%
G04 Koe HUB v2 F.Mask*
%LPD*%
%ADD10R,0.300X0.800*%
%ADD11R,0.300X0.900*%
%ADD12R,0.900X0.300*%
%ADD13C,5.100*%
%ADD14R,0.350X0.900*%
%ADD15R,0.900X0.350*%
%ADD16C,4.100*%
%ADD17R,0.350X1.300*%
%ADD18R,1.300X0.350*%
%ADD19R,0.400X1.300*%
%ADD20C,1.600*%
%ADD21R,6.100X4.600*%
%ADD22R,1.600X2.600*%
%ADD23R,10.100X8.600*%
%ADD24R,0.900X1.600*%
%ADD25R,3.100X1.600*%
%ADD26R,0.700X1.300*%
%ADD27R,0.400X1.100*%
%ADD28R,0.600X1.100*%
%ADD29R,0.700X1.700*%
%ADD30C,1.100*%
%ADD31C,2.500*%
%ADD32R,0.350X1.100*%
%ADD33R,2.100X3.100*%
%ADD34C,2.600*%
%ADD35C,2.100*%
%ADD36C,3.100*%
%ADD37R,0.800X1.600*%
%ADD38R,1.600X2.100*%
%ADD39R,1.600X1.100*%
%ADD40R,1.100X0.900*%
%ADD41R,0.900X1.100*%
%ADD42R,1.100X1.700*%
%ADD43C,5.600*%
%ADD44R,2.100X2.600*%
%ADD45R,1.100X1.300*%
%ADD46R,0.660X0.720*%
%ADD47R,1.300X1.700*%
%ADD48R,1.300X1.100*%
%ADD49C,0.700*%
D10*
X60200000Y54150000D03*
D10*
X60200000Y55850000D03*
D10*
X60600000Y54150000D03*
D10*
X60600000Y55850000D03*
D10*
X61000000Y54150000D03*
D10*
X61000000Y55850000D03*
D10*
X61400000Y54150000D03*
D10*
X61400000Y55850000D03*
D10*
X61800000Y54150000D03*
D10*
X61800000Y55850000D03*
D10*
X62200000Y54150000D03*
D10*
X62200000Y55850000D03*
D10*
X62600000Y54150000D03*
D10*
X62600000Y55850000D03*
D10*
X63000000Y54150000D03*
D10*
X63000000Y55850000D03*
D10*
X63400000Y54150000D03*
D10*
X63400000Y55850000D03*
D10*
X63800000Y54150000D03*
D10*
X63800000Y55850000D03*
D10*
X64200000Y54150000D03*
D10*
X64200000Y55850000D03*
D10*
X64600000Y54150000D03*
D10*
X64600000Y55850000D03*
D10*
X65000000Y54150000D03*
D10*
X65000000Y55850000D03*
D10*
X65400000Y54150000D03*
D10*
X65400000Y55850000D03*
D10*
X65800000Y54150000D03*
D10*
X65800000Y55850000D03*
D10*
X66200000Y54150000D03*
D10*
X66200000Y55850000D03*
D10*
X66600000Y54150000D03*
D10*
X66600000Y55850000D03*
D10*
X67000000Y54150000D03*
D10*
X67000000Y55850000D03*
D10*
X67400000Y54150000D03*
D10*
X67400000Y55850000D03*
D10*
X67800000Y54150000D03*
D10*
X67800000Y55850000D03*
D10*
X68200000Y54150000D03*
D10*
X68200000Y55850000D03*
D10*
X68600000Y54150000D03*
D10*
X68600000Y55850000D03*
D10*
X69000000Y54150000D03*
D10*
X69000000Y55850000D03*
D10*
X69400000Y54150000D03*
D10*
X69400000Y55850000D03*
D10*
X69800000Y54150000D03*
D10*
X69800000Y55850000D03*
D10*
X70200000Y54150000D03*
D10*
X70200000Y55850000D03*
D10*
X70600000Y54150000D03*
D10*
X70600000Y55850000D03*
D10*
X71000000Y54150000D03*
D10*
X71000000Y55850000D03*
D10*
X71400000Y54150000D03*
D10*
X71400000Y55850000D03*
D10*
X71800000Y54150000D03*
D10*
X71800000Y55850000D03*
D10*
X72200000Y54150000D03*
D10*
X72200000Y55850000D03*
D10*
X72600000Y54150000D03*
D10*
X72600000Y55850000D03*
D10*
X73000000Y54150000D03*
D10*
X73000000Y55850000D03*
D10*
X73400000Y54150000D03*
D10*
X73400000Y55850000D03*
D10*
X73800000Y54150000D03*
D10*
X73800000Y55850000D03*
D10*
X74200000Y54150000D03*
D10*
X74200000Y55850000D03*
D10*
X74600000Y54150000D03*
D10*
X74600000Y55850000D03*
D10*
X75000000Y54150000D03*
D10*
X75000000Y55850000D03*
D10*
X75400000Y54150000D03*
D10*
X75400000Y55850000D03*
D10*
X75800000Y54150000D03*
D10*
X75800000Y55850000D03*
D10*
X76200000Y54150000D03*
D10*
X76200000Y55850000D03*
D10*
X76600000Y54150000D03*
D10*
X76600000Y55850000D03*
D10*
X77000000Y54150000D03*
D10*
X77000000Y55850000D03*
D10*
X77400000Y54150000D03*
D10*
X77400000Y55850000D03*
D10*
X77800000Y54150000D03*
D10*
X77800000Y55850000D03*
D10*
X78200000Y54150000D03*
D10*
X78200000Y55850000D03*
D10*
X78600000Y54150000D03*
D10*
X78600000Y55850000D03*
D10*
X79000000Y54150000D03*
D10*
X79000000Y55850000D03*
D10*
X79400000Y54150000D03*
D10*
X79400000Y55850000D03*
D10*
X79800000Y54150000D03*
D10*
X79800000Y55850000D03*
D10*
X60200000Y61150000D03*
D10*
X60200000Y62850000D03*
D10*
X60600000Y61150000D03*
D10*
X60600000Y62850000D03*
D10*
X61000000Y61150000D03*
D10*
X61000000Y62850000D03*
D10*
X61400000Y61150000D03*
D10*
X61400000Y62850000D03*
D10*
X61800000Y61150000D03*
D10*
X61800000Y62850000D03*
D10*
X62200000Y61150000D03*
D10*
X62200000Y62850000D03*
D10*
X62600000Y61150000D03*
D10*
X62600000Y62850000D03*
D10*
X63000000Y61150000D03*
D10*
X63000000Y62850000D03*
D10*
X63400000Y61150000D03*
D10*
X63400000Y62850000D03*
D10*
X63800000Y61150000D03*
D10*
X63800000Y62850000D03*
D10*
X64200000Y61150000D03*
D10*
X64200000Y62850000D03*
D10*
X64600000Y61150000D03*
D10*
X64600000Y62850000D03*
D10*
X65000000Y61150000D03*
D10*
X65000000Y62850000D03*
D10*
X65400000Y61150000D03*
D10*
X65400000Y62850000D03*
D10*
X65800000Y61150000D03*
D10*
X65800000Y62850000D03*
D10*
X66200000Y61150000D03*
D10*
X66200000Y62850000D03*
D10*
X66600000Y61150000D03*
D10*
X66600000Y62850000D03*
D10*
X67000000Y61150000D03*
D10*
X67000000Y62850000D03*
D10*
X67400000Y61150000D03*
D10*
X67400000Y62850000D03*
D10*
X67800000Y61150000D03*
D10*
X67800000Y62850000D03*
D10*
X68200000Y61150000D03*
D10*
X68200000Y62850000D03*
D10*
X68600000Y61150000D03*
D10*
X68600000Y62850000D03*
D10*
X69000000Y61150000D03*
D10*
X69000000Y62850000D03*
D10*
X69400000Y61150000D03*
D10*
X69400000Y62850000D03*
D10*
X69800000Y61150000D03*
D10*
X69800000Y62850000D03*
D10*
X70200000Y61150000D03*
D10*
X70200000Y62850000D03*
D10*
X70600000Y61150000D03*
D10*
X70600000Y62850000D03*
D10*
X71000000Y61150000D03*
D10*
X71000000Y62850000D03*
D10*
X71400000Y61150000D03*
D10*
X71400000Y62850000D03*
D10*
X71800000Y61150000D03*
D10*
X71800000Y62850000D03*
D10*
X72200000Y61150000D03*
D10*
X72200000Y62850000D03*
D10*
X72600000Y61150000D03*
D10*
X72600000Y62850000D03*
D10*
X73000000Y61150000D03*
D10*
X73000000Y62850000D03*
D10*
X73400000Y61150000D03*
D10*
X73400000Y62850000D03*
D10*
X73800000Y61150000D03*
D10*
X73800000Y62850000D03*
D10*
X74200000Y61150000D03*
D10*
X74200000Y62850000D03*
D10*
X74600000Y61150000D03*
D10*
X74600000Y62850000D03*
D10*
X75000000Y61150000D03*
D10*
X75000000Y62850000D03*
D10*
X75400000Y61150000D03*
D10*
X75400000Y62850000D03*
D10*
X75800000Y61150000D03*
D10*
X75800000Y62850000D03*
D10*
X76200000Y61150000D03*
D10*
X76200000Y62850000D03*
D10*
X76600000Y61150000D03*
D10*
X76600000Y62850000D03*
D10*
X77000000Y61150000D03*
D10*
X77000000Y62850000D03*
D10*
X77400000Y61150000D03*
D10*
X77400000Y62850000D03*
D10*
X77800000Y61150000D03*
D10*
X77800000Y62850000D03*
D10*
X78200000Y61150000D03*
D10*
X78200000Y62850000D03*
D10*
X78600000Y61150000D03*
D10*
X78600000Y62850000D03*
D10*
X79000000Y61150000D03*
D10*
X79000000Y62850000D03*
D10*
X79400000Y61150000D03*
D10*
X79400000Y62850000D03*
D10*
X79800000Y61150000D03*
D10*
X79800000Y62850000D03*
D11*
X21500000Y15400000D03*
D11*
X21500000Y15800000D03*
D11*
X21500000Y16200000D03*
D11*
X21500000Y16600000D03*
D11*
X21500000Y17000000D03*
D11*
X21500000Y17400000D03*
D11*
X21500000Y17800000D03*
D11*
X21500000Y18200000D03*
D11*
X21500000Y18600000D03*
D11*
X21500000Y19000000D03*
D11*
X21500000Y19400000D03*
D11*
X21500000Y19800000D03*
D11*
X21500000Y20200000D03*
D11*
X21500000Y20600000D03*
D11*
X21500000Y21000000D03*
D11*
X21500000Y21400000D03*
D11*
X21500000Y21800000D03*
D11*
X21500000Y22200000D03*
D11*
X21500000Y22600000D03*
D11*
X21500000Y23000000D03*
D11*
X21500000Y23400000D03*
D11*
X21500000Y23800000D03*
D11*
X21500000Y24200000D03*
D11*
X21500000Y24600000D03*
D12*
X20400000Y23500000D03*
D12*
X20800000Y23500000D03*
D12*
X21200000Y23500000D03*
D12*
X21600000Y23500000D03*
D12*
X22000000Y23500000D03*
D12*
X22400000Y23500000D03*
D12*
X22800000Y23500000D03*
D12*
X23200000Y23500000D03*
D12*
X23600000Y23500000D03*
D12*
X24000000Y23500000D03*
D12*
X24400000Y23500000D03*
D12*
X24800000Y23500000D03*
D12*
X25200000Y23500000D03*
D12*
X25600000Y23500000D03*
D12*
X26000000Y23500000D03*
D12*
X26400000Y23500000D03*
D12*
X26800000Y23500000D03*
D12*
X27200000Y23500000D03*
D12*
X27600000Y23500000D03*
D12*
X28000000Y23500000D03*
D12*
X28400000Y23500000D03*
D12*
X28800000Y23500000D03*
D12*
X29200000Y23500000D03*
D12*
X29600000Y23500000D03*
D11*
X28500000Y24600000D03*
D11*
X28500000Y24200000D03*
D11*
X28500000Y23800000D03*
D11*
X28500000Y23400000D03*
D11*
X28500000Y23000000D03*
D11*
X28500000Y22600000D03*
D11*
X28500000Y22200000D03*
D11*
X28500000Y21800000D03*
D11*
X28500000Y21400000D03*
D11*
X28500000Y21000000D03*
D11*
X28500000Y20600000D03*
D11*
X28500000Y20200000D03*
D11*
X28500000Y19800000D03*
D11*
X28500000Y19400000D03*
D11*
X28500000Y19000000D03*
D11*
X28500000Y18600000D03*
D11*
X28500000Y18200000D03*
D11*
X28500000Y17800000D03*
D11*
X28500000Y17400000D03*
D11*
X28500000Y17000000D03*
D11*
X28500000Y16600000D03*
D11*
X28500000Y16200000D03*
D11*
X28500000Y15800000D03*
D11*
X28500000Y15400000D03*
D12*
X29200000Y16500000D03*
D12*
X28800000Y16500000D03*
D12*
X28400000Y16500000D03*
D12*
X28000000Y16500000D03*
D12*
X27600000Y16500000D03*
D12*
X27200000Y16500000D03*
D12*
X26800000Y16500000D03*
D12*
X26400000Y16500000D03*
D12*
X26000000Y16500000D03*
D12*
X25600000Y16500000D03*
D12*
X25200000Y16500000D03*
D12*
X24800000Y16500000D03*
D12*
X24400000Y16500000D03*
D12*
X24000000Y16500000D03*
D12*
X23600000Y16500000D03*
D12*
X23200000Y16500000D03*
D12*
X22800000Y16500000D03*
D12*
X22400000Y16500000D03*
D12*
X22000000Y16500000D03*
D12*
X21600000Y16500000D03*
D12*
X21200000Y16500000D03*
D12*
X20800000Y16500000D03*
D13*
X25000000Y20000000D03*
D14*
X111750000Y17250000D03*
D14*
X111750000Y17750000D03*
D14*
X111750000Y18250000D03*
D14*
X111750000Y18750000D03*
D14*
X111750000Y19250000D03*
D14*
X111750000Y19750000D03*
D14*
X111750000Y20250000D03*
D14*
X111750000Y20750000D03*
D14*
X111750000Y21250000D03*
D14*
X111750000Y21750000D03*
D14*
X111750000Y22250000D03*
D14*
X111750000Y22750000D03*
D15*
X112250000Y23250000D03*
D15*
X112750000Y23250000D03*
D15*
X113250000Y23250000D03*
D15*
X113750000Y23250000D03*
D15*
X114250000Y23250000D03*
D15*
X114750000Y23250000D03*
D15*
X115250000Y23250000D03*
D15*
X115750000Y23250000D03*
D15*
X116250000Y23250000D03*
D15*
X116750000Y23250000D03*
D15*
X117250000Y23250000D03*
D15*
X117750000Y23250000D03*
D14*
X118250000Y22750000D03*
D14*
X118250000Y22250000D03*
D14*
X118250000Y21750000D03*
D14*
X118250000Y21250000D03*
D14*
X118250000Y20750000D03*
D14*
X118250000Y20250000D03*
D14*
X118250000Y19750000D03*
D14*
X118250000Y19250000D03*
D14*
X118250000Y18750000D03*
D14*
X118250000Y18250000D03*
D14*
X118250000Y17750000D03*
D14*
X118250000Y17250000D03*
D15*
X117750000Y16750000D03*
D15*
X117250000Y16750000D03*
D15*
X116750000Y16750000D03*
D15*
X116250000Y16750000D03*
D15*
X115750000Y16750000D03*
D15*
X115250000Y16750000D03*
D15*
X114750000Y16750000D03*
D15*
X114250000Y16750000D03*
D15*
X113750000Y16750000D03*
D15*
X113250000Y16750000D03*
D15*
X112750000Y16750000D03*
D15*
X112250000Y16750000D03*
D16*
X115000000Y20000000D03*
D17*
X49700000Y97250000D03*
D17*
X49700000Y97750000D03*
D17*
X49700000Y98250000D03*
D17*
X49700000Y98750000D03*
D17*
X49700000Y99250000D03*
D17*
X49700000Y99750000D03*
D17*
X49700000Y100250000D03*
D17*
X49700000Y100750000D03*
D17*
X49700000Y101250000D03*
D17*
X49700000Y101750000D03*
D17*
X49700000Y102250000D03*
D17*
X49700000Y102750000D03*
D18*
X52250000Y105300000D03*
D18*
X52750000Y105300000D03*
D18*
X53250000Y105300000D03*
D18*
X53750000Y105300000D03*
D18*
X54250000Y105300000D03*
D18*
X54750000Y105300000D03*
D18*
X55250000Y105300000D03*
D18*
X55750000Y105300000D03*
D18*
X56250000Y105300000D03*
D18*
X56750000Y105300000D03*
D18*
X57250000Y105300000D03*
D18*
X57750000Y105300000D03*
D17*
X60300000Y102750000D03*
D17*
X60300000Y102250000D03*
D17*
X60300000Y101750000D03*
D17*
X60300000Y101250000D03*
D17*
X60300000Y100750000D03*
D17*
X60300000Y100250000D03*
D17*
X60300000Y99750000D03*
D17*
X60300000Y99250000D03*
D17*
X60300000Y98750000D03*
D17*
X60300000Y98250000D03*
D17*
X60300000Y97750000D03*
D17*
X60300000Y97250000D03*
D18*
X57750000Y94700000D03*
D18*
X57250000Y94700000D03*
D18*
X56750000Y94700000D03*
D18*
X56250000Y94700000D03*
D18*
X55750000Y94700000D03*
D18*
X55250000Y94700000D03*
D18*
X54750000Y94700000D03*
D18*
X54250000Y94700000D03*
D18*
X53750000Y94700000D03*
D18*
X53250000Y94700000D03*
D18*
X52750000Y94700000D03*
D18*
X52250000Y94700000D03*
D19*
X21250000Y62075000D03*
D19*
X21250000Y62725000D03*
D19*
X21250000Y63375000D03*
D19*
X21250000Y64025000D03*
D19*
X21250000Y64675000D03*
D19*
X21250000Y65325000D03*
D19*
X21250000Y65975000D03*
D19*
X21250000Y66625000D03*
D19*
X21250000Y67275000D03*
D19*
X21250000Y67925000D03*
D19*
X28750000Y62075000D03*
D19*
X28750000Y62725000D03*
D19*
X28750000Y63375000D03*
D19*
X28750000Y64025000D03*
D19*
X28750000Y64675000D03*
D19*
X28750000Y65325000D03*
D19*
X28750000Y65975000D03*
D19*
X28750000Y66625000D03*
D19*
X28750000Y67275000D03*
D19*
X28750000Y67925000D03*
D19*
X21250000Y77075000D03*
D19*
X21250000Y77725000D03*
D19*
X21250000Y78375000D03*
D19*
X21250000Y79025000D03*
D19*
X21250000Y79675000D03*
D19*
X21250000Y80325000D03*
D19*
X21250000Y80975000D03*
D19*
X21250000Y81625000D03*
D19*
X21250000Y82275000D03*
D19*
X21250000Y82925000D03*
D19*
X28750000Y77075000D03*
D19*
X28750000Y77725000D03*
D19*
X28750000Y78375000D03*
D19*
X28750000Y79025000D03*
D19*
X28750000Y79675000D03*
D19*
X28750000Y80325000D03*
D19*
X28750000Y80975000D03*
D19*
X28750000Y81625000D03*
D19*
X28750000Y82275000D03*
D19*
X28750000Y82925000D03*
D20*
X71190000Y104825000D03*
D20*
X73730000Y104825000D03*
D20*
X76270000Y104825000D03*
D20*
X78810000Y104825000D03*
D20*
X78810000Y111175000D03*
D20*
X76270000Y111175000D03*
D20*
X73730000Y111175000D03*
D20*
X71190000Y111175000D03*
D19*
X34650000Y103125000D03*
D19*
X34650000Y103775000D03*
D19*
X34650000Y104425000D03*
D19*
X34650000Y105075000D03*
D19*
X34650000Y105725000D03*
D19*
X34650000Y106375000D03*
D19*
X34650000Y107025000D03*
D19*
X34650000Y107675000D03*
D19*
X34650000Y108325000D03*
D19*
X34650000Y108975000D03*
D19*
X34650000Y109625000D03*
D19*
X34650000Y110275000D03*
D19*
X34650000Y110925000D03*
D19*
X34650000Y111575000D03*
D19*
X34650000Y112225000D03*
D19*
X34650000Y112875000D03*
D19*
X45350000Y103125000D03*
D19*
X45350000Y103775000D03*
D19*
X45350000Y104425000D03*
D19*
X45350000Y105075000D03*
D19*
X45350000Y105725000D03*
D19*
X45350000Y106375000D03*
D19*
X45350000Y107025000D03*
D19*
X45350000Y107675000D03*
D19*
X45350000Y108325000D03*
D19*
X45350000Y108975000D03*
D19*
X45350000Y109625000D03*
D19*
X45350000Y110275000D03*
D19*
X45350000Y110925000D03*
D19*
X45350000Y111575000D03*
D19*
X45350000Y112225000D03*
D19*
X45350000Y112875000D03*
D21*
X40000000Y108000000D03*
D22*
X116600000Y10000000D03*
D22*
X118300000Y10000000D03*
D22*
X120000000Y10000000D03*
D22*
X121700000Y10000000D03*
D22*
X123400000Y10000000D03*
D23*
X120000000Y18000000D03*
D24*
X97700000Y18250000D03*
D24*
X100000000Y18250000D03*
D24*
X102300000Y18250000D03*
D25*
X100000000Y11750000D03*
D26*
X67250000Y2000000D03*
D26*
X72750000Y2000000D03*
D27*
X69750000Y2000000D03*
D27*
X70250000Y2000000D03*
D27*
X68250000Y2000000D03*
D27*
X71750000Y2000000D03*
D28*
X66500000Y2000000D03*
D28*
X73500000Y2000000D03*
D29*
X65850000Y3500000D03*
D29*
X74150000Y3500000D03*
D30*
X45555000Y1000000D03*
D30*
X46825000Y1000000D03*
D30*
X48095000Y1000000D03*
D30*
X49365000Y1000000D03*
D30*
X50635000Y1000000D03*
D30*
X51905000Y1000000D03*
D30*
X53175000Y1000000D03*
D30*
X54445000Y1000000D03*
D31*
X42130000Y7000000D03*
D31*
X57870000Y7000000D03*
D30*
X44000000Y1000000D03*
D30*
X56000000Y1000000D03*
D32*
X85500000Y500000D03*
D32*
X86000000Y500000D03*
D32*
X86500000Y500000D03*
D32*
X87000000Y500000D03*
D32*
X87500000Y500000D03*
D32*
X88000000Y500000D03*
D32*
X88500000Y500000D03*
D32*
X89000000Y500000D03*
D32*
X89500000Y500000D03*
D32*
X90000000Y500000D03*
D32*
X90500000Y500000D03*
D32*
X91000000Y500000D03*
D32*
X91500000Y500000D03*
D32*
X92000000Y500000D03*
D32*
X92500000Y500000D03*
D32*
X93000000Y500000D03*
D32*
X93500000Y500000D03*
D32*
X94000000Y500000D03*
D32*
X94500000Y500000D03*
D33*
X83000000Y3000000D03*
D33*
X97000000Y3000000D03*
D20*
X129500000Y47000000D03*
D20*
X134500000Y47000000D03*
D34*
X127000000Y53000000D03*
D34*
X137000000Y53000000D03*
D20*
X129500000Y62000000D03*
D20*
X134500000Y62000000D03*
D34*
X127000000Y68000000D03*
D34*
X137000000Y68000000D03*
D20*
X132000000Y82000000D03*
D35*
X129460000Y79460000D03*
D35*
X134540000Y79460000D03*
D35*
X129460000Y84540000D03*
D35*
X134540000Y84540000D03*
D27*
X85750000Y43500000D03*
D27*
X86250000Y43500000D03*
D27*
X86750000Y43500000D03*
D27*
X87250000Y43500000D03*
D27*
X87750000Y43500000D03*
D27*
X88250000Y43500000D03*
D27*
X88750000Y43500000D03*
D27*
X89250000Y43500000D03*
D27*
X89750000Y43500000D03*
D27*
X90250000Y43500000D03*
D27*
X90750000Y43500000D03*
D27*
X91250000Y43500000D03*
D27*
X91750000Y43500000D03*
D27*
X92250000Y43500000D03*
D27*
X92750000Y43500000D03*
D27*
X93250000Y43500000D03*
D27*
X93750000Y43500000D03*
D27*
X94250000Y43500000D03*
D27*
X94750000Y43500000D03*
D27*
X95250000Y43500000D03*
D27*
X95750000Y43500000D03*
D27*
X96250000Y43500000D03*
D27*
X96750000Y43500000D03*
D27*
X97250000Y43500000D03*
D27*
X97750000Y43500000D03*
D27*
X98250000Y43500000D03*
D27*
X98750000Y43500000D03*
D27*
X99250000Y43500000D03*
D27*
X99750000Y43500000D03*
D27*
X100250000Y43500000D03*
D27*
X100750000Y43500000D03*
D27*
X101250000Y43500000D03*
D27*
X101750000Y43500000D03*
D27*
X102250000Y43500000D03*
D27*
X102750000Y43500000D03*
D27*
X103250000Y43500000D03*
D27*
X103750000Y43500000D03*
D27*
X104250000Y43500000D03*
D27*
X86250000Y46500000D03*
D27*
X86750000Y46500000D03*
D27*
X87250000Y46500000D03*
D27*
X87750000Y46500000D03*
D27*
X88250000Y46500000D03*
D27*
X88750000Y46500000D03*
D27*
X89250000Y46500000D03*
D27*
X89750000Y46500000D03*
D27*
X90250000Y46500000D03*
D27*
X90750000Y46500000D03*
D27*
X91250000Y46500000D03*
D27*
X91750000Y46500000D03*
D27*
X92250000Y46500000D03*
D27*
X92750000Y46500000D03*
D27*
X93250000Y46500000D03*
D27*
X93750000Y46500000D03*
D27*
X94250000Y46500000D03*
D27*
X94750000Y46500000D03*
D27*
X95250000Y46500000D03*
D27*
X95750000Y46500000D03*
D27*
X96250000Y46500000D03*
D27*
X96750000Y46500000D03*
D27*
X97250000Y46500000D03*
D27*
X97750000Y46500000D03*
D27*
X98250000Y46500000D03*
D27*
X98750000Y46500000D03*
D27*
X99250000Y46500000D03*
D27*
X99750000Y46500000D03*
D27*
X100250000Y46500000D03*
D27*
X100750000Y46500000D03*
D27*
X101250000Y46500000D03*
D27*
X101750000Y46500000D03*
D27*
X102250000Y46500000D03*
D27*
X102750000Y46500000D03*
D27*
X103250000Y46500000D03*
D27*
X103750000Y46500000D03*
D27*
X104250000Y46500000D03*
D34*
X84000000Y45000000D03*
D34*
X106000000Y45000000D03*
D35*
X6000000Y31000000D03*
D35*
X14000000Y31000000D03*
D35*
X10000000Y40000000D03*
D36*
X3000000Y35000000D03*
D36*
X17000000Y35000000D03*
D35*
X6000000Y48000000D03*
D35*
X14000000Y48000000D03*
D35*
X10000000Y57000000D03*
D36*
X3000000Y52000000D03*
D36*
X17000000Y52000000D03*
D35*
X6000000Y65000000D03*
D35*
X14000000Y65000000D03*
D35*
X10000000Y74000000D03*
D36*
X3000000Y69000000D03*
D36*
X17000000Y69000000D03*
D35*
X6000000Y82000000D03*
D35*
X14000000Y82000000D03*
D35*
X10000000Y91000000D03*
D36*
X3000000Y86000000D03*
D36*
X17000000Y86000000D03*
D35*
X6000000Y103000000D03*
D35*
X10000000Y103000000D03*
D35*
X14000000Y103000000D03*
D35*
X6000000Y113000000D03*
D35*
X14000000Y113000000D03*
D36*
X1000000Y108000000D03*
D36*
X19000000Y108000000D03*
D35*
X31000000Y103000000D03*
D35*
X35000000Y103000000D03*
D35*
X39000000Y103000000D03*
D35*
X31000000Y113000000D03*
D35*
X39000000Y113000000D03*
D36*
X26000000Y108000000D03*
D36*
X44000000Y108000000D03*
D34*
X95000000Y103000000D03*
D34*
X105000000Y103000000D03*
D34*
X95000000Y113000000D03*
D34*
X105000000Y113000000D03*
D36*
X90000000Y108000000D03*
D36*
X110000000Y108000000D03*
D34*
X120000000Y103000000D03*
D34*
X130000000Y103000000D03*
D34*
X120000000Y113000000D03*
D34*
X130000000Y113000000D03*
D36*
X115000000Y108000000D03*
D36*
X135000000Y108000000D03*
D35*
X81000000Y109000000D03*
D35*
X89000000Y109000000D03*
D35*
X85000000Y118000000D03*
D36*
X78000000Y113000000D03*
D36*
X92000000Y113000000D03*
D37*
X29500000Y2000000D03*
D37*
X30700000Y2000000D03*
D37*
X31900000Y2000000D03*
D37*
X33100000Y2000000D03*
D37*
X34300000Y2000000D03*
D37*
X35500000Y2000000D03*
D37*
X36700000Y2000000D03*
D37*
X37900000Y2000000D03*
D37*
X39100000Y2000000D03*
D38*
X27500000Y6000000D03*
D38*
X42500000Y6000000D03*
D20*
X133000000Y15000000D03*
D35*
X130460000Y15000000D03*
D35*
X135540000Y15000000D03*
D39*
X12000000Y10000000D03*
D39*
X18000000Y10000000D03*
D40*
X16900000Y24200000D03*
D40*
X19100000Y24200000D03*
D40*
X19100000Y25800000D03*
D40*
X16900000Y25800000D03*
D41*
X31250000Y25000000D03*
D41*
X32750000Y25000000D03*
D30*
X52550000Y8400000D03*
D30*
X57450000Y8400000D03*
D30*
X57450000Y11600000D03*
D30*
X52550000Y11600000D03*
D30*
X57550000Y8400000D03*
D30*
X62450000Y8400000D03*
D30*
X62450000Y11600000D03*
D30*
X57550000Y11600000D03*
D30*
X62550000Y8400000D03*
D30*
X67450000Y8400000D03*
D30*
X67450000Y11600000D03*
D30*
X62550000Y11600000D03*
D30*
X67550000Y8400000D03*
D30*
X72450000Y8400000D03*
D30*
X72450000Y11600000D03*
D30*
X67550000Y11600000D03*
D30*
X72550000Y8400000D03*
D30*
X77450000Y8400000D03*
D30*
X77450000Y11600000D03*
D30*
X72550000Y11600000D03*
D30*
X77550000Y8400000D03*
D30*
X82450000Y8400000D03*
D30*
X82450000Y11600000D03*
D30*
X77550000Y11600000D03*
D42*
X111190000Y33000000D03*
D42*
X113730000Y33000000D03*
D42*
X116270000Y33000000D03*
D42*
X118810000Y33000000D03*
D42*
X118810000Y37000000D03*
D42*
X116270000Y37000000D03*
D42*
X113730000Y37000000D03*
D42*
X111190000Y37000000D03*
D39*
X126750000Y35000000D03*
D39*
X133250000Y35000000D03*
D43*
X4000000Y4000000D03*
D43*
X136000000Y4000000D03*
D43*
X4000000Y116000000D03*
D43*
X136000000Y116000000D03*
D44*
X113000000Y25000000D03*
D44*
X117000000Y25000000D03*
D36*
X103500000Y25000000D03*
D36*
X112500000Y25000000D03*
D35*
X126500000Y25000000D03*
D35*
X129500000Y25000000D03*
D35*
X96500000Y25000000D03*
D35*
X99500000Y25000000D03*
D45*
X64050000Y52000000D03*
D45*
X65950000Y52000000D03*
D45*
X74050000Y52000000D03*
D45*
X75950000Y52000000D03*
D46*
X19520000Y16000000D03*
D46*
X20480000Y16000000D03*
D46*
X29520000Y16000000D03*
D46*
X30480000Y16000000D03*
D46*
X19520000Y28000000D03*
D46*
X20480000Y28000000D03*
D46*
X29520000Y28000000D03*
D46*
X30480000Y28000000D03*
D46*
X109520000Y16000000D03*
D46*
X110480000Y16000000D03*
D46*
X119520000Y28000000D03*
D46*
X120480000Y28000000D03*
D45*
X49050000Y95000000D03*
D45*
X50950000Y95000000D03*
D45*
X59050000Y95000000D03*
D45*
X60950000Y95000000D03*
D45*
X49050000Y105000000D03*
D45*
X50950000Y105000000D03*
D45*
X59050000Y105000000D03*
D45*
X60950000Y105000000D03*
D45*
X19050000Y62000000D03*
D45*
X20950000Y62000000D03*
D45*
X29050000Y62000000D03*
D45*
X30950000Y62000000D03*
D45*
X19050000Y77000000D03*
D45*
X20950000Y77000000D03*
D45*
X29050000Y77000000D03*
D45*
X30950000Y77000000D03*
D47*
X33600000Y104000000D03*
D47*
X36400000Y104000000D03*
D45*
X44050000Y104000000D03*
D45*
X45950000Y104000000D03*
D45*
X69050000Y104000000D03*
D45*
X70950000Y104000000D03*
D45*
X79050000Y104000000D03*
D45*
X80950000Y104000000D03*
D45*
X94050000Y18000000D03*
D45*
X95950000Y18000000D03*
D45*
X104050000Y18000000D03*
D45*
X105950000Y18000000D03*
D48*
X48000000Y99050000D03*
D48*
X48000000Y100950000D03*
D48*
X62000000Y99050000D03*
D48*
X62000000Y100950000D03*
D46*
X65520000Y6000000D03*
D46*
X66480000Y6000000D03*
D46*
X73520000Y6000000D03*
D46*
X74480000Y6000000D03*
D48*
X35000000Y111050000D03*
D48*
X35000000Y112950000D03*
D48*
X45000000Y111050000D03*
D48*
X45000000Y112950000D03*
D46*
X51520000Y10000000D03*
D46*
X52480000Y10000000D03*
D46*
X24520000Y59000000D03*
D46*
X25480000Y59000000D03*
D46*
X24520000Y74000000D03*
D46*
X25480000Y74000000D03*
D46*
X54520000Y93000000D03*
D46*
X55480000Y93000000D03*
D46*
X54520000Y107000000D03*
D46*
X55480000Y107000000D03*
D45*
X69050000Y112000000D03*
D45*
X70950000Y112000000D03*
D45*
X79050000Y112000000D03*
D45*
X80950000Y112000000D03*
D48*
X128000000Y77050000D03*
D48*
X128000000Y78950000D03*
D46*
X17520000Y30000000D03*
D46*
X18480000Y30000000D03*
D49*
X10000000Y10000000D03*
D49*
X30000000Y10000000D03*
D49*
X50000000Y10000000D03*
D49*
X70000000Y10000000D03*
D49*
X90000000Y10000000D03*
D49*
X110000000Y10000000D03*
D49*
X130000000Y10000000D03*
D49*
X10000000Y30000000D03*
D49*
X30000000Y30000000D03*
D49*
X50000000Y30000000D03*
D49*
X70000000Y30000000D03*
D49*
X90000000Y30000000D03*
D49*
X110000000Y30000000D03*
D49*
X130000000Y30000000D03*
D49*
X10000000Y50000000D03*
D49*
X30000000Y50000000D03*
D49*
X50000000Y50000000D03*
D49*
X70000000Y50000000D03*
D49*
X90000000Y50000000D03*
D49*
X110000000Y50000000D03*
D49*
X130000000Y50000000D03*
D49*
X10000000Y70000000D03*
D49*
X30000000Y70000000D03*
D49*
X50000000Y70000000D03*
D49*
X70000000Y70000000D03*
D49*
X90000000Y70000000D03*
D49*
X110000000Y70000000D03*
D49*
X130000000Y70000000D03*
D49*
X10000000Y90000000D03*
D49*
X30000000Y90000000D03*
D49*
X50000000Y90000000D03*
D49*
X70000000Y90000000D03*
D49*
X90000000Y90000000D03*
D49*
X110000000Y90000000D03*
D49*
X130000000Y90000000D03*
D49*
X10000000Y110000000D03*
D49*
X30000000Y110000000D03*
D49*
X50000000Y110000000D03*
D49*
X70000000Y110000000D03*
D49*
X90000000Y110000000D03*
D49*
X110000000Y110000000D03*
D49*
X130000000Y110000000D03*
D49*
X20000000Y20000000D03*
D49*
X40000000Y20000000D03*
D49*
X60000000Y20000000D03*
D49*
X80000000Y20000000D03*
D49*
X100000000Y20000000D03*
D49*
X120000000Y20000000D03*
D49*
X20000000Y40000000D03*
D49*
X40000000Y40000000D03*
D49*
X60000000Y40000000D03*
D49*
X80000000Y40000000D03*
D49*
X100000000Y40000000D03*
D49*
X120000000Y40000000D03*
D49*
X20000000Y60000000D03*
D49*
X40000000Y60000000D03*
D49*
X60000000Y60000000D03*
D49*
X80000000Y60000000D03*
D49*
X100000000Y60000000D03*
D49*
X120000000Y60000000D03*
D49*
X20000000Y80000000D03*
D49*
X40000000Y80000000D03*
D49*
X60000000Y80000000D03*
D49*
X80000000Y80000000D03*
D49*
X100000000Y80000000D03*
D49*
X120000000Y80000000D03*
D49*
X20000000Y100000000D03*
D49*
X40000000Y100000000D03*
D49*
X60000000Y100000000D03*
D49*
X80000000Y100000000D03*
D49*
X100000000Y100000000D03*
D49*
X120000000Y100000000D03*
D49*
X38000000Y108000000D03*
D49*
X40000000Y111000000D03*
D49*
X42000000Y108000000D03*
D49*
X40000000Y105000000D03*
D49*
X113000000Y20000000D03*
D49*
X115000000Y23000000D03*
D49*
X117000000Y20000000D03*
D49*
X115000000Y17000000D03*
D49*
X23000000Y20000000D03*
D49*
X25000000Y23000000D03*
D49*
X27000000Y20000000D03*
D49*
X25000000Y17000000D03*
D49*
X53000000Y100000000D03*
D49*
X55000000Y103000000D03*
D49*
X57000000Y100000000D03*
D49*
X55000000Y97000000D03*
D49*
X50000000Y98000000D03*
D49*
X60000000Y98000000D03*
D49*
X50000000Y102000000D03*
D49*
X60000000Y102000000D03*
M02*
