M48
; Koe HUB v2 140x120mm Pi CM5 Pro Audio Carrier
FMAT,2
METRIC,TZ
T1C0.300
T2C4.300
T3C1.200
T4C0.800
T5C0.900
%
T1
X10.000Y10.000
X30.000Y10.000
X50.000Y10.000
X70.000Y10.000
X90.000Y10.000
X110.000Y10.000
X130.000Y10.000
X10.000Y30.000
X30.000Y30.000
X50.000Y30.000
X70.000Y30.000
X90.000Y30.000
X110.000Y30.000
X130.000Y30.000
X10.000Y50.000
X30.000Y50.000
X50.000Y50.000
X70.000Y50.000
X90.000Y50.000
X110.000Y50.000
X130.000Y50.000
X10.000Y70.000
X30.000Y70.000
X50.000Y70.000
X70.000Y70.000
X90.000Y70.000
X110.000Y70.000
X130.000Y70.000
X10.000Y90.000
X30.000Y90.000
X50.000Y90.000
X70.000Y90.000
X90.000Y90.000
X110.000Y90.000
X130.000Y90.000
X10.000Y110.000
X30.000Y110.000
X50.000Y110.000
X70.000Y110.000
X90.000Y110.000
X110.000Y110.000
X130.000Y110.000
X20.000Y20.000
X40.000Y20.000
X60.000Y20.000
X80.000Y20.000
X100.000Y20.000
X120.000Y20.000
X20.000Y40.000
X40.000Y40.000
X60.000Y40.000
X80.000Y40.000
X100.000Y40.000
X120.000Y40.000
X20.000Y60.000
X40.000Y60.000
X60.000Y60.000
X80.000Y60.000
X100.000Y60.000
X120.000Y60.000
X20.000Y80.000
X40.000Y80.000
X60.000Y80.000
X80.000Y80.000
X100.000Y80.000
X120.000Y80.000
X20.000Y100.000
X40.000Y100.000
X60.000Y100.000
X80.000Y100.000
X100.000Y100.000
X120.000Y100.000
X38.000Y108.000
X40.000Y111.000
X42.000Y108.000
X40.000Y105.000
X113.000Y20.000
X115.000Y23.000
X117.000Y20.000
X115.000Y17.000
X23.000Y20.000
X25.000Y23.000
X27.000Y20.000
X25.000Y17.000
X53.000Y100.000
X55.000Y103.000
X57.000Y100.000
X55.000Y97.000
X50.000Y98.000
X60.000Y98.000
X50.000Y102.000
X60.000Y102.000
T2
X4.000Y4.000
X136.000Y4.000
X4.000Y116.000
X136.000Y116.000
T3
X45.555Y1.000
X46.825Y1.000
X48.095Y1.000
X49.365Y1.000
X50.635Y1.000
X51.905Y1.000
X53.175Y1.000
X54.445Y1.000
X42.130Y7.000
X57.870Y7.000
X44.000Y1.000
X56.000Y1.000
X6.000Y31.000
X14.000Y31.000
X10.000Y40.000
X3.000Y35.000
X17.000Y35.000
X6.000Y48.000
X14.000Y48.000
X10.000Y57.000
X3.000Y52.000
X17.000Y52.000
X6.000Y65.000
X14.000Y65.000
X10.000Y74.000
X3.000Y69.000
X17.000Y69.000
X6.000Y82.000
X14.000Y82.000
X10.000Y91.000
X3.000Y86.000
X17.000Y86.000
X6.000Y103.000
X10.000Y103.000
X14.000Y103.000
X6.000Y113.000
X14.000Y113.000
X1.000Y108.000
X19.000Y108.000
X31.000Y103.000
X35.000Y103.000
X39.000Y103.000
X31.000Y113.000
X39.000Y113.000
X26.000Y108.000
X44.000Y108.000
X95.000Y103.000
X105.000Y103.000
X95.000Y113.000
X105.000Y113.000
X90.000Y108.000
X110.000Y108.000
X120.000Y103.000
X130.000Y103.000
X120.000Y113.000
X130.000Y113.000
X115.000Y108.000
X135.000Y108.000
X81.000Y109.000
X89.000Y109.000
X85.000Y118.000
X78.000Y113.000
X92.000Y113.000
X129.500Y47.000
X134.500Y47.000
X127.000Y53.000
X137.000Y53.000
X129.500Y62.000
X134.500Y62.000
X127.000Y68.000
X137.000Y68.000
X132.000Y82.000
X129.460Y79.460
X134.540Y79.460
X129.460Y84.540
X134.540Y84.540
T4
X111.190Y33.000
X113.730Y33.000
X116.270Y33.000
X118.810Y33.000
X118.810Y37.000
X116.270Y37.000
X113.730Y37.000
X111.190Y37.000
T5
X71.190Y104.825
X73.730Y104.825
X76.270Y104.825
X78.810Y104.825
X78.810Y111.175
X76.270Y111.175
X73.730Y111.175
X71.190Y111.175
M30
